<mxfile host="app.diagrams.net" agent="Mozilla/5.0 (Macintosh; Intel Mac OS X 10_15_7) AppleWebKit/605.1.15 (KHTML, like Gecko) Version/17.6 Safari/605.1.15" version="24.7.8" pages="2">
  <diagram name="Page-1" id="ixfSBnDgnjhnLDGtUHjN">
    <mxGraphModel dx="943" dy="529" grid="1" gridSize="10" guides="1" tooltips="1" connect="1" arrows="1" fold="1" page="1" pageScale="1" pageWidth="827" pageHeight="1169" math="0" shadow="0">
      <root>
        <mxCell id="0" />
        <mxCell id="1" parent="0" />
        <mxCell id="v5uwHPY_rMlKOSk-OUPP-34" value="" style="rounded=0;whiteSpace=wrap;html=1;fillColor=#dae8fc;strokeColor=#FFFFFF;" parent="1" vertex="1">
          <mxGeometry x="50" y="410" width="730" height="360" as="geometry" />
        </mxCell>
        <mxCell id="v5uwHPY_rMlKOSk-OUPP-31" value="" style="rounded=0;whiteSpace=wrap;html=1;fillColor=none;dashed=1;" parent="1" vertex="1">
          <mxGeometry x="640" y="490" width="100" height="160" as="geometry" />
        </mxCell>
        <mxCell id="v5uwHPY_rMlKOSk-OUPP-18" value="" style="shape=image;verticalLabelPosition=bottom;labelBackgroundColor=default;verticalAlign=top;aspect=fixed;imageAspect=0;image=data:image/png,iVBORw0KGgoAAAANSUhEUgAAAqcAAAKUCAYAAAA5C5EHAAAKrGlDQ1BJQ0MgUHJvZmlsZQAASImVlwdUU+cXwO972YuVgICMsJcge8qeAZQ9XYQkQBghJgQBtyJWsA5URHBUtAqiYFWG1IkDB0Vx74IUBbUWBy5U+oBDaPtf53/f+d79nZv73fGd951zA8BQ54rFmagSQJYoRxIZ6MOOT0hkk/qADEpAAV1gcXlSsXd4eChgMq7/Lu9vAzKib1iOxPrX3/+rKPMFUh4AEo5xMl/Ky8L4KLbe8MSSHABcNWY3mJ8jHuF2jFkSrECMu0Y4dYzfjXDyKOPJoz7Rkb4YawGQ6VyuJBWAborZ2bm8VCwOPQhjaxFfKMI4D2OPrKxsPsbNGJtiPmKMR+I7J/8lTurfYibLY3K5qXIe62VUyH5CqTiTm/9/Hsf/lqxM2XgOY2zR0yRBkZjWxM7sbkZ2iJxFyTPCxlnIH/Uf5TRZUMw486S+iePM5/qFyPdmzggd5xRhAEceJ4cTPc4CqX/UOEuyI+W5UiS+3uPMlUzklWXEyO1pAo48fkFadNw45wpjZ4yzNCMqZMLHV26XyCLl9QtEgT4TeQPkvWdJ/9KvkCPfm5MWHSTvnTtRv0DkPRFTGi+vjS/w85/wiZH7i3N85LnEmeFyf0FmoNwuzY2S783BPsiJveHyM0znBoePM4QBH/JBij0CTLMhEBzBGqLADyBHkJcz0pBvtjhfIkxNy2F7YzdNwOaIeFZT2LbWtvYAI/d27LN4GzF6HxG19gnbASFAYPbw8PCyCZs5ZjvQA0A6OGFj4wBoBwGufOPJJLljNvzIiwBUUAQWaIAOGIApWIItVp8beIE/BGO1R0MCzAEepEEWSGA+LIRlUAQlsB42QwXshN1QDQfhMDTBcTgDF+AKXINb8AC6oBdewAC8hyEEQUgIA2EiGoguYoRYILaIM+KB+COhSCSSgCQhqYgIkSELkRVICVKKVCC7kBrkJ+QYcga5hHQi95BupB95g3xGcSgdZaHaqDE6FXVGvdEQNBqdjaai89ACtBBdi5ajVegBtBE9g15Bb6Fd6At0EAc4Gk4Np4ezxDnjfHFhuERcCk6CW4wrxpXhqnB1uBZcG+4Grgv3EvcJT8Qz8Wy8Jd4NH4SPwfPw8/CL8WvwFfhqfCP+HP4Gvhs/gP9GYBC0CBYEVwKHEE9IJcwnFBHKCHsJDYTzhFuEXsJ7IpGoRjQhOhGDiAnEdOIC4hridmI98TSxk9hDHCSRSBokC5I7KYzEJeWQikhbSQdIp0jXSb2kj2QaWZdsSw4gJ5JF5OXkMvJ+8knydfIz8hBFiWJEcaWEUfiUfMo6yh5KC+UqpZcyRFWmmlDdqdHUdOoyajm1jnqe+pD6lkaj6dNcaBE0IW0prZx2iHaR1k37RFehm9N96bPoMvpa+j76afo9+lsGg2HM8GIkMnIYaxk1jLOMx4yPCkwFKwWOAl9hiUKlQqPCdYVXihRFI0VvxTmKBYplikcUryq+VKIoGSv5KnGVFitVKh1TuqM0qMxUtlEOU85SXqO8X/mScp8KScVYxV+Fr1KoslvlrEoPE8c0YPoyecwVzD3M88xeFpFlwuKw0lklrIOsDtaAqoqqvWqsap5qpeoJ1S41nJqxGkctU22d2mG122qfJ2lP8p4kmLR6Ut2k65M+qE9W91IXqBer16vfUv+swdbw18jQ2KDRpPFIE69prhmhOV9zh+Z5zZeTWZPdJvMmF08+PPm+FqplrhWptUBrt1a71qC2jnagtlh7q/ZZ7Zc6ajpeOuk6m3RO6vTrMnU9dIW6m3RP6T5nq7K92ZnscvY59oCell6Qnkxvl16H3pC+iX6M/nL9ev1HBlQDZ4MUg00GrQYDhrqG0w0XGtYa3jeiGDkbpRltMWoz+mBsYhxnvMq4ybjPRN2EY1JgUmvy0JRh6mk6z7TK9KYZ0czZLMNsu9k1c9TcwTzNvNL8qgVq4WghtNhu0TmFMMVlimhK1ZQ7lnRLb8tcy1rLbis1q1Cr5VZNVq+mGk5NnLphatvUb9YO1pnWe6wf2KjYBNsst2mxeWNrbsuzrbS9acewC7BbYtds99rewl5gv8P+rgPTYbrDKodWh6+OTo4SxzrHfidDpySnbU53nFnO4c5rnC+6EFx8XJa4HHf55OromuN62PUPN0u3DLf9bn3TTKYJpu2Z1uOu78513+Xe5cH2SPL4waPLU8+T61nl+cTLwIvvtdfrmbeZd7r3Ae9XPtY+Ep8Gnw++rr6LfE/74fwC/Yr9OvxV/GP8K/wfB+gHpAbUBgwEOgQuCDwdRAgKCdoQdIejzeFxajgDwU7Bi4LPhdBDokIqQp6EmodKQlumo9ODp2+c/nCG0QzRjKYwCOOEbQx7FG4SPi/85whiRHhEZcTTSJvIhZFtUcyouVH7o95H+0Svi34QYxoji2mNVYydFVsT+yHOL640rit+avyi+CsJmgnChOZEUmJs4t7EwZn+MzfP7J3lMKto1u3ZJrPzZl+aozknc86JuYpzuXOPJBGS4pL2J33hhnGruIPJnORtyQM8X94W3gu+F38Tv1/gLigVPEtxTylN6Ut1T92Y2p/mmVaW9lLoK6wQvk4PSt+Z/iEjLGNfxnBmXGZ9FjkrKeuYSEWUITqXrZOdl90pthAXibvmuc7bPG9AEiLZK0Wks6XNOSxsQGqXmcpWyrpzPXIrcz/Oj51/JE85T5TXnm+evzr/WUFAwY8L8At4C1oX6i1ctrB7kfeiXYuRxcmLW5cYLClc0rs0cGn1MuqyjGW/LLdeXrr83Yq4FS2F2oVLC3tWBq6sLVIokhTdWeW2aud3+O+E33Wstlu9dfW3Yn7x5RLrkrKSL2t4ay5/b/N9+ffDa1PWdqxzXLdjPXG9aP3tDZ4bqkuVSwtKezZO39i4ib2peNO7zXM3XyqzL9u5hbpFtqWrPLS8eavh1vVbv1SkVdyq9Kms36a1bfW2D9v526/v8NpRt1N7Z8nOzz8If7i7K3BXY5VxVdlu4u7c3U/3xO5p+9H5x5q9mntL9n7dJ9rXVR1Zfa7GqaZmv9b+dbVoray2/8CsA9cO+h1srrOs21WvVl9yCA7JDj3/Kemn24dDDrcecT5Sd9To6LYGZkNxI9KY3zjQlNbU1ZzQ3Hks+Fhri1tLw89WP+87rne88oTqiXUnqScLTw6fKjg1eFp8+uWZ1DM9rXNbH5yNP3vzXMS5jvMh5y9eCLhwts277dRF94vHL7leOnbZ+XLTFccrje0O7Q2/OPzS0OHY0XjV6WrzNZdrLZ3TOk9e97x+5obfjQs3OTev3Jpxq/N2zO27d2bd6brLv9t3L/Pe6/u594ceLH1IeFj8SOlR2WOtx1W/mv1a3+XYdaLbr7v9SdSTBz28nhe/SX/70lv4lPG07Jnus5o+277j/QH9157PfN77Qvxi6GXR78q/b3tl+uroH15/tA/ED/S+lrwefrPmrcbbfe/s37UOhg8+fp/1fuhD8UeNj9WfnD+1fY77/Gxo/hfSl/KvZl9bvoV8ezicNTws5kq4o6MANh0AmpIC8GYfACMBgHkNgDpzbK4eFWTsv8AowX/isdl7VBwBGjwBgs8AWKwEaMfmd73V2AzSBhDOAIh2AdTOTr7GZ+DReX1EQi0BZK3WMS4R8G9kbJb/S93/1DAS1R7+qf8Eg0cKSANnXegAAABWZVhJZk1NACoAAAAIAAGHaQAEAAAAAQAAABoAAAAAAAOShgAHAAAAEgAAAESgAgAEAAAAAQAAAqegAwAEAAAAAQAAApQAAAAAQVNDSUkAAABTY3JlZW5zaG901WwpiwAAAdZpVFh0WE1MOmNvbS5hZG9iZS54bXAAAAAAADx4OnhtcG1ldGEgeG1sbnM6eD0iYWRvYmU6bnM6bWV0YS8iIHg6eG1wdGs9IlhNUCBDb3JlIDYuMC4wIj4KICAgPHJkZjpSREYgeG1sbnM6cmRmPSJodHRwOi8vd3d3LnczLm9yZy8xOTk5LzAyLzIyLXJkZi1zeW50YXgtbnMjIj4KICAgICAgPHJkZjpEZXNjcmlwdGlvbiByZGY6YWJvdXQ9IiIKICAgICAgICAgICAgeG1sbnM6ZXhpZj0iaHR0cDovL25zLmFkb2JlLmNvbS9leGlmLzEuMC8iPgogICAgICAgICA8ZXhpZjpQaXhlbFlEaW1lbnNpb24+NjYwPC9leGlmOlBpeGVsWURpbWVuc2lvbj4KICAgICAgICAgPGV4aWY6UGl4ZWxYRGltZW5zaW9uPjY3OTwvZXhpZjpQaXhlbFhEaW1lbnNpb24+CiAgICAgICAgIDxleGlmOlVzZXJDb21tZW50PlNjcmVlbnNob3Q8L2V4aWY6VXNlckNvbW1lbnQ+CiAgICAgIDwvcmRmOkRlc2NyaXB0aW9uPgogICA8L3JkZjpSREY+CjwveDp4bXBtZXRhPgogGqo7AABAAElEQVR4Aey9B3gV17X+/ar3XgAhQBQJRBNFgE11wTa4xiVxXIlb7CS2k9ybRu5z703+8Rec5KbYDu42YHCn9947poouigCBQAL1Xr+9NhwhCUnoNGl05t3Pc3TOzOy9Zu3fnnPm1dpl3GpUAhMJkAAJkAAJkAAJkAAJGICAuwF8oAskQAIkQAIkQAIkQAIkoAlQnPJCIAESIAESIAESIAESMAwBilPDNAUdIQESIAESIAESIAESoDjlNUACJEACJEACJEACJGAYAhSnhmkKOkICJEACJEACJEACJEBxymuABEiABEiABEiABEjAMAQoTg3TFHSEBEiABEiABEiABEiA4pTXAAmQAAmQAAmQAAmQgGEIUJwapinoCAmQAAmQAAmQAAmQAMUprwESIAESIAESIAESIAHDEKA4NUxT0BESIAESIAESIAESIAHP9oagrKwMGRkZ8PLyam+uu6S/bm5uiImJccm6sVIkQAIkQAIkQAKtT6DdiVNBFBwcjPDw8NanxTPeQCArK+uGfdxBAiRAAiRAAiRAArYSYLe+reRYjgRIgARIgARIgARIwOEEKE4djpQGSYAESIAESIAESIAEbCVAcWorOZYjARIgARIgARIgARJwOAGKU4cjpUESIAESIAESIAESIAFbCVCc2kqO5UiABEiABEiABEiABBxOgOLU4UhpkARIgARIgARIgARIwFYCFKe2kmM5EiABEiABEiABEiABhxOgOHU4UhokARIgARIgARIgARKwlQDFqa3kWI4ESIAESIAESIAESMDhBChOHY6UBkmABEiABEiABEiABGwlQHFqKzmWIwESIAESIAESIAEScDgBilOHI6VBEiABEiABEiABEiABWwlQnNpKjuVIgARIgARIgARIgAQcToDi1OFIaZAESIAESIAESIAESMBWAhSntpJjORIgARIgARIgARIgAYcToDh1OFIaJAESIAESIAESIAESsJUAxamt5FiOBEiABEiABEiABEjA4QQoTh2OlAZJgARIgARIgARIgARsJeBpa0GWs51AQUEBcnNz4eHhgfDwcPj6+tpujCVJgARIgARIgARIwIUIUJy2UmOWlJRg1apV2LFjBzIyMmrP6ubmhp49e2LMmDEYNWoU3N0ZzK6Fww8kQAIkQAIkQAKmI+BWo1J7qnVZWRmKiop0xLG9+H348GF88MEHkIhpc6lLly549dVXERUV1Vw2Qx3LyspqV/4aCh6dIQESIAESIAESuIEAw3Q3IHHsjt27d+Mf//hHs8L0qaeewrhx45Ceno4//elPuHjxomOdoDUSIAESIAESIAESaCcEKE6d2FDSff/xxx+jurq60bNIl35SUhLGjh2LSZMm4bnnntNR4bfffhsVFRWNluFOEiABEiABEiABEnBlAhxz6sTW/fbbbyHDEBpLU6dOhbe3t54UZTk+evRoSDf5okWLsHr1akycONFyiO8kQAIkQAIkQAIkYAoCjJw6qZmvXLmCffv2NWpdIqZeXl71hKklowjSgIAArF271rKL7yRAAiRAAiRAAiRgGgKMnDqpqVNSUrRliY6Wl5frzzIrPy4uDrGxsfD0bBy9LCs1bNgwrF+/Xo9BlbxMJEACJEACJEACJGAWAoycOqmlMzMzteXXX38dkZGR+rOML7VMfmrutDExMfqwdPEzkQAJkAAJkAAJkICZCDQevjMTASfV1TLWVJaF+u1vf4u//OUv2LJlC44fP17vjNK9//jjjyM6Orp2v7+/v/5cWlpau48fSIAESIAESIAESMAMBBg5dVIrh4SEaMuyPFRERIQWqFVVVTh48GC91969e3HgwIF6XkgZSRYb9Q5ygwRIgARIgARIgARcmADFqZMaV8aWSkpLS9PvFoEqjyttmBo+B0HKyJOiunXr1jArt0mABEiABEiABEjApQlQnDqpefv27atn3a9bt652AX4RqAkJCTec8dy5c7q7X9ZDPXbsmH4lJibq8jdk5g4SIAESIAESIAEScGECHn9QqT3VT7rGZYF6Pz8/Q7stkU95Sbd9fn4+hgwZov2Vfbt27arn+9mzZ7F582b9ZKiNGzeisLAQP/7xj9vFI1qLi4spouu1JjdIgARIgARIgATsIcDIqT30blL2rrvuQu/evbF161Z88MEHekH+wYMH44033mh0jdOdO3dqgTphwgTIslNMJEACJEACJEACJGA2AhSnTmxxDw8P/OxnP9NCc8eOHfjjH/+IpUuXQhbhlwhqY2nMmDF47LHHGjvEfSRAAiRAAiRAAiTg8gTc1GScmvZUS1miqaioqF10eVu4VlZWYsGCBVi1alXtgvyWY5b30NBQPPLII5BHmLanJGuxynJZTCRAAiRAAiRAAiTgCAIUp46g2EIbMvZUxqCmpqYiJydHPyVKJkn169cPAwYMgDxNqr0litP21mL0lwRIgARIgASMTYDi1NjtY3jvKE4N30R0kARIgARIgATaFYHGBz62qyrQWRIgARIgARIgARIgAVchQHHqKi3JepAACZAACZAACZCACxCgOHWBRmQVSIAESIAESIAESMBVCFCcukpLsh4kQAIkQAIkQAIk4AIEKE5doBFZBRIgARIgARIgARJwFQIUp67SkqwHCZAACZAACZAACbgAAYpTF2hEVoEESIAESIAESIAEXIUAxamrtCTrQQIkQAIkQAIkQAIuQIDi1AUakVUgARIgARIgARIgAVchYGhxWl1djSNHjhiS9aFDh/QjSA3pHJ0iARIgARIgARIggXZKwNDitLy8HHPnzsX27dsNh/ftt9/GwYMHm/TrwoULeOONN5o8bu+B119/HVVVVfaaYXkSIAESIAESIAESMBQBjz+oZCiP6jjj6emJ5ORkzJo1C/7+/ujcubMWZBUVFfDz86uTs/U/Ll68GAMHDkRkZCTWrVuHwsJCrFixQm+LN5999hmWLVuGjh07olevXvr4ggULcPLkSXTq1Ak+Pj5YtWoViouLsX79eoSHh+PAgQM4e/YsNm/erOtqqeP+/fuxdOlSeHl5ISoqSgv2GTNmICAgQPvg5ubW+gCunVH8Fz+YSIAESIAESIAESMARBNokcioRP4mKlpSUaNGWl5enu8gvX76MsrIylJaWatFWUFAAEaKTJk3CzJkzsXPnTkfU2aE2cnNz8dprr2HTpk1acD711FMQsWgRoB06dNB1ffnllyH1SUtL0/URJ0Rg/u53v9Oi88SJE3jllVdw5swZZGdn42c/+5n2UwTs//3f/2nR+/vf/14L4ZiYGHh4eKBLly4OrQuNkQAJkAAJkAAJkEBbE/BsTQeef/55BAUFaWHl7u6u30Vk1X1FRESgsrISluPyLi+JTEoXf1JSUmu63KJz9e7dWwtUySwiWkTo8OHDMW/ePAwePFgLVxk/O2TIEG1v9uzZuHjxov7897//HX369MHGjRtx5513QsStpE8++US/f/jhh3jyySfRtWtXTJgwAStXrsSbb74Jb29vjBs3TrPRGfmHBEiABEiABEiABFyAQKuKU4kiTpkyxWpsu3fvxqVLl/CrX/3K6rKtUUDEsyU11sV+yy236OindPtLuu+++2pFZU1NjaWojrhaNix2pk2bhn/84x84fvy4PiSil4kESIAESIAESIAEXJVAq4pTWyAePXoUCxcu1MLU19dXd/vbYqctysiQBEnSVS/DGH7zm99oAZqSkoLo6OgWufRf//VfuPvuu7WglSEE+fn5upyIV7Ev43KZSIAESIAESIAESMBVCFwP+RmwRjI2dc6cOZCZ6TIcwEhJJidJxFREony2JOlul33SDS/DE0RcyoSoZ599VnfPP/HEE7pO0s0v5SwRUrHV0I7YFEG7Zs0aXfaFF16AjM+VNH78eDz++ON6fK7ewT8kQAIkQAIkQAIk4AIE3FS38vV+ZSdXaPLkyVZ364uIq9ttLhOmioqK9Ox2J7vrEPMS3bSITqmLCG7LtjUnkHrLDP+6qa7tuvtb83NWVpZeQaA1z8lzkQAJkAAJkAAJuC4Bw/cJ1xWm7bEZ6gpRqYut9WkoTIVFXdvtkQ19JgESIAESIAESIIGGBAzdrd/QWW6TAAmQAAmQAAmQAAm4NgGKU9duX9aOBEiABEiABEiABNoVAYrTdtVcdJYESIAESIAESIAEXJsAxalrty9rRwIkQAIkQAIkQALtigDFabtqLjpLAiRAAiRAAiRAAq5NgOLUtduXtSMBEiABEiABEiCBdkWA4rRdNRedJQESIAESIAESIAHXJkBx6trty9qRAAmQAAmQAAmQQLsiQHHarpqLzpIACZAACZAACZCAaxOgOHXt9mXtSIAESIAESIAESKBdEaA4bVfNRWdJgARIgARIgARIwLUJUJy6dvuydiRAAiRAAiRAAiTQrghQnLar5qKzJEACJEACJEACJODaBChOXbt9WTsSIAESIAESIAESaFcEKE7bVXPRWRIgARIgARIgARJwbQIUp67dvqwdCZAACZAACZAACbQrAhSn7aq56CwJkAAJkAAJkAAJuDYBilPXbl/WjgRIgARIgARIgATaFQGK03bVXHSWBEiABEiABEiABFybAMWpa7cva0cCJEACJEACJEAC7YqAZ7vy9pqzRUVFqKioaI+uu5zPNTU1LlcnVogESIAESIAESKDtCLQ7cerj44MuXbq0HTGemQRIgARIgARIgARIwGkE2K3vNLQ0TAIkQAIkQAIkQAIkYC0BilNriTE/CZAACZAACZAACZCA0whQnDoNLQ2TAAmQAAmQAAmQAAlYS4Di1FpizE8CJEACJEACJEACJOA0AhSnTkNLwyRAAiRAAiRAAiRAAtYSoDi1lhjzkwAJkAAJkAAJkAAJOI0AxanT0NIwCZAACZAACZAACZCAtQQoTq0lxvwkQAIkQAIkQAIkQAJOI0Bx6jS0NEwCJEACJEACJEACJGAtAYpTa4kxPwmQAAmQAAmQAAmQgNMIUJw6DS0NkwAJkAAJkAAJkAAJWEuA4tRaYsxPAiRAAiRAAiRAAiTgNAIUp05DS8MkQAIkQAIkQAIkQALWEqA4tZYY85MACZAACZAACZAACTiNAMWp09DSMAmQAAmQAAmQAAmQgLUEKE6tJcb8JEACJEACJEACJEACTiPg6TTLTjJcUVmJwqJiJ1mnWRIgARIgARIgARIggZYQ8Pf1hY+Pd0uyWpWn3YnTmpoaVFVVW1VJZiYBEiABEiABEiABEnAsAdFkzkjs1ncGVdokARIgARIgARIgARKwiQDFqU3YWIgESIAESIAESIAESMAZBChOnUGVNkmABEiABEiABEiABGwiQHFqEzYWIgESIAESIAESIAEScAYBilNnUKVNEiABEiABEiABEiABmwhQnNqEjYVIgARIgARIgARIgAScQYDi1BlUaZMESIAESIAESIAESMAmAhSnNmFjIRIgARIgARIgARIgAWcQoDh1BlXaJAESIAESIAESIAESsIkAxalN2FiIBEiABEiABEiABEjAGQQoTp1BlTZJgARIgARIgARIgARsIkBxahM2FiIBEiABEiABEiABEnAGAYpTZ1ClTRIgARIgARIgARIgAZsIUJzahI2FSIAESIAESIAESIAEnEGA4tQZVGmTBEiABEiABEiABEjAJgKeNpVysUJXcmvw1bJqFBbXNFkzTw9g/K0eSOrt1mQeHiABEiABEiABEiABErCPAMWp4rd0YzUuK4F6s7RscxV6dfVEgN/NcvI4CZAACZAACZAACZCALQRM361/7HQNTp2/uTAVuGXlwNod1S3mXFNTg8zMTKQc2I99e/fiYkYGqqtbXr7FJ2okY25uLspKSxs5wl0kQAIkQAIkQAIkYFwCpo6cVlUBK7ddF4vdOrnhjhE36vWS00eRt3ujbkW3lGqUxk+Ab+fuzbZqbm4Oli1dgnNnz14t5+YGEavR0R1w3/0PICo6utny9hysUhX78P13MXbcbbjl1pFWmcq4cAEXLpxHqRK2HTt2RNducfDy8kJJSQlOnzqFvv36WWWvuczC4/DhQ+jVqxd8fHx1Vjl/dk62/uzl6YW47t3h7e2tt8+cSUNAQCAiIyObM9vosbKyMpw6eRLRHTogIiKi0TzcSQIkQAIkQAIk0PYETC1Odx2sQnbe1aipuxpKOmG0OzpG3jimtCaqF06ufRvllzN0i12aex7dXnujydYrLCzAzBnT4eHhgQcfelgLLHd3d5xPT8eWLZtQVa1UscGSiNGVK5ZpAdqlS1f4+Ppq4eju5o6HHn4ElRUVWLpkkcPF6ZJFC/H8iy/VitOUlP1IPX4coaFhqLh2ThHY8tq5fbsSy92aFadSj9TjxzBgYFIt4aysLHw+cwY6dYrB2Ntuq93PDyRAAiRAAiRAAsYjYFpxWlOZh/CqVapFvqdbZXBifWHq5eWJysoqHe10UxG8Dt97Duc+/rPOW3TyIPL3b0Nw0q2NtuiK5csg0ctnf/QcQkJCa/N079ED8jJiEp+LCgvxwksvIzAwULsokc3t27ZqkS3itLVSfEJv3H3PBH06ieJ+/eUXGJg0qEWnLyjI1xHr/gMGwk1FqyWl7N+HhN69ce99D7TIBjORAAmQAAmQAAm0HQHTitPKS1+jq9caJMTejrOZIbh9uLtuBYlwhgYHQt5FnBUWlaixpuUI6j8cgQmDUHh8n86XuWA6gvomw011eddN5SqvdB8PH3FLPWFaN0/Dz5cvX8aB/Xt19HCgivgFBQfXZpHo4dEjh3Hu3DkkJiaqKGyPWtElmaQbfN++PfDz80dM587IUmNcG3bli1A+dvQo0tJOoXfvRPRQAtlN1c+Szp9PVz6fwIt1hKkcE3F368hROpuMl62bKirKcfjQYRQVFUJ8DgwK0oePHzuK4OAQdOzUSW/n5OSooQ1nasVlcXGxGn+7Rx/r139AXZONfo6J6Qx/f3+knztb77icVyKsOdnZiFfCs3PnWOTn5+FgSorO992unWpYQifI8Iqz6vx+ysaunTsgotXPz0+XS0k5oIZZREPEsES5hdOe3d8hsW8/VbeD8PT0RAdlo7ysFO7qeOqxYwhXQwIGDR6CjIwLOHbkiDreEX0S++ry9RzkBgmQAAmQAAmQgE0ETClOa8ovoSpnnQZ2e5d3cbbb5NoZ+H6+3lqYykERZ/5+PlqcynaHh59H0d9+iRrVLV+efQm521chbMy9cqg2Xbp0UYtaizizHFi0cL6KxFZaNuHp4YkHHvoe1q1do0VTJyXmZFzk1i2bddQwadBgZGdf0cMDlCOIUV3Sc2Z/i/DwCPzo+Re0j0uXLFZi7ABiY7vgdO4p7NyxHd4+PvXEqZzzow/eg4hmEbbLli6GCL5HHvt+rS8Xzl/QIquuKK492MgHGUc7b+4cxHbpoqKsAfj0k4+0iB02fIQSynsRF9e9VpxezsrEtq1btTg9eeIEFi1cgJ49e2qxJxFRYdxUEmG+X9mT9x49e6nPV/8xkK77z6ZP18JSxu7K0AARjN179FTMro5Xzbx0CQEqAnzlyhWUKq7yj0Zm5iXdBqtXrdSCv2+//nqi2prVq/DkU8+o8awBuj1EmIrY7tdvANJOn1L/OOyHr6+Ptr916xacOJGq7SYqUSqRZflnRNqSiQRIgARIgARIwH4CphSnSnbWkgv1OIjITsvU9rUu3wYT9+tv1t8S0dgw+asIpqRSNYGobiotLdPjNmVfXp6aSa8Ek7wkijhm7Dgt7kRAybjOnSrCJ93YMsNfJgNJRNNLvYvgmj7tE4jI69ipo47u3TNhIkTIStRvlhpXKZHKuum4Gn9ZqLrrX37lp3qSU4USqSKuTivR1V2JVUnFxUU6Olm3XHOf9+zZjcFDhmi/JV9CQh/t99DkYc0V01HJkaNHY7gSsZKkfjLOtWESJpboaufYWEy8934dxbTk81XjYR/9/g9UZDoEuaq+IpJXrViho9Vjx41TfFJxr5p0JsK3r4qC5uWpIRxhYRijJojJxK4Dqpv/uRdeQpjaJ0n+cTigVlS49drksYTefWojxls2b1L/nJThpZdf0T74KPG/aeMGPPf8i3pSW7e4OCxaMF+vwiDRdiYSIAESIAESIAH7CJhSnLp5R8Mj7A5UZa/W9Koy58IjdCzcPENQotaL8vG5Gj0VsVhScn05povzPtVRUynkHdERobeMv4G+dPuKgJEuZxGNlvT9Hzxu+Yi5c2YrwVgA6QKXqKB0NUsSMdW//0AcOnhQd9cfOpiionf9tTCV4zLTXF6HDqXoqKrsk+ifJOmW7q1E1fbt2/S25c/Rw4fhryKCErG8qKK6fVSep56ZpLrBO1uyaJEl3f4tSeLvidTjmPTc87XZRaDJElnnGnS912ZQH0QUpqWdxj0TJ9bu7t2nT6PiVASlCHZPNe5XZuc3lnaoeooIlUhyQUGBHl4gY2ZvlkSsR0VF1wpTyZ+Y2A8STbWIU+nmr5skMi1d/JIkUis8LastiC2J5Er9JPLKRAIkQAIkQAIkYB8B04Z6PDv8AG4eV6OcNVXFqLz0lSYpIis7Nx95BYX6vaz86kSggpQdKDq+v5Z2h4cmKTFbf7ypHBSBOXrMWJw6dVJ319cWuPZBopYiqpKSBqsxorF6r4xftCT5LNHSyKgoPYY0o85YT4m0Sre1jK+U8aXiq3RVW5JEVhsmyVdcVKS6xXviJz99Ffc98CCiGizF1F0t11SuooOyHmvDJFHVuqJPlpUKCw/XUVxLXpmEJL5FRkYp3310pNZy7Mq1bnaJdgarsbQyJtaSslSXf2NJhiaEhIY2KUxlSaszSui+ouojk84efvRRbaZBXLsx03opLxkuUXeIhTAU0W9JFiFq2Rbhb0luKuru4V5nu5HouSUv30mABEiABEiABKwnYMrIqWCSKKlHtFoiKWOWplaVsx4e4XfD3a+73q6ouD4+tKayApfUBChLCug1AEEDG5+pL3mGDE3WE2ZkPOmJ1FTIWE8PD7WU1PnzOuooa3cOTErSQlaWRlqzahXycnN1BE66zPv1768F6uDBQzH726+xWI2p7KbWGz1wQI25VNFcy6QeEYNLFy9G8rBhegxkqopoelyL8Fl8HaCisps3bcTFixkIPxuuJgedxRG1tugzk56rjR7KZKq775mIxYsXavErYym9VfQ4/Vy66sJeD4lw9u17NUIrdsXm9m3bdAQxUEU2pZtbxntK5FAmW8m42f5qslOpmki0X3XdSxLRLhOgtmzerJepEsG3eeNGfczqP2o0hQhziZjKEIn169bWmpAlqETcS1Ra1miVyU91k4ztlbG1a1avxIhbbtUiW4YQ3HVtdYC6efmZBEiABEiABEig9QmYVpwKas+Iiaprfw1qytRM9JpqJVSnw7PDD29oheyt+2vXOHVT637KxKjmkgix+x94SC0un6DHWW7fvhXVakxoREQkbr/jTsjYTMkj6f77H9STiGR2uYiqUaNGqzU6r3bzy7JT31NrjMpEoNWrViiRmIg77hhfK7hkUtPu73Zh44b1eihB167dtCgW0xJ5lGilTAqSyT57lehdsngRIlTUdNxtt9cKU0s9ZKmlp0OfxYb162onIclMdpnkJP5evpxVu/rA4CFD9cL8Ir5L1Ox7GR8rE5IkyXjNixcv4ovPZ+olqUSoyzAASbKCgaeKvC6cP09PUJKVAKQ7vG4kUoRyUylATb6S9VdlrKzMkP9SnUOinLcoOyJUZcynRHaF8SYlyLuclmEE9yJAzdT3rSNSH37kMd0un02fpqO9t6n8PdWEK4mmCre6Y0c1w4DrPslQA4kAW5K0o5SxtKdlP99JgARIgARIgARsI+CmxlW2pDfUNusNSk2ePBlTpkxpsNe6zXI15jG/oMi6Qs3krs7/DuVn/tZkjuryYJz7phBVZSU6T9itd6PT4z9tMn9jBwSxvOqKnob55HhzAkcihQ3LX1DLSEWoLnaZLCXH5nz7jRp7WaS7uhval+3GbDSWT/bJBKu63dlN5WvKZlP7xU5zx5o6T2P77bVjb/nGfOI+EiABEiABEjALgUB/P72ajaPra+rIqcB0D06Ge+BAVBceaJRtzsFoJUyz9DEPXzUR5t6nGs3X3E4Rnc0JTyl7s+MNhamsFzpXLS0lj+KUbn2JVsqEo5Eq8tpUamijqXyyvyXCVPI1ZbOp/c2VkWPWpObO0RI79pZvyTmYhwRIgARIgARIwDoCpp0QVReTV8zzcPeNVeNQA+u9Ksvi1CSoc/DwD4RXcDg6PvYSPINC6hZts8+yML1MBPLw9MAC1U0us9dlLKp0nTORAAmQAAmQAAmQQHslYPrIqTScm08neMf//YY29FF7EpJv2G2YHTJr/wePP6FnysvYy5ZGOw1TATpCAiRAAiRAAiRAAg0IUJw2ANIeN2VdVSYSIAESIAESIAEScAUC7NZ3hVZkHUiABEiABEiABEjARQhQnLpIQ7IaJEACJEACJEACJOAKBChOXaEVWQcSIAESIAESIAEScBECFKcu0pCsBgmQAAmQAAmQAAm4AgGKU1doRdaBBEiABEiABEiABFyEAMWpizQkq0ECJEACJEACJEACrkCA4tQVWpF1IAESIAESIAESIAEXIUBx6iINyWqQAAmQAAmQAAmQgCsQoDh1hVZkHUiABEiABEiABEjARQhQnLpIQ7IaJEACJEACJEACJOAKBEwrTquqqlBTU6PbUN6rq6tr21OOWZLstxyTfHWP0Ybr8qi+4fq4fk3UvQaauz5utHHza0yuu7r2G15jDY81dp02tCE+1r3WbbPR4PtS5ztS18e6PKz1w+IjbVy9Bsij/nfOwqOm5vpvcmPXmFw/kiR/w2u91kad3/XGbNS0xMZN7hvi5039uImNFtWFNnQ717aty/Go/z3QF5X6U/d3suG1fvN7z3XtY7FntHePP6jUWk6tWbMG48ePt+t0VepHo6y8wi4bJSUl+OubUyDPpI/t0gVLlyzGhvXrMDR5GM6dO4tPP/4YHTt2QlhYGKZ/+one16dPIvbs/g7ffP0VBgwcoC6MGrw79R31Cwh0UTaWLV2CdevWIFnZSE8/p2x8hA4dOiIsPBwzpn2KM2fOoE9iIvbu2Y1vvvoK/QcM0HWY+u+3UaNsdenaFcuXLcXaNauRPGw4zp9PxycffYTo6A4IVzY+mz4NaWmnkZjYF/v27sHXX32Jfv37w83NDe8qG8Klq7KxYvkyrFm9Stu4cP68svEhoqKiER4RgZkzpuPUqVNI7Kts7NuLr7/8Av36KRvu7srGO6hUgqNr125YuWI5Vq9ciWHDhyPjwgV8rGxERkYhQtmY9dkMnDx5An379sP+/fuUjc/Rt18/eHh4QOpSWVmJrt26YdXKFdrOsOEjcDEjAx9/+IEqH4mIyEh8PvMzpKam6nIHDuzHV198rn3y9PTUdamoqEC3bnFYvWqlrs9wZePSxYv4SNkID49Qvigbs2bi+PFj2v+UlAP48otZim9feHl56bqUl5ehW1ycZrF82RJVlxHIysxUNt5X7RqOyKgofPH5LBw7elRzPHgwRW/3Vu3s7e2t61JWWoq4uO66TaR9tY2sLG0jNDRMcY1S5/0cR44cRv/+A3Do4EFlYyYSevfR15a0i1xrcd27Y93aNeo6W6Tb5fLly/jwg/cQEhqq2+Yr1Q5HDh3S14TY+FzZiE/oDV9fX12X4uJidO/eA+vXrcUSZWOYuj6uXLmibQSHhKhrJFpfD4dUHfoPGIjDytbnsz5Dr/gE+Pn56boUFRWhe48e+jpfskhsDEN2TjY+eP89BAUH6+tMru2DBw6o63sgjhw+jFlio1c8/P39tR+FhQXo0aMnNm5Yj0WLFui65ObmKBvvIjgoCNEdOuDbb77GAXVdDBiYhKNHjmDWzBno2bMX/AMC9PelID8fPXqKjQ1YtHCB/s7l5eXi/ffeRVBgoP7OzP72a+zfuxcDk5J0+8xUNqRMgLLx3tR/Iy8vT9vctFHZWDBf28hX+z54b6rO06FjR8yZ/Q32qu/JwKRBOH7smL72pf6BgUHKxjvIzc1Fz169sHnTRixYMA9DhyajoKBA25D6yvd/7pxv9Xc+SdlIVdfaZ+r7I20ZpOr63rv/Rk52tuazZfMmLJinbCQPRWFhId5Xx/z8lI1OnTBv7mx8990uJA0arK754+p7PF1fl0FBwarOU3U79oqPx9YtmzF/3hwMUX5IW73/7lTV/n7opGzMnzsHu3btwCBl48SJVP1bIN+xYNVuwv6Kuialrbdt3aLONweDhwxV112xqudUdR36olNMjPJvLnbs2I5Bg4fo7++MadPUb85VG3ItyncjPiEB27dtxVzl82CVr1Rdu8Lb29sHMcrGwvnzsH37Vn3s1KmT+ncttktXhKhrUL5XmZcuaRs7tm/D3Nmz9blK1XdIWHl5eSOmc2csVO0lfoqPp0+fUr+vnyI2tou2Ib8RF9X3PEFd+zuVr3Nmf6u5lZeX62vH09MLnZUNuW62KF5DlA35TZTf6M6dY/X3SX7vMtTvTULv3ti1cwfmfPuNvgbkN0V+rz3Ub4zkXbxoIbZs2qR4D8WZtDRMUzZiYjojVH0n5bf7/IXz6K2+x9/t2olv1fWYpK7FyopKbcNd/dbFxsZiyeJFkGtQ2uys+n2f9snHqr1iEKruG/I5PT0dvfv0wW7V/vK9GKi+EyKW5bfWzd1N11vuPRvXr1fXTjLOnVX3HlWusXvPbnXv+VbfewZqUaJtuEHfv+S3SX4b5P6Vfq7pe8+eRu49SsGr+9fVe886dX9OVr8L55XfnygGlnvPjDr3HvlOfaPuPf3VvUeS/MaJSJL7V6P3HvXbJL/Z8t05Xe/eI/evfur+dfXeI1wa3nsuqHuPtKf8Vsu9Z2Zz9553Gtx7Vi7Xv9dyLeh7j7pnyP1nlrr3nLTce/are4+6fyWqe5nl/tXYvUeuSbEh91DLvUd+D/qqe2eK+r386ou69563Ider3Hv0/WvZMn0fzcy8pO9fogfkXir3ieOWe0+KuveIDbn3qPvXVHV9lJVdvffIvXyZ0gVX7z2W+1eYZiL3vKNHjyiOcu+5dv9S16y3j4/+zZfvr/xeiaZYtuTq/evy5Sx133hfX+eiC+S3UGzbk8RnuXc7OrkpxX1VQjvaciP2Jk+ejClTpjRypOW7ytWPTH5BUcsLNJIzW91U5Af/+RdfauQod5EACZAACZAACZCAaxOQf1ofevgRuyoZ6O+n/pH2sctGY4VN2a0fqCI0ySoqyEQCJEACJEACJEACZiRgrzB1JjNTilPptpUuFiYSIAESIAESIAESMCMBGc5o1GRKcWrUxqBfJEACJEACJEACJNAaBGQcslGTKcWpTMr49puvjNom9IsESIAESIAESIAEnErgtdd/4VT79hg3pTiV2ZbBwSH2cGNZEiABEiABEiABEmi3BJwxy95RMEwpTmVJmnsmTHQUQ9ohARIgARIgARIggXZFQJaEM2oypTiVdchS1PqaTCRAAiRAAiRAAiRgRgKyDrBRkynFqSyUvWvnTqO2Cf0iARIgARIgARIgAacS+OGTTzvVvj3GTSlO5YlLP/jhD+3hxrIkQAIkQAIkQAIk0G4JyNMtjZpMKU6lMeQxl0wkQAIkQAIkQAIkYEYC8phkoyZTitOcnBz17PFZRm0T+kUCJEACJEACJEACTiUQy8ipU/labdzf3x9JSYOsLscCJEACJEACJEACJOAKBO5/4EHDVsOUkVMfHx8MTU5utlFKS0pw9uwZ/ZJIa01NTbP55WCRmmhVWFhw03zMQAIkQAIkQAIkQAJtSWDb1i1tefpmz21KcVpcXIx1a9c0C+ZCxgXs3LEd2dnZ2LF9GxYvWthsfjlYXlGOoqKim+aTDJJv08YNLcrLTCRAAiRAAiRAAiTgSAJbDSxOPR1Z0fZiq7KiAhcuXLipux06dMSgQYMB9fr0k49QWlqKzZs2orq6GiNHjcalSxdx6sQJdOjYEf36D0BBfgEqqyq13e++24XLWVno3bsPuvfogdzcXOzbu0eXTU4ehr3q8/59e9G5cyx69Ox5U1+YgQQcTcDd3R1enqb8CXA0StojARIggVYlUIMalJdX2HXOn736ul3lnVnYlHem4JAQPPX0MzflWlCQj/Pp6cjKyoS/nz/kUV8nT57AD594SnfhHz50EA88+D21ZuoOtaj/AbUCgCcqlPCVPIUFBZgw8V7MnTMb0R06YPmypfjew4/obv/9+/dh8JChyM/PozC9aSswg7MIBPj5wsfH21nmaZcESIAESMCJBPLyC1FReTUgZstpfH19bSnWKmVMKU5bSla63i9duoSw8DA8+v0f6GKhoWEIUeI2ODgYR48c0eJ0qIqE/vPvf9NiVDIFBgbiYMoBFBerLn41VlVEbqaKssqFIK8xY8cpYZrfUjeYjwScQ8DtqtmCcvU/+M2HVDvHB1olARIgARKwioCflxu8HDAoMz39HGJjjbnWqSnFqUQ3T5xIRWJi32YviI4dO2HI0KG1eSrr/Idy/ny66u1XXf4qHTqYgnG33V6bT7rzR9xyK4YNHwGZTCViNio6GlJehgacSD2uIqa9dBd/bSF+IIE2IlBaRXHaRuh5WhIgARKwmoAakaXEqYouXAswWG3gWoEvP5+FX/92sq3FnVrOAdrbqf45xbhEMrduaX6Wmo+PL4KCguqd383NDfJ0KUny34aI1xXLl6FEzexPkrGp11Kfa6J36ZLFOKC68GWm/x13jseG9euwZfMmxHbpqqOrburK+uubf7YU4zsJkAAJkAAJkAAJtAqBRx77fqucx5aTuCnh1GodepMnT8aUKVNs8bO2TLmKeuYXtGxGfG2hBh+kyjJBKSwsrMER2zdlkpSIz/CICK6hajtGlmxFAkGB/vDx9kZWSTW79VuRO09FAiRAAvYQ8Ffd+oHqlVegxpxW2D7m1B4fLGUD/f3UcEUfy6bD3k0ZOZUIqIwZdWSSMaSBKtLar28/R5qlLRIgARIgARIgARJwOIFPP/7I4TYdZdCU4jQ3NwczZ0x3FENtJzQ0FMOGDYenl5dD7dIYCZAACZAACZAACTiaQKgDe48d7Zspxamvrx/6JCY6miXtkQAJkAAJkAAJkEC7IPDIo48Z1k+TilNf3HLrSMM2Ch0jARIgARIgARIgAWcS2K0eFmTUZMqlpGR2vTTK6DFjjdou9IsEDEngUlYV5iwpRG5edZP++fu5YeId/ujdiwv8NwmJB0iABEigjQmsW7sWsk67EZMpI6flZWXqKU4njdge9IkEDEugWq3rsWB5Ia7kVKFKbTT1KiiqxsKVRSguabWFQAzLjI6RAAmQgFEJvPyTnxrVNZhSnIaoyUvPTvqRYRuFjpGAEQnsTSnDpctVLXKttKwG67cWtygvM5EACZAACbQ+AW+1lKBRkynFqaxJevnyZaO2Cf0iAcMRuCo2S6zyS4tZNQyAiQRIgARIwHgEpr7zlvGcuuaRKcWpLCW1cME8wzYKHSMBoxHYuL1EddNfH2favbMnBsR7o3O0h3Y1PMRdbyf2uD6MXYYBrNzA6KnR2pL+kAAJkIAQMPLEcFOK0+DgEIwbdzuvThIggRYQuJJdhe/2ldbL+eAdAfjxD4Jx/zgfDExwxz2j/PT2c48Eo6L8+hPc0s5V4OiJ8nplG25s27BGP+LXsn/X1o0oLy/D6qULsHrJfMjxK1mZ+rA83e3s6RNYs2whjh7cj6rK+k9HWb9iCSqv7SspLkbKnsZno0qe0lLrIsEW/yzva5ctQm72Fcsm30mABEigXREYOWq0Yf01pTj19PREr/h4wzYKHSMBIxGQ6GfV9aCpds3y1GP1sDV4uleofddFYlVVRT2BunpjMSqrmp4cVVRYgPQzp7XdkpJinDhyCN7ePjh/Ng2j77gH8Yn9sHLhHOTlZOPAnp04digFt465A4UF+di2cW09VHt3bVNidrXeJwI37eTx2uPl5eW1IljOt3PzelRXVemXZJLhPpZ6Van9llRWR8Ra8sikSrEv25IsgthShu8kQAIkQAK2EzClOBVclpuQ7ehYkgRcn8DFzCqcSBPxWT+992UODqYW490vMrB1bwFmzs/U27/9W5rOWFeg5qhlpw4dbTp62i9piI6CSsHUwwfRZ8AgbcPdzR2+fn6IjO6ITrFdkXXpIo6m7MeYOyfAPzAQQ0aMQueucTqv5U9kVAed71LGecsu/b5l7UqsUVHYuZ9Pw5XMSyqiuhPnTp/CxYx0zP1yhs6zctFcHFfnF+G56JvPUaqWnJv/1WdYs3Shfi8rLcV2JYa/mfERUvZej8huWLUUh/bvrnc+bpAACZCA0QnMmnn1t8+Ifl4fIGZE75zkU15eLhbMm4dnf/Sck85AsyTgGgSaindWVHmof/DcUV5xNYdERqvUq6T0eohVBCpUF7+Xd4CKMDbNQ4Tn+pVLdBRSxOF9j/5QZy7Iz8Pa5YtQXFiojlWhW8+7kXrkoBasksHd3R3deyXcYHj8fd/DkjlfYcJDV59+UlJchLRTJzD+vodUhDYNqUcPYdCwW3FG7YuJ7QYv9cjhsrJSLUol0uqlZrB26xmPIwf2okd8HwwcOhx7d26rFdAjxtyOOHV8+YLZOvoaGh6BpKEjbvCDO1yDgHuNRNGb+ia4Rh1Zi5YTqHFTv31QXUYukDw9jfu4dVOKU+ky7N6jhwtcWqwCCTiXQCc14alnNy+cPFM/evrqkyGIV/t/+lQnbNyZh/4J/hiQEIB/Tu6OX045XeuUCNRg71L07xNWu6+xD92VCDy0bze8fXzg5++vswQEBuEWJQQ9vbxVN//VJU9kCIC85FhlZYWOdPYdOLieyeCQUCQOSNLCUQ7k5eRoIXv+7Bm4qXEIDaOt3XrEY+em9Vpwnj93BmdOpqqo7EhcvJCOw0qgijiN7dYda9U41y5xPbQNywnLVJQ15wpX/rDwcMX3igI1rliNdZbhYEzmJlBUVITAkDDU+AS5BIgfPvGkYethym+bn+oqHDN2nGEbhY6RgJEI3DXOH6dn5dWLfrq71yjBB/h6uyEy3AtBAR5628PzxojCnWODVXTyxv116ygCc8Z7/8LE7/2gdrdERv0DAmu35UP/wcmQ7neJXh47eABBISH1jls2kpJvwdfTP1QiNhBRHTvq3ZHRHdRY2HJ4KJHhrkRqvlq1Q7rwe8T3xrSp/8CLP/+tPrZ3x1bcPuF+FKuIq4w9zUg/i81qWIDsO3H0sOUU+n3Mnffg8P49qpv/OwxQvjG5JoGoqCiKU9dsWqtq5a/+cS4pvz6+3qrCBsyccmA/BgxMMqBngMcfVGotz9asWYPx48fbdboq1T9YVl4/imOtwVI1dkweXxob28XaosxPAi5DwMfbC54eHiiubL7LMsDfXT/t6cLF6z/K+QVlOHKyEHsOFalXITKyKnAuowwHjhYh/eL18aVdYnxw/z2RN+0E8/H1RYASovF9++sop0D2VN3t0R071eMt40/DIiKRnnYa3eMTkNB3QL1IpqWMREglyhkQGIwINQ61Z0IfPelKxprLUICAoGAdgZXzhkdGISQsHDFduiIkNAxhqptezhGkVvWQ88m5ZBiA+OKueEkeH18/LWTDI6IQp+xlXrygjsfU86We49xotwRqyooQoESJ/LPEZG4CFRUVanKnmjjp6dOmILw83OCtXmXqn23LpExbHPpsxnSMsnPGvrf6nXZGr4Kb+rFu/s5kS42bKDN58mRMmTKliaMt212uLo78gutL1bSsVP1css7pvLlz8NzzL9Y/wC0SMBGBoEB/+Kju8iy1funNfgVKSmsw9dNclKgnP1lSZUWJ6lovs2ze8C6x0pcnxaBLZ98bjnEHCbQXAlX5mYiKjHTKDbi9MKCfVwlIt75ETqvbuFvfX/VEBapXXkEhKiquBw2sbafs7GyEh4dbW6xe/kB/P/j6Ol6sm/JfwVAV+Xjm2R/VA8wNEiCBpgn4+bph7K1+9TJ4evmpG3bTP0oD+wVSmNYjxg0SIAESMA6BkCaGRRnBQ1OKUwkWF6oZwEwkQAItJ5Cc5KvGl159IpSlVFMC1Vv9V3/P7fb9R245B99JgARIgAQcT+Cdt/7peKMOsmhKcZqjFvOeM/tbByGkGRIwBwEZcvfgPQEI8Kv/s9FQoHqpSVH33x2JkGBPc4BhLUmABEigHRIYNHiIYb025d0jSE2GGDlypGEbhY6RgFEJdO7oiV++HKoG4l8fe3rVV7W8yrWBq95e7lDzhphIgARIgAQMTOC22+8wrHf1QyCGddOxjsmi24l9+znWKK2RgEkIqInw8PVxu+Hl5+sOeVGYmuRCYDVJgATaNYHVq1Ya1n9TilPDtgYdIwESIAESIAESIIFWIHD40KFWOIttpzClOM1Xj0X88vNZthFjKRIgARIgARIgARJo5wRe+/kvDFsDU4pTeZ5sh2tPjTFsy9AxEiABEiABEiABEnASAXlYiVGTKcWpPILsjjvHG7VN6BcJkAAJkAAJkAAJOJXAsaNHnWrfHuOmFKdl6nnae3bvtocby5IACZAACZAACZBAuyWwcMF8w/puSnFaXFyEffv2GLZR6BgJkAAJkAAJkAAJOJPAM5N+5Ezzdtk25TqnYWHhePKpZ+wCx8IkQAIkQALOISCr6NZUV8NdnvygUrX67KY+ywi5q+vp1sDN7XpsRY7Xy6vG0sl4Oskrr+vHqtTn64vwartN5r1uUzthwx85d1Pj+uRYSUlJPauenp7w9vaut48bJOAsAh0NPPfm+rfbWbU3qN2qqkqDeka3SIAESMDcBHZuXo+ZH05FWVkpitSjpt9+8/9h97bNGsriOV9j2ntv1wLat2u7Ov5H5Oflory8DP/+65+wdcNafXzl4vn48K2/6c8Z58/hrSl/xIljh/W2CNN3/+/PWL9qmd7eoN5lW/ZfycpUef+Awwf26mO2/Fm9ejW++uorba+x8iJaJc8f/vCH2teyZVd9aSw/95GAowm889a/HG3SYfbc1H9vDR/14jDjDQ1NnjwZU6ZMabjbqu3yigrkFxRZVaZh5uzsbMyfNwfPv/BSw0PcJgHTEAgK9IePitJklVSr6JJpqs2KkoBVBKryMxEVGQmJarY0icD99NNPcfz4cQwePBiPP/54bfS2oY1Zs2bhwIEDeveoUaPw0EMPNczCbYMQKCoqQkl5Jap9gtrUI38vNwSqV15BISoqbA+0rVyxHHffM8GuugT6+8HX18cuG40Vbvm3rbHS7XRfYGAgkpOHtVPv6TYJkAAJkICRCcgwgkmTJmHGjBnYu/dq9LUxgXrixAkcOXJEC1cRtDdLK1euhHTFDhw4sDbrihUrEBMTg/z8fOzatUvvj4qK0o/o7t69u94uLy/H9u3bsWPHDiQlJWHMmDHw8/OrtSEfPvjgAz3MwNfXF0OHDsWgQYMgT1O0J7333nt48cUX7bZjjw8s2zQBe4Vp05btP2LKbn0Z0zMwaZD99GiBBEiABEjA4QQOH9inu9YdbrgVDYqwE4GakJCgBWrDLn4RptOmTdNjUl966SUtGG/mnqw08+GHH9Zmk47PP/3pTwgNDcXWrVtx+fJlHamV/WJz/fr1Ou8vf/lLTJ8+XYtOEcsvvPDCtbG7tabw8ccfo2/fvoiLi4NEc3/9619fP2jFJxG+liTi2IPPM7bgMNz7xg3rDeeTxSFTRk4lNL9l8ya7w9kWiHwnARIgARJwHIG0k6nwUkGEiKhoxxltA0sWgSoR1P3792PEiBHo2bMn6grT5557Tu+T/efPn2/Wy7vuugtvvPEG5B4WEBCgI6WxsbHo0qWLLic2xo0bpz+Hh4djzpw56NGjBw4fPoy1a9dqIXzHHXfglVdeQXp6em05y0lHjx4NWQdczjNgwAA9XrayshIyFnbDhg249957cfvtt2vB+d///d9aGEtZEbPJycn45JNPkJWVhd///vf485//jG3btmlbEt2tqqrCsWPHUFBQoMVx586ddbR35syZKFTjivv06YOgoCCIf0ytQ2D3d99h7LjbWudkVp7FlJHTavUlyc3NsRIVs5MACZAACbQGgbsfeBi9eie2xqmcfg6LQJVoZVPC1OKECLbmknS5i3iTiVSSFi1ahEcfffSGIhI5/U4JDzmfDBuQLvq6qwa8//77NwhTixERo/Pnz0evXr30cIM//vGPSElJwWuvvYYlS5ZAuuolLV261FJEnyszMxMiWEXc/u53v9PHli9friO0R9Vi7yJgH3vsMURERODf//63Pv7Tn/5Un+PJJ5/UQjo1NbXWJj84nwAfX+p8xladISg4GD94/AmryjAzCZAACZBA6xCQyUd1xVTrnNV5ZxGBKt37J0+e1N3rUrfnn39ei0drz/rII49g8eLFEBEp3fYTJ06sNSHRSjkuwwmkq18EsYxlbWnXukzGevrpp/HOO+/go48+0nYl6vmb3/wG0kX/q1/9Sgvi2hM2+BCs7q1SN3lvmCZMmKAFsYjrs2fPqpUYyiCi9Sc/+YneX3c4QMOy3HYOAWsm+TnHg6atmjJy2jQOHiEBEiABEmhrApcyLkAeluJKSYSpjDGVJMJUutttSdJ9npaWpiOX8lkm+FqSdKfPnTsXn332GV5//XXdTS7d/qdOnbJk0e8y/jQjI6PePtlYsGCBjnCKmJaudkkibi0ixsfHR4tifcCOPyJgpZtfzsPUdgRON7gu2s6TG89sSnEqMxdTri3dcSMS7iEBEiABEmhLAru2bsS50/UFVVv6Y++5GxOmMrP+yy+/bHId1KbOKcLu/vvvh3S3S5T0Zql///66a12EsURbN2/ejC+++AKRanmsxpII0Z///Of4y1/+og9LRFO65EVMyvJYMh5VUlhYmI58Hjp0SI+n1TvVH8knUdGbJen+l2EMMp5VJnLJmFim1iUw+9uvW/eEVpzNlOJU/iPctXOHFZiYlQRIgARIoLUIjBhzG7r16Nlap3PqeRoTpnJCGccpM+cts/ivXLmiJx21xJmHH34YQ4YMgayLakldu3ZFp06dLJu17yJmJVIqSSK2u3fv1iKzYdRSlo+yPEnrvvvu02NHpftdhgqI4Hz55ZcRp2by/8d//Ie29Qf18IC//vWvOlIrk6RkGIEkWTpKxLMksSnnl+it5WlEIkoTExP18alTp+rlrd58800tVPVO/mk1Aj984qlWO5e1JzLlIvwCSWYMysxAJhIwKwEuwm/Wlme9rSFgyyL8FvtNCVM5LlFMmcUvM9gluimz5/v162eqRfglaip1F+EqwlnGn44cOdKCz3DvrrYIvyMAO2sRflNGTqVB+PxiR1yWtEECJEACjidQoYZeteLDCx1fAWWxOWEqJ5Tuc5m4FB8fj4MHD6oVZHKd4oeRjYoo/Z//+R8tSiXaamRhamSOtvr2wXvv2lrU6eVMuc5pTk4O5s+dg+deeNHpgHkCEiABEiAB6wisXDwf8Yn9kKBe7THJJCJZY1RSc5Of8vLy9Lqg7bGOjvBZHu1qmSTmCHu0YR2BzrGdrSvQirlNKU5lzMsA9Qg3JhIgARIgAeMR6KnWOI1sxwvwy9hNEaUyfMzyCNGGlCUyvGfPHh05tRyTcaNMJNBaBO5/4KHWOpXV5zGlOJXlMJKTh1kNiwVIgARIgAScT6BPvwHOP4mTzyCz4ZuaES+nlolClpnvTnaF5kmgUQLbt23FLbcac4yvKcecFhcXY906LlvR6NXKnSRAAiTgQgSWzvsWS+fP1jU6efwopr33FnKzr+gxrbM+fhc7t2zUx+R91kfv6v25OdmYrvJJfiYScFUCW9SyYkZNpoycVlZU4IKaGclEAiRAAiRgPAKb1q5EXI94dInrbrNzIja7dOuOcXdNqLXRrUcvPBQRiZCwcB25fOCxJ+Dr66ePJw0d0aZmdgAAQABJREFUjt4qYisRzZDQMDz4g6cQHKKWRyrOri3PDyTgSgR++uprhq2OKcVpcEgInnrmWcM2Ch0jARIgATMTcHf3gJu7m10Isi5d1OKyU2yXWjsyQz5ciVNLEhFqST7qufXykiQC1ZKvypKB7yTgYgSqq417dZuyW19mUmaox+MxkQAJkAAJGI/AqNvuRGzXOLsc65HQG9Edb1yU3i6jLEwCLkTgvXenGrY2phSnuWopqaVLFhu2UegYCZAACZCAfQQS+ychPDLKPiMsTQIuTGDcuNsNWztTilPp1r9z/NXnAxu2ZegYCZAACZiUwOED+3AlK9Ou2p84dgR5amITEwmQQOMEhg0f3vgBA+w1pTiVcUdxdgy0N0C70QUSIAEScFkCaSdTkX0ly676HTuUgozznPhqF0QWJoE2ImBKcSqsq6qMOxC4ja4FnpYESIAEDEHg7gceRq/efe3yJSQsDIFBwXbZYGEScGUC0z752LDVM6U4lWcYz5wx3bCNQsdIgARIwMwESkuKVQCh0i4Eo2+/C7Hd4uyywcIk4MoEQtQQR6MmU4pTX7VcSO8+iUZtE/pFAiRAAqYmsH7lMrUA/jFTM2DlScDZBB557PvOPoXN9k0rTm8dacxHdtnckixIAiRAAi5CoP+gIegUE2tXbdLPpKGosMAuGyxMAq5MYM/u7wxbPVOK05KSEmzZvMmwjULHSIAESMDMBOJ6xiM4VD2dyY60f/dOnEs7bYcFFiUB1yawds0aw1bQlOK0vKwMJ1JTDdsodIwESIAESMA+Ar5+fpAXEwmQQOMEXn7lJ40fMMBeUz6+NET9R/7sj54zAH66QAIkQAIk0JBARXk5PL289GNEGx5r6fadEx9oadab5qustG9y1k1PwAztgoCrXQfePj6G5W5KcSqPL83OvoJIPj3EsBcmHSMBEjAvgZVL5iO+Tz8kJPazGYKMN/Xx9YOsa21P8vD0Rk5unj0mWNaFCHj5B7pMbaa+8zb+41e/NmR97PvWGrJKN3cqNzcHC+bPwwsv/vjmmZmDBEiABEigVQn0TOiDyKhou865cc0K9ExItEvgagf8Q+Fhlycs7EoEql2oMiNuucWwtTGlOA1WCzOPHXubYRuFjpEACZCAmQn06TfQ/urXKBM18oeJBEigMQKjRo9pbLch9plyQpSMZYpPSDBEA9AJEiABEiCB+gT27tyGSxnn6++0cmv0HXehR3xvK0sxOwmYh8DSJYsNW1lTilPDtgYdIwESIAESQOali2qN0kK7SAQFh+hJVXYZYWEScGECaaeNu9SaKcVpXl4uPpsx3YUvOVaNBEiABNovgXseeNjuqOfaFUtw5tSJ9guBnpOAkwn89NXXnHwG282bUpx6e/sgLi7OdmosSQIkQAIkYGgCJUVFKCkuNrSPdI4ESKBxAqYUp35qYeax425rnAj3kgAJkAAJtHsCA4YkI7ZbXLuvBytAAs4icDDlgLNM223XlOK0tLQUO3dstxseDZAACZAACTiewOGUfbiSlWmX4a5xPRCoVmZhIgESaJzAsmVLGz9ggL3mFKclJTh06KAB8NMFEiABEiCBhgTSTqQi+0pWw93cJgEScCCB5194yYHWHGvKlOuchoaF4elnJjmWJK2RAAmQAAk4hMDdakKUh4d9S99v3bAW3br3ROeu3RziE42QgKsRCFWPcjdqMmXktEYtzFxcXGTUNqFfJEACJGBqAqWqd6uqyr7n2edcuYyCfD521NQXEivfLIF33vpXs8fb8qApxWlOTg5mf/ttW3LnuUmABEiABJogsH7lUpw8fqyJoy3bnZDYDx1jOrcsM3ORgAkJJA0aZNham7JbPygoELfeOtKwjULHSIAESMDMBPoPGoLwiEi7EMQrccpEAiTQNIHb77iz6YNtfMSUkVMvL2/07ccfrja+9nh6EiABEmiUQFzPeASHhjV6jDtJgAQcQ2D1qpWOMeQEK6YUp/JYPCM/U9YJ7UyTJEACJGAqAnt2bMWljPOmqjMrSwLWEDDyqkWmFKfVakKUrHXKRAIkQAIkYDwCq5cuxOkTx+1yLON8OnKuXLHLBguTgCsTeP3nvzRs9UwpToOCgvDIo48ZtlHoGAmQAAmYmUBYeAT8/P3tQtBVLSMVGd3BLhssTAKuTMDNzc2w1TPlhChHtIaXp6fd6/A5wg/aIAFbCVjWkfTzdIPqTGAiAcMQGD16tN2+DB+WbLcNGiABZxCorK5BRbUzLFtn8/ixY0jo3du6Qq2U25TitKysDIfVE6IGDxlqM+bgoAAY+b8OmyvGgqYjEOhl3P+eTdcYrLDDCKSmpiI6OhohISEOs0lDJOAIAjU1bsgqaXt1umD+XPz6t5MdUSWH2zClOJUF+Pfu3WOXOLUI09ySfIc3Cg2SAAmQgJkJ7N75HTp3iUXHTh1txrB15zbEJ8Sjb3+uzGIzRBZ0OIFQv2AV2HK4WZsMPvPsj2wq1xqFTClOw8LC8cSTT9vNt7yyAmXqxUQCJEACJOA4AhcyMuAfHIiwqAibjcqYVS9fH/5G20yQBZ1BQHSDt6eXM0xbbbNjp05Wl2mtAqacECVwq6vbPqTeWo3M85AACZBAeyJw930T0KNXT7tcHjf+dnSN62aXDRYmAVcm8O+3+fhSQ7VvTnY2vv7qC0P5RGdIgARIgAQcRyA/Lw8VFezZchxRWnI1AvEJxpwMJZxNGTkNCAzA0KGcyelqXzTWhwRIwDUInE07g4J8+8bzb9mwWa2Veso1gLAWJOAEAvdMmOgEq44xaUpx6u3tg6RBgx1DkFZIgARIgAQcSiBl735cOH/BLpsyadUycdUuQyxMAi5KYOOGDYatmSnFaXFREVatXGHYRqFjJEACJGBmAmPuuM3uMadjxUa8feNWzdwGrLvrE9j93U7DVtKUs/Urq6qQrcadMpEACZAACRiPQHBIsN1O+fn7MXJqN0UacGUCr77+C8NWz5SR0+DgYDz+wycM2yh0jARIgATMTKCosBCVlZV2IVizfBVOn+SYU7sgsrBLEyhSvchGTaYUp1Uqcnru7Fmjtgn9IgESIAFTE1i/ai1Opp6wi0G5ehJgWWmZXTZYmARcmcDHH75v2OqZUpzm5eZi5crlhm0UOkYCJEACZibQb+AAdIqxb4HwQclD0CWuq5kxsu4k0CyB8Xff0+zxtjxoyjGnIaGhuGfCvW3JnecmARIgARJogkBcz+5NHGn57pjYzi3PzJwkYEICgwy8apEpI6ceHh6IjY014aXIKpMACZAACZAACZCAsQmYUpxKk5SXlxu7ZegdCZAACZiUwOplK+2ezLRp7QacO8O5BSa9hFjtFhD44P13W5CrbbKYUpzm5OTg85mftQ1xnpUESIAESKBZAmHhYfDz82s2z80O5qsnTBUVGnc28s3853EScDaBmBjjDn0x5ZhTf7X+3YCBA53d7rRPAiRAAiRgA4GhI4bZUKp+kcT+fREZFVl/J7dIgARqCTzw4EO1n432wZSRUx8fXyQPG260tqA/JEACJEACikDq0WPIyc6xi0WPXj0RHBJilw0WJgFXJrB9+zbDVs+U4rSkuBjr1601bKO4mmN5uXmQR8YykQAJkEBLCBw/ehxZlzJbkrXJPIdTDuLK5StNHucBEjA7gS2bNhkWgSm79csrKpCefq5VGmXaex8jukO0Pld0xw4YNnJEi86bpp5ssnXjFjz53DMtyt8WmeTmUV1Tgw6qXs2l40eOISw8FLFdu+DA3v04cuAQJr3yQnNFeIwESMDEBMZPvBteXl52ETh98jTc3T0QERlhlx0WJgFXJfDTV18zbNVMGTkNUV09Tz8zqVUaRX5g73vkQf1KUz+WBXn5qK6uxtFDR3Dy+AnI06okidA7tD8FF9LPQyKNAUFBuO/hB/WxTHUsRYm6/Lw8vX3+XDqyMrOu7cvX+8RW3XQq9SRqlHCUdPJ4qn7PV3YP7Nmvy+oddf5kqwjD1XNctSd+HUk5pGfMir+5ObnIOH8Bhw8cxMULGSgpKcGeHd9hz/ZdetKBnP/MqTSVL0f5ma/Pk3nxUp0zQEVPi9FZLeHl7eNTbz83SIAESKAuAR/1G+Hubt/tSf5pDg0LrWuWn0mABOoQkHu7UZN9336j1uomfkmDXMzIuEkuRx2u0SJRxk+VlpbCV03GWrdyDSrKK5B9JRtb12/WXU8rFy9HYHAQtm7YDBF1IvQyL16ECNot6zYiUInVRbMXoLCgQIvGg0qsyniq5QuWaEcbRhm+275Ti2A5uHPLDlQrsbl0/mJEREXoc4odS7qSdRnrVqxBeEQEVixaChn2sGrJcri5uSEj/QJ2bd2BS0qQytIscs61y1drUR2ifviDQ0Pg7e2NDavX4ezpM/BQkYrNKl9Uhyi9r7Cg0HIahKsIRueusdpu7U5+IAESIAEnEEi+ZTg62vmUKSe4RZMkYBgC77/7b8P40tARU3brS3RvyZJFeOHFHzfk4fDtkuJSLFOiMEOJuzsn3KW7qk6rqKZEBWqqa3QUMrpTB3TrEYdu3eNw+VJWPR9EqPbqnYDuvXro/SIi/WS1gcFJiIyO0mJWDnTt3q1euYYbbup8sjzL8cPHMHLcKB29XKaEraenJzp06ohefRK0cHzg0e/Bzd1NC00fX19UVVapiQnZOgIRr/yI7dYFHWI6olgt0RIcEoxKddzL2wv+/v4Yc+c4fdrEAf10VFiiHyJ8mUiABEjAGgJn087o36ug4GBritXLKz08IeqfZz/128REAiRwI4Ex4267cadB9phSnEr07447x7dKE4iQvPfhB5B+Nl1328tj+aRb+9Yxo1QEESq6WQPpgq9d00/tq5sk2hp1bcyq/Nj27peohGNa3SyNfpaop0SI5WlYUDbLy8qQfOtwHeVcs3wVRt02BhMfuk+Xla5+T6+rl4JEVOXH3FetMThy7Ch9XOxIVLQlSaLB2zdtxcNPPIbdqsufiQRIgASsJSBDjOQf5t52iNM9O79Dj4Re6NM30drTMz8JmILA8OEtmwPTFjBM2a0v0cLu3a9GIlsLeqzqzpZxmjJWNGnoYNXFvgjbNm7VY097qh/QY4eP6q70lL0H6rk0cEiS6pbfDnliioz5lOVRGktrlq2qt1tE8MpFy7Dgm3mAGnrqoeoswwn279mH0pLSetGE+MQEHFNjYDeuWa+74r19vNFXRT+XL1yKLWqYwcnjJ+vZtmxEqDUEjx48jDw1HtWSZA3ZCjXhbMv6TVoYS52ZSIAESMAaAmPuuK3J37qW2vFSw428vbxbmp35SMB0BBbMV/rAoMlNTZpR0qV10uTJkzFlyhS7TiYz7fML7F+WSCb86Kiijd5Eqtnn5ZUVyCm5OoGoKTMizixR0Urlu8CW8aFlKpIpEUk5Ju8yicjT00OJus0YlDxEjc8Mh7uKfoqolONFauxmkOpGlyRRUE9lQ4YGlCr7EuWUfQ0nGhXkSxTUD5UVlSqPrx77KucJCAzQ3fna2LU/chlI/iA17lWirpJExMpH6d6vrKzU5cX38rJyHWmV88sTWHx9fbQgFT8kST31+Fq1bbm8LHWR4xaf5TMTCZAACTQkIL959k6IcoSNhn5xmwTsJRDmFwxvTy9kFts+Gcnfyw2B6pWndEGFur/bmj768H289ONXbC2uywUqjSEawNHJlN36ubm5mD9vDn70nPOXM7IIU2k4EZSWJOMxLUmE8t6du7Voi+oYrcaA1l+aSX6kLcJUytQVoRZBWHefxa4ITUkSKZYkolPGYDWW5JiMIa2bRNBaksWGbEtk1ZJE6EoSEW1JUs/AOnW17Le8W3y2bPOdBEiABOoSWKF6feJVt36v3vF1d1v1Wf6Jlt8qe0WuVSdlZhJoRwTsFabOrOp1ReHMsxjMtq+KBPbu3ccwXkk08vZ77jSMP3SEBEiABNqSQJe4rnYvA7V+9Vr0jO+lRW5b1oXnJgESsJ6AKceciji9deTVyT7WI2MJEiABEiABZxLonzRAr0Zizzlq1NCA6hrbu07tOTfLkkB7ILBnz27DumlKcSrjQLds3mTYRqFjJEACJEAC9hG4ZcwodO/ZuhNf7fOYpUmgdQmsXb26dU9oxdlMKU5l8tCJ1FQrMDErCZAACZBAeyIg6zrLA0KYSIAEGifw41fsmwzVuFXH7DWlOA0JDcUzk37kGIK0QgIkQAIk4FACsnTe6ZOn7LJpeTS0XUZYmARcmICv79UVdoxYRVOKU1neSJ56xEQCJEACJGA8AhL1rLvSiS0eysNGTqaesKUoy5CAKQj8++23DFtPU4rTnJxszJ8/17CNQsdIgARIwMwEho4Yho4xnexCIOs7ywNBmEiABBonMHzELY0fMMBeU4rToKBgjBk7zgD46QIJkAAJkEBDAqlHj6verZyGu63aHjoiGd3i4qwqw8wkYCYCo8eMMWx1TSlOZV3RhITehm0UOkYCJEACZiZw/OgxZF3KtAtBh04d9RPy7DLCwiTgwgSWLV1i2NqZUpwWFhZgoYGfKWvYq4WOkQAJkEArEBg/4W67ng4lLu7atgMZ5y+0grc8BQm0TwKnTp00rOOmFKfqQZ5wc7/6/HjDtgwdIwESIAGTEvBRz+q297GjmSrympebZ1KCrDYJ3JzAz159/eaZ2iiHKcVpYGAgHnjwe22EnKclARIgARJojkD2lSsoKy1tLstNj/Xo1QPRHaJvmo8ZSIAEjEfA03gumc8jX09vuLkxktteWr60shyyHBkTCZCAcwhs3bgF8b0T0LtvH5tPkNi/n81lWZAEzEDg4MEU9O8/wJBVNaU4LVX/kR84sB/Dh48wRKOU5hfbvaafISpiAidyc3PhE+IPcFiICVqbVWwrAkOHJyM4NMSu08sap5FRUQix045dTrAwCRiYwLIlSyhOjdQ+JSUlOJSSYhhxKmyCg4ONhIi+NEFA/rFhzLQJONxNAg4i0KlzjN2Wjh46gp7xFRSndpOkAVcl8PwLLxq2aqYccxoWFoann51k2EahYyRAAiRgZgLV1dV2V18ipoFBgXbboQEScFUCYeHhhq2aKcWpjBcsLi42bKPQMRIgARIwM4EVi5fhxLFUuxCMvm0sYrt2scsGC5OAKxN4+61/GrZ6phSnOTk5mPPtN4ZtFDpGAiRAAmYm0KVbV4SGhdqFIOdKNsrLyu2ywcIk4MoEBg5MMmz1TClOZSmpEbfeathGoWMkQAIkYGYC/ZMGIDI6yi4E2zdvxelTp+yywcIk4MoE7rhzvGGrZ0px6u3tjX79+hu2UegYCZAACZCAfQTc3N3tXsjfPg9YmgSMTWDN6lWGddCU4rSoqBDLli42bKPQMRIgARIwMwGJep4/d94uBLffdYeard/LLhssTAKuTOCgWrXIqMmU65xWV9egpLjEqG1Cv0iABEjA1ATKSstQVVVpFwMfX1+7yrMwCbg6gdd+/gvDVtGU4jQoKAiPPPZ9wzYKHSMBEiABMxMYN/52u6tfVFgEXz9feHh42G2LBkjAFQnIY4LlQRVGTKbs1q+srMSpUyeN2B70iQRIgARIwAEENq3dAHlKFBMJkEDjBKZ9+knjBwyw15TiND8vD+vWrjEAfrpAAiRAAiTQkEDq0ePIyc5puNuq7Rp5lhsf52YVM2Y2F4F777/fsBU2Zbd+qHpC1P33P2jYRrHHMfV8AZy/VInCkpv/Knup3q6uMZ7w8nSz55QsSwIkQAIOJXD86DHIw1LCwsNstjv6tjHw8/OzuTwLkoCrEzDyqkWmFKfuaomRDh07utx1V1lZg/e+zsfxtIoW1y0k0B0/fyYEUeEcl9ViaMxIAiTgVALjJ9wNL28vu84RFBxsV3kWJgESaDsCpuzWF9yu+PjSNTtKrRKmwiGvsBpfLCmUj0wkQAIkYAgCPr4+dq9Run7VWpw5nWaI+tAJEjAigX+/85YR3dI+mVKc5mRn46svPzdso9jiWF5BNVZtKbalKE6crcDeI3zMn03wWIgESMDhBGQWsSwnZU8qKirikoH2AGRZlyfQq1e8YetoSnEaEBCAIUOSDdsotji2cF0RyiqaHmc6bpgPPD2aPr5gTREq1LAAJhIgARJoawJbN25B2qnTdrkxIGkgOneJtcsGC5OAKxOYMPFew1bPlOLU28cHgwYPNmyjWOtY2vlK7EppOsoQ4OeGR8YHoU9ctZpkUN2o+St5VVi7gw8maBQOd5IACbQqgaHDkxHbtYtd5+zavRuCgoPsssHCJODKBDZt3GDY6plSnBYXF2H1qpWGbRRrHJPZ+XNWFja7YoqPVw1mLchEQVElKspU3iYE6qotJZDhAUwkQAIk0JYEOnWOQUBggF0uHNi7H1mZWXbZYGEScGUCu3btNGz1TClOKyurcOXy5TZpFHvX7mvo9HcHy5B2oenH/HXv7In7bgvE7beEYvzIUNwyKKBJgSrDAmR4QEvTL37xCyxcuLCl2ZvMV11djTvvvBMPP/xw7WvGjBlN5m/qwGuvvYaysqYjyE2V434SIAFjEVi/ep2azHTGLqfOnTmLK1lt8ztvl+MsTAKtROC11/n40lZC3bLTBKslRh5/4smWZXZgroqKCsz8eDruuX8CevdNtNtyWXnzYnLMUF9MHOOH1VvzsHFnCfrF++OxCZFI6hOAD7/OhKd3INzc6v9/IsMDxib7oZta/7S5dP78eRw5cgQZGRl48MEb14wtLS2Fb4NnW8uTuWTtQi+v+kvEyL7MzEysWdP4gxHkuIjOuvZkX3l5OXzUEA1L+sc//lHPdlPna8w3iw2+kwAJtD0B+a57eTX/G3QzL2NiOyM8Ivxm2XicBExLQHqRQ0JCDVn/+srEkC463qmqqiqcO3fW8YZvYlFE2XOvvIgVi5fj2OEjN8l988OrtpYgt4lu+A4RHkqY+uOf0y9g6YZsHDtdgrkrr+C3f0tD9y6+GDU0sNEIqkyJutkwAfFs7ty5mDRpEjw9PdWjYE9pZ0+fPo3x48dDIpiPPvoo/vKXv+j9M2fOxDPPPIOf/OQnWsguXbpU77/ZH4nKPv300/jlL3+JCRMmwBJNPXToEL7//e/j5Zdfxrx58zB58mRtavTo0ZC2feuttzB16lS8/vrrOiK7evVqffzgwYM6Mvv888/jjTfe0Hlv5gOPkwAJtD6BW0bfChGX9qTByUMQ3bGDPSZYlgRcmsBHH7xv2PrZ96+pDdUqLLRvTc1yFX0sKrJtySSLu7k5OVi2dAmeevpZyy6r3329PVFeWYHi0ua7wSXC5+Z2/QlMHh7uePyZJzDt/Y9x38MPYsCggVafWwqUltXcMIFJPVsACd284OdThYgwbxxMLcK5jDIk9w9E5w7eiAzz0tsbd+WrfUFIv1iODhHAkdM1KC2/7uNpNcHqyMly9O3p3ahvUicRjrNnz9aRSnn/zW9+o/PKAw7efvttXWcRqPv27dP7e/Xqhf/93/9FjmI/ceJE3H333VrYWk4g0UwRopb07rvv6o/+/v7417/+hbS0NLz00ktaEL/55pv6fMOHD8eXX36po7GSWfyyvOfn50NsrF27Fl9//bUWqT//+c+1wI2NjYV83rx5M8aNG6fL8A8JkIBrETh/Lh3yNEB7x666FhXWhgSuE7jzrruvbxjsU6uKUxEgIlzsSdVKgEh0zK6kbJSXV2D6tE9sNuOlIobal+qmx3uK8fSz6fq/d+8GTzvJy83DF9Nm4v/7519gS/g6K6fqhqWfBvXxwXMPB0HEJ1Clxaf40DXGR0dN7xkThsSe/li0LhujhgQhPMQTzz8WjS17CvDl0pJ6XfzpF6uUOJXSN6bt27frLva9e/fqxwNK9PI///M/dcagoKBaMS7RSYs4laEUksLUzeLvf/87XnzxRUyfPl3vkz/Sjffhhx/WblseOyhCUlKHDh1qH5wwcuRIDB06VO+PiorS7w3/NCwnYjU9PR2//vWvdVYZRpCUlERx2hAct0nARQjs370XPeJ7oU8/+4dQuQgSVoME6hEYPHhIvW0jbbSqOBUB8vvf/96u+kvkNL+g+WilXSdoYeHI8FAdOc0pESFoXZLnRi9bsER18b9w7Sko1s+Qj4n2hDx6VJ7wZEkHj5fh/03NR2FxBYb0DUR8nK8+5O3phlef7oSeXX0xe/kVJA8IxIXMchw+UYw/vHNWzeKvQnlZNbx9RFhelcq9u9cfF2o5h7xLpLR///7Yv3+/3t2pUyds2LAB3bt3r5sN77//Pu677z5cunSpdr9EN6WbXiKaDZNESVuSRAw/9NBDiImJaUl2nUeuvcDAQHz22Wf1xqW22AAzkgAJtBqB7Zu3oktcN3S2o2vfR33n5UlTTCRAAo0TmP3t13js+/8/e98BGMV1rX1UVx1JSAIBAiEhQPTeTO/VmGIMGFdwi+04iUvivDix/V6eX5LfjhM33G1csInpvRhTTAfTe0dIdPVe//tdMWIl7Uq7O1tmd86xxU659ZvZnW/OPeU+0yddfNSp5NTFc63qHlq0VStX0HQXOEUZE9OwBg2qxmTthrAOoAlDgunr5TlVVYuFEvdGhr90FNp3JJfGDoqgTm2Cad+xPOrePoQ277lOadeKaNqYKPp80TVhklAu/orv1C/KkQS1a7J5h6icnByC5nTTpk1VJA8aSCydY2n/8OHD9Oqrrwoj6wa0e/dueuONN2jhwoUEu1NoT6FJ7dixoySKVR2LDTgvLViwoOpQYqIZta0oAWIKe9IJEyZI7Wvv3r2r6pnbgOMUTAmefvppWR92rxhvixYtzFXh44wAI+AiBJAdqkz8JqiRoaOHk5f4j4URYARMI5Cb63pFn+mREfkIIvGquZP2Pg5vbDjMqJEyEXaoSCzJq5GyslK6JdLjJdRBgOprPygwgDCWwlLLQxfBW3/J9wvpgTkPUTViWlJei6zV1z/ONxXa06NniqtpT4Xqk3x8/CXpvHKjiB6eHCNsUL3p0m3b05njo+nHHVm0aVeWyS58vErpqRlRFBRg2tggXaR+7datWzUtKZbQMTdoUEE+Z8+eLQkytOTh4eF06NAhiouLozZt2lBCQoIkiMYe+7DJjYqKkjaj0KziLzIyUpZFPbQLW9aYmBjZRo8ePWR78OBv37494WVjyJAhhCX+5ORkgmlBfHw8NWzYUBJo1IdWd/DgwbKtS5cuScco2MFaK0iJSEITDZxZGAFGwDEIxCe0pAbit0ONMDFVgx7XdRQCgX4G8vH2obw6MjrW17efjxf5i78iEbEGoRhtFXskI/IXjt5wjLa3eAkiUOlFYu+WTbQHr2po0tSIJyzr15p/fqm0qax13IID51JK6O15WbWD8IvLWlycS+GhXiK2aahwiDJQemYJHTiRR2cvFZptebSwS50ySnhJ2SDw1n/hhRekptS4OrSmN0VcWSzn20OwNA+PfXjnf/jhh/TnP/+Z4BzlDIGtaoUg++TN5NQZeHMf+kTgSmqafIFX48x0UwTgDxEZomDSw8IIaAWBiMAw8vf1o+v5tpPKID8vChF/WTm5QjGkboVBLS4hQYHiO2Z/8xn70121M+X6ViGQEOdHXdsZ6JdjNTS4QrPnL+KYZoqbd9XmDIvabBDiIwL2R1hU1lQhODsZe9wrZbqKVLEFBQXKrurPGTNm0Nq1a2VsVDjYQRvLwggwAp6DwL7deympTWsRD7qtzZPavWMXJSa1UtWGzZ1zRUbADRDYJUz0evfpo8mR6pKcFhTk0+5du2jQ4CGavCjWDmri0GA6fKq4lvc+lp5BUKFBLS+vP8LBPSOiKABaQRsFS/jI8lRT4DxlT4FJwPjx4+3ZJLfFCDACGkKg38D+qkNA+fj4CBMnHw3NiofCCGgLgZ+3btYsObWdiWgLY6tGgzBSsDv0FIls4E3D+gSans5tguotbFzqkhYi3BTCS7EwAowAI+BqBJDZyTj7my3jGTpqOCW2tt6u3Ja+uA4j4I4IPPX0s5odti7JKTzJH3jwIc1eFFsGNqJfoLAvNXM56yGosJ6cPjaafXxsAZ7rMAKMACPACDACjIBdETDDZuzah+Yag3fb1atXNTcuNQPyF8bRCC1lVuogqMgg1ep2TFSz9fmEWQRKXWyQbnZgfIIRcFME0m+lE8JJqZGNazfQ2VNn1DTBdRkBj0bgg/fe0ez8dElOkb505Yplmr0otg6sV0cDDe4VKMJUmGnBBEFNjAug+yfGmKnAh+tDAFnPPnnvQ0pNSa2vKJ9nBBgBCxHYvuVnunDuvIWlTRdDJkHV2QRNN81HGQGPQKD/wEGanYcuHaIQY3To0OGavShqBjZlRDCNHxQk4pyajxBWUREpY4lC2xoaXLctqpqxeHpdENMv5n5KPfv2pqZxTT19ujw/RsBpCHTv1aN6LGgbeu7VrzeFiJjHLIwAI2Aagd69tempj9HqkpwiYGxLDw4/ZPD3IvyxOA4BY2LavXcPx3XELTMCOkQgtqnlqYnNwRMlknKwMAKMgHkEli1dQndPvMd8ARee0SU5RQrOdWvX0JSp97oQeu7anRGY+/Z7dO3KVULGqE0bNlabCoJ/R8XU/WAsFtmtXn79lWr1eIcRYAQqEdi84SdqmZhAzVu2sBmSHVu3U/P4FryqYTOCXNHTEdCy740uySlSYQYFBXn6fcfzcyACjz/7FH0+9xMaOHQQdeza2eqe3vzr362uwxUYAb0gYBBZnXz91D2e0kWK6ohIJBVhkxu93Dc8T+sQePyJJ62r4MTS5lxnnDgE53cVHBxMY8aOc37H3KPHIBAUHESPPDmHtmzcTIf3H/SYefFEGAEtINCnf19q0kwdqUSGqUaxjbUwHR4DI8AIWImALsmplRhxcUbAJALGBDXtMnvrmwSJDzICLkKgdXKb25pTFw2Au2UENI7A/v2/aHaEuiSnhSLP+/ZtP2v2ovDA3AcBENQ5zzyhWsvjPjPmkTICjkfgyIFDdEPYbquRU8dPUkZ6hpomuC4j4NEI/Lh+nWbnp09yKpxRTp06qdmLwgNzLwTUpll0r9nyaBkBxyOQcimFsjIyVXV0+uQp6bSoqhGuzAh4MAKPPfGUZmenzuJcs9Oqe2Dh4eH04EOP1F2IzzICjAAjwAi4BIFR48cQHFfVSGTDhhQaFqamCa7LCHg0AoGBgZqdny7JaUVFBWWILFENxY8XCyPACNgBgfxSQlpgFkYAv6+B4SFUXFZiMxhqiSk67jugn839G1f0KiqnYpFK1ceHE5YY46LH7dLSUgoICqRyD4kj/u47/6LfPf+iJi+lLslpRkY6LVm8kGbPeVyTF4UHxQi4GwJeIjVubGysuw2bx+sABNLT01W3eiU1TWaICg4JVt2W2gZAtqHI0LKWSe0cub5lCBQXF1NmVpYo7BlJbnr26m3ZxF1QSt26iQsGbI8uQ0PDaMCAgfZoittgBBgBRoARsDMC+3bvpcvC7lSNXDx/kXKyc9Q0wXUZAY9GQMs8SDOa0wsXLhBSQvr5+UkNjLkg+Zs3baKu3XtW3TBYStyzexf17tOXUi9fpqbNmlWdM7eBPlq3aWvutNOP48385s2bTu+XO7QegQIR6SHA4HptjvUj5xqMgPsg0G9gf0I8ajVy5OAhSkxqRW3bJ6tphusyAh6LwJrVq2j0mLGanJ9myOmyZcvorrvukgR1+fLlNG3aNGrSpHZ+5ZMnT1YjpyB2586dleQ0OztL5AKpn5zm5ubSxh83aCanrE+wgUjMg0X7CAT7h1I5VYj/WBgBRsBRCEQ2jFTdNMhtoLAPZGEEGAHTCJw5c9r0CQ0c1Qw5BRbdunUj2K6FhITQwYMH6eLFi9SqVSuKjo4mkNe7776bysrKaNfOnXQlLZUGDBpM8LxXJC0tjZLbtaerV6/QkcOHpbdn7z59xBt4iFJEk5/lgu54iAmLJvHlQTECjIB7IVCEVTR/f1Ue+4NHDHWvSfNoGQEnI/DMs885uUfLu9OUzemZM2foyJEjtGPHDmrTpg3duHGDikRMUkhKSqX9UZlYxu/UuTONGDWK1q1dXW2mV69ckeQVWtGhw4aLNtrSKaFprSkgv3dPvKfmYd5nBBgBRoAR0AACG9aspzMn1Wl1srOyqaTE9ogBGoCBh8AIOBSBK0Khp1XRFDlFeCeEasCSfkJCgknM/IW9KLwmoQ2dMnWayTK3hP0mQpHA/rRrt+61yuAHyxRprVWQDzACjAAjwAg4HYHWbdtQdKMYVf1u27yVzp85p6oNrswIeDICX3/1pWanpyly2rNnT+rSpQtFRlbaGwUEBFCWCNsAMpmfny9BLBbbhYUFlJ+XRwv/s8AksFFR0TLm4vXr1+nYsaO1yuTkZNPWrZtrHecDjAAjwAgwAq5HIKlta4qIjFA1EC9hKyWsxFgYAUbADAL3TJpi5ozrD2vG5rRp06bS3tQYku7du9O6devo0qVL1Oy2F36L5s2lPWqGiKU3ctRoWScmppGsFtOokQyUPGjIENq4YT15Ce0pbE5rSkREJGn5otQcL+8zAowAI6AnBPbu3EPNmjejxk1sj507YNgggoKDhRFgBEwjkNS6tekTGjiqGXI6ZUptBo/AxzNmzKgG0wThFJWdk1ft2LDhI+T+iJGj5GeTJk2Fp3/TamWMd+B0xdmhjBHhbUaAEWAEtINAVmYmRUVHqRpQUHAQdKeq2uDKjIAnI4BQnPbIxuYIjDS1rO+ICZpqE+GnsrOzTZ3iY4wAI8AIMAIuRmDY6BEUn9hS1Sg2rtlA58+yzakqELmyRyPwzr/e1uz8NKM5dSZCcLxasmghPTrnMWd2y30xAoyAhyJwRUQKwYpM48aNPXSG7jcthKMqKqyM9qK10W/dW0jHzhZTaVn9EZNDgr1pUI9Aim+qy8e11i6dR42nQ8eOmp2P29ztcIhC1iiElsrPzxMPAm+bcx0jlJQpW1TNXiUeGCOgMQTwPTQYRPIIjcq3335LP/30kwwtN2DAAJo1a5bMPueo4S5dulTauz/2mH1eeJHD+7777qOvv/66KlMSQus988wzNH/+fJo0aZJcjsOSXPv27Wny5MnSmRTz279/P2H+cAhFYpMHHnjA5t9KR+HljHY7d+9K4RHqnKocMc4NOwpo6cbqpmn19XP4VDG9NDucYiJ96ivK5xkBixFQTCItruDEgm6zrP/xxx9LWFauWCGcnTbQ1s2b6Pv531JaaqrVcPmL4M7tO2j3jcHqCXEFRsCJCNwQpOfDf72v2bzlSOABAjd37lz67LPP6PTp0/Tdd99VIYRwdTDtqSkghHWJuZiZpuqhffRTU5CiuaaYOobfqBYtWtD69euriq9cuZKSk5MlKT137hz98MMPtHDhQhl67+mnnyasCG3fvp3++7//m37/+9/Tl19+Sbdu3ZI4VDXiJhtHDh6mG9dvqBpt07hmFByiLgWqqgGYqJyZU06rt1ZGnjFx2uyhouIKWrzBOkJrtjE+wQjcRgAx4bUqbqM5NQawd5++FB0TQ9evXRM/xtuE5/1k49P1bueJMFRbBLkdM3ZcvWWdUcBb/PCUcrBoZ0Ctug8ZnibQj8htXutUT7lWA/jujRw3mj6f+wk98uQcCg0LrVXGlQdAIpFJDp8+Pj70wgsvULqI7gF5//33afPmzQTyN2fOHBo0aBCNHTuWEhMTqzSr0EpC27p69WratWsX/fnPf6ZXXnlFpEk+J7WYv/3tb6W2skePHlJb2VEsjRlrkVHvk08+kZ7i48aNo5kzZ9LevXvpr3/9K/n6+kpnzH/+858yVfNzzz0nV4NAZN944w1qbeQ9C23ovHnz6J57KhOGIK3zX/7yl1rQdujQQcaFPnHiBC1YsIBmz55NUVGVzkTQ5EKD7G6ScvGSxC86Jtrmoe/f+4uIdd2UYhpXRnOxuSE7VlwmNKbFJbVfjCzp4sjpYjp+roSSE8TvDwsjYAcEDh86KBMW2aEpuzfhluS0qLiIQDCRF1b5EbYGGXioKXFTrannqLJlJaUULWKzsmgfASyV+hAeLvr2Am7bPlleLIWghvkF2e3i4fu5du1a+uWXX+ihhx6qCiNnaQcIQQdSOHr0aBo2bJhc0kcaZBBNZJ/7/vvvKScnh8aPH0+bNm2SGk4QyL59+0oit2rVKklO16xZI5fEoYUFmcXnYZEW+f/+7//oq6++kr8hIItxcXFV2kloKnEeGk/UGTFihPxDeSQXQfSRL774QqZmPnToEMXGxtLf/vY3+vnnn+nUqVPVyCmW5P/0pz/JWM9w4MzNzaVOnTpVwQANMWTPnj0Em1fEiP7Xv/5FzUW4PUXw+3jvvfcqu27zOWr8GNVexGmXU6U5g1bI6fnLpbT3iDob2EXrc+nlxyIENm5zKXmgGkbg2ed+q9nRuSU5/WXfXpkhCj/CLRMSrQY3NDRUZJfSzg82HCmgUWHRPgK4TrbpParPrUIQsDf/+vfqBzW8d1MssUaZ0GLh+Nv/9yb9WWgW7SFpIp3ep59+StfEqgiWy6FNBMmEdhNaUEsE3ycscz/88MO0ZMkSeuSRR+RSN9pEimQlPB2WwTNFyCII0iVDoDFFn3h5RVkQ3S1btkjSCs0klusRdxkCG3gQU2O5ePGijAQCUg0BCUY70GaCtIKEwpa0bdu2kphCiwtiDO3o3SJMnrFgvpg3SDJILzS6xgJNKsp07dqVFi9eLImYn8igp6R8Ni7rbtu5ObmV8/G3XUsY16I5NVQZjspeuMGKZKEglmp/O67eLKOt+wppUE+O32qva6PndrCiZIuCzxmYuSUj6tv3LrmsbytAWEJLEQ+YlmZSpNraLtdjBCxF4IVX/mBpUc2WO7z/IG3ZuFku7asdJLSlIGGwq4RGMywsTNpTwnYSdqPQooLgKck46urvP//5j8wyB63p/fffL0kOyFuvXr1o1KhR9Oqrr5qtjpcPaCz/8Y9/SK0riC6IKkwA4FRVn6B+UlKS1LIal4WTErSnIK8vvviiHBNiLcM+FH289dZbBGL+m9/8xriadHRCGTxEQNqNBVrVmoQdmlWYEMDkALJz504CHm+++aZxVc1vb9m4iZAlqk1yW5vH2qlrZ5vr2rvi7sNFdDGttg0y+nl8WhgltahOwivKK+j71Vm071hZraGs3pJHPToYKDjQstUbZFnEPYF7pVu3bvK7pTSKlzNo3vGihZccfOJ+x0sUBC87MDVBkhwWz0Pg808/oRd/r81nkdssDuBLAvERP/74MVcj2eLLunGjdg2B1cyN6zICzkDAmJgi2LkaASmDPea+ffvkMvaYMXeWdBuJrG9/+MMf5JI7NJrQFsKetC6B09Dbb78tSS0chuAYBMILDezGjRul3Sm860ESTQk0lCCSiq0nluPhXAXPeRz/f//v/5mqJo/B/hMaXxBKkO2nnnpK2pZCg/s///M/UosKzWaDBg3o7Nmz9Oyzz0rigGX7CBOe5SAG0L5Cu2FJmCpobD///HPZP8YLe1llHmYHrcETnbt2oSYeQojgzLT8pzyTKHdrZ6COSf4U4O9V7S8wwJumjAwjf5/aTnp5hRW0aotlTlUwHcF9D3MWrADgu3X16lU5FnzfYP6CT5iyTJgwQd5rMF3CfYP7Ey9VeCmE6QmL5yEwVlx/rYqXWKZSu9Jg8dxefvlluWRmcQUTBYuFk0PNDFEmitV5CFqa69eviR9721PjRUWGU3FpCWUU2CGYf34p4SHMon0E8MNdYRDvdN7qXpC0P1PzI4S3/oKvvpMaU4WYehWUUYxwlLJGQDJhW7pCRODAQ1IhpbAnh0PR0aNHCQ49PXv2lM3ioQrtIVY+Hn300VpL6sZ9I+wSiCj66N+/f5UdJjSQsDPFcWhWIyMjJeGFbahxqstly5ZVW2ZPFVFBUA+kEvUCAwOlt/zUqVNltxgrXprbtWtXpXnCeAcPHiz7xpihoYJdKTSzsIGFnDx5UhIHEGrM01S2FhAE2K8iZJQisJsFaTb1og5t2NatW6WNar9+/aTXv1LPGZ/A2CvAl4rLSpzRndk+jh85So1E3NnIqIZmy1h0orCMwkJC5TW3qHyNQss35dO6babJ5JypYdS5jT99vOAa/XI0t6pmbIw/NY7yo6zcMjp/uUIoZaov4/uIn6Dfz4mg2Oi6TV3wPYHGf+jQobJt2DtD0YMVBZiXwFlQ+X7B6Q/mLfi+wCwGqxgQ2DrjPgKJVZREFy5ckOQV1xr1saKB7zHuvZEjR4oMjU0Iz1nYecM2GuYyyv0L8xrYZENLi3GFh4fLMrj34Vyo3L8gy3i5xHcF3xvYTsO0BiQbL4F9RGpy1MHLG76v+I4MHz7c5EuenIgd/sGLZ6ZQblWIlwdbJSJQvHT4+tH1/HJbm6AgPy8KEX9ZwvylRPisuFJCggLFb6fB7kPQJTm1B4pMTu2Bovu1weS08pqBbBnbSdtCTkFCod07fvw4Pf7445LYHThwQGo6O3fuLJcZcT5BmN8gVqfilIRwSXjg4oHHoj0EtEJOVy5ZTolJrUhx3rMZKRXk9FZmOf11bgaVmAi2P7R3AKVeK6JR/UPo7x+nUBNBSOObBtA+QVIjGvjSq8/ESRvVv/z7EmVk+9QiqMkJ/vSrGWF1TgtOcvi+gAgaC4gjiCBeqhRR9FQwPTEmp/jNg+0ziKZiRrJu3Tp6/vnn6WFh143vIsxgoNmPj4+nf//731IT++OPP8qIFyDBMFt5/fXX5YvSxIkTpTYWJBQaW5BavHTi+w0tLTS2WC2BOQq0vjDxefLJJ+XLI1ZYfve738l2QYh/9atfyTHgxRYrEjDfQXumXtqUear59DRyOv+br2nG/fWbK9WFmaPIqVvanNYFlCXnYIOzfOkSmvVgpdOCJXW4DCPACNxBwJiY3jlq3VZwcDA98cQThKVH2JVCiwnHH2h78OCEQJOD8Eiwr4S2EkvfWDK3Vktr3ci4tKsRQGYnP+EMZUqTbOnYYhrFUIOIcEuLO6TcvqNFJolpSJA3jRsUTAeOE737VRoZ/L3pD483Iyznx8X60/erbtJPu7JoeL9wmjSiIX34HZbivQRBvaOhOn5OaPFE3NTwUPNaPBA8EFOQUZiQQKBxhNbdeKUAx40J3eXLl+V3E2QMLxvQqirEFGUh0GyCoOI7CxtVRIqAtGzZUto6Yxvh3GCSgpdMtA8NJ1ZJQGoh0IjC5KAuQfg3tIGV11//+tdy5QJzgAYV2lyMUQnBhuQTKSkpVSsldbXL58hkvGet4KJLcuovljXijMKtaOVi8DgYAT0igGVDPGBg2gKHIDxM8XCEzSYckR588EHpNQ9bSjxQ7UGM9YizO815w5p1lNSmNbVObmPzsHv27W1zXXtVNPibbqlcODyViVXdXp1CaOPOTEq5UiSIQmVZwSOl+IllW0hpaeWJkpICua8QVJz1rXtVX77oIQEFHJpgRwptJlYnoO0EYcXqBV4SIYgqAe0j9qEFhY00vmumbKFlhdv/wEQG5RSSCccqhEiDiQteImHzDRIKjSqOI3mEIjDbgbMeTF3MiaLRhanABx98IJ0aMUZoSwsKCiQBVvpGxAtoYFksQ2DmrAcsK+iCUuZfuVwwGGd1GSgefoMGD3FWd9wPI8AImEAApBSOS9CMgoRiSQ/EFA9IaEu2bdsmH6aoCns1LOnBw/2Pf/xjtcxJJprmQ26OQOu2bShaaD7VyLUrV6kgv5LQqWlHTd0eHQIoKKCSZBq3ky+cmtbczhQ1fVw0lQgC+j8fpNDc+VdFJqhb1KyxgQZ0byAD9i9ef6uqKghqWWllrNSuyQaCBrYugZ0mnPlA8PDyp7zYQYuJpXrjzGmvvvpqVbIKlIuOjq6XmKJv2GGjPRBevFzC7hOmOO+++67UtsKBcODAgXIJH6QSKyQQkFp8l+HoCLtT2LFC8GJqSpDoAkkzIMeOHaP//d//pZs3b0qCjbS+6BumPryqYgo99ztW953tfvPhETMCjICbIAAiimV7LP0hdig0ORCEP8LDFEu6WPKHwwMEHu1wTMKDrGZ8UVmgxj8gt3BewkOQhQgRCtxFEEYqIjJC1XD37dpLF28THlUNqaiMcE9jB1ZqJms2s3lvAV1PLxN2pgYa2KMBFRSV08kLBVQhvgbTx0aJ+59o7dYMSs+q7vACgupNxTRxmOl2jfuBrSac7RDFYcqUKdJWE/bdECyTI3Uu4v5imR1OgSB3IJqKNtW4LeNtkFfFLACkETanML2ZPn06IdU4vr9DhgyR2zAhAJlExjMsx8MJCuOB1hTL9Pguo29obkGmYYeK3wYIxqGYdsCJC99ljPfvf/+7NCtAXWRZw8st+kZdFssR+HnrFssLO7mkLh2iEMdt+7afafiIkTbDzQ5RNkPn1hXt5RCVL5bT4GWJH96Q0BD5QDAGplAsV/mJ5amadl7GZazZhgMTUuQGCLvNrMwsWRXLX4HC09IeYotDlNIvvHfhRQyNKR4yWL7bsGGDXP5TtD7wvF+0aBENHjyY4FBhydIdHlpw7oBGBfUUAQlGRiUsXRrjCw9/2LWGhIQoReWYQIqhRVIE40RZLFEq9dEmQmLBNk55aCvllU/lvPHYQbxxbZSlUxB17IMgwDZeieIBLTPGhsQBeHArD2+0jd8zkAxFI4VjNecI5xOQAuAIcg9BPfxhzBD0i7mBAGBe9REUWcnEP/ZwiNq7aw81i2tGjZvYHlFl/co1lNC6lXSKMjFMyw+pcIhCJ1i+f+OjDLp2q/ZLEsJIIc6pIumZpbRw3S16bFojSUpfefuS0J7eXudXConPsQMjaNJI66IQ4J5QiJ5RU/JeMXXcuIyl26b6MHUM5BX3eE0xVdbSMpbUrdmWtfue5hD11pv/oN89/6K1MFQrzw5R1eBQt4Mf4Zs3b6hrhGszAioQWLt8NTUQJAG/z9euXKOho4dXywF++dJlimgYQQ1vE4e6ujp26AjFNmtap6bpSmoanT11hgaPGErzP/+a2nfuQMjCAxI8YcpE8hV22K4SELCXXnpJZmFCFiV46Coha/AyAGcpkDOEvYGzhSUCYocwTVj6gyewQk4RGQC2d1j6g1cwzAfg9Yv+0QcIJJYnkbVp9erV9N5770niCJs9LD8iLA7KItD+6dOnpaMHSCPqoB20j5SmyvIjxgryjToge9AO4Txs7OBAAu0u5opl0Ndee02aK3z44YfSoQPjg/YJ8Vh/+9vfymVYeEnDZhDaKYTTgQMIzCKgvUKAdSQtQLgdzBGEGm1gDgjNBSIKDRfMI2C/i5ixyJYHUos4lghZBS9pHMMnwge5SrIyMqtIs61jGDZ6BHkLku1qQdinySOC6YPvaocdPHy6mHYezKPW8QY5zB/W3qLBvcPoZkaJdIoyRUzDQ0XmsMHWa5XNEVBzx23BzVRbpo6ZIqboz1TZmuMwV8bc8Zr1ef8OAs88+9ydHY1t6dIhCqEpps+4X2OXwj7DQXq73YcKKTf/tnV9Hc2KlRnqIN7c2yXax4Acb67QKCnanjq6rvMUHuZ4sHr6j03v/n0oWGjpLp2/SAf37ac27ZIJGtXCgkIKC28gQql6076de6h7n55Su3Fg737q3L0LHT14hG4JW6vKEDlehOXL8NNnaMzE8YSH+iGRuQmpGxOF1sjUQwCa2gFDK223Nq3fSBfOXaBWbZLqvCaOPolxQrOHDEcgo7iP8BL5qrCDw3EEklfs5SwZC4gXHCZA2LB8CW0eSBhC2oDogXgh1iLSh+I4NJGwf4UmEyQY/SEqAMqAVMIp6/Dhw3LZEMujiDIA5xLEMoU2E3Z3sLED+QQpNhZohWGHh3BYIK9wCIHtLDyc4U0NgSf1pk2b5DY0x++8847EAEuhSrIAjAMOISCmIKn4jnz00UdyHNB0woYQfWCO0BqDAEMDjTmCWKMOiCnGDFKLuUFAluFFjSVSfHeN7RBlARf8A2KpVqCF9hP3lRZ+R/Abi79jZ2sH1f9mRT4VF90Q3/HK5fs9hyvNWMzNf7XeJVwAAEAASURBVNKIKOndb+48H2cELEWgsLDAolUoS9uzZznxTqc/wbLV5cspHjdxxNR7e14mrd9RQDsOFtb7hxzNc8Xb/P7jlQb2lgKCJRnEvFM0Onj4QfCQhgZJrYAIIDyJp0tebh5lpmfQqeMnhda0MV2/KnK/nzxNScmtCZrOnOwcaWeJ45cvpYgHWBFdTb0ifkz8qO+AfvTT2h/FsmdjiotvTt16VQZwXyeWMnv16y20sVfp1LETJiHE/Z8rSBjKXLmcJlIB31myNlnBiQexxIz7CoQUy+7YRqB7a4gphquQPpgCoB3F3hIkEQQYAju3Rx55RJoRKE4Y0BpCc4llcLwkwcwANm4gyzAFQHl4HuMY9mHPB6KLNjFO9NO7d3UvccRsRcgbCMojLA/IMPpQBJ7RyCYFUZbZsdSPZXZFlONYlsdxaIcRNgffOYwH1xU2ubCzBRGFYL4IzWUseBEwbhcYwzEFAtLsKfKTePE6K17atCKThgcTtKi1xYv8DbCtrF9XFN/EQH27htZugo8wAjYg8NHcD2yo5Zwq9X8bnDMOp/aSJR4Ka9esptlzKg3Dndq5AztbvCGX8grq15gaDwGlf1iXJ9/qDSKFniWCB/A333wjgypDY4RYd3gw4iHMYjkCh345KG0+27RvS82ax0ktadsO7aQ2VWmlXcf2kryCmEKDCpJ2TjxwrwnCGtkwUmpGvUT8Q2+RsQpk98a1G7RV5LsvKio2qzEqEMu70LYiu9OoCWNcHgtSmavyCfIErSf+bBFoLqE1g0YUoXKQ8QbaShBLZJxBqBvERYQGEY5YWAZHsHJFoEXs27evtCmFhhHjUWzkoO2ENheaSix9w34U9z20qQgOPm/ePBmCR4n5iDbx8jZq1CjZPJbWlaDoLVq0ULqUKVFhgmCN4DuHpf358+fLasoY4R0NrS9EmWOvXr3kPv4BKVaILvahiYW2WEty/uw5cX83FKYvDWweVoVYycFqjlakcZQP9e8eSJv3mIogUElQi4vyqjSoNceNX2d49ovbkYURsAsCw4arX6Gwy0BMNKJLcgpbv5GjRpuAw30PnbpQQgdP1l4ysmRG2bnltHZbAd09pHoWEXN1QUyhaYEWCIKHNJYzjQUPQCxnwkYP5UAMsAwJj0och9MIbOFgu4d0d9B0QcuFsop3tnF7nrjdd2C/akTU1BwbxTamHVu2ieDbvtJG9eeftlDjpk3kMvxXH39RVUUhJk3jmtLou8dRuSAuIC+mJERoBwcNH2LqlEccw70Ez178KQJNIpblcQx2mZMmTSLku4fWcPz48XIfjlAXhHc3loERL7FHjx4yvBXsPpFmFUvtILK4f3Hs3LlzUisJ8wN4HWNJHSlKlTSNSt/QasKUAJpYpBWFVhjfA5BI9A9tLeI0wvxAWdpX6tb12bZtW5k9B2F0QD6xTA+iaWqOaAeEFCYT0KTCtAlZgJqLeM/IqAMsan6H6+rb0edgRw2PfTXktE//+r9fjp5HzfbHDgiivUeKhBLBFGmum6D27BhCiS2qpzGt2T7vMwLWINC1W3driju1rC699e2BsJa89aEc+PunmZR6vdJmyZb5+fp40Z+eDKeG4fU7EGDZEvZ2xl7N6BNL8Xjo4iEJAoCcy1jqRDB1aFthL4dQJXjQY1kTS5kI1AyCiqVOOHbANhBkAc4oILNaE3t5669avJwGjxwqtJd3wsEc2PuLJKAtWyXQ7u07qYlwsGnWvBnt3blbOLwEUMeunSjtcqokq3Cigdf9tAdn0OWLl2jPjt00eca9dPzwUVEmTZLTXnf1qYoViXoXhDaq36AB9MPX39PUWffZFVo13vp2HYhoDKGooFE0vj/hvATM4uPjJQEFUYW2VAlJBY981AOBgyYUmlGQ+yNHjsi4iyB/uB/xEgDNLNqDPSscpSBY4sfSPRy2cE9D22osIKZ79+6VecIRPgsCz18cwxI7vlP4TqAcvgN4SUNfyIID5yo4K6FtLOlj6R4aYWh/oSHGCyDiPSJMj+KJD5Jdc47QEqMdRDsAocY2XiJRDwQZZjkoo3YFxB7e+nnCOc2glYQLKr31je8DbO88WETfrKjLrrRCmPBU16CGBvnQn56Oo0iR1pTFdQh4mrf+wv8soCn3TlMFKHvrq4KvemU8iFavXEH3zZhZ/YSb7m0/UKiKmGLapSL38+INeTRn6p2wJubggGYJD7e6BA8opKmDQDMKr2Rzgoc9HthYIoV9oCfZvZmb89hJE2qd6tKjW9WxXv36VG336HNnSbaJ8MqfMrP6j0li6yTh/JQky3fu3lU4TXWtqqtsoB7+IPYmpkofWvkE2aopeAFSBAQVf8YCTSLuU2MBQQVRMyZrIJ3QWOLPWBBWCi9V5gSORsr3QSmD+72mRzzKKQ6F6Evx+ocpgiIKIcY+CDc0vDUF88OfsUBLij8IzEPw8mgssHFVQloZH3fFNhwF1crPm7ZQfEJLaTKjti171u/T2UABBi86crpI/I6aa9kgCKqIeSpeUMKEd/6gng2YmJqDio/bjICWVyl1+RrmKx46sGfyBCkQmUZWbs6vNZUWTXzJz9eLzlwqqXUuLMSb2sT70R6xvGQsMAs4fbGEklr4GR+utY0HM4KjI+sHBJpSaGrgWawINDDQyiDMDkL0QNOq2MEpZZRP/ADDE5mFEWAEGAEgkJ2VLe2xQb5tFawsIFyaFqVLW3/CX91Sv6Kg7vp8lhGoG4GHH51ddwEXnjXpO+jC8Tilayyljhg5yil9GXeCIOjbNm+Vb8PGx9VsrxYp8HLzq9svgZg+PaMBjewXYNK4vldHAz0wMVSkx6ttv7RQOEeJtM91CjyYYR8HJxOE7IHtXE0NEGz6sFQPWzrYp2IfguVKhKr5+uuvpZ0bjsF+DzaBsDlFHMbz58/jMAsjwAjoFIEtGzfRuTNnVc0eodZihX02CyPACLgfArokp666THBquXHtOi1ZsMguBBUZR7aIFHg15bF7w0Q2kmJ6/9tUKinKrUVQN4hQU1v3FtK9o0MoJrI6sYXd6o79hTWbrLaP+IkI4g07O9hgwgkDTiDQksLmFILUdA8//LD0VIbdKRxCILAzLRCB37GkiZiLWM6Hnd+XX34pta9YalRC7cgK/A8jwAjoDoFOXbtQk9v2vLZOPjGplSqHKlv75XqMgLsgsHvXTs0OVZfL+iBHu3fvEvZcg516YWBDNvHeybT0P4slQb1n2uRajhPWDGjR+jyZGq9mHYOfF504J1IaFlUSTxBUP0NItTh6h08ViXzOAeTjVUxlpV7CG9xQ1cwKYSbQrZ2BAgO8qo7V3IAzBv6MBQ4ds2dXLhPAXg8hfPBnLMjMAy/hmpKYmChD8dQ87i77O7ZuJzgyNRbe9Z4sN0W8zxNHj9NdwrGqptOPJ8+b5+ZcBJqL2L0sjAAj4FgEtm7ZTL1693FsJza27lRyCica5HZWI6XCg7awsLqtpLXtFYg81IeFh6uf0GTaKiEiRiTGkl9St5YxWwTKhtewcRq9RrGNaNkPS2S8yt/910tkngKaHx0C7pvKNmJcIzTYh2ZOiKYVPwnnpMEhtHFXEQ3pHUI7D9zRtmIFv7Skcl8hqDATQGD+fl1rL/sbt8/bJD2tF367QBK1br20G5bDXtcKYdiupl2leR9/TtNmzZB2gfZqm9thBOyJwB4R5SKueZxIVBFrz2a5LUbAYxB46lfPaHYuTl/WR1BkNX8IrAwHGjV/AQYD9RShYdS0gTlUVNT/p8zVuGz5baPOMsSAslGUNsxVB+E1+HtTbLQ/gaQ2jvajQP9isYxPFOBfJMeu1FUIalnpHdJfYtaLVKnFn8jcNPft96hFQjzNeHiWzG/u6ajAQWWqiBaA5ABz//WeDG3l6XPm+TkfgbUrVouXd3U2p/h+Zop0viyMACNgGgEtr37Zrjo0Pdc6jyJ8CdLpqZFi4VSUnZOnpglJjm/cuC5Ctti+BGtrnFMQ4mULl1DPvr1o0n1TbV4ajY70oaTmfnTahDd+JThedDOjhF5955Lcff3dFPl5+FQldu1bIeB+RGVR8a9CUHEgKCiAuibX50laVVWXG8hH/6EgZ8hR31DYzGKp25QEBAZI7WpFfV5mpiq7+BjSmyLSAmz3akqoCL3UoXNHeucfb9OjTz1GrVsk1izC+4yAzQjENG5EwaHqwkm1TEyoivNr80C4IiPgwQi8/9679PyLL2lyhk4lp1pBIFMEm16xfJnT05cqxLRMmDeoIaYKjpNHBtM/RPD9mrwH+81iDcLG1EsQcdDO2hIncjRDjEmTQlCH9Q4jhJsyJ2+88YYMWI54pxDETjRO12iuXn3HEUgc+cJhf3r06FGZItXalI719WGv87CJg40tUoXifmrQINxk04HBgVSYXyi19CYLaPjgkYOHpOaprLRMBqU3Hmpubg4d2LtfHkpIEsTUtuRkxk3ytgcjAM97ZIVTYu3WN9WuRjF/6ytr7jy0+9bKL3v2Udt2baslx7C2DS7PCLgLAv1FUhytii7JaZjIBz9kyDCnXxPY3CK+av/B9nEmadbIl/p0DiAE4TeW+Stz6OFJYfTI5Bj69Idrxqfk9l3dwmjyiIa0cUcWXUy7s5SPk5HhvjSiX90ai7S0NJmucdgwyzFEth2Q2ZrLCMAEGnXIrl27hKPabnrttddklh147RuLcdn6jiNzjpoYicbtm9rGXF554zU6JjIyrV66gnr36ysC4dfWMJqq6y7HxplIFICxXzx/gX4QdrbTH7qfOndTctKXucu0eJxORgDL81gteviJR53aMwhxVHQU4ffeUvEXZiufffCJWA2YwwTVUtC4nNsi0LtPX82O3bx6TLNDVj8wkKEEoZ1ztoAsDRgysBZBUzOO8YODZLYR4zYOnCimLxZnC4/96sRTKXMhtZBWbc6g+StvKIeqPqeMihJk0XoXLaRZRDxTRRBuCoI0pkhX+sQTT9CoUaPo2LFj8jgc4x566CGaOXOmjJOK1I/I+420pV999ZXMUa60hzrIH47c5a+++qoM7o80csieAy3uPffcIyMAwL4XKRiROxz5zBHW6uxZdXZrcrB1/APtzMNPzqZVgqBeunCxjpKecepK2hUZaeKB2Q8ZEVPPmBvPwv4IVBHTxx+lcJGBylLZt2uPcLy7Ymlxk+WOHzkmU/maPGnmYIcunWjw8CGSoOaLFLEsjIAnI7B82RLNTk+XmlOk7Fq/bi1NnjJVsxfG0oGFBnvTqLuCaOnG6j+kIKhlZcUyEkDNhf3Ua8WUeu1WrS6S4gOoZ8e6taZKpe+//14G2Mc+MkOBGIIwKoJwXRAcQyzUTz75RP4tXbpUmgG8/vrrtHLlSpkZCjFR0QZIJTSnIKEI3q+098ILL9AHH3xALVq0kMH733vvPXrxxRdlDnLURUIAEN9z587J/OZI/wiiu3nzZjp+/Lg0E1DG5YhP2Jw+/fyvpWbYEe1rqc1Y4fn87Iu/0cVctYS7O44FqwpfffIFDRk5jE6fPFVtCnBUCo8wbQqDgscOHyM4NEXFRFerZ81OlugDWv4cka66LjE1liARjeW///gqvfK/r1KQD0ctqQs/Pue+CEDZoFXRJTmFLSbsnzxFBvcKpG0icP7NjOpLqz4+wqlJ/F9anC8dnuqar4CEpo+1/EGAfN5KTm/kFQcBNScglZAmTZrIQPsoGxoaWpWyFEH8ISCSNaVQhP26evWqJKY4N2HCBElesY02EMAfgrbzhKYD+dGhlZ01axZNmTKlVj5zWdgB/yj2tw5oWnNN2nOusMOGmQiLNhHA96qmKY6lIy0qqly5gTlOYUF106M84WhX129wgogZDKlZz9K+US6uRWWs1PraMDUWxRa/VNhbk481vVYvixTO+F1i0R4CYcKpE88QPcvjTz6l2enrkpwGB4fQ2HHjNXtRrB2Yr/jxnDQsmD7+obaGwFKC2q9rGDW/7SRlSf9wWurWrVu1otCeWiJ42CFDlCKnT5+uIpnKMeUTwfxhhqHYkILARkebJ9FwqPrb3/5GeCC++eablJqaKk0ClPb4U1sI4F5oqjITkLZmxKNREIBTE7LGrVu5hh4RNpzuQgROHT9JcIx6+fVXhL2qyG9fWP2lX5mfJZ/hIi4w/lgYAS0icPHixSrFj9bGp0ub0xKx1Hz06BGtXQtV4+nUxl+E8/Ez2QYIqq9/kNlg/4EGL5o8qqHJupYeRPrSvXv30pIlS+TyvLIkb6p+y5YtpRkAluqxzP/8889L5yWQziNHjtDJkyerqsFOd/To0fTss8/S4sWLpc0p7EnNyYkTJ6Sz1uHDh0WyhkKZAMFcWT7OCDACjkUA+e1HjhtFnwsno1xhTmWpnD97nrIysywtbrdyIKarl62kR56cU0lM7dYyN8QIaA+BBd99q71B3R6Rj3AwedVZo/vxxx9VxzlF4Pqi4hJVQ4Z2bcP6dULzZ3tGnyARvxJjKTQKXG/zoErK7UKi4hr70a5DRYL41R6Jt7cPeQkP84qy2thNHhlNyYmBtSuZORIcHEytWom81UZesDiGVKUglvfeey+BrOIP4ZZQFloTEE2YAMTFxdH48eNl2CgsecF+FEssOAdNKTSwSUlJIg5tI4qPj6cBItwFlu9TUlKkY1UvkUABAo0E+oAgCxfSqXbq1ImSk5PpoMgANnjwYBo7dqxd7SPlEh0cxoTGj+UOAl6lFVVmGneO8pYeEYC9uZevN5WJJCUQ2I0isxhWM/BpiWzfvJX8AwzS296S8vYqA9vYkeNGVyem4t42+BscGv3DXuPndhyLAKLOFMJcxQanYWVkgX4G8hHP47ySmt4gSon6P/18xOqj+CsSijZLVyxNtdq0aTOrHBVNtYEIF0rEHVPnbT3mJWy+bEfIyl7huALvajVijyD8mHK2MJI3JlfWjsnWIPwm+8kvlUTM5DkrD56+WEKbdhdQbr7py1pWWiyWyCttwfz8vKhLcggN72d5qBUrh+NxxWEvW2EQCw4w0mWpQsCroIxiYmKq9nlDvwikp6eTV4AvFZt4EbYUFdiBGoRfgCMeepaOoaqcWNYPCwmVJgpVx3hDlwhgRTBTKLcqAmxfdI4IDCN/Xz+6LtKE2ypB4tkdIv6ycnLF89y16RxDggKF/Xhl3HRb52Oqni5tTmHnpoaYmgJSK8eSxNI+/lgYAUaAEXBXBEBMsYrCwggwAo5DQPHlcFwPtrdsO/23vU+X14TmND29digllw+MB8AIMAKMACMgnajOnDzNSDACjIADEXj33287sHV1TeuSnGZkpNPiRQvVIce1GQFGgBFgBByCQMvEBIqMUuek6ZCBcaOMgAch0KNnpf+GFqeky2X90NAw4bwzUIvXg8fECDACjIDuEUju0E73GDAAjICjERgwcJCju7C5fV1qTuE13qZtW5tB44qMACPACDACjAAjwAi4MwJr16zW7PB1SU5zhSfo8mVLNXtReGCMACPACDACjAAjwAg4EoHTp6qnFXZkX9a2rUtySiKZp5rYYNaCzOUZAUaAEWAELEcAWaXOnTlreQUuyQgwAlYj8Myvn7O6jrMq6JKchoiYdRPvmeQsjLkfRoAR0CgCMqi2yCSmCEKrpKWlyYDxyjHlEzEOcQ5lagoCzFt7Dgkd0D9elK9evSpjLyvtKu0hy5keJbpRDCd1cOCFx31XhGDyt0W5t3G8ptT1najrnNLOrVscGUfBQmufV65c0dqQqsajS3KKL9SpUyerQOANRoARsBwBpJXMF8TK3WXlypX09ttv0+nTlSGLkNlo7ty5MoUuPo1JqHIO6XGRdrfmgx3ljx49KusbE0q08eGHH1adQzuKLF++nBDW7vPPP5cZzebPn0/Hjh2ThPWjjz6i48ePEz6R0U5v0rVHN2oU21hv03b4fHG/LVu2jN566y06f/687A9mbrhHkToan8YEFS9QyncC5/DSpIjynUC9mt8XpcyuXbvos88+U3b5U2MIfD3vC42N6M5wdJq+NJNgCOxp6UvvXFbechQCnL6U6Nzps7RkwULq2KUT+QrnQog7pi+NjIwkg8EgspsEyAxteMgiTe6QIUOkFhMP4ujoaDm/y5cvS0I6ZswYSk1NlUk8lEQeIJFI3zts2DBZBg/7xo0riRWIr7+/P40YMUI+2DMzM2WaXnwi21izZs3kcfSJvpD+F5m2Lly4QJMmTSK0hXEgla+7CEiLcfpSW8Z94uhxmXY4UKQ/drl4WPpS3GfeIpU1Ukrjft+/f7+8DwcOHEg3b96UyQ/w3YAcOnRI3stIBY17FuS2YcPKEF/4vmAb925OTo58mVO+L6iLLIx79uyRZLdnz5445PYC4u5J6Uujo2OoobgH1Iij0pfqUnMaEREplvUnq7keXJcR0C0C7Tq2pz79+9EXH35WTYPoboDgwWwsIIJ4YEPCwsIkMVTON2/enDIyMui7774jvKCAVCqCfXP1zLW5d+9e6tGjhyS1d911l2zql19+oc6dO5NCmqFJhXarTZs2Sle6+Tx3+gzdusnLwfa+4MiOqJBLpW3co7jfIbiPsa+IredQf9WqVYSXORbtItBaw78tuiSn+IIqb4bavW14ZIyAaxCAdgR2kNASQGuHpWlsy+MV5fJc5+5dqWPXzvTp+x+R8VK1a0Zs/14xV/xOKAItJ/K8Dxo0SOIADZMpqVnPuIxyDp9oDxpSRbZv304REREUFxcntVAgBdBWgTRAa6s3GTFuNLVqk6S3abtkvrjPcU9ClHtUGYit56BxDQkJIdiy4vdDj6YpCoZa/vzyi881OzxdBuHPEssTSxYvooceeVQzFyYlJUUzY+GB1I2AwRAo4j2ok7UrVtOFs+fl8hoeCLb8iUoW1qt86CBKhSWCB1LNv1BBkpQHl3KuQhDVy5cu09y336Pf/ea3ljSt6TIgixcvXqROnTrRtWvXqEuXLlXjheMAtKexsbGSQML5SSGX+IS9KQT1WrVqVVUP57BsqpxDG2fOnKlW5vDhwyKdcjqNHz9elgNxxfIo+kJb+G1ISEioalMPG4hFzeIcBHCP4r5NTk6WL01JSXdeCnAO93qHDh3kOePleZyD+QkE9yy0/orAbCBImGTg3s7Pz6/6Xinn+VMbCOAaaVV0SU79DQZqZfQFdPnFCfIlf/HH4h4IWEbx6p7L6RMnaeT4MQTSp5C92p/CltPLW/zhszZhxDGcNHeu5vG6R2TdWRDVhfMXUMtWiTR2oiBVBbW9fK1r0TWlYW+qECE8lM+dO0cLFiyQKysgkiCdIKYDBgwgOFBhWR82pFiKh60piCPsSWFbinqwQ01MTJS2o1iSHz16tNzGOWhB0ceiRYtowoQJcsLQKq1du1aaCXz//fcUGBgoSSoco9CXj48PL4265tbw6F6N73uQ0jVr1sj7Fy9FsJc+ePCgfGGCHSruY9y/MAdo2rSpJJwgo7A1PXv2bNX3BVp/5fsyfPjwKvxgo40XPhbtIXDvtPu0N6jbI/ISDxl7PGstmuDLL79Mb7zxhkVlzRUqFj/m2Tmu9xSOigyn4tISyijINjdUPs4ImEXgw3+/T/c/+qBc+jJbSMMnli9cKpb8S2jSfVPlKL0EOYUmhaV+BGpqTuuv4V4loAX2CvCl4rLaIbcsnQlWFSKjIilMkH2XS2EZhYnwg3hxYNE3AjBTyBTRMyoCbLeIjAgMI39fP7qeX24zmEF+XhQi/rJycoXZxJ0ICjY3qKJiSFCgcCo1qGjBdFXbETbdHh9lBBgBSxAQr4RC52lJSc2VObhvv3SauGfaFM2NzR0GZLzs7w7jdcUYjx46TFfSrriia+6TEdANAj9t/FGzc9UlOYV37ZrVqzR7UXhgno+AsBYFO3VL6SBCSE2bNV2aE7jlBHjQmkdg8IihlJh0x3ZX8wPmATICbojAwYMHNDtqXRo6lpeXVQuXodmrwwPzXATcl5tKO0jPvTA8My0gYBC2wLC3ZWEEGAHHIfDsr3/juMZVtqxLzWloaBhNvXeaSui4OiOgBgGwUzdVnaqZNtdlBCxAYN3KNXTmZGXmLguKcxFGgBGwAQEkVtCq6JKcInbjhdup27R6YXhcno0A3BCZmnr2NebZ2Y5Ay8SW0iHK9ha4JiPACNSHwGefflxfEZed1yU5zRbedj/+uN5loHPHjEAlAkxP+U5gBEwhkNyhveq0iqba5WOMACNwB4ExY8bd2dHYli7JabjIxDJ2XGWcQY1dDx6OThCQEdyYm+rkavM0GQFGgBHQHgIdOnbU3qBuj0iX5BTZK5B9hYURcCUC7hpKypWYcd/6QGDb5p9F9jHOmqePq82zdBUC87/9xlVd19uvLr31ked3+bKlNOuBB+sFyBkFZCYfZ3TEfdgFgXI75K1w51BSdgGRG2EE6kCgorxcpsutowifYgQYAZUIIHKRVkWX5BTpCps1a6aZa1KRX8o/xJq5GnUPBBlCDGGBVOGtck1eOkSpbKPuofJZRsBtEeg/ZKDbjp0Hzgi4CwL3z9KGgs4UXrokp0FBQTR4yFBTeLjmmNDENWrUyDV9c69WIYCc0oJX2kHYXd8OIHITjAAjwAgwAjYicOzYUWrXrr2NtR1bTZc2p46FlFtnBOpHoDKUFGtO60eKS+gRgRNHj1P6rVt6nDrPmRFwGgIrly93Wl/WdqRLzWl+fj7t2L6Nhg0fYS1eXJ4RsBMCnqU5LRc2gjdu3LATNtyMOyNQVFREwQFhqqZw7vQZmSEqsmFDVe3YozJ8Am7evEkBImsVi74RgFmXv8HfTqtnrsfy4Ucedf0gzIxAl+S0tLSEsDzLwgi4CgFPC8LvG8oP7hvXb9DaFato2qwZ5O/v76pby+X9BgT5UUl5qapxjBg3mnx9tfF48grwpcDAUFXz4cqegYBB3NsyDGBFuUdMKDomRrPz0Ma338nwhIU1oBkz73dyr9wdI1ADAQ9KX1qmYa/PGqg7ZPfalav02QefEBJ8ZGdl00NPPMqaNhVIw2lVK1IOImIfQ3OtTInHwQhIBLKzsyksTN0qh6Og1KXNaVlZGaVevuwoTLldRqBeBPD2zRan9cLkFgVSUy7TN5/No+kPzqSmcc2oR5+e9Nn7H1N+Xp5bjF+Lg4QWuqCgQItD4zExAh6DwEdzP9DsXHRJTrMyM2nNmlWavSg8MJ0g4EGaU51csVrTvCo0pt9/NZ/un/0QNYlrKs93792T+g8eQJ8KglpSXFKrDh+oH4Fd23bQpfMX6y/IJRgBRsBmBIYOG2ZzXUdX1OWyfoPwcBoxcrSjseX2GQGzCEi7JbNn+YS7IBAdE02PPvUYhUeEExyBFOnUrQs1ax5Hfv7aWZ5WxuYOnz379hbLjWzn6Q7Xisfovgh0695Ds4PXpebUx8eHmjdvrtmLwgPTBwLwAmZxbwTwWwJiakoio1zvaW5qXO5wrFHjRhQo4lGzMAKMgOMQWPjDfxzXuMqWdUlOYQT8/XfzVULH1RkBFQjAXZ+FEWAETCJQWspZ80wCwwcZATsiAAdOrYouyamv0HZERkZq9ZrwuHSAAKgpa051cKF5ijYhsG7lGjpz8rRNdbkSI8AIWIbAI7PnWFbQBaV0SU6DgoOFzekoF8DNXTICtxFgzSnfCoyAWQRaJrSkyChWIJgFiE8wAnZA4MwZ7b4A6tIhClkejh87Rp27dLHD5dVWExnZ5fTLsSLKza8/SLCfjxe1a+VP8U11eRvY7cLl5uRQTnYOxTZtYnGbrDm1GCq3KQj705DQELcZr5YHmtxRm/m+tYwZj40RsBaBxQt/oBd//7K11ZxSXpesJDc3l/bt2+Nx5DQrp5ze/DyTsnLrJ6bK3bVuez49Pi2M2iXqN6ONgoUtn4hl+fncT2n4mJFWkVORZsSW7riOhhFA/OTcnFwNj5CHxggwAozAHQRmznrgzo7GtnS5rA970/umz9TYpVA/nGU/5VlFTNFjmeCxC1bnUUkpkyVrr0ChCBL++Yef0qDhQyi5Qzurqku02VnfKsy4sH4Q2Lb5Z7p8KUU/E+aZMgIuQKBp02Yu6NWyLnWpOQU0wcLu1JPkQmop7Tl8J86iNXO7lVVGG3cW0Kj+HLrFUtwy0tPpg3++R73v6kPN45sTEjsIFyfp5JQjlvnzc/PkNpyeZMQo+Vl5HseyM7NQ2tLuuBwjoCsEKsrLK3OY62rWPFlGwLkIIAtbYGCgczu1sDddktNy8cN388YNimnUyEKYtF0MK8QL1+WqSv+8fnsB9ekcQA1CdalMt/oCr162StiZZtOFc+cp7XKqfJAisD7+QkJDqaSkpNoxsVNtPyEp0eo+uQIjoBcE+g8ZqJep8jwZAZch8P6779DzL77ksv7r6liX5DQzI4OWL19Ks+c8Xhc2bnNuz5EiupBWqmq8RSUVBLOAB+7mrCyWADnz4Vm0K6kVHT5wkGaIbV9fXX6VLIGKyzACViOAJX0kN8CLHgsjwAg4BoG7+vd3TMN2aFWXarKwBg1o8JChdoDP9U0UFVeSypoj6dclgJJaVKZOHNEvkGKjfWoWqbUPswCYB1gq165do9TU1Kri+fn59MUXX1Tt27rx5ZdfUp5wNDKWG0LTnZaWRugTmm8tCJb0k9q2oW8//0ozY9ICLjwGRkAtAgf27afUlDu/LWrb4/qMACNQG4E+ffvVPqiRI7okp9ByJSa20sglUDcMLMfDS7+mpN0opWfvb0ANQsooU5z/zYMNaETfQPKu44rDSWfh+vrNA7JEVolf//rX9MILL9BLL71E9913H8HOEvYr33zzTc2hWL3/7bffEoiusTz66KP0xz/+kV555RUaM2YMgcBqQQYNG0yNYhvTnu27tDAcHgMj4BEIDBDL+i1bJXjEXHgSjIBWEVi+bKlWh0Z1UBXNjln1wECkEN/L2ZJ+8xatWrrCbt3eyiynjbsKTLZ3USzzZ+eVU4dWPnToRC6dTykShK+AfjU9lBo1NK9FheZ0rzATqEvee+896iJixH711VeSjCrbNevcvHmTNm3aJLWdyrn9+/dXaRkvXrxI0IhCQGx//ll46F6+rBSt9fnnP/+ZPvroI/rhhx/on//8p6xz6tQpQjpaCPq7cOGCbP/gwYOULpyWNm/eTBnCjMORMmr8GOp5V29HdsFtMwK6QqBBeDj5+3N4O11ddJ6s0xFIM1r5dHrn9XSoS3LqLbylDQEB9UBj/9MRDSMpT8RYXbVkuV0aX/Kj+RBQwv+Gjpwqpi7JIZSVXblEvv1ANs1bcpWmjAigIb0MlV7kJkaybGMeFQsbVHOyceNGGjlyZNXpp59+msaNG1e1jw2QwokTJ9KuXbto6tSptHLlSnkeGtfCwkK5DXK7detWuY/6ixYtotdee41SUuoOIYNg5/B4x/L+22+/TSdOnJDtgdzOmzdPOiPNmjVLall37twpx1FUVDfhlg2o+MfbS5dfJRWIcVVGgBFgBBgBVyLwxFO/cmX3dfatyydqcEgIjR03vk5gHHEShGrKjGmUmZFJ61etVdUFluoPnKibcB0S5DQp3kBBgd50+FQezZ7aiEbcFU430ktE2Khgem5WKEVF1A5nhLb3Hy82Oz5oSo8ePVp1PiwsjFq0aFG1jw1oVz/88EP6/e9/LzWs77zzTrXzxjsgu507d6a33nqLPv74Y4qLizM+XbX973//m15++WUaP348/eY3v6kzHFiAePlAn+i/WbNmdPq0dtO0VU2QNxgBRkAicOP6DbkywnAwAoyA4xC4dOmi4xpX2bJTXYzhzPLdd9+pGnKZ0JYVF5eoagMaN3jsRzZsaHM7gQEGEcC+nIpKzZM4NO7j402BQUGibFlVX9GNYmjj2g20b9ce+sNrf6o6bs1GYZF5zabSTo5Y1vfx9qLgQB/Kzi2lzm2rx3Zt1tiP4mPL6PrNcvL2qX4r5BfWtmNV2sXSPMihInBewtK68TIcrvO9995LCxcupPj4eBEdwby2eMiQIdKGFUv1dcno0aOpcePGtH37dklQ6yrr5+cn7Gsr370MBkOVKUFddfgcI8AIaAOBXdt2UFKb1tSmXVttDIhHwQh4IALfz/+W05fiumL5V+3yKlIEFhTWrTGs7x7KFWTq3Nmz1LFTp/qKmj0fElxJOPOKTdt8KhWxBI3g7GVld7zgFQziWjRXiln92TjKh1o08SXYlpqTDkl+lHa9WGpKJw6LrFbs1IUC+mLRdXkOulM//5Aqgurn60Vd2hiqlTfeGTRokLQlxdI55N1336UQoY2ePn16VbGHH36Y/uu//kvuwy4UjlNLliyRBBZENgiEXVxLCJbeQTwVKS01PafWrVtTQkICPfTQQ/Svf/2LXn/99ar2UFdpT2mHPxkBRsA9EejZtzeFhXEYKfe8ejxqd0Fg6rT7NDvU6uoyBw+ze/fuqnsoFsHNs3OqhxmytlEESu/cqTPB6N5WiYoMp+LSEsooqHTGsbSd4uJi+kKkvJw8fSrhB1iNTBkRTP/8Msts8P2Orf3pwPFcob31oo5tKrWmsCVdtO6WyAiVibjwUvBRUpxbRVCH9g6kiAbmLT6eeeYZevHFF2nLli3Sqx42pJ999pm09VTm8/zzz9Mf/vAH6tixI8E5CbakEHjaP/vss+LBE0YgrTg/YMAAWR8e+Qhej2gAdQlI8ahRo+iseMFAe2+88QYtW7aMjh07RgMHDqyrKp9jBBgBN0CgUeNGbjBKHiIj4N4ItGyZoNkJeAmiVv/6sIaGbw9yiumUChLkK5Z+bRVbyCk0gvM+/lwsVSXTXYP63+k6v5Qa2Zit6oslObTvaG1NcqQgl689E0n/O/cyBRi86XePNKEzlwrpi4XX6Not02YR0KBGRYbRX56JJoM/9uoWeNtj6Rw2nbCnheYSphtNmjSRFUHEz507J5f1YQOqCDzqkTINy+1YfkcqWdyGIJuxsbGUK5zGoqKiBKm+E1XgypUr8hjKQ+CJj5BgILnoE97+MTExUjMfLl46EBO1adOmsuz169cJx4zNDuQJG/5BWxUCTxLmEiyMgDECWBH5+J259MwLzxkf5m0bEIDZE7KoxSe0tKE2V2EEtItARGAY+fv60fV886Zz9Y0+yM+LQsRfVk6uUOiYXmmsrw2c/+TjD2nOY09YUtRsmZCgQAoQZo72FqdqTu09eFvbg73p4sUL6ZFH59jahE318sSNlNy+HfUdeJdN9U1Vmjg0mA6fLBZa3OrvGO0SfWjdtkwRVL+QpoyKov+suUkbxH559WLVmsSpcYMFabSAmKJiTScokEmFmOI8yGDbtrVtxmCDWlNAblu1aiUPg6zWFJBWY4mMvGOmYEzsYS4AUYgptkFaWRgBRsB9EAgVS/p4eWVhBBgBxyEQFRXtuMZVtqxLchogtHbt2ndQCZ311RuIdHz2JKYYQUSYNw0TwfVXb60etH7v4TzKzK48tmZLBuXm33HIMjfyFk0M1K8r23mZw4ePMwKMgHMQUGvy5JxRci+MgHsjcM+kyZqdgHnDQs0OWf3AsMTcu3cf9Q1ppIXhgpyGh1a/lIUl/mLZu1LzYAkxxSL19HHRZmOfamSqPAxGgBFgBBgBRoAR8HAEqjMaD5+sp07PX9ie3C2W92uKr19gFUGtea7mfs+OIdSqxR270JrneZ8RYAQYAUaAEWAEPAeBtWtWa3YyuiSncLhZoeGcsrbcLT3aGyhehJaqKZYQVJDbKaOjalblfUaAEWAEXILA9s0ilfGlujPFuWRg3Ckj4EEInDp1UrOz0SU5RQwl46D4mr06VgxM+BPRlJEhIuh+7Ur1EdQxAyIpskFtYlu7JT7CCDACjIDjEUCCEzcLJON4ULgHRsDOCDz76zvJdOzctOrmdMlIQkJDaeI92jUEtvWqxjf1pUcnh9HGXQWUUytMRYiIZeojwj3dCSOFYPvdkkNo3JAIW7vkeowAI8AI2B2BAUM4XrHdQeUGGYEaCFy9elVmXaxxWBO7uiSnpSJ4/vnz5ykpqbUmLoI9B9GpjT/hz7QwCTWNCx9lBBgBLSGAJf1wEd0EigQWRoARcAwCX335hUhf+gfHNK6yVROLwCpbdIPqSJ+5ZfMmNxgpD5ERYAQYAf0hcGDffkpNSdXfxHnGjIATEbj7nnuc2Jt1XelScxoREUETJ06yDikuzQgwAowAI+AUBAYMHkiBwZUJNZzSIXfCCOgQgTZtaifJ0QoMutScenl5U0ORHpOFEWAEGAFGQHsIIGGJPdINa29mPCJGQDsIzPvyc+0MpsZIdElOszIzScsXpcY14l1GgBFgBHSFQH5+vnDerD+rna5A4ckyAnZGICAg0M4t2q85XZJTf5GzOTExyX4ockuMACPACDACdkPgp7U/0tlTZ+zWHjfECDACtRGYdt/02gc1ckSX5DQwMJD6DxigkUvAw2AEGAFGgBEwRiC5QztqFNvI+BBvMwKMgJ0ROHjggJ1btF9zuiSn9oOPW2IEGAFGgBGwNwIJSYnUIDzc3s1ye4wAI2CEwPp1a4z2tLWpS3Kal5dHWs4pq61bhEfDCDACjAAjwAgwAp6GwJzHntDslHRJTsuFoX2OiHXKwggwAowAI6A9BDau3UAXzp3X3sB4RIyAByEQLsJqalV0SU5Dw8Jo6rT7tHpNeFyMACPACOgagdCwUDIIx1UWRoARcBwC6em3HNe4ypZ1GYS/rKyUUlJSKD6+pUr47FO9oqKCEDqFRfsIFBQUUIAhWPsD5REyAm6MQM++vd149Dx0RsA9EPj0k4/pxZe0mb5Ul+Q0KzOLftywnmbPeVwTd5CvwY9y8/M0MRYeRN0IBIaIrDVeRBV1F+OzjAAjwAgwAoyAphEYPXqsZsenS3IKO4uxY8dr5qKU4Sr46tLCQjPXgAfCCDAC2kHg4C8HKLZpLMU04nBS2rkqPBJPQ6Bjp06anZIuGZG3tzfFNmmi2YvCA2MEGAFGQM8IXElNE06rOXqGgOfOCDgcge/mf+vwPmztQJfkNDsri775ep6tmHE9RoARYAQYAQciMHrCWEpMauXAHrhpRoARKC0t0SwIuiSnvn5+1KRJU81eFB4YI8AIMAKMACPACDACjkRg1gMPObJ5VW3rkpwGBQXRkKHDVAHHlRkBRoARYAQcg8DlSymUm8PL+o5Bl1tlBCoROH7smGah0CU5LSoqon1792j2ovDAGAFGgBHQMwIH9u2n1JRUPUPAc2cEHI7AiuXLHN6HrR3okpwipuihgwdtxYzrMQKMACPACDgQgQGDB1LLVgkO7IGbZgQYgYceeUSzIOgylFSECCU1c9YDmr0oPDBGgBFgBPSMQIOIcD1Pn+fOCDgFgZgY7YZq06XmFFedU+M55d7nThgBRoARsBqBArG6VVZWZnU9rsAIMAKWI5CjYbtuXZJT/OilprI9k+W3MJdkBBgBRsB5CGxc+yOdPXXGeR1yT4yADhH48IP3NTtrXZLTrMxMWrN6pWYvCg+MEWAEGAE9I5DcoR01aqzdJUc9Xxueu+cgoOWoRbq0OW0QHk4jRozynDuMZ8IIMAKMgAchkJCU6EGz4akwAtpEoHuPHtocmBiVLjWnPj4+1LxFC81eFB4YI8AIMAJ6RmD39p2UdjlNzxDw3BkBhyOwaOEPDu/D1g50SU5zsrNpwfff2YoZ12MEGAFGgBFwIAJ5uXlUUlLswB64aUaAEcjMzNAsCLpc1vcWmtNwsbTPwggwAowAI6A9BIaM5Ax+2rsqPCJPQ+DR2Y9pdkq61JwGBwfTyFGjNXtReGCMACPACDACjAAjwAg4EoGzZ7UbEUOXmtPi4mI6cfwYdercRdV19/f1oxBDkKo2uDIjwAh4BgK+Fd7k4+3NvwmecTl5FoyAQxAAb9CKLPrhP/Ti71/WynCqjUOX5DQ3N5f27tmjipyWl1eQt7cXBfsHVgOUdxgBRkCfCPiUe5G3lzf/Jtjh8u/atYuaN29OsbGxdmiNm2AEtIVAWYU2xjPjfu1mytQlOY2MjKT7ps9QdXdkZmWTl9CSsDAC7opAcFAA+fv5UXpROZFGfizdFUuMu6iwnErFS2u6+GRRh8Cp85fIKyCUDBEc61QdklxbiwhohZw2a9ZMi/DIMemSnGLmPr7qpl5eIZ7mnF5Pszc2D6x+BCpwDwspAzdlclo/YPWUKL3N8fHJog6BkXdPIS/RBGOpDkeuzQjUhcAH771LTz39TF1FXHZOl6q/jIx0+vabr1wGOnfMCDACjAAjYB6BzPRbVFxUZL4An2EEGAHVCGg53rsuyWlQUDB16dJV9YXlBhgBRoARYATsj8C2n9bT+bOn7N8wt8gIMAJVCIwbP6FqW2sb6ta2tTYbC8djMBioW3ftpu2ycBpcjBFgBBgBj0Sga6++1CA80iPnxpNiBBiB+hHQpea0fli4BCPACDACjICrEGga14JCQkNd1T33ywjoAoEVy5dpdp66JKc5OTm0eNFCzV4UHhgjwAgwAowAI8AIMAKORODy5RRHNq+qbV2SUy8vL/L391cFHFdmBBgBRoARcAwC+fl5IhhKmWMa51YZAUZAIvDkU09rFgldktOQkBDSsiGwZu8WHhgjwAgwAk5AYOOaFXTm5HEn9MRdMAL6RSAl5ZJmJ69LclpSUkLHjx3T7EXhgTECjAAjoGcEkjt0pkaxTfQMAc+dEXA4At99+43D+7C1A12S05ycbNq+fZutmHE9RoARYAQYAQcikNi6LYVHsLe+AyHmphkBmnLvNM2ioEtyGiF+9KZMnarZi8IDYwQYAUZAzwjs2raF0i5rd8lRz9eG5+45CCQkJGp2Mrokp3CICgnhMCWavSt5YIwAI6BrBPJzc6ikuFjXGPDkGQFHI/Dpxx85ugub29clOc3MzKCv5n1pM2hckRFgBBgBRsBxCAwZNY5aJLRyXAfcMiPACFBkw4aaRUGX5DQgIJDatWun2YvCA2MEGAFGgBFgBBgBRsCRCEyaPMWRzatqW6fkNIB69+mrCjiuzAgwAowAI+AYBM6eOkGZGemOaZxbZQQYAYnA3j27NYuELsmpZq8GD4wRYAQYAUaAjh85SNevpDESjAAj4EAENm36yYGtq2vaV11196ydm5tLm37aSOMn3G3zBEKDg8jbh7m9zQByRZcj4OPjI8cQbuD72B4Xo5C8yVc4W0YEMJ5q8Zxyz0QyGAzkw7+xaqHk+hpEoLyigrKLK0h8uFS0nCFKl+QUd0RpaanNN4W3t7f44axMf1rh6rvL5llwRUaAxFehQhAqRsIeCPh6VZDgpgJPFz9x7DEZF7cRFhx4ewSMpYsvBXdvZwQQLYjIS/7ulriYPyBbplZFl+Q0JDSU7pk0WfU1yS8ppJzCPNXtcAOMACPg/ggUFRVRSVkpXc9lW0m1VzMzPYOCxOqUv9CesjACnoRAsH8ghRiCwE9dLteuXaVGjRq7fBymBqDL9SdoTc+cPm0KDz7GCDACjAAj4GIEft68lc6fPe/iUXD3jIBnIzDviy80O0FdktPs7CzavPknzV4UHhgjwAgwAnpGoGuPbtQ0rpmeIeC5MwIOR2DCxIkO78PWDnS5rB8eHkF3T7zHVsy4HiPACDACjIADEWBi6kBwuWlG4DYCbdsmaxYLXWpO4dAUFRWt2YvCA2MEGAFGQM8IsKOpnq8+z91ZCHw17wtndWV1P7okp1lZmTTvS+1eFKuvIldgBBgBRsCDEFi7fDWdPXXGg2bEU2EEtIeAv792HQ51SU5xQRITE7V3p/CIGAFGgBFgBKhJXFMKbRDGSDACjIADEbhv+gwHtq6uaV2S08DAQOo/YKA65Lg2I8AIMAKMgEMQ6NS1M8U0inFI29woI8AIVCJw6OABzUKhS3JaWFhIO3fs0OxF4YExAowAI8AIMAKMACPgSATWrl3jyOZVta1TclpAJ44fUwUcV2YEGAFGgBFwDAK7t++ktNQ0xzTOrTICjIBEYM5jj2sWCV2SU4SSmvXgQ5q9KDwwRoARYAT0jEBebh6VFBXrGQKeOyPgcAQiIiId3oetHegyzinA8vXV7dRtvVe4HiPACDACTkFgyMhhTumHO2EE9IxARno6RURqk6DqUnNaVlZGFy9e0PM9yXNnBBgBRoARYAQYAR0j8MknH2l29rokp1mZmbRh/TqHX5TSkhLavOEn+Xf04GEqyM+3uM9L5y9Sbk6OxeVdUbC4qIiUYNkg/KdPnKJbN266YijcJyPACHgQAmdPn6HMjEwPmhFPhRHQHgKjRo/R3qBuj0iX5DQ8IpzGjB3n8ItSKgjbFWHU361XDwoMCqJl/1lS1Wd5eTlViP+MBQRPkciGkbKOsm98TjlWWlqqbIrP6m0Znai2WVpiXKfaKarZB9pXyKdS0rjP9avWUU52jihTTisXL6dDvxygTEH8WRgBRoARUIPAiSPH6frVa2qa4LqMACNQDwKdOnWup4TrTuvS8NLb24eaNGnqFNR9fXwpNCxU/m3btJVASg/vP0gpFy5RaWkZDRg6kPz8/GjdyrUUHtGA2rRPJsRhPbD3F+rSo5sc4/bNPxNSrkZGNaR+g/rTD19/Tx26dqJjh45Qi5bx1LVXd9q0fiMNHTW8ak7fffkNTX/ofsrOzKKfRb8jx4+mFYuWkcHfn8rEGMZNmkBeXl6yPDS6a1esIV8fn6o+MNZcQTyzsrJo2JiRYkwBtHrpSjk2Q0AAJbZuRdeuXJX93j31HsLf7m07q/rnDUaAEWAEbEUAv2X+Bn9bq9u9nldROZUUl9i9XW7QPRHwD/Snct/K56d7zqBy1N9/9y3dN32mJqegS3KanZ1FK5Yto5mzHnD4Rbl18yatX7mGbly/QZ26dZH9Hdx3gMZPvlseO/TLQTIEGMS5ztQ6uQ0hbV/33j2ENrJyaLt+3kF3DR5ADaOjaPkPSyj91i2pzWyZ2FKW//7Lb6l7n57ViKmsebu+/BCNFRYUUGF+AcHRIC83l7KzsgmmA4FBgXTzxg1qHt+C4hPixVjXUmHvQkpISqQAQUJPHj9JZ0+eprj45rLZQSOGyvIgxY1iGwtyPahyoPwvI8AIMAJ2QsDH16fq5dlOTapqplysakU1bCgVCaoa4spuj0CBeJbmFQgTPQ8gp8UafuHSJTn19fWj2CZNnPIliRDL8yB0m9b9SA2F5hOCpfIzp07LbZA+aFOhXYX4+FS3tIht2oR2CoIKTSfMA7Zs2CTL+QptK7SplkpIaCgNHTOCftm1R5DTPKkNjWgYQf5Ck9q4SWPau2OPHFPLpASqKCsnkOKIyAhCP14isgHG0ad/P9q2aYt4aHhLja2lfXM5RoARYASsQWDDqrXUqm1rat22jTXVHFoWK03W/OY6dDDcuMsQ8KR74AENh9S0nN247Fawf8dBwv5zyFDnhCrxFkQOBBDL8ds2b5WTgbYS5DiuRXN5DmrSA3v3U+qly5RyMaXahEvLSsVyfzhdTbsiHavGCpJqSlJTLlc77CMIJZbdYR4AuSk0twfFdo++vQhvfrAvbdY8jmIaN6LUlFQqKSmmNu2SyWAwkJ9YToN2tX3njsKJq7Ls+TPn6MK589RnwF3SFgz1fYV2I61Gv9UGwTuMACPACNiAQGKbJIqKjrahJldhBBgBSxE4cfy4pUWdXs7nVSFO71VFh7CXLFKpii4SXuYHRU7ZJjZqT/EGHSiW4kvKS6m4tG47JLxlRYsc0f6C9Pn7+1GAsN1M7the2JxepByxtJ4gbDdx3kfYe6bfSpd2TS0S4wkEGlrX5i1bUJmwTQU5xfI+jsNUFHUwDmxHxUTL9kA0FWkiNJ3QzmK5voEgtwoRhkd9+84dKFrUUSRKmAzAzvX0iZPUpFlTSYbR/hmxnA8CC61ry1YJgsCW0IWz56QZQWhYmBhfhOj3kuxDtiXGEiaOg3yzMAJ6QwAvbL/s3ku9+vXR29TtPl/5m6Sl35GScvkbid9pFn0jAKfgYqHMsXVZ39/Hj/zF6m2h8H8uv21+Zy0CcPk4AAAqqUlEQVSifj5e5C/+ioqL5cqrtfWV8p9/9ind1b+/smvTp79YXXVE3HgvscRsIzw2zUN1pWJBkLJz8lS1k5GRQYsXLaRHZ8+xqR0QzsjwMMovKaScQnVjwQAy0jPEcv1PYnk9VmhOL9GUmdMk8bRpcFyJEWAEXIIAXno/fmcuPfPCcy7pnzt1HAIV+SUUKbLpYBWMRd8IYOUxJy+XKgy2LTwH+wdSiCGIMooqqKTMNvoV5OdFIeIvKydXKI3MR+Cp70pdu3aNGjW6o9Sqr7yp8yHiJTJAKOvsLbq0OY2IiKCZ98+yN5Y2twfbzuFjR4q4prly2V3xore5Qa7ICDACjIAbIwCdCf8OuvEF5KG7BQIxMTGaHadt1F+z07F8YMbxOi2v5biSwSEh0vudl40chzG3zAgwAu6BwNoVq+nsqTPuMVgeJSPgpgi88++3NTtyXZLTdJFPdsF38zV7UXhgjAAjwAjoGQHYzIc2CNMzBDx3RsDhCCQnt3N4H7Z2oMtl/RChpezRq5etmHE9RoARYAQYAQcioMSEdmAX3DQjoHsERowcpVkMdKk5hVG7ltN2afZu4YExAowAI+AEBJD97uaNm07oibtgBBgBLSKgS82pFi8Ej4kRYAQYAUagEoEL5y/IeMsIKeWJUiA8tS9cLiERJbBeCQ32puaxviIBQL1FuQAjYBUCiFo0afIUq+o4q7AuyWlOdjatWbOK7p023Vk4cz+MACPACDACFiIwavwYj83GdPlaKb3zdRblF1oeRqhtSz964r4GJPKesDACdkMgPf2W3dqyd0O6fBfzFoGUw8Ia2BtLbo8RYAQYAUbADgggaoknhpJCVPFvludaRUwB54nzJbR5T4EdkOUmGIE7CMye8/idHY1t6ZKcBgcH06jRYzR2KXg4jAAjwAgwAp6MwI4DhQTNqS2y9ud8Efy93JaqXIcRMInAubNnTR7XwkFdktNikfLr0KGDWsCfx8AIMAKMACNQA4Gzp89QZkZmjaPuvQs70xWb8m2ehNr6NnfMFT0WgYU/LNDs3HRJTnNzc2nv7t2avSg8MEaAEWAE9IzAiSPH6frVax4FwZqtQvOZr07zufOg0LxetU3z6lFg8mTsgsCMmdrJlFlzQrp0iIqMjKRp02fUxIL3GQFGgBFgBDSAwNBRw8nf4Dl57K+nl9GWPYUmke2Y5E/xzfyMzlVQuci5vl2YAGRkV3eaKhe7C9fn0XMPsM+EEWC8aSMCzeLibKzp+Gq6JKeA1ddXt1N3/F3FPTACjAAjoAIBH+GW7kkOUYsFoSwFs6whDcN96JHJoeTn61XjDInwUd70/nc5AofqC5xnLpXQ/uNF1DXZUKtOzQMwYVu6dKmITrOGysvLqU+fPvTYY4/JSAhFRUW0ZMkSec7Pz4+GDx9O06ZNo5SUFJo1axZBiYPnZIcOHWjGjBnUunXrms3zvpsjMPf99/5/e2cCHVdxpeHbWlrq1i7L8r7Isi3ZxisYsA12bEIIjG0MmIHAYELITMhAdpjJJCEnOZOchCRzAvEhkMTEmyzjfcUL3sF433eDd7zJ1t7aW8vcW61uSdZiuVstVav+B3J3v/fq1q2vquv+/V5VPXrlP1/VshRGKrScnByS9b2+9fK3tawUOAUCIAACJhPYuGY99U3tT/1TUwIew8lzZXTsTFmD5Zg4zq6E6ZFThXT6fP3Z+CEWFrVVEfUE6opNRXQXX3FtSNTWzugvf/kLFRUV0YwZM5TYf/nll6lTp040ZcoUeuutt8hut9PMmTOVcBUB2oOvpHXp0oXkKYrLli1Tpnbt2kWvvvoqffzxx54fDCJ05U/Erwhb+ZPPkpekdW+yT+Jthw4d3LvUq5wnKzKEhbkEdkWFa8FX2VfFSxqUl5crm06nUwnkfF7+MSbGdbU4Ly9P5SHnujfxQ/IKDw9378JrMwhIfeu6GSlO5Qs5dOgwXesEfoEACICA0QSS+/ejhI4dA55BBQ8xXcpXTRvauiQE04UrThrYN5RmLr1BBUUVfEXTwiKrioYPjKDnJyXSyMFR9NaMKxQcEllHoGblVdDmXcX0yAP2hkx79slV04ULF3pEpQjSwsJCJQBXrlxJW7ZsUecG8Qr/b775phKbnsTVb+Rq682bN1U6t/DcuHEjvfPOO+oK7K9//WuSeRx/+MMfeInGaBo0aBD9/Oc/p5MnT9Lrr79OiYmJlJWVRR988AElJCTQn/70Jzp48KASoI8++ii99NJL9Pe//53kyY0ins+dO0c//elPadGiRTRp0iQlpkUwy75f/epXSuyKP7/85S/VleC5c+cqIS1iVc6fNm3arUXA50YI/MukyY0cafvdRopT+bV29z33tD19eAACIAACIFCPQMrA1Hr7AnGH3H6/num6Kljbf9agNG1KFI9DzaWZS4qUMH31+S7UP8lGs5dm8G37QnpsXDmPRQ2jCfdF04YdeTwGN6qOQN2ws5geut/GVxbrDwlw55WZmamuhMrVyD3Vk4A7suiXK42yLyoqyn2qun0vHy5cuKCE6GeffUZy63/9+vU0cuTIOldE5TwRmrNmzVK2JkyYQGvWrFFXN1988UU6fPgwrV27VonFV155Rb2/ePEiHT9+nOQ1PT1dTNDkyZNp7Nix6n1j//zoRz+iYcOG0fTp0yk1NZXEngjfOXPmKOGalpamhibIMBCx9cQTT9QpV2N2sZ9o547PaNToMVqiqDuYRUsX4RQIgAAIgAAIBB6BjAaEqZQinseadu8UQpPHx9Hn5wsoKiKYhqZGkD08iO6+K4qFI9Huww5V4OEDI5WQLCt18GvNbP/SsirKzqv53BAduRAjt9BFiH7yySfqFv7777+vbpWXlDQ8QUvsSBq5nX/ixAk1BODdd9+tZ75bt27qiqwIYLmSKaJRhgZcuXKFLl26pMatHj16lF544QVlTwSmXFnNzs722BLB+eyzTT+pUfKRrWvXrnT58mX1fsCAAfS73/1O5StjZJ977jmVt5RTPmNrHoEdLE513Yy8clrgcNDGjRtoyhNP6lov8AsEQAAEjCXw6eZt1Ds5iXr06hnQDAYmW2kdL55/65aZU0FHPy+jwf2tNHF8PC1cm0mrNmdTah8bXyXNJWtoED08JlYlk8+yifAqKy3gK6iuW/wymapjfM24S3XSLf/IFc+tW7fSY489Rm+88Ya6uimf5RZ4SkoKr/d9hIYMGaJS/f73v6devXrRqFGjSK6u/uQnP7nFWsMfRQDL+XI1tPYktv3796tb/XL19Re/+IXyX8aSirB0b7/5zW/o7bffJhGxcky22jbc58nroUOH1G18eS9XfkU8y1jXe++9V13Blf3Y7ozAq699/84StOLZRopTbv3ql2MrckZWIAACIAACzSQQzLPELTwOMtC3pO4hNCw1jA6dKq1XlGWbCmlAcihNuD+Gb+/n0aot2fznOm3yQ/EUHxNCp88V04HjBZ60cuXULVAfnyC3+T2HGnwjAlPGYO7du1fdEpcxqI888og6V26Xy9VOmZkvk5Y2bdqkxm7K+zvZ5Pb+8OHD1aQpmfG/evVq+uMf/6jGlcpELMkvIyNDTbYaOHAgTZw4UU3EkklO169fV4JT5oH87Gc/UxOaZKypzWar58LUqVPpxz/+sboKK0MOxJaMUf3tb3+rxp8OHjxYTdp67733EN/r0Wt4h84TyCz8a6z++hYNl0OLvWU8ey/f0fAA89ZyUAaPx8dGU5GzhBwlbetLa5UZ+YAACDRNQK4Q/WP6+/Ta6z9o+kQcDTgCVUVOio+LV5N27tT5rNwK+u37ueTktUtv3aY8ZOdxo3a6eqOMrmTIjPMqWrMth37+3R4UEmyh//3rJV50v/5M/3697fRf3+56q7kGP8vs9t27d6tJSyIik5KSPOeJONyxYwfFxcXRPTwPQ8agyuQmEbPjx4/3nHfrm6tXryrBKfZkk6ueBw4cUONV5cqrzAKX2fMyxlTGh8oVXHe+Ikq3b9+uZuqPHj3aI0RPnz5Nx44doxEjRqhb8zJ+dPPmzTRmzBjPrH65rS9XTPv166eu+MpV1uLiYrVPyvnggw/WWxngVt99/Sz5OQoLqCrMux9PEVYbRYbZKYefGNZQm2iOf/ZQC0XyX56jgJxO7x/KcPnyl9S9u28z9iPtNv5R4Vp1oTm+N/ccI8WpLE9x5swXfHthYHM51TkP4rQODnwAARBgAhCn7bcZ+CJOhcrKLUV8u77+7X1bmIXe/G6sGnMq523dnUcR9mCepR9J2/bkUdrKm7K7ziaTqX72Sg/q1a3lBUGdjPChQQLtSZz+8a3f0Rv//T8NlrO5O/0lTo28re9w5NMOvi3grThtbqXhPBAAARAAgTsncOLoMUrs3JmXk0q488QapvjaGBtPcCqh/MK6E5iK+erZ/83KpsTYcpLrqmcullByz3DadchBp87VF7NStFHDoiFMNazjQHTpqan/qq3bRorTOL498+RTU7WtFDgGAiAAAiYTuHDuAoVare1GnIZbLTRpvJ3mra4ZP+qu36xcC93MtpCTJzuJQD3MC/I3tsmV1icfiW/sMPaDwB0R6JOcfEfnt+bJ3g2aaE0P/ZCXjFOJjq5Z380PWcAkCIAACICAlwQemfgo9U3p52VqPZPdNyScenRu+HpQUFAIhcos/Nu4/ui4eIqObNjGbZLiMAjUI/DPGf+ot0+XHUaK09zcXJo7e7YudQA/QAAEQAAEahGQpY4st5VqtRIEwFuZWf/Uw/wo0kZ8vZ1A7RgXystLxTWSGrtB4M4JyEQ4XTcjxaksn5Baa601XSsHfoEACICAiQQyrl1XSwa1t7In9wylYQMan8jUlEB9+usJPIO/vRFBedqSwBMaD280VpzeP2p0W7YJ5A0CIAACINAIgb279tCXFy41cjSwdz/7WCT16xXa7CuoVl4yaOJX4mn4oIjALji8147A/n17tfPJ7ZCRg1dkKQiplAceHOvmgFcQAAEQAAFNCNz/wCh+lnv7nBdgD7fQ9/8thkp4pn55RePAq6oS1UEbP9IUV0wb54Qj3hPYwuvI3n3PSO8N+DGlkeK0rKyUzp49C3Hqx4YF0yAAAiDgLYEEfhxme9/CeeZ909vtjjedGkdB4HYEvvPd/7zdKW123Mjb+jExsTTtxW+2GXRkDAIgAAIg0DiBDWvW0/kz5xo/AUdAAAR8JiBPBNN1M1KcSmXIclLYQAAEQAAE9CPQIaED2SLs+jkGj0CgHRG4kZGhbWmMFKfyHGB5fCk2EAABEAAB/QiMuPce6tyls36OwSMQaEcEZs+aqW1pjBSn+Xl5tG3rFm0rBY6BAAiAAAiAAAiAgD8JTJw82Z/mfbJtpDiN5YVnJ02e4hM4JAYBEAABEAABEACBQCUwYMBAbV03UpwGBQVRRwNmg2rb6uAYCIAACDRB4NMt2+jLi5eaOMN/h9atWkMFDof/MoBlENCEQNqc2Zp4Ut8NI8VpXp48vnRWfRrYAwIgAAIg0OYE1ONLLW0Tnjp17kRz/jGLnE5nm3OAAyDgTwKhoaH+NO+TbSPXObVawyipTx+fwCExCIAACICAfwiMHvuAfww3w+rwkXdTVmYWLZg7n55/6YUWWdmloqKJ1fab4RNO8R8B+SFk6vbMN57TtuhGilObzUYPjh2nbaXAMRAAARC4lUBVVZXa5X6VD+737lfeQa6zao559vEBz1H3eepk3ut+VUZd/3j2uY+p17rHJDPX7hobDe1z2/Icc+dfvcOVRbUl18kuu+73nlePg/XK7jrlFhsuw8rJmrLX4iDmeOvEKwNERNQ8HvSrj36NFqbNp7UrP6LHHp/oOsmHfzMzMz3++mAGSf1AQIb4mSpQjx45TIOHDPUDVd9NGilOS0pK6PChg3Tf/aN8JwgLIAACIMAEZO3kK19epl//9M0aMcTiqFou1d/nEVzuMzwne4SMR3QaQLj22tOe98xUrUjN/1S/E9B1993mmCdltaFbl7guLChUdO++r+5jHPNy8+jg3gP0wLgHKcrq25qrnTp1MqAGUcRAI7Bu3VqIU50qraSkmE6cOAFxqlOlwBcQCHACVquVXnv9h1Re7vTcClYySokil3iVInqEl8it6mM1gusW4eVKUC3Gqo81tK+O8HLbcBl35dHIvup01SbFu/o+efbxya7/pRCSRI7U3+c5JidUn3fLqytZ3WPKYBv8I+I08+bNOjmXlZbRP9/7Bz02ZRJFx8ZQVRHGn9YBhA/tgsDL3/4Pbcth4V/mrp/t2rpY17EyHqSe73D90q175M4+yUL8ISHeXTiW2f7xsdFU5CwhR4nvvtyZ5zgbBEAABEDAXwQqKysp7YPZ1KN3Txr/8EMqGxGn8XHxJD9AsJlNoLi4mByFBVQV5t2EvQirjSLD7JRTWkXOCu/klz3UQpH8l+co4Il75V5XiIyF9nVIQ6TdRuHhYV770FhC7+g2Zi1A9oseLygoCBBv4SYIgAAIgEBrEVizfJUaf+oWpq2VL/IBgdYmMP2dP7d2ls3Oz0hxmpOTTUsWL2o2JJwIAiAAAiBgBoGk5D405ZmnzCgsSmk0gWHDR2hbfu/ua2tbnOY5FhUVTaNHj2neyTgLBEAABEDAGAKDhg42pqwoqNkEvjJ+grYAjLxyKgvPDhio72O7tG0tcAwEQAAEQAAEQAAE/EzASHHqZ6YwDwIgAAIgAAIgAAJaE1i4YL62/hkpTvPz8yh9Xpq2lQLHQAAEQAAEQAAEQMCfBEpLSv1p3ifbRorTkJBQ6ty5s0/gkBgEQAAEQAAEQAAEApXACy9+U1vXjRSndrudJjz0VW0rBY6BAAiAAAiAgD8JyHqdZWVlnixkecVLly7xQyQaXjczPz/fc27tN4WFhY2mczgcdPHixTr51E6L921L4PSpU23rQBO5GylOS0tL6cD+/U1gwSEQAAEQAAEQaH8ERJQuXLiQ/vznP1N2drYq4LVr12jOnDl05swZmjlzZp1C37hxg9LS0ujtt9+us18+3OQna8n5Z8+epRkzZngeuyvHZF96eroSp3/7299IFnzHpheBlSuW6+VQLW+MFKdFRYV06NCBWhjwFgRAAARAAATaPwF5MuLEiRMpNTXVU9jDhw/Tww8/TBMmTKCoqCglOt0HIyIi6JlnnqGEhAT3Ls/r0aNHafz48eovMTGRrl696jkmV1SnTp1KY8eOpbi4ODz4xkNGnzfTNL6tb+Q6p3H8GLrnnn9BnxYCT0AABEAABECgFQjIUoryV3sTISmiVLbIyEgqKiryHBZx2thWO52kr51uyJAhKplcnZWnMsbExDRmBvvbiEAnjefeGHnlVNpBRSPjatqojSBbEAABEAABEGgTAhaLxXNLXoSkfG7OVjtdZWVlvXQyhGDZsmX0+OOPN8cczmllAtPfqT9Uo5VdaDQ7I8VpDv+SW/Chvut7NVpbOAACIAACIAACLUxAVq+RcaeyyTjSjh07NiuH2ukyMjJIbu27N6fTSYsWLaJJkyZRdHS0ezdeNSKQUmtoh0ZuKVeMvK0fwbct7hk5Ure6gD8gAAIgAAIg0CoE5Da8jD+VbcSIEbRp0yYlJocOHUo2m4127txJly9fpqefflqdI+NG3duuXbvURKcnnnjCky4lJUWJ0L1796qJVX379qWSkhLasmWLSiZ2a49zddvCa9sR+NojX2+7zG+Ts4Uv4Vfd5hytDpfxr7F8R2Gb+hQUFETxsdFU5CwhR0nb+tKmIJA5CIAACBhAoKrISfE8V8FqtRpQWhSxKQIyVMFRWEBVYd7deI6w2igyzE45pVXkrPBOftlDLRTJf3mOAnI6G176q6kyuI9t27aVxo37ivujV6+RdhuFh4d5lbapRN7RbcoijoEACIAACIAACIAACGhN4MC+fdr6Z6Q4dTjyadHCBdpWChwDARAAARAAARAAAX8S+N4PfuhP8z7ZNlKcBgUFY4C2T80GiUEABEAABEAABAKZgHvMsY5lMFKcyrptj3z9UR3rAz6BAAiAAAiAAAiAgN8JnD93zu95eJuBkeJUnid89MgRb5khHQiAAAiAAAiAAAgENIHFi/Qd3mikOC0oKKC9e3YHdKOC8yAAAiAAAiAAAiDgLYFnv/G8t0n9ns5IcRofH0//+syzfoeLDEAABEAABEAABEBARwI9evbU0S3lk5HiVEoeivXqtG2UcAwEQAAEQAAEQMC/BN5/713/ZuCDdSPFaU5ODqWnzfUBG5KCAAiAAAiAAAiAQOAS6N69h7bOGylO7XY7DeFHqWEDARAAARAAARAAARMJTJw0WdtiGylOw8LC6O57RmpbKXAMBEAABEAABEAABPxJYOfOHf4075PtEJ9SB2jioqIi2r1rJ42f8FCAlgBugwAIgAAItCaBrKwssmKuQmsi1zIv0Q9htnAtfbtTp3Zs306jRo2+02Stcr6R4rTc6aSrV6+0CmBkAgIgAAIgENgEgm1WsnARqgK7GPC+BQjYYiKoihtDVTtoDa++9r0WIOIfE0aK0+iYGHr+36b5hyisggAIgAAItCsClRbI0nZVoSiMIhBus2lLwsgxp9rWBhwDARAAARAAARAAgVYgcOXy5VbIxbssjBSnTr6tf+rUSe+IIRUIgAAIgAAIgAAIBDiB9Hn6LqlppDh1OPLpMx4IjA0EQAAEQAAEQAAETCTw5FNPa1tsI8VpXFw8PfnUU9pWChwDARAAARAAARAAAX8SSO7b15/mfbJtpDi1WCwUHR3jEzgkBgEQAAEQAAEQAIFAJfDPD2Zo67qR4jQ3N5fmzp6lbaXAMRAAARAAARAAARDwJ4HY2Fh/mvfJtpHiNDw8nFIGDPAJHBKDAAiAAAiAAAiAQKASePKpqdq6bqw41fWpCNq2FDgGAiAAAiAAAiDQbgjs379P27IYKU6Li4tp+/ZPta0UOAYCIAACIAACIAAC/iSwZdMmf5r3ybaR4rSstJTOnvnCJ3BIDAIgAAIgAAIgAAKBSuA7r3xXW9eNFKcxPAh42osvaVspcAwEQAAEQAAEQAAE/EnAGhbmT/M+2TZSnFZVVlJWVqZP4JAYBEAABEAABEAABAKVwLvT39HWdSPFaU5uDq1YvkzbSoFjIAACIAACIAACIOBPAvfdP9qf5n2yHeJT6gBNLAvwjx33FZ+9t4eGUyVfhcUGAiAAAiAAAiAAArcjEGG1uU6put2Z/j8+5oEH/J+JlzkYKU5DQkKoX7/+XiIjqqqqaVWRYXav7SAhCIAACIAACICAeQQqqUZHmFf625fYSHF6eyxNnyHiNDs3n4KCLE2fiKMgoDGBCFs4hYaGUk4pd5LoJzWuKbgGAiDQnghUsoao0KDPnTd3Dj3/wjQt0RopTvPy8njM6VKfZuzL7Xzc0deyTcOpZhKQDlK28soqvhvQzEQ4DQRAAARAoF0QCA4J1rYcRk6Islqt1Lt3H20rBY6BAAiAAAiAAAiAgD8JPPuN5/1p3ifbRopTm83GE6LG+QQOiUEABEAABEAABEAgUAkcO3pEW9eNFKclJSW0Z/cubSsFjoEACIAACIAACICAPwmsXbvGn+Z9sm2mOC0upuPHj/kEDolBAARAAARAAARAIFAJfOvlf9fWdQvPPA+oqRBlTiflOwp9BupkOzJTGRsImEogKtJOYTz++mYxL2oSUL2AqTWGcoMACIAAkT3UQpH8l+coIKez3GskFRUVFBzs26SoSLuNwsNb/jGoRl45FT1eVOi7wPW6RSAhCIAACIAACIAACLQhgenvvN2GuTedtZHiNCcnhxYvXtQ0GRwFARAAARAAARAAgXZKYOiwYdqWzEhxGhUZSaNG6ftMWW1bCxwDARAAARAAARBoFwTGT3hI23IYKU5DeZzdwEGDtK0UOAYCIAACIAACIAAC/iSwccPH/jTvk20jxalPxJAYBEAABEAABEAABAKcgM6rFhkpTvPz82h+elqANyu4DwIgAAIgAAIgAALeEfj+D37kXcJWSGWkOA0JCaXExE6tgBdZgAAIgAAIgAAIgIB+BCwWi35OVXtkpDi12+300Fcf1rZS4BgIgAAIgAAIgAAI+JPA56dP+dO8T7ZDfEodoIlLS0vpBD8haviIuwO0BHAbBFqOgPrtrO8P6JYrKCyBAAiAQDsg0FLd9Yrly+iN//4fLYkYKU6Ligrp4MEDEKdaNkk41doEEmxG3kBpbczIDwRAAARaloCPT/Z7Ydo3W9afFrRm7ONLi4uLyWaztSBKmAKBwCIQGhpC4WHWwHIa3oIACIAACKhHThcWFfOrjwrVR5b+enypkVdOpS4qKyt9rBIkB4HAJiDPZPblucyBXXp4DwIgAAJmE5j+l7fpe9//oZYQjLyfl52dTQs+TNeyQuAUCIAACIAACIAACPibQP/+Kf7Owmv7Rt7WLysrpZMnTpLOz5X1ukaREARAAARAAARAAARagYC/busbeeXUag2DMG2FRossQAAEQAAEQAAE9CTwybatejrGXhkpTosKC2nDx+u1rRQ4BgIgAAIgAAIgAAL+JLB/315/mvfJtpHitLyigmTcKTYQAAEQAAEQAAEQMJHAa5pOhpK6MHLMqYmNEGUGARAAARAAARAAgZYkgDGnLUkTtkAABEAABEAABEDAYAIXzp/XtvRG3tYvKyujY0ePaFspcAwEQAAEQAAEQAAE/Elg0cIP/WneJ9tGitOCggLas3u3T+CQGARAAARAAARAAAQClcAzzz6nretGjjmVx30VOBwUFR2tbcXAMRAAARAAARAAARDQmQDGnLZg7VgsFgoLD2tBizAFAiAAAiAAAiAAAoFD4G/v/1VbZ428rZ+Tk0Pz5s7VtlLgGAiAAAiAAAiAAAj4k0DXrt38ad4n20aKU7vdRoOHDPEJHBKDAAiAAAiAAAiAQKASmDT5cW1dN1KchoWF0z0j79W2UuAYCIAACIAACIAACPiTwK6dO/1p3ifbwb/izScLrZy4orKSSsucPuVaUlJMc+fMIeKJUV26dKXNmzeRVNLgwUPo6pUrtGjRAurQIYFiYmNp0cIFdOXyZUru25eOHjlMa1avpn79+1Ml+zF3zmyq4tcuXbvSFrGxY4e6Inv16lVO9yHFd+hAsWxj8aKFdPnyly4bvITVmtWrqF+/flTFpUhjGxUVldSVbWzdspl2fLadbQyla9euKRtx8fFsI46WLF5IX166RH379uNlsI7SR2yjb7++JONn586eRfLUK7lEv23rFvps+6c0hG1cv36NFi74kGLj4ikuLo6WLl5EFy9e5HT96PixY/TRqpXKJ7cNZ3k5devWjeR5u59+uo2GDB1GGRnX2cZ85YOysWQxXbhwnv3vTyeOH6PVbKNPcjIFBwczj1nkdDrZRnf65JNtbGcbDWUbNzIyaAHbiImJJSnPsqVL6MK5c4rjiRPHafVKttGnD4WEBNMcLoss9dWte3f6VNnY6rJx4wYt+DCdomNiKJ5tLF+2lM6dO6tsnDx5glatXEFJfZLYRqiyUVpaQt2796Dtn35CW5nJkKFDKTMzU9mQiXDx8R1oxfKldPbMGerfP4VOnTxJK9lG76QkslqtimlJCdvo0UPxlLoRHllZmfTh/HSKjIriNtKBVi5fRl988QX1T0mh06dO0coVy6lX794eG8Xc1nqwDalXaSNSt9lZWWxjHkVGVtvgNJ9/fppSUlLp89OnacWKZdSrV28eFx2uylJcVMQ2etKOHZ/R5k2bVN3KE87ERkREJHVISFDl//z0KZcNtrWC/erZqxeFsw1pH4X8yN4ePXvSTm6jmzdtoCHc1nNyc2l++jyyR9gpgW1IXZ46dZJSUlO5TJ8rPj169iKbzabqVla56Mmfd+3cQZs2blBtPS/PZcPGdyMSEjpyu1xJJ0+coNTUAXSGuSxnxt3Zd7vdrr4vDp6IKH7t3rWTNm7YQHcNHkz5eXmUzn6E28KpY0exsYrb1nFKHTBA1c/yZUtUXYoN+b7kO/KZTy9ecWMXbdiwnm0Mofz8fJo/L43LG8Y2EmnNR6vp2LGjNGDAQDp39iwtYxvSpoSXfG8lT2G8Z89u9SjjQXcNJimf2AgLYxuJibR2zUd07MgRGjCQbXBbk3bblb8fkZGRlDZ3NuUyP6nrvXv2sI11NOiuu5hzAaWnpan6T2Qb69auoSPcb4iN8+fPsY3F3F+4bMybO4dycrKpd+8k2rd3D328fh0NHHQXyeOV09PmUqg1lBITO9H6dWvp8KFDNHDgIJJ1CZeKDe63pA3O4/Oys9gGt1t5FOHH69ZxXoOouLjYZSM0hBI7uWwcOniQ7Q+iixcu0NIli6hz5y4UxTbSuczSrsXGgf37VH7ir7R/8VG+l506dVb+HTywX/l4ifuRJWyjU+fObCOa21EaZd68SUlJfegAn7Nu7VrFXr6HYkP6BzlXHht9YN8+xerSJbbBfZL4F83fSWnPN/h7nsR9wcEDB9jGR6odSX8wL20OBQUFsc+dud18TPv27WEbg+nLLy+pvrEjcxIbC/i7KX1Wnz7JdOjgAVorNvh7Jf2S1JmF+0spt7Rfqbe72Ib0zdJHS7uR/mXBh/PpOve/0q8dPnRQtQP5bpZz/6hscL/duYvLhqz6Im1YYsRijhvyHYhhG9LvXrt2Vdk4cvgQrVmzWvUzFdxPpzEPT+zZtFF9F6QNX+HYIzbk+yx9pcQQiUfJyX1VG6ofezh+1Ys9HL84ZtXEngVcPnf8qo49/Tn2cPBRsYfjlyf27HDHHlf8iuM+UuLXEmYjnF2x50h17OlHFuYg3yUpU2OxJ45jTyzHHqlnaTOu2MPxa9WqOrFH2Mp3a9vWrarPlv4643r92HPx4nm20Z+Oc+xxxa9kbhe3xB6JXxw7XPErQ8UvieXii4o9/B1S8csde5L7eOJX82LPEu4PXPFL+jpX7JH4FVIde0q5v+quyiHx2BV7btaNPRy/zp6tG3uS+PsXGhqq+mt3/JJY7ok9mRx7OAbK903qV/p46WNdsYfj1wqJXzWxR3SOil8ce7Zy7HHFr7qxR9r66DFjuCa936zss5S9pTcjZ+sLxOzsLBWoJBBJ4C4vd6oOQb5ouTwmVRqzAJcgFsydswS10tJSFcBElLht2O0RSgAUFRWqDlA6lXo28vPUF0iCWllZKTkcBUpgSUcpIkOCroiIIhYhTu6IJW8Rvzl8zOMHB1/pnF02ytiGw6825EsqHdOd+CH+2mqVpTEbDi6LpZGySLC22Wp41LPBHX8IfxlcNixK4Mk5DhYsIjiFqbIRbmOxYyMRdqXMXAS+Kgvbj46OUZ2ApLHwfxLknc4yJXBqbOSoOhFhVlzMNkrYBneybh4SxKQjqWvDyTbyavlR20Yx2yipsVHHD4dqTyIUJIg2ZUMEg/xIkBUnpA3XlKUBG9wZC2cZYy3ty1WWYiU6mmWD2778mJB2J98JEcuN2uAOM5RFvayCUcX/SQfqLosEBWUjl21Yw1QbKWHxJMJdjrnLImnkh0FBAduoZBssNsqZR15tP9iGlW3Id0Y63+IitsE+NmmDA18eC0lPWfi95OOyUaLaSI2NbCXYXH4UqPoW0SPBsykb8t2VH00uP1rDRpzqU8Qn4e4uS30/IhUvEd6VlRWqvbjLIu1ZRKP8wAjlH3X2iAjVRguryyKNMot/SEVxv2WVfpJtVDTHBgtS6VPlu+S2If2Wq69lG+XsB39/3P1kbT/kx2WE+MF9rQh9tw35QRfhsVHINsobsZGn+m2PDfZZArlst9oQDiIk6/vhuw1X3AipKUttP+rFnlv9iOV64djDfYnUT2OxJ4Jjj3wn5ceMs7H4JTZYvAm7MmbqED+4ndaPPWyDL/qo2MMxUPqMmthTO37pGXtujaP14kZ1PG8y9tw2fnHs4fZ5Z7Gnbhz1xA2JgRyrVOzh+CU/uGtiTzb317bqvpZjD9fb7eNX03GjTuzhcrr9kB+x0qf7svlrtr6x4tSXykBaEAABEAABEAABEDCdgL/EqZFjTk1vTCg/CIAACIAACIAACOhKAOJU15qBXyAAAiAAAiAAAiBgIAGIUwMrHUUGARAAARAAARAAAV0JQJzqWjPwCwRAAARAAARAAAQMJABxamClo8ggAAIgAAIgAAIgoCsBiFNdawZ+gQAIgAAIgAAIgICBBCBODax0FBkEQAAEQAAEQAAEdCUAcaprzcAvEAABEAABEAABEDCQAMSpgZWOIoMACIAACIAACICArgQgTnWtGfgFAiAAAiAAAiAAAgYSgDg1sNJRZBAAARAAARAAARDQlQDEqa41A79AAARAAARAAARAwEACEKcGVjqKDAIgAAIgAAIgAAK6EoA41bVm4BcIgAAIgAAIgAAIGEgA4tTASkeRQQAEQAAEQAAEQEBXApYq3nR1riG/xN2KioqGDmEfCIAACIAACIAACIBAKxEICgqmoCBLi+cWcOK0xQnAIAiAAAiAAAiAAAiAgDYEcFtfm6qAIyAAAiAAAiAAAiAAAhCnaAMgAAIgAAIgAAIgAALaEIA41aYq4AgIgAAIgAAIgAAIgADEKdoACIAACIAACIAACICANgQgTrWpCjgCAiAAAiAAAiAAAiAAcYo2AAIgAAIgAAIgAAIgoA2B/wcEk6p5A/JZDQAAAABJRU5ErkJggg==;imageBackground=none;" parent="1" vertex="1">
          <mxGeometry x="80" y="360" width="370.5" height="360.13" as="geometry" />
        </mxCell>
        <mxCell id="v5uwHPY_rMlKOSk-OUPP-1" value="&lt;font face=&quot;Comic Sans MS&quot; style=&quot;font-weight: normal; font-size: 8px;&quot;&gt;BigQuery&lt;/font&gt;" style="sketch=0;html=1;verticalAlign=top;labelPosition=center;verticalLabelPosition=bottom;align=center;spacingTop=-6;fontSize=8;fontStyle=1;fontColor=#999999;shape=image;aspect=fixed;imageAspect=0;image=data:image/svg+xml,PHN2ZyB4bWxucz0iaHR0cDovL3d3dy53My5vcmcvMjAwMC9zdmciIHhtbG5zOnY9Imh0dHBzOi8vdmVjdGEuaW8vbmFubyIgd2lkdGg9IjIwLjAwMTA0NTIyNzA1MDc4IiBoZWlnaHQ9IjIwLjAwMTA0NTIyNzA1MDc4IiBmaWxsLXJ1bGU9ImV2ZW5vZGQiIHZpZXdCb3g9IjAgMCAyMC4wMDEwNDUyMjcwNTA3OCAyMC4wMDEwNDUyMjcwNTA3OCI+JiN4YTsJPHN0eWxlIHR5cGU9InRleHQvY3NzIj4mI3hhOwkuc3Qwe2ZpbGw6I2FlY2JmYTt9JiN4YTsJLnN0MXtmaWxsOiM2NjlkZjY7fSYjeGE7CS5zdDJ7ZmlsbDojNDI4NWY0O30mI3hhOwk8L3N0eWxlPiYjeGE7CTxwYXRoIGNsYXNzPSJzdDAiIGQ9Ik00LjczIDguODN2Mi42M2E0LjkxIDQuOTEgMCAwIDAgMS43MSAxLjc0VjguODN6Ii8+JiN4YTsJPHBhdGggY2xhc3M9InN0MSIgZD0iTTcuODkgNi40MXY3LjUzQTcuNjIgNy42MiAwIDAgMCA5IDE0YTggOCAwIDAgMCAxIDBWNi40MXoiLz4mI3hhOwk8cGF0aCBjbGFzcz0ic3QwIiBkPSJNMTEuNjQgOS44NnYzLjI5YTUgNSAwIDAgMCAxLjctMS44MlY5Ljg2eiIvPiYjeGE7CTxwYXRoIGNsYXNzPSJzdDIiIGQ9Ik0xNS43NCAxNC4zMmwtMS40MiAxLjQyYS40Mi40MiAwIDAgMCAwIC42bDMuNTQgMy41NGEuNDIuNDIgMCAwIDAgLjU5IDBsMS40My0xLjQzYS40Mi40MiAwIDAgMCAwLS41OWwtMy41NC0zLjU0YS40Mi40MiAwIDAgMC0uNiAwIi8+JiN4YTsJPHBhdGggY2xhc3M9InN0MSIgZD0iTTkgMGE5IDkgMCAxIDAgMCAxOEE5IDkgMCAxIDAgOSAwbTAgMTUuNjlhNi42OCA2LjY4IDAgMCAxIC4wMDctMTMuMzYgNi42OCA2LjY4IDAgMCAxIDQuNzI3IDExLjQwM0E2LjY4IDYuNjggMCAwIDEgOSAxNS42OSIvPiYjeGE7PC9zdmc+;" parent="1" vertex="1">
          <mxGeometry x="560" y="550" width="20" height="20" as="geometry" />
        </mxCell>
        <mxCell id="v5uwHPY_rMlKOSk-OUPP-7" value="CDH Zone" style="text;html=1;align=center;verticalAlign=middle;resizable=0;points=[];autosize=1;strokeColor=none;fillColor=none;" parent="1" vertex="1">
          <mxGeometry x="500" y="420" width="80" height="30" as="geometry" />
        </mxCell>
        <mxCell id="v5uwHPY_rMlKOSk-OUPP-20" value="" style="shape=image;verticalLabelPosition=bottom;labelBackgroundColor=default;verticalAlign=top;aspect=fixed;imageAspect=0;image=https://cdn.builtin.com/cdn-cgi/image/f=auto,fit=contain,w=200,h=200,q=100/https://builtinboston.com/sites/www.builtinboston.com/files/2023-10/3472470492Dynatrace_Logo_color_negative_vertical.png;" parent="1" vertex="1">
          <mxGeometry x="110" y="350" width="40" height="40" as="geometry" />
        </mxCell>
        <mxCell id="v5uwHPY_rMlKOSk-OUPP-21" value="&lt;font style=&quot;font-size: 8px;&quot;&gt;Central Project&lt;/font&gt;" style="text;html=1;align=center;verticalAlign=middle;resizable=0;points=[];autosize=1;strokeColor=none;fillColor=none;fontStyle=1" parent="1" vertex="1">
          <mxGeometry x="110" y="450" width="80" height="30" as="geometry" />
        </mxCell>
        <mxCell id="v5uwHPY_rMlKOSk-OUPP-24" value="" style="edgeStyle=orthogonalEdgeStyle;orthogonalLoop=1;jettySize=auto;html=1;rounded=0;strokeColor=#B3B3B3;endArrow=classic;endFill=1;exitX=0.5;exitY=0;exitDx=0;exitDy=0;endSize=1;" parent="1" source="v5uwHPY_rMlKOSk-OUPP-1" edge="1">
          <mxGeometry width="100" relative="1" as="geometry">
            <mxPoint x="570" y="540" as="sourcePoint" />
            <mxPoint x="260" y="540" as="targetPoint" />
            <Array as="points">
              <mxPoint x="570" y="460" />
              <mxPoint x="260" y="460" />
            </Array>
          </mxGeometry>
        </mxCell>
        <mxCell id="v5uwHPY_rMlKOSk-OUPP-27" style="edgeStyle=orthogonalEdgeStyle;rounded=0;orthogonalLoop=1;jettySize=auto;html=1;exitX=0.5;exitY=1;exitDx=0;exitDy=0;fontColor=#aaaaaa;strokeColor=#999999;endSize=2;" parent="1" source="v5uwHPY_rMlKOSk-OUPP-26" edge="1">
          <mxGeometry relative="1" as="geometry">
            <mxPoint x="250" y="590" as="targetPoint" />
            <Array as="points">
              <mxPoint x="690" y="730" />
              <mxPoint x="250" y="730" />
            </Array>
          </mxGeometry>
        </mxCell>
        <mxCell id="v5uwHPY_rMlKOSk-OUPP-26" value="&lt;font face=&quot;Comic Sans MS&quot; style=&quot;font-weight: normal; font-size: 8px;&quot;&gt;BigQuery&lt;/font&gt;" style="sketch=0;html=1;verticalAlign=top;labelPosition=center;verticalLabelPosition=bottom;align=center;spacingTop=-6;fontSize=8;fontStyle=1;fontColor=#999999;shape=image;aspect=fixed;imageAspect=0;image=data:image/svg+xml,PHN2ZyB4bWxucz0iaHR0cDovL3d3dy53My5vcmcvMjAwMC9zdmciIHhtbG5zOnY9Imh0dHBzOi8vdmVjdGEuaW8vbmFubyIgd2lkdGg9IjIwLjAwMTA0NTIyNzA1MDc4IiBoZWlnaHQ9IjIwLjAwMTA0NTIyNzA1MDc4IiBmaWxsLXJ1bGU9ImV2ZW5vZGQiIHZpZXdCb3g9IjAgMCAyMC4wMDEwNDUyMjcwNTA3OCAyMC4wMDEwNDUyMjcwNTA3OCI+JiN4YTsJPHN0eWxlIHR5cGU9InRleHQvY3NzIj4mI3hhOwkuc3Qwe2ZpbGw6I2FlY2JmYTt9JiN4YTsJLnN0MXtmaWxsOiM2NjlkZjY7fSYjeGE7CS5zdDJ7ZmlsbDojNDI4NWY0O30mI3hhOwk8L3N0eWxlPiYjeGE7CTxwYXRoIGNsYXNzPSJzdDAiIGQ9Ik00LjczIDguODN2Mi42M2E0LjkxIDQuOTEgMCAwIDAgMS43MSAxLjc0VjguODN6Ii8+JiN4YTsJPHBhdGggY2xhc3M9InN0MSIgZD0iTTcuODkgNi40MXY3LjUzQTcuNjIgNy42MiAwIDAgMCA5IDE0YTggOCAwIDAgMCAxIDBWNi40MXoiLz4mI3hhOwk8cGF0aCBjbGFzcz0ic3QwIiBkPSJNMTEuNjQgOS44NnYzLjI5YTUgNSAwIDAgMCAxLjctMS44MlY5Ljg2eiIvPiYjeGE7CTxwYXRoIGNsYXNzPSJzdDIiIGQ9Ik0xNS43NCAxNC4zMmwtMS40MiAxLjQyYS40Mi40MiAwIDAgMCAwIC42bDMuNTQgMy41NGEuNDIuNDIgMCAwIDAgLjU5IDBsMS40My0xLjQzYS40Mi40MiAwIDAgMCAwLS41OWwtMy41NC0zLjU0YS40Mi40MiAwIDAgMC0uNiAwIi8+JiN4YTsJPHBhdGggY2xhc3M9InN0MSIgZD0iTTkgMGE5IDkgMCAxIDAgMCAxOEE5IDkgMCAxIDAgOSAwbTAgMTUuNjlhNi42OCA2LjY4IDAgMCAxIC4wMDctMTMuMzYgNi42OCA2LjY4IDAgMCAxIDQuNzI3IDExLjQwM0E2LjY4IDYuNjggMCAwIDEgOSAxNS42OSIvPiYjeGE7PC9zdmc+;" parent="1" vertex="1">
          <mxGeometry x="680" y="550" width="20" height="20" as="geometry" />
        </mxCell>
        <mxCell id="v5uwHPY_rMlKOSk-OUPP-29" value="" style="rounded=0;whiteSpace=wrap;html=1;fillColor=none;dashed=1;" parent="1" vertex="1">
          <mxGeometry x="520" y="490" width="100" height="160" as="geometry" />
        </mxCell>
        <mxCell id="v5uwHPY_rMlKOSk-OUPP-32" value="Project A" style="text;html=1;align=center;verticalAlign=middle;resizable=0;points=[];autosize=1;strokeColor=none;fillColor=none;fontSize=7;fontStyle=1" parent="1" vertex="1">
          <mxGeometry x="520" y="490" width="50" height="20" as="geometry" />
        </mxCell>
        <mxCell id="v5uwHPY_rMlKOSk-OUPP-33" value="Project B" style="text;html=1;align=center;verticalAlign=middle;resizable=0;points=[];autosize=1;strokeColor=none;fillColor=none;fontSize=7;fontStyle=1" parent="1" vertex="1">
          <mxGeometry x="690" y="490" width="50" height="20" as="geometry" />
        </mxCell>
      </root>
    </mxGraphModel>
  </diagram>
  <diagram id="tHBnp0xfKFYUp1d20DK0" name="Page-2">
    <mxGraphModel dx="1092" dy="1782" grid="1" gridSize="10" guides="1" tooltips="1" connect="1" arrows="1" fold="1" page="1" pageScale="1" pageWidth="827" pageHeight="1169" math="0" shadow="0">
      <root>
        <mxCell id="0" />
        <mxCell id="1" parent="0" />
        <mxCell id="77X5BeHpb_cjv6Mi0YxQ-18" value="" style="whiteSpace=wrap;html=1;fillColor=default;strokeColor=none;labelBackgroundColor=none;fontFamily=Roboto;fontSource=https%3A%2F%2Ffonts.googleapis.com%2Fcss%3Ffamily%3DRoboto;" vertex="1" parent="1">
          <mxGeometry x="334" y="537.5" width="80" height="60" as="geometry" />
        </mxCell>
        <UserObject label="" id="tatDl9Yjze7Q0I7nDFEt-1">
          <mxCell style="rounded=0;whiteSpace=wrap;html=1;fillColor=#f5f5f5;strokeColor=none;fontColor=#333333;labelBackgroundColor=none;fontFamily=Roboto;fontSource=https%3A%2F%2Ffonts.googleapis.com%2Fcss%3Ffamily%3DRoboto;" vertex="1" parent="1">
            <mxGeometry x="120" y="400" width="550" height="340" as="geometry" />
          </mxCell>
        </UserObject>
        <mxCell id="77X5BeHpb_cjv6Mi0YxQ-10" value="" style="rounded=0;whiteSpace=wrap;html=1;fillColor=#dae8fc;strokeColor=#FFFFFF;fontFamily=Roboto;fontSource=https%3A%2F%2Ffonts.googleapis.com%2Fcss%3Ffamily%3DRoboto;" vertex="1" parent="1">
          <mxGeometry x="310" y="425" width="320" height="285" as="geometry" />
        </mxCell>
        <mxCell id="tatDl9Yjze7Q0I7nDFEt-11" value="" style="rounded=0;whiteSpace=wrap;html=1;fillColor=#ffe6cc;fontFamily=Roboto;fontSource=https%3A%2F%2Ffonts.googleapis.com%2Fcss%3Ffamily%3DRoboto;strokeColor=#FFFFFF;" vertex="1" parent="1">
          <mxGeometry x="495" y="488.75" width="100" height="161.25" as="geometry" />
        </mxCell>
        <mxCell id="tatDl9Yjze7Q0I7nDFEt-4" value="&lt;font style=&quot;font-weight: normal; font-size: 7px;&quot;&gt;BigQuery&lt;/font&gt;" style="sketch=0;html=1;verticalAlign=middle;labelPosition=right;verticalLabelPosition=middle;align=left;spacingTop=-6;fontSize=7;fontStyle=1;fontColor=#999999;shape=image;aspect=fixed;imageAspect=0;image=data:image/svg+xml,PHN2ZyB4bWxucz0iaHR0cDovL3d3dy53My5vcmcvMjAwMC9zdmciIHhtbG5zOnY9Imh0dHBzOi8vdmVjdGEuaW8vbmFubyIgd2lkdGg9IjIwLjAwMTA0NTIyNzA1MDc4IiBoZWlnaHQ9IjIwLjAwMTA0NTIyNzA1MDc4IiBmaWxsLXJ1bGU9ImV2ZW5vZGQiIHZpZXdCb3g9IjAgMCAyMC4wMDEwNDUyMjcwNTA3OCAyMC4wMDEwNDUyMjcwNTA3OCI+JiN4YTsJPHN0eWxlIHR5cGU9InRleHQvY3NzIj4mI3hhOwkuc3Qwe2ZpbGw6I2FlY2JmYTt9JiN4YTsJLnN0MXtmaWxsOiM2NjlkZjY7fSYjeGE7CS5zdDJ7ZmlsbDojNDI4NWY0O30mI3hhOwk8L3N0eWxlPiYjeGE7CTxwYXRoIGNsYXNzPSJzdDAiIGQ9Ik00LjczIDguODN2Mi42M2E0LjkxIDQuOTEgMCAwIDAgMS43MSAxLjc0VjguODN6Ii8+JiN4YTsJPHBhdGggY2xhc3M9InN0MSIgZD0iTTcuODkgNi40MXY3LjUzQTcuNjIgNy42MiAwIDAgMCA5IDE0YTggOCAwIDAgMCAxIDBWNi40MXoiLz4mI3hhOwk8cGF0aCBjbGFzcz0ic3QwIiBkPSJNMTEuNjQgOS44NnYzLjI5YTUgNSAwIDAgMCAxLjctMS44MlY5Ljg2eiIvPiYjeGE7CTxwYXRoIGNsYXNzPSJzdDIiIGQ9Ik0xNS43NCAxNC4zMmwtMS40MiAxLjQyYS40Mi40MiAwIDAgMCAwIC42bDMuNTQgMy41NGEuNDIuNDIgMCAwIDAgLjU5IDBsMS40My0xLjQzYS40Mi40MiAwIDAgMCAwLS41OWwtMy41NC0zLjU0YS40Mi40MiAwIDAgMC0uNiAwIi8+JiN4YTsJPHBhdGggY2xhc3M9InN0MSIgZD0iTTkgMGE5IDkgMCAxIDAgMCAxOEE5IDkgMCAxIDAgOSAwbTAgMTUuNjlhNi42OCA2LjY4IDAgMCAxIC4wMDctMTMuMzYgNi42OCA2LjY4IDAgMCAxIDQuNzI3IDExLjQwM0E2LjY4IDYuNjggMCAwIDEgOSAxNS42OSIvPiYjeGE7PC9zdmc+;fontFamily=Roboto;fontSource=https%3A%2F%2Ffonts.googleapis.com%2Fcss%3Ffamily%3DRoboto;" vertex="1" parent="1">
          <mxGeometry x="530" y="552.5" width="30" height="30" as="geometry" />
        </mxCell>
        <mxCell id="tatDl9Yjze7Q0I7nDFEt-5" value="CDH Zone" style="text;html=1;align=center;verticalAlign=middle;resizable=0;points=[];autosize=1;strokeColor=none;fillColor=none;fontFamily=Roboto;fontSource=https%3A%2F%2Ffonts.googleapis.com%2Fcss%3Ffamily%3DRoboto;fontColor=#000000;fontSize=8;" vertex="1" parent="1">
          <mxGeometry x="600" y="400" width="60" height="20" as="geometry" />
        </mxCell>
        <mxCell id="tatDl9Yjze7Q0I7nDFEt-6" value="Dynatrace SaaS" style="shape=image;verticalLabelPosition=middle;labelBackgroundColor=default;verticalAlign=middle;aspect=fixed;imageAspect=0;image=https://cdn.builtin.com/cdn-cgi/image/f=auto,fit=contain,w=200,h=200,q=100/https://builtinboston.com/sites/www.builtinboston.com/files/2023-10/3472470492Dynatrace_Logo_color_negative_vertical.png;fontFamily=Roboto;fontSource=https%3A%2F%2Ffonts.googleapis.com%2Fcss%3Ffamily%3DRoboto;labelPosition=right;align=left;fontSize=10;spacing=7;" vertex="1" parent="1">
          <mxGeometry x="50" y="310" width="40" height="40" as="geometry" />
        </mxCell>
        <mxCell id="tatDl9Yjze7Q0I7nDFEt-12" value="Project A" style="text;html=1;align=center;verticalAlign=middle;resizable=0;points=[];autosize=1;strokeColor=none;fillColor=none;fontSize=7;fontStyle=0;fontFamily=Roboto;fontSource=https%3A%2F%2Ffonts.googleapis.com%2Fcss%3Ffamily%3DRoboto;fontColor=#999999;" vertex="1" parent="1">
          <mxGeometry x="495" y="488.75" width="50" height="20" as="geometry" />
        </mxCell>
        <mxCell id="77X5BeHpb_cjv6Mi0YxQ-1" value="" style="shape=image;verticalLabelPosition=bottom;labelBackgroundColor=default;verticalAlign=top;aspect=fixed;imageAspect=0;image=data:image/png,iVBORw0KGgoAAAANSUhEUgAAAqcAAAKUCAYAAAA5C5EHAAAKrGlDQ1BJQ0MgUHJvZmlsZQAASImVlwdUU+cXwO972YuVgICMsJcge8qeAZQ9XYQkQBghJgQBtyJWsA5URHBUtAqiYFWG1IkDB0Vx74IUBbUWBy5U+oBDaPtf53/f+d79nZv73fGd951zA8BQ54rFmagSQJYoRxIZ6MOOT0hkk/qADEpAAV1gcXlSsXd4eChgMq7/Lu9vAzKib1iOxPrX3/+rKPMFUh4AEo5xMl/Ky8L4KLbe8MSSHABcNWY3mJ8jHuF2jFkSrECMu0Y4dYzfjXDyKOPJoz7Rkb4YawGQ6VyuJBWAborZ2bm8VCwOPQhjaxFfKMI4D2OPrKxsPsbNGJtiPmKMR+I7J/8lTurfYibLY3K5qXIe62VUyH5CqTiTm/9/Hsf/lqxM2XgOY2zR0yRBkZjWxM7sbkZ2iJxFyTPCxlnIH/Uf5TRZUMw486S+iePM5/qFyPdmzggd5xRhAEceJ4cTPc4CqX/UOEuyI+W5UiS+3uPMlUzklWXEyO1pAo48fkFadNw45wpjZ4yzNCMqZMLHV26XyCLl9QtEgT4TeQPkvWdJ/9KvkCPfm5MWHSTvnTtRv0DkPRFTGi+vjS/w85/wiZH7i3N85LnEmeFyf0FmoNwuzY2S783BPsiJveHyM0znBoePM4QBH/JBij0CTLMhEBzBGqLADyBHkJcz0pBvtjhfIkxNy2F7YzdNwOaIeFZT2LbWtvYAI/d27LN4GzF6HxG19gnbASFAYPbw8PCyCZs5ZjvQA0A6OGFj4wBoBwGufOPJJLljNvzIiwBUUAQWaIAOGIApWIItVp8beIE/BGO1R0MCzAEepEEWSGA+LIRlUAQlsB42QwXshN1QDQfhMDTBcTgDF+AKXINb8AC6oBdewAC8hyEEQUgIA2EiGoguYoRYILaIM+KB+COhSCSSgCQhqYgIkSELkRVICVKKVCC7kBrkJ+QYcga5hHQi95BupB95g3xGcSgdZaHaqDE6FXVGvdEQNBqdjaai89ACtBBdi5ajVegBtBE9g15Bb6Fd6At0EAc4Gk4Np4ezxDnjfHFhuERcCk6CW4wrxpXhqnB1uBZcG+4Grgv3EvcJT8Qz8Wy8Jd4NH4SPwfPw8/CL8WvwFfhqfCP+HP4Gvhs/gP9GYBC0CBYEVwKHEE9IJcwnFBHKCHsJDYTzhFuEXsJ7IpGoRjQhOhGDiAnEdOIC4hridmI98TSxk9hDHCSRSBokC5I7KYzEJeWQikhbSQdIp0jXSb2kj2QaWZdsSw4gJ5JF5OXkMvJ+8knydfIz8hBFiWJEcaWEUfiUfMo6yh5KC+UqpZcyRFWmmlDdqdHUdOoyajm1jnqe+pD6lkaj6dNcaBE0IW0prZx2iHaR1k37RFehm9N96bPoMvpa+j76afo9+lsGg2HM8GIkMnIYaxk1jLOMx4yPCkwFKwWOAl9hiUKlQqPCdYVXihRFI0VvxTmKBYplikcUryq+VKIoGSv5KnGVFitVKh1TuqM0qMxUtlEOU85SXqO8X/mScp8KScVYxV+Fr1KoslvlrEoPE8c0YPoyecwVzD3M88xeFpFlwuKw0lklrIOsDtaAqoqqvWqsap5qpeoJ1S41nJqxGkctU22d2mG122qfJ2lP8p4kmLR6Ut2k65M+qE9W91IXqBer16vfUv+swdbw18jQ2KDRpPFIE69prhmhOV9zh+Z5zZeTWZPdJvMmF08+PPm+FqplrhWptUBrt1a71qC2jnagtlh7q/ZZ7Zc6ajpeOuk6m3RO6vTrMnU9dIW6m3RP6T5nq7K92ZnscvY59oCell6Qnkxvl16H3pC+iX6M/nL9ev1HBlQDZ4MUg00GrQYDhrqG0w0XGtYa3jeiGDkbpRltMWoz+mBsYhxnvMq4ybjPRN2EY1JgUmvy0JRh6mk6z7TK9KYZ0czZLMNsu9k1c9TcwTzNvNL8qgVq4WghtNhu0TmFMMVlimhK1ZQ7lnRLb8tcy1rLbis1q1Cr5VZNVq+mGk5NnLphatvUb9YO1pnWe6wf2KjYBNsst2mxeWNrbsuzrbS9acewC7BbYtds99rewl5gv8P+rgPTYbrDKodWh6+OTo4SxzrHfidDpySnbU53nFnO4c5rnC+6EFx8XJa4HHf55OromuN62PUPN0u3DLf9bn3TTKYJpu2Z1uOu78513+Xe5cH2SPL4waPLU8+T61nl+cTLwIvvtdfrmbeZd7r3Ae9XPtY+Ep8Gnw++rr6LfE/74fwC/Yr9OvxV/GP8K/wfB+gHpAbUBgwEOgQuCDwdRAgKCdoQdIejzeFxajgDwU7Bi4LPhdBDokIqQp6EmodKQlumo9ODp2+c/nCG0QzRjKYwCOOEbQx7FG4SPi/85whiRHhEZcTTSJvIhZFtUcyouVH7o95H+0Svi34QYxoji2mNVYydFVsT+yHOL640rit+avyi+CsJmgnChOZEUmJs4t7EwZn+MzfP7J3lMKto1u3ZJrPzZl+aozknc86JuYpzuXOPJBGS4pL2J33hhnGruIPJnORtyQM8X94W3gu+F38Tv1/gLigVPEtxTylN6Ut1T92Y2p/mmVaW9lLoK6wQvk4PSt+Z/iEjLGNfxnBmXGZ9FjkrKeuYSEWUITqXrZOdl90pthAXibvmuc7bPG9AEiLZK0Wks6XNOSxsQGqXmcpWyrpzPXIrcz/Oj51/JE85T5TXnm+evzr/WUFAwY8L8At4C1oX6i1ctrB7kfeiXYuRxcmLW5cYLClc0rs0cGn1MuqyjGW/LLdeXrr83Yq4FS2F2oVLC3tWBq6sLVIokhTdWeW2aud3+O+E33Wstlu9dfW3Yn7x5RLrkrKSL2t4ay5/b/N9+ffDa1PWdqxzXLdjPXG9aP3tDZ4bqkuVSwtKezZO39i4ib2peNO7zXM3XyqzL9u5hbpFtqWrPLS8eavh1vVbv1SkVdyq9Kms36a1bfW2D9v526/v8NpRt1N7Z8nOzz8If7i7K3BXY5VxVdlu4u7c3U/3xO5p+9H5x5q9mntL9n7dJ9rXVR1Zfa7GqaZmv9b+dbVoray2/8CsA9cO+h1srrOs21WvVl9yCA7JDj3/Kemn24dDDrcecT5Sd9To6LYGZkNxI9KY3zjQlNbU1ZzQ3Hks+Fhri1tLw89WP+87rne88oTqiXUnqScLTw6fKjg1eFp8+uWZ1DM9rXNbH5yNP3vzXMS5jvMh5y9eCLhwts277dRF94vHL7leOnbZ+XLTFccrje0O7Q2/OPzS0OHY0XjV6WrzNZdrLZ3TOk9e97x+5obfjQs3OTev3Jpxq/N2zO27d2bd6brLv9t3L/Pe6/u594ceLH1IeFj8SOlR2WOtx1W/mv1a3+XYdaLbr7v9SdSTBz28nhe/SX/70lv4lPG07Jnus5o+277j/QH9157PfN77Qvxi6GXR78q/b3tl+uroH15/tA/ED/S+lrwefrPmrcbbfe/s37UOhg8+fp/1fuhD8UeNj9WfnD+1fY77/Gxo/hfSl/KvZl9bvoV8ezicNTws5kq4o6MANh0AmpIC8GYfACMBgHkNgDpzbK4eFWTsv8AowX/isdl7VBwBGjwBgs8AWKwEaMfmd73V2AzSBhDOAIh2AdTOTr7GZ+DReX1EQi0BZK3WMS4R8G9kbJb/S93/1DAS1R7+qf8Eg0cKSANnXegAAABWZVhJZk1NACoAAAAIAAGHaQAEAAAAAQAAABoAAAAAAAOShgAHAAAAEgAAAESgAgAEAAAAAQAAAqegAwAEAAAAAQAAApQAAAAAQVNDSUkAAABTY3JlZW5zaG901WwpiwAAAdZpVFh0WE1MOmNvbS5hZG9iZS54bXAAAAAAADx4OnhtcG1ldGEgeG1sbnM6eD0iYWRvYmU6bnM6bWV0YS8iIHg6eG1wdGs9IlhNUCBDb3JlIDYuMC4wIj4KICAgPHJkZjpSREYgeG1sbnM6cmRmPSJodHRwOi8vd3d3LnczLm9yZy8xOTk5LzAyLzIyLXJkZi1zeW50YXgtbnMjIj4KICAgICAgPHJkZjpEZXNjcmlwdGlvbiByZGY6YWJvdXQ9IiIKICAgICAgICAgICAgeG1sbnM6ZXhpZj0iaHR0cDovL25zLmFkb2JlLmNvbS9leGlmLzEuMC8iPgogICAgICAgICA8ZXhpZjpQaXhlbFlEaW1lbnNpb24+NjYwPC9leGlmOlBpeGVsWURpbWVuc2lvbj4KICAgICAgICAgPGV4aWY6UGl4ZWxYRGltZW5zaW9uPjY3OTwvZXhpZjpQaXhlbFhEaW1lbnNpb24+CiAgICAgICAgIDxleGlmOlVzZXJDb21tZW50PlNjcmVlbnNob3Q8L2V4aWY6VXNlckNvbW1lbnQ+CiAgICAgIDwvcmRmOkRlc2NyaXB0aW9uPgogICA8L3JkZjpSREY+CjwveDp4bXBtZXRhPgogGqo7AABAAElEQVR4Aey9B3gV17X+/ar3XgAhQBQJRBNFgE11wTa4xiVxXIlb7CS2k9ybRu5z703+8Rec5KbYDu42YHCn9947poouigCBQAL1Xr+9NhwhCUnoNGl05t3Pc3TOzOy9Zu3fnnPm1dpl3GpUAhMJkAAJkAAJkAAJkAAJGICAuwF8oAskQAIkQAIkQAIkQAIkoAlQnPJCIAESIAESIAESIAESMAwBilPDNAUdIQESIAESIAESIAESoDjlNUACJEACJEACJEACJGAYAhSnhmkKOkICJEACJEACJEACJEBxymuABEiABEiABEiABEjAMAQoTg3TFHSEBEiABEiABEiABEiA4pTXAAmQAAmQAAmQAAmQgGEIUJwapinoCAmQAAmQAAmQAAmQAMUprwESIAESIAESIAESIAHDEKA4NUxT0BESIAESIAESIAESIAHP9oagrKwMGRkZ8PLyam+uu6S/bm5uiImJccm6sVIkQAIkQAIkQAKtT6DdiVNBFBwcjPDw8NanxTPeQCArK+uGfdxBAiRAAiRAAiRAArYSYLe+reRYjgRIgARIgARIgARIwOEEKE4djpQGSYAESIAESIAESIAEbCVAcWorOZYjARIgARIgARIgARJwOAGKU4cjpUESIAESIAESIAESIAFbCVCc2kqO5UiABEiABEiABEiABBxOgOLU4UhpkARIgARIgARIgARIwFYCFKe2kmM5EiABEiABEiABEiABhxOgOHU4UhokARIgARIgARIgARKwlQDFqa3kWI4ESIAESIAESIAESMDhBChOHY6UBkmABEiABEiABEiABGwlQHFqKzmWIwESIAESIAESIAEScDgBilOHI6VBEiABEiABEiABEiABWwlQnNpKjuVIgARIgARIgARIgAQcToDi1OFIaZAESIAESIAESIAESMBWAhSntpJjORIgARIgARIgARIgAYcToDh1OFIaJAESIAESIAESIAESsJUAxamt5FiOBEiABEiABEiABEjA4QQoTh2OlAZJgARIgARIgARIgARsJeBpa0GWs51AQUEBcnNz4eHhgfDwcPj6+tpujCVJgARIgARIgARIwIUIUJy2UmOWlJRg1apV2LFjBzIyMmrP6ubmhp49e2LMmDEYNWoU3N0ZzK6Fww8kQAIkQAIkQAKmI+BWo1J7qnVZWRmKiop0xLG9+H348GF88MEHkIhpc6lLly549dVXERUV1Vw2Qx3LyspqV/4aCh6dIQESIAESIAESuIEAw3Q3IHHsjt27d+Mf//hHs8L0qaeewrhx45Ceno4//elPuHjxomOdoDUSIAESIAESIAESaCcEKE6d2FDSff/xxx+jurq60bNIl35SUhLGjh2LSZMm4bnnntNR4bfffhsVFRWNluFOEiABEiABEiABEnBlAhxz6sTW/fbbbyHDEBpLU6dOhbe3t54UZTk+evRoSDf5okWLsHr1akycONFyiO8kQAIkQAIkQAIkYAoCjJw6qZmvXLmCffv2NWpdIqZeXl71hKklowjSgIAArF271rKL7yRAAiRAAiRAAiRgGgKMnDqpqVNSUrRliY6Wl5frzzIrPy4uDrGxsfD0bBy9LCs1bNgwrF+/Xo9BlbxMJEACJEACJEACJGAWAoycOqmlMzMzteXXX38dkZGR+rOML7VMfmrutDExMfqwdPEzkQAJkAAJkAAJkICZCDQevjMTASfV1TLWVJaF+u1vf4u//OUv2LJlC44fP17vjNK9//jjjyM6Orp2v7+/v/5cWlpau48fSIAESIAESIAESMAMBBg5dVIrh4SEaMuyPFRERIQWqFVVVTh48GC91969e3HgwIF6XkgZSRYb9Q5ygwRIgARIgARIgARcmADFqZMaV8aWSkpLS9PvFoEqjyttmBo+B0HKyJOiunXr1jArt0mABEiABEiABEjApQlQnDqpefv27atn3a9bt652AX4RqAkJCTec8dy5c7q7X9ZDPXbsmH4lJibq8jdk5g4SIAESIAESIAEScGECHn9QqT3VT7rGZYF6Pz8/Q7stkU95Sbd9fn4+hgwZov2Vfbt27arn+9mzZ7F582b9ZKiNGzeisLAQP/7xj9vFI1qLi4spouu1JjdIgARIgARIgATsIcDIqT30blL2rrvuQu/evbF161Z88MEHekH+wYMH44033mh0jdOdO3dqgTphwgTIslNMJEACJEACJEACJGA2AhSnTmxxDw8P/OxnP9NCc8eOHfjjH/+IpUuXQhbhlwhqY2nMmDF47LHHGjvEfSRAAiRAAiRAAiTg8gTc1GScmvZUS1miqaioqF10eVu4VlZWYsGCBVi1alXtgvyWY5b30NBQPPLII5BHmLanJGuxynJZTCRAAiRAAiRAAiTgCAIUp46g2EIbMvZUxqCmpqYiJydHPyVKJkn169cPAwYMgDxNqr0litP21mL0lwRIgARIgASMTYDi1NjtY3jvKE4N30R0kARIgARIgATaFYHGBz62qyrQWRIgARIgARIgARIgAVchQHHqKi3JepAACZAACZAACZCACxCgOHWBRmQVSIAESIAESIAESMBVCFCcukpLsh4kQAIkQAIkQAIk4AIEKE5doBFZBRIgARIgARIgARJwFQIUp67SkqwHCZAACZAACZAACbgAAYpTF2hEVoEESIAESIAESIAEXIUAxamrtCTrQQIkQAIkQAIkQAIuQIDi1AUakVUgARIgARIgARIgAVchYGhxWl1djSNHjhiS9aFDh/QjSA3pHJ0iARIgARIgARIggXZKwNDitLy8HHPnzsX27dsNh/ftt9/GwYMHm/TrwoULeOONN5o8bu+B119/HVVVVfaaYXkSIAESIAESIAESMBQBjz+oZCiP6jjj6emJ5ORkzJo1C/7+/ujcubMWZBUVFfDz86uTs/U/Ll68GAMHDkRkZCTWrVuHwsJCrFixQm+LN5999hmWLVuGjh07olevXvr4ggULcPLkSXTq1Ak+Pj5YtWoViouLsX79eoSHh+PAgQM4e/YsNm/erOtqqeP+/fuxdOlSeHl5ISoqSgv2GTNmICAgQPvg5ubW+gCunVH8Fz+YSIAESIAESIAESMARBNokcioRP4mKlpSUaNGWl5enu8gvX76MsrIylJaWatFWUFAAEaKTJk3CzJkzsXPnTkfU2aE2cnNz8dprr2HTpk1acD711FMQsWgRoB06dNB1ffnllyH1SUtL0/URJ0Rg/u53v9Oi88SJE3jllVdw5swZZGdn42c/+5n2UwTs//3f/2nR+/vf/14L4ZiYGHh4eKBLly4OrQuNkQAJkAAJkAAJkEBbE/BsTQeef/55BAUFaWHl7u6u30Vk1X1FRESgsrISluPyLi+JTEoXf1JSUmu63KJz9e7dWwtUySwiWkTo8OHDMW/ePAwePFgLVxk/O2TIEG1v9uzZuHjxov7897//HX369MHGjRtx5513QsStpE8++US/f/jhh3jyySfRtWtXTJgwAStXrsSbb74Jb29vjBs3TrPRGfmHBEiABEiABEiABFyAQKuKU4kiTpkyxWpsu3fvxqVLl/CrX/3K6rKtUUDEsyU11sV+yy236OindPtLuu+++2pFZU1NjaWojrhaNix2pk2bhn/84x84fvy4PiSil4kESIAESIAESIAEXJVAq4pTWyAePXoUCxcu1MLU19dXd/vbYqctysiQBEnSVS/DGH7zm99oAZqSkoLo6OgWufRf//VfuPvuu7WglSEE+fn5upyIV7Ev43KZSIAESIAESIAESMBVCFwP+RmwRjI2dc6cOZCZ6TIcwEhJJidJxFREony2JOlul33SDS/DE0RcyoSoZ599VnfPP/HEE7pO0s0v5SwRUrHV0I7YFEG7Zs0aXfaFF16AjM+VNH78eDz++ON6fK7ewT8kQAIkQAIkQAIk4AIE3FS38vV+ZSdXaPLkyVZ364uIq9ttLhOmioqK9Ox2J7vrEPMS3bSITqmLCG7LtjUnkHrLDP+6qa7tuvtb83NWVpZeQaA1z8lzkQAJkAAJkAAJuC4Bw/cJ1xWm7bEZ6gpRqYut9WkoTIVFXdvtkQ19JgESIAESIAESIIGGBAzdrd/QWW6TAAmQAAmQAAmQAAm4NgGKU9duX9aOBEiABEiABEiABNoVAYrTdtVcdJYESIAESIAESIAEXJsAxalrty9rRwIkQAIkQAIkQALtigDFabtqLjpLAiRAAiRAAiRAAq5NgOLUtduXtSMBEiABEiABEiCBdkWA4rRdNRedJQESIAESIAESIAHXJkBx6trty9qRAAmQAAmQAAmQQLsiQHHarpqLzpIACZAACZAACZCAaxOgOHXt9mXtSIAESIAESIAESKBdEaA4bVfNRWdJgARIgARIgARIwLUJUJy6dvuydiRAAiRAAiRAAiTQrghQnLar5qKzJEACJEACJEACJODaBChOXbt9WTsSIAESIAESIAESaFcEKE7bVXPRWRIgARIgARIgARJwbQIUp67dvqwdCZAACZAACZAACbQrAhSn7aq56CwJkAAJkAAJkAAJuDYBilPXbl/WjgRIgARIgARIgATaFQGK03bVXHSWBEiABEiABEiABFybAMWpa7cva0cCJEACJEACJEAC7YqAZ7vy9pqzRUVFqKioaI+uu5zPNTU1LlcnVogESIAESIAESKDtCLQ7cerj44MuXbq0HTGemQRIgARIgARIgARIwGkE2K3vNLQ0TAIkQAIkQAIkQAIkYC0BilNriTE/CZAACZAACZAACZCA0whQnDoNLQ2TAAmQAAmQAAmQAAlYS4Di1FpizE8CJEACJEACJEACJOA0AhSnTkNLwyRAAiRAAiRAAiRAAtYSoDi1lhjzkwAJkAAJkAAJkAAJOI0AxanT0NIwCZAACZAACZAACZCAtQQoTq0lxvwkQAIkQAIkQAIkQAJOI0Bx6jS0NEwCJEACJEACJEACJGAtAYpTa4kxPwmQAAmQAAmQAAmQgNMIUJw6DS0NkwAJkAAJkAAJkAAJWEuA4tRaYsxPAiRAAiRAAiRAAiTgNAIUp05DS8MkQAIkQAIkQAIkQALWEqA4tZYY85MACZAACZAACZAACTiNAMWp09DSMAmQAAmQAAmQAAmQgLUEKE6tJcb8JEACJEACJEACJEACTiPg6TTLTjJcUVmJwqJiJ1mnWRIgARIgARIgARIggZYQ8Pf1hY+Pd0uyWpWn3YnTmpoaVFVVW1VJZiYBEiABEiABEiABEnAsAdFkzkjs1ncGVdokARIgARIgARIgARKwiQDFqU3YWIgESIAESIAESIAESMAZBChOnUGVNkmABEiABEiABEiABGwiQHFqEzYWIgESIAESIAESIAEScAYBilNnUKVNEiABEiABEiABEiABmwhQnNqEjYVIgARIgARIgARIgAScQYDi1BlUaZMESIAESIAESIAESMAmAhSnNmFjIRIgARIgARIgARIgAWcQoDh1BlXaJAESIAESIAESIAESsIkAxalN2FiIBEiABEiABEiABEjAGQQoTp1BlTZJgARIgARIgARIgARsIkBxahM2FiIBEiABEiABEiABEnAGAYpTZ1ClTRIgARIgARIgARIgAZsIUJzahI2FSIAESIAESIAESIAEnEGA4tQZVGmTBEiABEiABEiABEjAJgKeNpVysUJXcmvw1bJqFBbXNFkzTw9g/K0eSOrt1mQeHiABEiABEiABEiABErCPAMWp4rd0YzUuK4F6s7RscxV6dfVEgN/NcvI4CZAACZAACZAACZCALQRM361/7HQNTp2/uTAVuGXlwNod1S3mXFNTg8zMTKQc2I99e/fiYkYGqqtbXr7FJ2okY25uLspKSxs5wl0kQAIkQAIkQAIkYFwCpo6cVlUBK7ddF4vdOrnhjhE36vWS00eRt3ujbkW3lGqUxk+Ab+fuzbZqbm4Oli1dgnNnz14t5+YGEavR0R1w3/0PICo6utny9hysUhX78P13MXbcbbjl1pFWmcq4cAEXLpxHqRK2HTt2RNducfDy8kJJSQlOnzqFvv36WWWvuczC4/DhQ+jVqxd8fHx1Vjl/dk62/uzl6YW47t3h7e2tt8+cSUNAQCAiIyObM9vosbKyMpw6eRLRHTogIiKi0TzcSQIkQAIkQAIk0PYETC1Odx2sQnbe1aipuxpKOmG0OzpG3jimtCaqF06ufRvllzN0i12aex7dXnujydYrLCzAzBnT4eHhgQcfelgLLHd3d5xPT8eWLZtQVa1UscGSiNGVK5ZpAdqlS1f4+Ppq4eju5o6HHn4ElRUVWLpkkcPF6ZJFC/H8iy/VitOUlP1IPX4coaFhqLh2ThHY8tq5fbsSy92aFadSj9TjxzBgYFIt4aysLHw+cwY6dYrB2Ntuq93PDyRAAiRAAiRAAsYjYFpxWlOZh/CqVapFvqdbZXBifWHq5eWJysoqHe10UxG8Dt97Duc+/rPOW3TyIPL3b0Nw0q2NtuiK5csg0ctnf/QcQkJCa/N079ED8jJiEp+LCgvxwksvIzAwULsokc3t27ZqkS3itLVSfEJv3H3PBH06ieJ+/eUXGJg0qEWnLyjI1xHr/gMGwk1FqyWl7N+HhN69ce99D7TIBjORAAmQAAmQAAm0HQHTitPKS1+jq9caJMTejrOZIbh9uLtuBYlwhgYHQt5FnBUWlaixpuUI6j8cgQmDUHh8n86XuWA6gvomw011eddN5SqvdB8PH3FLPWFaN0/Dz5cvX8aB/Xt19HCgivgFBQfXZpHo4dEjh3Hu3DkkJiaqKGyPWtElmaQbfN++PfDz80dM587IUmNcG3bli1A+dvQo0tJOoXfvRPRQAtlN1c+Szp9PVz6fwIt1hKkcE3F368hROpuMl62bKirKcfjQYRQVFUJ8DgwK0oePHzuK4OAQdOzUSW/n5OSooQ1nasVlcXGxGn+7Rx/r139AXZONfo6J6Qx/f3+knztb77icVyKsOdnZiFfCs3PnWOTn5+FgSorO992unWpYQifI8Iqz6vx+ysaunTsgotXPz0+XS0k5oIZZREPEsES5hdOe3d8hsW8/VbeD8PT0RAdlo7ysFO7qeOqxYwhXQwIGDR6CjIwLOHbkiDreEX0S++ry9RzkBgmQAAmQAAmQgE0ETClOa8ovoSpnnQZ2e5d3cbbb5NoZ+H6+3lqYykERZ/5+PlqcynaHh59H0d9+iRrVLV+efQm521chbMy9cqg2Xbp0UYtaizizHFi0cL6KxFZaNuHp4YkHHvoe1q1do0VTJyXmZFzk1i2bddQwadBgZGdf0cMDlCOIUV3Sc2Z/i/DwCPzo+Re0j0uXLFZi7ABiY7vgdO4p7NyxHd4+PvXEqZzzow/eg4hmEbbLli6GCL5HHvt+rS8Xzl/QIquuKK492MgHGUc7b+4cxHbpoqKsAfj0k4+0iB02fIQSynsRF9e9VpxezsrEtq1btTg9eeIEFi1cgJ49e2qxJxFRYdxUEmG+X9mT9x49e6nPV/8xkK77z6ZP18JSxu7K0AARjN179FTMro5Xzbx0CQEqAnzlyhWUKq7yj0Zm5iXdBqtXrdSCv2+//nqi2prVq/DkU8+o8awBuj1EmIrY7tdvANJOn1L/OOyHr6+Ptr916xacOJGq7SYqUSqRZflnRNqSiQRIgARIgARIwH4CphSnSnbWkgv1OIjITsvU9rUu3wYT9+tv1t8S0dgw+asIpqRSNYGobiotLdPjNmVfXp6aSa8Ek7wkijhm7Dgt7kRAybjOnSrCJ93YMsNfJgNJRNNLvYvgmj7tE4jI69ipo47u3TNhIkTIStRvlhpXKZHKuum4Gn9ZqLrrX37lp3qSU4USqSKuTivR1V2JVUnFxUU6Olm3XHOf9+zZjcFDhmi/JV9CQh/t99DkYc0V01HJkaNHY7gSsZKkfjLOtWESJpboaufYWEy8934dxbTk81XjYR/9/g9UZDoEuaq+IpJXrViho9Vjx41TfFJxr5p0JsK3r4qC5uWpIRxhYRijJojJxK4Dqpv/uRdeQpjaJ0n+cTigVlS49drksYTefWojxls2b1L/nJThpZdf0T74KPG/aeMGPPf8i3pSW7e4OCxaMF+vwiDRdiYSIAESIAESIAH7CJhSnLp5R8Mj7A5UZa/W9Koy58IjdCzcPENQotaL8vG5Gj0VsVhScn05povzPtVRUynkHdERobeMv4G+dPuKgJEuZxGNlvT9Hzxu+Yi5c2YrwVgA6QKXqKB0NUsSMdW//0AcOnhQd9cfOpiionf9tTCV4zLTXF6HDqXoqKrsk+ifJOmW7q1E1fbt2/S25c/Rw4fhryKCErG8qKK6fVSep56ZpLrBO1uyaJEl3f4tSeLvidTjmPTc87XZRaDJElnnGnS912ZQH0QUpqWdxj0TJ9bu7t2nT6PiVASlCHZPNe5XZuc3lnaoeooIlUhyQUGBHl4gY2ZvlkSsR0VF1wpTyZ+Y2A8STbWIU+nmr5skMi1d/JIkUis8LastiC2J5Er9JPLKRAIkQAIkQAIkYB8B04Z6PDv8AG4eV6OcNVXFqLz0lSYpIis7Nx95BYX6vaz86kSggpQdKDq+v5Z2h4cmKTFbf7ypHBSBOXrMWJw6dVJ319cWuPZBopYiqpKSBqsxorF6r4xftCT5LNHSyKgoPYY0o85YT4m0Sre1jK+U8aXiq3RVW5JEVhsmyVdcVKS6xXviJz99Ffc98CCiGizF1F0t11SuooOyHmvDJFHVuqJPlpUKCw/XUVxLXpmEJL5FRkYp3310pNZy7Mq1bnaJdgarsbQyJtaSslSXf2NJhiaEhIY2KUxlSaszSui+ouojk84efvRRbaZBXLsx03opLxkuUXeIhTAU0W9JFiFq2Rbhb0luKuru4V5nu5HouSUv30mABEiABEiABKwnYMrIqWCSKKlHtFoiKWOWplaVsx4e4XfD3a+73q6ouD4+tKayApfUBChLCug1AEEDG5+pL3mGDE3WE2ZkPOmJ1FTIWE8PD7WU1PnzOuooa3cOTErSQlaWRlqzahXycnN1BE66zPv1768F6uDBQzH726+xWI2p7KbWGz1wQI25VNFcy6QeEYNLFy9G8rBhegxkqopoelyL8Fl8HaCisps3bcTFixkIPxuuJgedxRG1tugzk56rjR7KZKq775mIxYsXavErYym9VfQ4/Vy66sJeD4lw9u17NUIrdsXm9m3bdAQxUEU2pZtbxntK5FAmW8m42f5qslOpmki0X3XdSxLRLhOgtmzerJepEsG3eeNGfczqP2o0hQhziZjKEIn169bWmpAlqETcS1Ra1miVyU91k4ztlbG1a1avxIhbbtUiW4YQ3HVtdYC6efmZBEiABEiABEig9QmYVpwKas+Iiaprfw1qytRM9JpqJVSnw7PDD29oheyt+2vXOHVT637KxKjmkgix+x94SC0un6DHWW7fvhXVakxoREQkbr/jTsjYTMkj6f77H9STiGR2uYiqUaNGqzU6r3bzy7JT31NrjMpEoNWrViiRmIg77hhfK7hkUtPu73Zh44b1eihB167dtCgW0xJ5lGilTAqSyT57lehdsngRIlTUdNxtt9cKU0s9ZKmlp0OfxYb162onIclMdpnkJP5evpxVu/rA4CFD9cL8Ir5L1Ox7GR8rE5IkyXjNixcv4ovPZ+olqUSoyzAASbKCgaeKvC6cP09PUJKVAKQ7vG4kUoRyUylATb6S9VdlrKzMkP9SnUOinLcoOyJUZcynRHaF8SYlyLuclmEE9yJAzdT3rSNSH37kMd0un02fpqO9t6n8PdWEK4mmCre6Y0c1w4DrPslQA4kAW5K0o5SxtKdlP99JgARIgARIgARsI+CmxlW2pDfUNusNSk2ePBlTpkxpsNe6zXI15jG/oMi6Qs3krs7/DuVn/tZkjuryYJz7phBVZSU6T9itd6PT4z9tMn9jBwSxvOqKnob55HhzAkcihQ3LX1DLSEWoLnaZLCXH5nz7jRp7WaS7uhval+3GbDSWT/bJBKu63dlN5WvKZlP7xU5zx5o6T2P77bVjb/nGfOI+EiABEiABEjALgUB/P72ajaPra+rIqcB0D06Ge+BAVBceaJRtzsFoJUyz9DEPXzUR5t6nGs3X3E4Rnc0JTyl7s+MNhamsFzpXLS0lj+KUbn2JVsqEo5Eq8tpUamijqXyyvyXCVPI1ZbOp/c2VkWPWpObO0RI79pZvyTmYhwRIgARIgARIwDoCpp0QVReTV8zzcPeNVeNQA+u9Ksvi1CSoc/DwD4RXcDg6PvYSPINC6hZts8+yML1MBPLw9MAC1U0us9dlLKp0nTORAAmQAAmQAAmQQHslYPrIqTScm08neMf//YY29FF7EpJv2G2YHTJr/wePP6FnysvYy5ZGOw1TATpCAiRAAiRAAiRAAg0IUJw2ANIeN2VdVSYSIAESIAESIAEScAUC7NZ3hVZkHUiABEiABEiABEjARQhQnLpIQ7IaJEACJEACJEACJOAKBChOXaEVWQcSIAESIAESIAEScBECFKcu0pCsBgmQAAmQAAmQAAm4AgGKU1doRdaBBEiABEiABEiABFyEAMWpizQkq0ECJEACJEACJEACrkCA4tQVWpF1IAESIAESIAESIAEXIUBx6iINyWqQAAmQAAmQAAmQgCsQoDh1hVZkHUiABEiABEiABEjARQhQnLpIQ7IaJEACJEACJEACJOAKBEwrTquqqlBTU6PbUN6rq6tr21OOWZLstxyTfHWP0Ybr8qi+4fq4fk3UvQaauz5utHHza0yuu7r2G15jDY81dp02tCE+1r3WbbPR4PtS5ztS18e6PKz1w+IjbVy9Bsij/nfOwqOm5vpvcmPXmFw/kiR/w2u91kad3/XGbNS0xMZN7hvi5039uImNFtWFNnQ717aty/Go/z3QF5X6U/d3suG1fvN7z3XtY7FntHePP6jUWk6tWbMG48ePt+t0VepHo6y8wi4bJSUl+OubUyDPpI/t0gVLlyzGhvXrMDR5GM6dO4tPP/4YHTt2QlhYGKZ/+one16dPIvbs/g7ffP0VBgwcoC6MGrw79R31Cwh0UTaWLV2CdevWIFnZSE8/p2x8hA4dOiIsPBwzpn2KM2fOoE9iIvbu2Y1vvvoK/QcM0HWY+u+3UaNsdenaFcuXLcXaNauRPGw4zp9PxycffYTo6A4IVzY+mz4NaWmnkZjYF/v27sHXX32Jfv37w83NDe8qG8Klq7KxYvkyrFm9Stu4cP68svEhoqKiER4RgZkzpuPUqVNI7Kts7NuLr7/8Av36KRvu7srGO6hUgqNr125YuWI5Vq9ciWHDhyPjwgV8rGxERkYhQtmY9dkMnDx5An379sP+/fuUjc/Rt18/eHh4QOpSWVmJrt26YdXKFdrOsOEjcDEjAx9/+IEqH4mIyEh8PvMzpKam6nIHDuzHV198rn3y9PTUdamoqEC3bnFYvWqlrs9wZePSxYv4SNkID49Qvigbs2bi+PFj2v+UlAP48otZim9feHl56bqUl5ehW1ycZrF82RJVlxHIysxUNt5X7RqOyKgofPH5LBw7elRzPHgwRW/3Vu3s7e2t61JWWoq4uO66TaR9tY2sLG0jNDRMcY1S5/0cR44cRv/+A3Do4EFlYyYSevfR15a0i1xrcd27Y93aNeo6W6Tb5fLly/jwg/cQEhqq2+Yr1Q5HDh3S14TY+FzZiE/oDV9fX12X4uJidO/eA+vXrcUSZWOYuj6uXLmibQSHhKhrJFpfD4dUHfoPGIjDytbnsz5Dr/gE+Pn56boUFRWhe48e+jpfskhsDEN2TjY+eP89BAUH6+tMru2DBw6o63sgjhw+jFlio1c8/P39tR+FhQXo0aMnNm5Yj0WLFui65ObmKBvvIjgoCNEdOuDbb77GAXVdDBiYhKNHjmDWzBno2bMX/AMC9PelID8fPXqKjQ1YtHCB/s7l5eXi/ffeRVBgoP7OzP72a+zfuxcDk5J0+8xUNqRMgLLx3tR/Iy8vT9vctFHZWDBf28hX+z54b6rO06FjR8yZ/Q32qu/JwKRBOH7smL72pf6BgUHKxjvIzc1Fz169sHnTRixYMA9DhyajoKBA25D6yvd/7pxv9Xc+SdlIVdfaZ+r7I20ZpOr63rv/Rk52tuazZfMmLJinbCQPRWFhId5Xx/z8lI1OnTBv7mx8990uJA0arK754+p7PF1fl0FBwarOU3U79oqPx9YtmzF/3hwMUX5IW73/7lTV/n7opGzMnzsHu3btwCBl48SJVP1bIN+xYNVuwv6Kuialrbdt3aLONweDhwxV112xqudUdR36olNMjPJvLnbs2I5Bg4fo7++MadPUb85VG3ItyncjPiEB27dtxVzl82CVr1Rdu8Lb29sHMcrGwvnzsH37Vn3s1KmT+ncttktXhKhrUL5XmZcuaRs7tm/D3Nmz9blK1XdIWHl5eSOmc2csVO0lfoqPp0+fUr+vnyI2tou2Ib8RF9X3PEFd+zuVr3Nmf6u5lZeX62vH09MLnZUNuW62KF5DlA35TZTf6M6dY/X3SX7vMtTvTULv3ti1cwfmfPuNvgbkN0V+rz3Ub4zkXbxoIbZs2qR4D8WZtDRMUzZiYjojVH0n5bf7/IXz6K2+x9/t2olv1fWYpK7FyopKbcNd/dbFxsZiyeJFkGtQ2uys+n2f9snHqr1iEKruG/I5PT0dvfv0wW7V/vK9GKi+EyKW5bfWzd1N11vuPRvXr1fXTjLOnVX3HlWusXvPbnXv+VbfewZqUaJtuEHfv+S3SX4b5P6Vfq7pe8+eRu49SsGr+9fVe886dX9OVr8L55XfnygGlnvPjDr3HvlOfaPuPf3VvUeS/MaJSJL7V6P3HvXbJL/Z8t05Xe/eI/evfur+dfXeI1wa3nsuqHuPtKf8Vsu9Z2Zz9553Gtx7Vi7Xv9dyLeh7j7pnyP1nlrr3nLTce/are4+6fyWqe5nl/tXYvUeuSbEh91DLvUd+D/qqe2eK+r386ou69563Ider3Hv0/WvZMn0fzcy8pO9fogfkXir3ieOWe0+KuveIDbn3qPvXVHV9lJVdvffIvXyZ0gVX7z2W+1eYZiL3vKNHjyiOcu+5dv9S16y3j4/+zZfvr/xeiaZYtuTq/evy5Sx133hfX+eiC+S3UGzbk8RnuXc7OrkpxX1VQjvaciP2Jk+ejClTpjRypOW7ytWPTH5BUcsLNJIzW91U5Af/+RdfauQod5EACZAACZAACZCAaxOQf1ofevgRuyoZ6O+n/pH2sctGY4VN2a0fqCI0ySoqyEQCJEACJEACJEACZiRgrzB1JjNTilPptpUuFiYSIAESIAESIAESMCMBGc5o1GRKcWrUxqBfJEACJEACJEACJNAaBGQcslGTKcWpTMr49puvjNom9IsESIAESIAESIAEnErgtdd/4VT79hg3pTiV2ZbBwSH2cGNZEiABEiABEiABEmi3BJwxy95RMEwpTmVJmnsmTHQUQ9ohARIgARIgARIggXZFQJaEM2oypTiVdchS1PqaTCRAAiRAAiRAAiRgRgKyDrBRkynFqSyUvWvnTqO2Cf0iARIgARIgARIgAacS+OGTTzvVvj3GTSlO5YlLP/jhD+3hxrIkQAIkQAIkQAIk0G4JyNMtjZpMKU6lMeQxl0wkQAIkQAIkQAIkYEYC8phkoyZTitOcnBz17PFZRm0T+kUCJEACJEACJEACTiUQy8ipU/labdzf3x9JSYOsLscCJEACJEACJEACJOAKBO5/4EHDVsOUkVMfHx8MTU5utlFKS0pw9uwZ/ZJIa01NTbP55WCRmmhVWFhw03zMQAIkQAIkQAIkQAJtSWDb1i1tefpmz21KcVpcXIx1a9c0C+ZCxgXs3LEd2dnZ2LF9GxYvWthsfjlYXlGOoqKim+aTDJJv08YNLcrLTCRAAiRAAiRAAiTgSAJbDSxOPR1Z0fZiq7KiAhcuXLipux06dMSgQYMB9fr0k49QWlqKzZs2orq6GiNHjcalSxdx6sQJdOjYEf36D0BBfgEqqyq13e++24XLWVno3bsPuvfogdzcXOzbu0eXTU4ehr3q8/59e9G5cyx69Ox5U1+YgQQcTcDd3R1enqb8CXA0StojARIggVYlUIMalJdX2HXOn736ul3lnVnYlHem4JAQPPX0MzflWlCQj/Pp6cjKyoS/nz/kUV8nT57AD594SnfhHz50EA88+D21ZuoOtaj/AbUCgCcqlPCVPIUFBZgw8V7MnTMb0R06YPmypfjew4/obv/9+/dh8JChyM/PozC9aSswg7MIBPj5wsfH21nmaZcESIAESMCJBPLyC1FReTUgZstpfH19bSnWKmVMKU5bSla63i9duoSw8DA8+v0f6GKhoWEIUeI2ODgYR48c0eJ0qIqE/vPvf9NiVDIFBgbiYMoBFBerLn41VlVEbqaKssqFIK8xY8cpYZrfUjeYjwScQ8DtqtmCcvU/+M2HVDvHB1olARIgARKwioCflxu8HDAoMz39HGJjjbnWqSnFqUQ3T5xIRWJi32YviI4dO2HI0KG1eSrr/Idy/ny66u1XXf4qHTqYgnG33V6bT7rzR9xyK4YNHwGZTCViNio6GlJehgacSD2uIqa9dBd/bSF+IIE2IlBaRXHaRuh5WhIgARKwmoAakaXEqYouXAswWG3gWoEvP5+FX/92sq3FnVrOAdrbqf45xbhEMrduaX6Wmo+PL4KCguqd383NDfJ0KUny34aI1xXLl6FEzexPkrGp11Kfa6J36ZLFOKC68GWm/x13jseG9euwZfMmxHbpqqOrburK+uubf7YU4zsJkAAJkAAJkAAJtAqBRx77fqucx5aTuCnh1GodepMnT8aUKVNs8bO2TLmKeuYXtGxGfG2hBh+kyjJBKSwsrMER2zdlkpSIz/CICK6hajtGlmxFAkGB/vDx9kZWSTW79VuRO09FAiRAAvYQ8Ffd+oHqlVegxpxW2D7m1B4fLGUD/f3UcEUfy6bD3k0ZOZUIqIwZdWSSMaSBKtLar28/R5qlLRIgARIgARIgARJwOIFPP/7I4TYdZdCU4jQ3NwczZ0x3FENtJzQ0FMOGDYenl5dD7dIYCZAACZAACZAACTiaQKgDe48d7Zspxamvrx/6JCY6miXtkQAJkAAJkAAJkEC7IPDIo48Z1k+TilNf3HLrSMM2Ch0jARIgARIgARIgAWcS2K0eFmTUZMqlpGR2vTTK6DFjjdou9IsEDEngUlYV5iwpRG5edZP++fu5YeId/ujdiwv8NwmJB0iABEigjQmsW7sWsk67EZMpI6flZWXqKU4njdge9IkEDEugWq3rsWB5Ia7kVKFKbTT1KiiqxsKVRSguabWFQAzLjI6RAAmQgFEJvPyTnxrVNZhSnIaoyUvPTvqRYRuFjpGAEQnsTSnDpctVLXKttKwG67cWtygvM5EACZAACbQ+AW+1lKBRkynFqaxJevnyZaO2Cf0iAcMRuCo2S6zyS4tZNQyAiQRIgARIwHgEpr7zlvGcuuaRKcWpLCW1cME8wzYKHSMBoxHYuL1EddNfH2favbMnBsR7o3O0h3Y1PMRdbyf2uD6MXYYBrNzA6KnR2pL+kAAJkIAQMPLEcFOK0+DgEIwbdzuvThIggRYQuJJdhe/2ldbL+eAdAfjxD4Jx/zgfDExwxz2j/PT2c48Eo6L8+hPc0s5V4OiJ8nplG25s27BGP+LXsn/X1o0oLy/D6qULsHrJfMjxK1mZ+rA83e3s6RNYs2whjh7cj6rK+k9HWb9iCSqv7SspLkbKnsZno0qe0lLrIsEW/yzva5ctQm72Fcsm30mABEigXREYOWq0Yf01pTj19PREr/h4wzYKHSMBIxGQ6GfV9aCpds3y1GP1sDV4uleofddFYlVVRT2BunpjMSqrmp4cVVRYgPQzp7XdkpJinDhyCN7ePjh/Ng2j77gH8Yn9sHLhHOTlZOPAnp04digFt465A4UF+di2cW09VHt3bVNidrXeJwI37eTx2uPl5eW1IljOt3PzelRXVemXZJLhPpZ6Van9llRWR8Ra8sikSrEv25IsgthShu8kQAIkQAK2EzClOBVclpuQ7ehYkgRcn8DFzCqcSBPxWT+992UODqYW490vMrB1bwFmzs/U27/9W5rOWFeg5qhlpw4dbTp62i9piI6CSsHUwwfRZ8AgbcPdzR2+fn6IjO6ITrFdkXXpIo6m7MeYOyfAPzAQQ0aMQueucTqv5U9kVAed71LGecsu/b5l7UqsUVHYuZ9Pw5XMSyqiuhPnTp/CxYx0zP1yhs6zctFcHFfnF+G56JvPUaqWnJv/1WdYs3Shfi8rLcV2JYa/mfERUvZej8huWLUUh/bvrnc+bpAACZCA0QnMmnn1t8+Ifl4fIGZE75zkU15eLhbMm4dnf/Sck85AsyTgGgSaindWVHmof/DcUV5xNYdERqvUq6T0eohVBCpUF7+Xd4CKMDbNQ4Tn+pVLdBRSxOF9j/5QZy7Iz8Pa5YtQXFiojlWhW8+7kXrkoBasksHd3R3deyXcYHj8fd/DkjlfYcJDV59+UlJchLRTJzD+vodUhDYNqUcPYdCwW3FG7YuJ7QYv9cjhsrJSLUol0uqlZrB26xmPIwf2okd8HwwcOhx7d26rFdAjxtyOOHV8+YLZOvoaGh6BpKEjbvCDO1yDgHuNRNGb+ia4Rh1Zi5YTqHFTv31QXUYukDw9jfu4dVOKU+ky7N6jhwtcWqwCCTiXQCc14alnNy+cPFM/evrqkyGIV/t/+lQnbNyZh/4J/hiQEIB/Tu6OX045XeuUCNRg71L07xNWu6+xD92VCDy0bze8fXzg5++vswQEBuEWJQQ9vbxVN//VJU9kCIC85FhlZYWOdPYdOLieyeCQUCQOSNLCUQ7k5eRoIXv+7Bm4qXEIDaOt3XrEY+em9Vpwnj93BmdOpqqo7EhcvJCOw0qgijiN7dYda9U41y5xPbQNywnLVJQ15wpX/rDwcMX3igI1rliNdZbhYEzmJlBUVITAkDDU+AS5BIgfPvGkYethym+bn+oqHDN2nGEbhY6RgJEI3DXOH6dn5dWLfrq71yjBB/h6uyEy3AtBAR5628PzxojCnWODVXTyxv116ygCc8Z7/8LE7/2gdrdERv0DAmu35UP/wcmQ7neJXh47eABBISH1jls2kpJvwdfTP1QiNhBRHTvq3ZHRHdRY2HJ4KJHhrkRqvlq1Q7rwe8T3xrSp/8CLP/+tPrZ3x1bcPuF+FKuIq4w9zUg/i81qWIDsO3H0sOUU+n3Mnffg8P49qpv/OwxQvjG5JoGoqCiKU9dsWqtq5a/+cS4pvz6+3qrCBsyccmA/BgxMMqBngMcfVGotz9asWYPx48fbdboq1T9YVl4/imOtwVI1dkweXxob28XaosxPAi5DwMfbC54eHiiubL7LMsDfXT/t6cLF6z/K+QVlOHKyEHsOFalXITKyKnAuowwHjhYh/eL18aVdYnxw/z2RN+0E8/H1RYASovF9++sop0D2VN3t0R071eMt40/DIiKRnnYa3eMTkNB3QL1IpqWMREglyhkQGIwINQ61Z0IfPelKxprLUICAoGAdgZXzhkdGISQsHDFduiIkNAxhqptezhGkVvWQ88m5ZBiA+OKueEkeH18/LWTDI6IQp+xlXrygjsfU86We49xotwRqyooQoESJ/LPEZG4CFRUVanKnmjjp6dOmILw83OCtXmXqn23LpExbHPpsxnSMsnPGvrf6nXZGr4Kb+rFu/s5kS42bKDN58mRMmTKliaMt212uLo78gutL1bSsVP1css7pvLlz8NzzL9Y/wC0SMBGBoEB/+Kju8iy1funNfgVKSmsw9dNclKgnP1lSZUWJ6lovs2ze8C6x0pcnxaBLZ98bjnEHCbQXAlX5mYiKjHTKDbi9MKCfVwlIt75ETqvbuFvfX/VEBapXXkEhKiquBw2sbafs7GyEh4dbW6xe/kB/P/j6Ol6sm/JfwVAV+Xjm2R/VA8wNEiCBpgn4+bph7K1+9TJ4evmpG3bTP0oD+wVSmNYjxg0SIAESMA6BkCaGRRnBQ1OKUwkWF6oZwEwkQAItJ5Cc5KvGl159IpSlVFMC1Vv9V3/P7fb9R245B99JgARIgAQcT+Cdt/7peKMOsmhKcZqjFvOeM/tbByGkGRIwBwEZcvfgPQEI8Kv/s9FQoHqpSVH33x2JkGBPc4BhLUmABEigHRIYNHiIYb025d0jSE2GGDlypGEbhY6RgFEJdO7oiV++HKoG4l8fe3rVV7W8yrWBq95e7lDzhphIgARIgAQMTOC22+8wrHf1QyCGddOxjsmi24l9+znWKK2RgEkIqInw8PVxu+Hl5+sOeVGYmuRCYDVJgATaNYHVq1Ya1n9TilPDtgYdIwESIAESIAESIIFWIHD40KFWOIttpzClOM1Xj0X88vNZthFjKRIgARIgARIgARJo5wRe+/kvDFsDU4pTeZ5sh2tPjTFsy9AxEiABEiABEiABEnASAXlYiVGTKcWpPILsjjvHG7VN6BcJkAAJkAAJkAAJOJXAsaNHnWrfHuOmFKdl6nnae3bvtocby5IACZAACZAACZBAuyWwcMF8w/puSnFaXFyEffv2GLZR6BgJkAAJkAAJkAAJOJPAM5N+5Ezzdtk25TqnYWHhePKpZ+wCx8IkQAIkQALOISCr6NZUV8NdnvygUrX67KY+ywi5q+vp1sDN7XpsRY7Xy6vG0sl4Oskrr+vHqtTn64vwartN5r1uUzthwx85d1Pj+uRYSUlJPauenp7w9vaut48bJOAsAh0NPPfm+rfbWbU3qN2qqkqDeka3SIAESMDcBHZuXo+ZH05FWVkpitSjpt9+8/9h97bNGsriOV9j2ntv1wLat2u7Ov5H5Oflory8DP/+65+wdcNafXzl4vn48K2/6c8Z58/hrSl/xIljh/W2CNN3/+/PWL9qmd7eoN5lW/ZfycpUef+Awwf26mO2/Fm9ejW++uorba+x8iJaJc8f/vCH2teyZVd9aSw/95GAowm889a/HG3SYfbc1H9vDR/14jDjDQ1NnjwZU6ZMabjbqu3yigrkFxRZVaZh5uzsbMyfNwfPv/BSw0PcJgHTEAgK9IePitJklVSr6JJpqs2KkoBVBKryMxEVGQmJarY0icD99NNPcfz4cQwePBiPP/54bfS2oY1Zs2bhwIEDeveoUaPw0EMPNczCbYMQKCoqQkl5Jap9gtrUI38vNwSqV15BISoqbA+0rVyxHHffM8GuugT6+8HX18cuG40Vbvm3rbHS7XRfYGAgkpOHtVPv6TYJkAAJkICRCcgwgkmTJmHGjBnYu/dq9LUxgXrixAkcOXJEC1cRtDdLK1euhHTFDhw4sDbrihUrEBMTg/z8fOzatUvvj4qK0o/o7t69u94uLy/H9u3bsWPHDiQlJWHMmDHw8/OrtSEfPvjgAz3MwNfXF0OHDsWgQYMgT1O0J7333nt48cUX7bZjjw8s2zQBe4Vp05btP2LKbn0Z0zMwaZD99GiBBEiABEjA4QQOH9inu9YdbrgVDYqwE4GakJCgBWrDLn4RptOmTdNjUl966SUtGG/mnqw08+GHH9Zmk47PP/3pTwgNDcXWrVtx+fJlHamV/WJz/fr1Ou8vf/lLTJ8+XYtOEcsvvPDCtbG7tabw8ccfo2/fvoiLi4NEc3/9619fP2jFJxG+liTi2IPPM7bgMNz7xg3rDeeTxSFTRk4lNL9l8ya7w9kWiHwnARIgARJwHIG0k6nwUkGEiKhoxxltA0sWgSoR1P3792PEiBHo2bMn6grT5557Tu+T/efPn2/Wy7vuugtvvPEG5B4WEBCgI6WxsbHo0qWLLic2xo0bpz+Hh4djzpw56NGjBw4fPoy1a9dqIXzHHXfglVdeQXp6em05y0lHjx4NWQdczjNgwAA9XrayshIyFnbDhg249957cfvtt2vB+d///d9aGEtZEbPJycn45JNPkJWVhd///vf485//jG3btmlbEt2tqqrCsWPHUFBQoMVx586ddbR35syZKFTjivv06YOgoCCIf0ytQ2D3d99h7LjbWudkVp7FlJHTavUlyc3NsRIVs5MACZAACbQGgbsfeBi9eie2xqmcfg6LQJVoZVPC1OKECLbmknS5i3iTiVSSFi1ahEcfffSGIhI5/U4JDzmfDBuQLvq6qwa8//77NwhTixERo/Pnz0evXr30cIM//vGPSElJwWuvvYYlS5ZAuuolLV261FJEnyszMxMiWEXc/u53v9PHli9friO0R9Vi7yJgH3vsMURERODf//63Pv7Tn/5Un+PJJ5/UQjo1NbXWJj84nwAfX+p8xladISg4GD94/AmryjAzCZAACZBA6xCQyUd1xVTrnNV5ZxGBKt37J0+e1N3rUrfnn39ei0drz/rII49g8eLFEBEp3fYTJ06sNSHRSjkuwwmkq18EsYxlbWnXukzGevrpp/HOO+/go48+0nYl6vmb3/wG0kX/q1/9Sgvi2hM2+BCs7q1SN3lvmCZMmKAFsYjrs2fPqpUYyiCi9Sc/+YneX3c4QMOy3HYOAWsm+TnHg6atmjJy2jQOHiEBEiABEmhrApcyLkAeluJKSYSpjDGVJMJUutttSdJ9npaWpiOX8lkm+FqSdKfPnTsXn332GV5//XXdTS7d/qdOnbJk0e8y/jQjI6PePtlYsGCBjnCKmJaudkkibi0ixsfHR4tifcCOPyJgpZtfzsPUdgRON7gu2s6TG89sSnEqMxdTri3dcSMS7iEBEiABEmhLAru2bsS50/UFVVv6Y++5GxOmMrP+yy+/bHId1KbOKcLu/vvvh3S3S5T0Zql///66a12EsURbN2/ejC+++AKRanmsxpII0Z///Of4y1/+og9LRFO65EVMyvJYMh5VUlhYmI58Hjp0SI+n1TvVH8knUdGbJen+l2EMMp5VJnLJmFim1iUw+9uvW/eEVpzNlOJU/iPctXOHFZiYlQRIgARIoLUIjBhzG7r16Nlap3PqeRoTpnJCGccpM+cts/ivXLmiJx21xJmHH34YQ4YMgayLakldu3ZFp06dLJu17yJmJVIqSSK2u3fv1iKzYdRSlo+yPEnrvvvu02NHpftdhgqI4Hz55ZcRp2by/8d//Ie29Qf18IC//vWvOlIrk6RkGIEkWTpKxLMksSnnl+it5WlEIkoTExP18alTp+rlrd58800tVPVO/mk1Aj984qlWO5e1JzLlIvwCSWYMysxAJhIwKwEuwm/Wlme9rSFgyyL8FvtNCVM5LlFMmcUvM9gluimz5/v162eqRfglaip1F+EqwlnGn44cOdKCz3DvrrYIvyMAO2sRflNGTqVB+PxiR1yWtEECJEACjidQoYZeteLDCx1fAWWxOWEqJ5Tuc5m4FB8fj4MHD6oVZHKd4oeRjYoo/Z//+R8tSiXaamRhamSOtvr2wXvv2lrU6eVMuc5pTk4O5s+dg+deeNHpgHkCEiABEiAB6wisXDwf8Yn9kKBe7THJJCJZY1RSc5Of8vLy9Lqg7bGOjvBZHu1qmSTmCHu0YR2BzrGdrSvQirlNKU5lzMsA9Qg3JhIgARIgAeMR6KnWOI1sxwvwy9hNEaUyfMzyCNGGlCUyvGfPHh05tRyTcaNMJNBaBO5/4KHWOpXV5zGlOJXlMJKTh1kNiwVIgARIgAScT6BPvwHOP4mTzyCz4ZuaES+nlolClpnvTnaF5kmgUQLbt23FLbcac4yvKcecFhcXY906LlvR6NXKnSRAAiTgQgSWzvsWS+fP1jU6efwopr33FnKzr+gxrbM+fhc7t2zUx+R91kfv6v25OdmYrvJJfiYScFUCW9SyYkZNpoycVlZU4IKaGclEAiRAAiRgPAKb1q5EXI94dInrbrNzIja7dOuOcXdNqLXRrUcvPBQRiZCwcB25fOCxJ+Dr66ePJw0d0aZmdgAAQABJREFUjt4qYisRzZDQMDz4g6cQHKKWRyrOri3PDyTgSgR++uprhq2OKcVpcEgInnrmWcM2Ch0jARIgATMTcHf3gJu7m10Isi5d1OKyU2yXWjsyQz5ciVNLEhFqST7qufXykiQC1ZKvypKB7yTgYgSqq417dZuyW19mUmaox+MxkQAJkAAJGI/AqNvuRGzXOLsc65HQG9Edb1yU3i6jLEwCLkTgvXenGrY2phSnuWopqaVLFhu2UegYCZAACZCAfQQS+ychPDLKPiMsTQIuTGDcuNsNWztTilPp1r9z/NXnAxu2ZegYCZAACZiUwOED+3AlK9Ou2p84dgR5amITEwmQQOMEhg0f3vgBA+w1pTiVcUdxdgy0N0C70QUSIAEScFkCaSdTkX0ly676HTuUgozznPhqF0QWJoE2ImBKcSqsq6qMOxC4ja4FnpYESIAEDEHg7gceRq/efe3yJSQsDIFBwXbZYGEScGUC0z752LDVM6U4lWcYz5wx3bCNQsdIgARIwMwESkuKVQCh0i4Eo2+/C7Hd4uyywcIk4MoEQtQQR6MmU4pTX7VcSO8+iUZtE/pFAiRAAqYmsH7lMrUA/jFTM2DlScDZBB557PvOPoXN9k0rTm8dacxHdtnckixIAiRAAi5CoP+gIegUE2tXbdLPpKGosMAuGyxMAq5MYM/u7wxbPVOK05KSEmzZvMmwjULHSIAESMDMBOJ6xiM4VD2dyY60f/dOnEs7bYcFFiUB1yawds0aw1bQlOK0vKwMJ1JTDdsodIwESIAESMA+Ar5+fpAXEwmQQOMEXn7lJ40fMMBeUz6+NET9R/7sj54zAH66QAIkQAIk0JBARXk5PL289GNEGx5r6fadEx9oadab5qustG9y1k1PwAztgoCrXQfePj6G5W5KcSqPL83OvoJIPj3EsBcmHSMBEjAvgZVL5iO+Tz8kJPazGYKMN/Xx9YOsa21P8vD0Rk5unj0mWNaFCHj5B7pMbaa+8zb+41e/NmR97PvWGrJKN3cqNzcHC+bPwwsv/vjmmZmDBEiABEigVQn0TOiDyKhou865cc0K9ExItEvgagf8Q+Fhlycs7EoEql2oMiNuucWwtTGlOA1WCzOPHXubYRuFjpEACZCAmQn06TfQ/urXKBM18oeJBEigMQKjRo9pbLch9plyQpSMZYpPSDBEA9AJEiABEiCB+gT27tyGSxnn6++0cmv0HXehR3xvK0sxOwmYh8DSJYsNW1lTilPDtgYdIwESIAESQOali2qN0kK7SAQFh+hJVXYZYWEScGECaaeNu9SaKcVpXl4uPpsx3YUvOVaNBEiABNovgXseeNjuqOfaFUtw5tSJ9guBnpOAkwn89NXXnHwG282bUpx6e/sgLi7OdmosSQIkQAIkYGgCJUVFKCkuNrSPdI4ESKBxAqYUp35qYeax425rnAj3kgAJkAAJtHsCA4YkI7ZbXLuvBytAAs4icDDlgLNM223XlOK0tLQUO3dstxseDZAACZAACTiewOGUfbiSlWmX4a5xPRCoVmZhIgESaJzAsmVLGz9ggL3mFKclJTh06KAB8NMFEiABEiCBhgTSTqQi+0pWw93cJgEScCCB5194yYHWHGvKlOuchoaF4elnJjmWJK2RAAmQAAk4hMDdakKUh4d9S99v3bAW3br3ROeu3RziE42QgKsRCFWPcjdqMmXktEYtzFxcXGTUNqFfJEACJGBqAqWqd6uqyr7n2edcuYyCfD521NQXEivfLIF33vpXs8fb8qApxWlOTg5mf/ttW3LnuUmABEiABJogsH7lUpw8fqyJoy3bnZDYDx1jOrcsM3ORgAkJJA0aZNham7JbPygoELfeOtKwjULHSIAESMDMBPoPGoLwiEi7EMQrccpEAiTQNIHb77iz6YNtfMSUkVMvL2/07ccfrja+9nh6EiABEmiUQFzPeASHhjV6jDtJgAQcQ2D1qpWOMeQEK6YUp/JYPCM/U9YJ7UyTJEACJGAqAnt2bMWljPOmqjMrSwLWEDDyqkWmFKfVakKUrHXKRAIkQAIkYDwCq5cuxOkTx+1yLON8OnKuXLHLBguTgCsTeP3nvzRs9UwpToOCgvDIo48ZtlHoGAmQAAmYmUBYeAT8/P3tQtBVLSMVGd3BLhssTAKuTMDNzc2w1TPlhChHtIaXp6fd6/A5wg/aIAFbCVjWkfTzdIPqTGAiAcMQGD16tN2+DB+WbLcNGiABZxCorK5BRbUzLFtn8/ixY0jo3du6Qq2U25TitKysDIfVE6IGDxlqM+bgoAAY+b8OmyvGgqYjEOhl3P+eTdcYrLDDCKSmpiI6OhohISEOs0lDJOAIAjU1bsgqaXt1umD+XPz6t5MdUSWH2zClOJUF+Pfu3WOXOLUI09ySfIc3Cg2SAAmQgJkJ7N75HTp3iUXHTh1txrB15zbEJ8Sjb3+uzGIzRBZ0OIFQv2AV2HK4WZsMPvPsj2wq1xqFTClOw8LC8cSTT9vNt7yyAmXqxUQCJEACJOA4AhcyMuAfHIiwqAibjcqYVS9fH/5G20yQBZ1BQHSDt6eXM0xbbbNjp05Wl2mtAqacECVwq6vbPqTeWo3M85AACZBAeyJw930T0KNXT7tcHjf+dnSN62aXDRYmAVcm8O+3+fhSQ7VvTnY2vv7qC0P5RGdIgARIgAQcRyA/Lw8VFezZchxRWnI1AvEJxpwMJZxNGTkNCAzA0KGcyelqXzTWhwRIwDUInE07g4J8+8bzb9mwWa2Veso1gLAWJOAEAvdMmOgEq44xaUpx6u3tg6RBgx1DkFZIgARIgAQcSiBl735cOH/BLpsyadUycdUuQyxMAi5KYOOGDYatmSnFaXFREVatXGHYRqFjJEACJGBmAmPuuM3uMadjxUa8feNWzdwGrLvrE9j93U7DVtKUs/Urq6qQrcadMpEACZAACRiPQHBIsN1O+fn7MXJqN0UacGUCr77+C8NWz5SR0+DgYDz+wycM2yh0jARIgATMTKCosBCVlZV2IVizfBVOn+SYU7sgsrBLEyhSvchGTaYUp1Uqcnru7Fmjtgn9IgESIAFTE1i/ai1Opp6wi0G5ehJgWWmZXTZYmARcmcDHH75v2OqZUpzm5eZi5crlhm0UOkYCJEACZibQb+AAdIqxb4HwQclD0CWuq5kxsu4k0CyB8Xff0+zxtjxoyjGnIaGhuGfCvW3JnecmARIgARJogkBcz+5NHGn57pjYzi3PzJwkYEICgwy8apEpI6ceHh6IjY014aXIKpMACZAACZAACZCAsQmYUpxKk5SXlxu7ZegdCZAACZiUwOplK+2ezLRp7QacO8O5BSa9hFjtFhD44P13W5CrbbKYUpzm5OTg85mftQ1xnpUESIAESKBZAmHhYfDz82s2z80O5qsnTBUVGnc28s3853EScDaBmBjjDn0x5ZhTf7X+3YCBA53d7rRPAiRAAiRgA4GhI4bZUKp+kcT+fREZFVl/J7dIgARqCTzw4EO1n432wZSRUx8fXyQPG260tqA/JEACJEACikDq0WPIyc6xi0WPXj0RHBJilw0WJgFXJrB9+zbDVs+U4rSkuBjr1601bKO4mmN5uXmQR8YykQAJkEBLCBw/ehxZlzJbkrXJPIdTDuLK5StNHucBEjA7gS2bNhkWgSm79csrKpCefq5VGmXaex8jukO0Pld0xw4YNnJEi86bpp5ssnXjFjz53DMtyt8WmeTmUV1Tgw6qXs2l40eOISw8FLFdu+DA3v04cuAQJr3yQnNFeIwESMDEBMZPvBteXl52ETh98jTc3T0QERlhlx0WJgFXJfDTV18zbNVMGTkNUV09Tz8zqVUaRX5g73vkQf1KUz+WBXn5qK6uxtFDR3Dy+AnI06okidA7tD8FF9LPQyKNAUFBuO/hB/WxTHUsRYm6/Lw8vX3+XDqyMrOu7cvX+8RW3XQq9SRqlHCUdPJ4qn7PV3YP7Nmvy+oddf5kqwjD1XNctSd+HUk5pGfMir+5ObnIOH8Bhw8cxMULGSgpKcGeHd9hz/ZdetKBnP/MqTSVL0f5ma/Pk3nxUp0zQEVPi9FZLeHl7eNTbz83SIAESKAuAR/1G+Hubt/tSf5pDg0LrWuWn0mABOoQkHu7UZN9336j1uomfkmDXMzIuEkuRx2u0SJRxk+VlpbCV03GWrdyDSrKK5B9JRtb12/WXU8rFy9HYHAQtm7YDBF1IvQyL16ECNot6zYiUInVRbMXoLCgQIvGg0qsyniq5QuWaEcbRhm+275Ti2A5uHPLDlQrsbl0/mJEREXoc4odS7qSdRnrVqxBeEQEVixaChn2sGrJcri5uSEj/QJ2bd2BS0qQytIscs61y1drUR2ifviDQ0Pg7e2NDavX4ezpM/BQkYrNKl9Uhyi9r7Cg0HIahKsIRueusdpu7U5+IAESIAEnEEi+ZTg62vmUKSe4RZMkYBgC77/7b8P40tARU3brS3RvyZJFeOHFHzfk4fDtkuJSLFOiMEOJuzsn3KW7qk6rqKZEBWqqa3QUMrpTB3TrEYdu3eNw+VJWPR9EqPbqnYDuvXro/SIi/WS1gcFJiIyO0mJWDnTt3q1euYYbbup8sjzL8cPHMHLcKB29XKaEraenJzp06ohefRK0cHzg0e/Bzd1NC00fX19UVVapiQnZOgIRr/yI7dYFHWI6olgt0RIcEoxKddzL2wv+/v4Yc+c4fdrEAf10VFiiHyJ8mUiABEjAGgJn087o36ug4GBritXLKz08IeqfZz/128REAiRwI4Ex4267cadB9phSnEr07447x7dKE4iQvPfhB5B+Nl1328tj+aRb+9Yxo1QEESq6WQPpgq9d00/tq5sk2hp1bcyq/Nj27peohGNa3SyNfpaop0SI5WlYUDbLy8qQfOtwHeVcs3wVRt02BhMfuk+Xla5+T6+rl4JEVOXH3FetMThy7Ch9XOxIVLQlSaLB2zdtxcNPPIbdqsufiQRIgASsJSBDjOQf5t52iNM9O79Dj4Re6NM30drTMz8JmILA8OEtmwPTFjBM2a0v0cLu3a9GIlsLeqzqzpZxmjJWNGnoYNXFvgjbNm7VY097qh/QY4eP6q70lL0H6rk0cEiS6pbfDnliioz5lOVRGktrlq2qt1tE8MpFy7Dgm3mAGnrqoeoswwn279mH0pLSetGE+MQEHFNjYDeuWa+74r19vNFXRT+XL1yKLWqYwcnjJ+vZtmxEqDUEjx48jDw1HtWSZA3ZCjXhbMv6TVoYS52ZSIAESMAaAmPuuK3J37qW2vFSw428vbxbmp35SMB0BBbMV/rAoMlNTZpR0qV10uTJkzFlyhS7TiYz7fML7F+WSCb86Kiijd5Eqtnn5ZUVyCm5OoGoKTMizixR0Urlu8CW8aFlKpIpEUk5Ju8yicjT00OJus0YlDxEjc8Mh7uKfoqolONFauxmkOpGlyRRUE9lQ4YGlCr7EuWUfQ0nGhXkSxTUD5UVlSqPrx77KucJCAzQ3fna2LU/chlI/iA17lWirpJExMpH6d6vrKzU5cX38rJyHWmV88sTWHx9fbQgFT8kST31+Fq1bbm8LHWR4xaf5TMTCZAACTQkIL959k6IcoSNhn5xmwTsJRDmFwxvTy9kFts+Gcnfyw2B6pWndEGFur/bmj768H289ONXbC2uywUqjSEawNHJlN36ubm5mD9vDn70nPOXM7IIU2k4EZSWJOMxLUmE8t6du7Voi+oYrcaA1l+aSX6kLcJUytQVoRZBWHefxa4ITUkSKZYkolPGYDWW5JiMIa2bRNBaksWGbEtk1ZJE6EoSEW1JUs/AOnW17Le8W3y2bPOdBEiABOoSWKF6feJVt36v3vF1d1v1Wf6Jlt8qe0WuVSdlZhJoRwTsFabOrOp1ReHMsxjMtq+KBPbu3ccwXkk08vZ77jSMP3SEBEiABNqSQJe4rnYvA7V+9Vr0jO+lRW5b1oXnJgESsJ6AKceciji9deTVyT7WI2MJEiABEiABZxLonzRAr0Zizzlq1NCA6hrbu07tOTfLkkB7ILBnz27DumlKcSrjQLds3mTYRqFjJEACJEAC9hG4ZcwodO/ZuhNf7fOYpUmgdQmsXb26dU9oxdlMKU5l8tCJ1FQrMDErCZAACZBAeyIg6zrLA0KYSIAEGifw41fsmwzVuFXH7DWlOA0JDcUzk37kGIK0QgIkQAIk4FACsnTe6ZOn7LJpeTS0XUZYmARcmICv79UVdoxYRVOKU1neSJ56xEQCJEACJGA8AhL1rLvSiS0eysNGTqaesKUoy5CAKQj8++23DFtPU4rTnJxszJ8/17CNQsdIgARIwMwEho4Yho4xnexCIOs7ywNBmEiABBonMHzELY0fMMBeU4rToKBgjBk7zgD46QIJkAAJkEBDAqlHj6verZyGu63aHjoiGd3i4qwqw8wkYCYCo8eMMWx1TSlOZV3RhITehm0UOkYCJEACZiZw/OgxZF3KtAtBh04d9RPy7DLCwiTgwgSWLV1i2NqZUpwWFhZgoYGfKWvYq4WOkQAJkEArEBg/4W67ng4lLu7atgMZ5y+0grc8BQm0TwKnTp00rOOmFKfqQZ5wc7/6/HjDtgwdIwESIAGTEvBRz+q297GjmSrympebZ1KCrDYJ3JzAz159/eaZ2iiHKcVpYGAgHnjwe22EnKclARIgARJojkD2lSsoKy1tLstNj/Xo1QPRHaJvmo8ZSIAEjEfA03gumc8jX09vuLkxktteWr60shyyHBkTCZCAcwhs3bgF8b0T0LtvH5tPkNi/n81lWZAEzEDg4MEU9O8/wJBVNaU4LVX/kR84sB/Dh48wRKOU5hfbvaafISpiAidyc3PhE+IPcFiICVqbVWwrAkOHJyM4NMSu08sap5FRUQix045dTrAwCRiYwLIlSyhOjdQ+JSUlOJSSYhhxKmyCg4ONhIi+NEFA/rFhzLQJONxNAg4i0KlzjN2Wjh46gp7xFRSndpOkAVcl8PwLLxq2aqYccxoWFoann51k2EahYyRAAiRgZgLV1dV2V18ipoFBgXbboQEScFUCYeHhhq2aKcWpjBcsLi42bKPQMRIgARIwM4EVi5fhxLFUuxCMvm0sYrt2scsGC5OAKxN4+61/GrZ6phSnOTk5mPPtN4ZtFDpGAiRAAmYm0KVbV4SGhdqFIOdKNsrLyu2ywcIk4MoEBg5MMmz1TClOZSmpEbfeathGoWMkQAIkYGYC/ZMGIDI6yi4E2zdvxelTp+yywcIk4MoE7rhzvGGrZ0px6u3tjX79+hu2UegYCZAACZCAfQTc3N3tXsjfPg9YmgSMTWDN6lWGddCU4rSoqBDLli42bKPQMRIgARIwMwGJep4/d94uBLffdYeard/LLhssTAKuTOCgWrXIqMmU65xWV9egpLjEqG1Cv0iABEjA1ATKSstQVVVpFwMfX1+7yrMwCbg6gdd+/gvDVtGU4jQoKAiPPPZ9wzYKHSMBEiABMxMYN/52u6tfVFgEXz9feHh42G2LBkjAFQnIY4LlQRVGTKbs1q+srMSpUyeN2B70iQRIgARIwAEENq3dAHlKFBMJkEDjBKZ9+knjBwyw15TiND8vD+vWrjEAfrpAAiRAAiTQkEDq0ePIyc5puNuq7Rp5lhsf52YVM2Y2F4F777/fsBU2Zbd+qHpC1P33P2jYRrHHMfV8AZy/VInCkpv/Knup3q6uMZ7w8nSz55QsSwIkQAIOJXD86DHIw1LCwsNstjv6tjHw8/OzuTwLkoCrEzDyqkWmFKfuaomRDh07utx1V1lZg/e+zsfxtIoW1y0k0B0/fyYEUeEcl9ViaMxIAiTgVALjJ9wNL28vu84RFBxsV3kWJgESaDsCpuzWF9yu+PjSNTtKrRKmwiGvsBpfLCmUj0wkQAIkYAgCPr4+dq9Run7VWpw5nWaI+tAJEjAigX+/85YR3dI+mVKc5mRn46svPzdso9jiWF5BNVZtKbalKE6crcDeI3zMn03wWIgESMDhBGQWsSwnZU8qKirikoH2AGRZlyfQq1e8YetoSnEaEBCAIUOSDdsotji2cF0RyiqaHmc6bpgPPD2aPr5gTREq1LAAJhIgARJoawJbN25B2qnTdrkxIGkgOneJtcsGC5OAKxOYMPFew1bPlOLU28cHgwYPNmyjWOtY2vlK7EppOsoQ4OeGR8YHoU9ctZpkUN2o+St5VVi7gw8maBQOd5IACbQqgaHDkxHbtYtd5+zavRuCgoPsssHCJODKBDZt3GDY6plSnBYXF2H1qpWGbRRrHJPZ+XNWFja7YoqPVw1mLchEQVElKspU3iYE6qotJZDhAUwkQAIk0JYEOnWOQUBggF0uHNi7H1mZWXbZYGEScGUCu3btNGz1TClOKyurcOXy5TZpFHvX7mvo9HcHy5B2oenH/HXv7In7bgvE7beEYvzIUNwyKKBJgSrDAmR4QEvTL37xCyxcuLCl2ZvMV11djTvvvBMPP/xw7WvGjBlN5m/qwGuvvYaysqYjyE2V434SIAFjEVi/ep2azHTGLqfOnTmLK1lt8ztvl+MsTAKtROC11/n40lZC3bLTBKslRh5/4smWZXZgroqKCsz8eDruuX8CevdNtNtyWXnzYnLMUF9MHOOH1VvzsHFnCfrF++OxCZFI6hOAD7/OhKd3INzc6v9/IsMDxib7oZta/7S5dP78eRw5cgQZGRl48MEb14wtLS2Fb4NnW8uTuWTtQi+v+kvEyL7MzEysWdP4gxHkuIjOuvZkX3l5OXzUEA1L+sc//lHPdlPna8w3iw2+kwAJtD0B+a57eTX/G3QzL2NiOyM8Ivxm2XicBExLQHqRQ0JCDVn/+srEkC463qmqqiqcO3fW8YZvYlFE2XOvvIgVi5fj2OEjN8l988OrtpYgt4lu+A4RHkqY+uOf0y9g6YZsHDtdgrkrr+C3f0tD9y6+GDU0sNEIqkyJutkwAfFs7ty5mDRpEjw9PdWjYE9pZ0+fPo3x48dDIpiPPvoo/vKXv+j9M2fOxDPPPIOf/OQnWsguXbpU77/ZH4nKPv300/jlL3+JCRMmwBJNPXToEL7//e/j5Zdfxrx58zB58mRtavTo0ZC2feuttzB16lS8/vrrOiK7evVqffzgwYM6Mvv888/jjTfe0Hlv5gOPkwAJtD6BW0bfChGX9qTByUMQ3bGDPSZYlgRcmsBHH7xv2PrZ96+pDdUqLLRvTc1yFX0sKrJtySSLu7k5OVi2dAmeevpZyy6r3329PVFeWYHi0ua7wSXC5+Z2/QlMHh7uePyZJzDt/Y9x38MPYsCggVafWwqUltXcMIFJPVsACd284OdThYgwbxxMLcK5jDIk9w9E5w7eiAzz0tsbd+WrfUFIv1iODhHAkdM1KC2/7uNpNcHqyMly9O3p3ahvUicRjrNnz9aRSnn/zW9+o/PKAw7efvttXWcRqPv27dP7e/Xqhf/93/9FjmI/ceJE3H333VrYWk4g0UwRopb07rvv6o/+/v7417/+hbS0NLz00ktaEL/55pv6fMOHD8eXX36po7GSWfyyvOfn50NsrF27Fl9//bUWqT//+c+1wI2NjYV83rx5M8aNG6fL8A8JkIBrETh/Lh3yNEB7x666FhXWhgSuE7jzrruvbxjsU6uKUxEgIlzsSdVKgEh0zK6kbJSXV2D6tE9sNuOlIobal+qmx3uK8fSz6fq/d+8GTzvJy83DF9Nm4v/7519gS/g6K6fqhqWfBvXxwXMPB0HEJ1Clxaf40DXGR0dN7xkThsSe/li0LhujhgQhPMQTzz8WjS17CvDl0pJ6XfzpF6uUOJXSN6bt27frLva9e/fqxwNK9PI///M/dcagoKBaMS7RSYs4laEUksLUzeLvf/87XnzxRUyfPl3vkz/Sjffhhx/WblseOyhCUlKHDh1qH5wwcuRIDB06VO+PiorS7w3/NCwnYjU9PR2//vWvdVYZRpCUlERx2hAct0nARQjs370XPeJ7oU8/+4dQuQgSVoME6hEYPHhIvW0jbbSqOBUB8vvf/96u+kvkNL+g+WilXSdoYeHI8FAdOc0pESFoXZLnRi9bsER18b9w7Sko1s+Qj4n2hDx6VJ7wZEkHj5fh/03NR2FxBYb0DUR8nK8+5O3phlef7oSeXX0xe/kVJA8IxIXMchw+UYw/vHNWzeKvQnlZNbx9RFhelcq9u9cfF2o5h7xLpLR///7Yv3+/3t2pUyds2LAB3bt3r5sN77//Pu677z5cunSpdr9EN6WbXiKaDZNESVuSRAw/9NBDiImJaUl2nUeuvcDAQHz22Wf1xqW22AAzkgAJtBqB7Zu3oktcN3S2o2vfR33n5UlTTCRAAo0TmP3t13js+/8/e98BGMV1rX1UVx1JSAIBAiEhQPTeTO/VmGIMGFdwi+04iUvivDix/V6eX5LfjhM33G1csInpvRhTTAfTe0dIdPVe//tdMWIl7Uq7O1tmd86xxU659ZvZnW/OPeU+0yddfNSp5NTFc63qHlq0VStX0HQXOEUZE9OwBg2qxmTthrAOoAlDgunr5TlVVYuFEvdGhr90FNp3JJfGDoqgTm2Cad+xPOrePoQ277lOadeKaNqYKPp80TVhklAu/orv1C/KkQS1a7J5h6icnByC5nTTpk1VJA8aSCydY2n/8OHD9Oqrrwoj6wa0e/dueuONN2jhwoUEu1NoT6FJ7dixoySKVR2LDTgvLViwoOpQYqIZta0oAWIKe9IJEyZI7Wvv3r2r6pnbgOMUTAmefvppWR92rxhvixYtzFXh44wAI+AiBJAdqkz8JqiRoaOHk5f4j4URYARMI5Cb63pFn+mREfkIIvGquZP2Pg5vbDjMqJEyEXaoSCzJq5GyslK6JdLjJdRBgOprPygwgDCWwlLLQxfBW3/J9wvpgTkPUTViWlJei6zV1z/ONxXa06NniqtpT4Xqk3x8/CXpvHKjiB6eHCNsUL3p0m3b05njo+nHHVm0aVeWyS58vErpqRlRFBRg2tggXaR+7datWzUtKZbQMTdoUEE+Z8+eLQkytOTh4eF06NAhiouLozZt2lBCQoIkiMYe+7DJjYqKkjaj0KziLzIyUpZFPbQLW9aYmBjZRo8ePWR78OBv37494WVjyJAhhCX+5ORkgmlBfHw8NWzYUBJo1IdWd/DgwbKtS5cuScco2MFaK0iJSEITDZxZGAFGwDEIxCe0pAbit0ONMDFVgx7XdRQCgX4G8vH2obw6MjrW17efjxf5i78iEbEGoRhtFXskI/IXjt5wjLa3eAkiUOlFYu+WTbQHr2po0tSIJyzr15p/fqm0qax13IID51JK6O15WbWD8IvLWlycS+GhXiK2aahwiDJQemYJHTiRR2cvFZptebSwS50ySnhJ2SDw1n/hhRekptS4OrSmN0VcWSzn20OwNA+PfXjnf/jhh/TnP/+Z4BzlDIGtaoUg++TN5NQZeHMf+kTgSmqafIFX48x0UwTgDxEZomDSw8IIaAWBiMAw8vf1o+v5tpPKID8vChF/WTm5QjGkboVBLS4hQYHiO2Z/8xn70121M+X6ViGQEOdHXdsZ6JdjNTS4QrPnL+KYZoqbd9XmDIvabBDiIwL2R1hU1lQhODsZe9wrZbqKVLEFBQXKrurPGTNm0Nq1a2VsVDjYQRvLwggwAp6DwL7deympTWsRD7qtzZPavWMXJSa1UtWGzZ1zRUbADRDYJUz0evfpo8mR6pKcFhTk0+5du2jQ4CGavCjWDmri0GA6fKq4lvc+lp5BUKFBLS+vP8LBPSOiKABaQRsFS/jI8lRT4DxlT4FJwPjx4+3ZJLfFCDACGkKg38D+qkNA+fj4CBMnHw3NiofCCGgLgZ+3btYsObWdiWgLY6tGgzBSsDv0FIls4E3D+gSans5tguotbFzqkhYi3BTCS7EwAowAI+BqBJDZyTj7my3jGTpqOCW2tt6u3Ja+uA4j4I4IPPX0s5odti7JKTzJH3jwIc1eFFsGNqJfoLAvNXM56yGosJ6cPjaafXxsAZ7rMAKMACPACDACjIBdETDDZuzah+Yag3fb1atXNTcuNQPyF8bRCC1lVuogqMgg1ep2TFSz9fmEWQRKXWyQbnZgfIIRcFME0m+lE8JJqZGNazfQ2VNn1DTBdRkBj0bgg/fe0ez8dElOkb505Yplmr0otg6sV0cDDe4VKMJUmGnBBEFNjAug+yfGmKnAh+tDAFnPPnnvQ0pNSa2vKJ9nBBgBCxHYvuVnunDuvIWlTRdDJkHV2QRNN81HGQGPQKD/wEGanYcuHaIQY3To0OGavShqBjZlRDCNHxQk4pyajxBWUREpY4lC2xoaXLctqpqxeHpdENMv5n5KPfv2pqZxTT19ujw/RsBpCHTv1aN6LGgbeu7VrzeFiJjHLIwAI2Aagd69tempj9HqkpwiYGxLDw4/ZPD3IvyxOA4BY2LavXcPx3XELTMCOkQgtqnlqYnNwRMlknKwMAKMgHkEli1dQndPvMd8ARee0SU5RQrOdWvX0JSp97oQeu7anRGY+/Z7dO3KVULGqE0bNlabCoJ/R8XU/WAsFtmtXn79lWr1eIcRYAQqEdi84SdqmZhAzVu2sBmSHVu3U/P4FryqYTOCXNHTEdCy740uySlSYQYFBXn6fcfzcyACjz/7FH0+9xMaOHQQdeza2eqe3vzr362uwxUYAb0gYBBZnXz91D2e0kWK6ohIJBVhkxu93Dc8T+sQePyJJ62r4MTS5lxnnDgE53cVHBxMY8aOc37H3KPHIBAUHESPPDmHtmzcTIf3H/SYefFEGAEtINCnf19q0kwdqUSGqUaxjbUwHR4DI8AIWImALsmplRhxcUbAJALGBDXtMnvrmwSJDzICLkKgdXKb25pTFw2Au2UENI7A/v2/aHaEuiSnhSLP+/ZtP2v2ovDA3AcBENQ5zzyhWsvjPjPmkTICjkfgyIFDdEPYbquRU8dPUkZ6hpomuC4j4NEI/Lh+nWbnp09yKpxRTp06qdmLwgNzLwTUpll0r9nyaBkBxyOQcimFsjIyVXV0+uQp6bSoqhGuzAh4MAKPPfGUZmenzuJcs9Oqe2Dh4eH04EOP1F2IzzICjAAjwAi4BIFR48cQHFfVSGTDhhQaFqamCa7LCHg0AoGBgZqdny7JaUVFBWWILFENxY8XCyPACNgBgfxSQlpgFkYAv6+B4SFUXFZiMxhqiSk67jugn839G1f0KiqnYpFK1ceHE5YY46LH7dLSUgoICqRyD4kj/u47/6LfPf+iJi+lLslpRkY6LVm8kGbPeVyTF4UHxQi4GwJeIjVubGysuw2bx+sABNLT01W3eiU1TWaICg4JVt2W2gZAtqHI0LKWSe0cub5lCBQXF1NmVpYo7BlJbnr26m3ZxF1QSt26iQsGbI8uQ0PDaMCAgfZoittgBBgBRoARsDMC+3bvpcvC7lSNXDx/kXKyc9Q0wXUZAY9GQMs8SDOa0wsXLhBSQvr5+UkNjLkg+Zs3baKu3XtW3TBYStyzexf17tOXUi9fpqbNmlWdM7eBPlq3aWvutNOP48385s2bTu+XO7QegQIR6SHA4HptjvUj5xqMgPsg0G9gf0I8ajVy5OAhSkxqRW3bJ6tphusyAh6LwJrVq2j0mLGanJ9myOmyZcvorrvukgR1+fLlNG3aNGrSpHZ+5ZMnT1YjpyB2586dleQ0OztL5AKpn5zm5ubSxh83aCanrE+wgUjMg0X7CAT7h1I5VYj/WBgBRsBRCEQ2jFTdNMhtoLAPZGEEGAHTCJw5c9r0CQ0c1Qw5BRbdunUj2K6FhITQwYMH6eLFi9SqVSuKjo4mkNe7776bysrKaNfOnXQlLZUGDBpM8LxXJC0tjZLbtaerV6/QkcOHpbdn7z59xBt4iFJEk5/lgu54iAmLJvHlQTECjIB7IVCEVTR/f1Ue+4NHDHWvSfNoGQEnI/DMs885uUfLu9OUzemZM2foyJEjtGPHDmrTpg3duHGDikRMUkhKSqX9UZlYxu/UuTONGDWK1q1dXW2mV69ckeQVWtGhw4aLNtrSKaFprSkgv3dPvKfmYd5nBBgBRoAR0AACG9aspzMn1Wl1srOyqaTE9ogBGoCBh8AIOBSBK0Khp1XRFDlFeCeEasCSfkJCgknM/IW9KLwmoQ2dMnWayTK3hP0mQpHA/rRrt+61yuAHyxRprVWQDzACjAAjwAg4HYHWbdtQdKMYVf1u27yVzp85p6oNrswIeDICX3/1pWanpyly2rNnT+rSpQtFRlbaGwUEBFCWCNsAMpmfny9BLBbbhYUFlJ+XRwv/s8AksFFR0TLm4vXr1+nYsaO1yuTkZNPWrZtrHecDjAAjwAgwAq5HIKlta4qIjFA1EC9hKyWsxFgYAUbADAL3TJpi5ozrD2vG5rRp06bS3tQYku7du9O6devo0qVL1Oy2F36L5s2lPWqGiKU3ctRoWScmppGsFtOokQyUPGjIENq4YT15Ce0pbE5rSkREJGn5otQcL+8zAowAI6AnBPbu3EPNmjejxk1sj507YNgggoKDhRFgBEwjkNS6tekTGjiqGXI6ZUptBo/AxzNmzKgG0wThFJWdk1ft2LDhI+T+iJGj5GeTJk2Fp3/TamWMd+B0xdmhjBHhbUaAEWAEtINAVmYmRUVHqRpQUHAQdKeq2uDKjIAnI4BQnPbIxuYIjDS1rO+ICZpqE+GnsrOzTZ3iY4wAI8AIMAIuRmDY6BEUn9hS1Sg2rtlA58+yzakqELmyRyPwzr/e1uz8NKM5dSZCcLxasmghPTrnMWd2y30xAoyAhyJwRUQKwYpM48aNPXSG7jcthKMqKqyM9qK10W/dW0jHzhZTaVn9EZNDgr1pUI9Aim+qy8e11i6dR42nQ8eOmp2P29ztcIhC1iiElsrPzxMPAm+bcx0jlJQpW1TNXiUeGCOgMQTwPTQYRPIIjcq3335LP/30kwwtN2DAAJo1a5bMPueo4S5dulTauz/2mH1eeJHD+7777qOvv/66KlMSQus988wzNH/+fJo0aZJcjsOSXPv27Wny5MnSmRTz279/P2H+cAhFYpMHHnjA5t9KR+HljHY7d+9K4RHqnKocMc4NOwpo6cbqpmn19XP4VDG9NDucYiJ96ivK5xkBixFQTCItruDEgm6zrP/xxx9LWFauWCGcnTbQ1s2b6Pv531JaaqrVcPmL4M7tO2j3jcHqCXEFRsCJCNwQpOfDf72v2bzlSOABAjd37lz67LPP6PTp0/Tdd99VIYRwdTDtqSkghHWJuZiZpuqhffRTU5CiuaaYOobfqBYtWtD69euriq9cuZKSk5MlKT137hz98MMPtHDhQhl67+mnnyasCG3fvp3++7//m37/+9/Tl19+Sbdu3ZI4VDXiJhtHDh6mG9dvqBpt07hmFByiLgWqqgGYqJyZU06rt1ZGnjFx2uyhouIKWrzBOkJrtjE+wQjcRgAx4bUqbqM5NQawd5++FB0TQ9evXRM/xtuE5/1k49P1bueJMFRbBLkdM3ZcvWWdUcBb/PCUcrBoZ0Ctug8ZnibQj8htXutUT7lWA/jujRw3mj6f+wk98uQcCg0LrVXGlQdAIpFJDp8+Pj70wgsvULqI7gF5//33afPmzQTyN2fOHBo0aBCNHTuWEhMTqzSr0EpC27p69WratWsX/fnPf6ZXXnlFpEk+J7WYv/3tb6W2skePHlJb2VEsjRlrkVHvk08+kZ7i48aNo5kzZ9LevXvpr3/9K/n6+kpnzH/+858yVfNzzz0nV4NAZN944w1qbeQ9C23ovHnz6J57KhOGIK3zX/7yl1rQdujQQcaFPnHiBC1YsIBmz55NUVGVzkTQ5EKD7G6ScvGSxC86Jtrmoe/f+4uIdd2UYhpXRnOxuSE7VlwmNKbFJbVfjCzp4sjpYjp+roSSE8TvDwsjYAcEDh86KBMW2aEpuzfhluS0qLiIQDCRF1b5EbYGGXioKXFTrannqLJlJaUULWKzsmgfASyV+hAeLvr2Am7bPlleLIWghvkF2e3i4fu5du1a+uWXX+ihhx6qCiNnaQcIQQdSOHr0aBo2bJhc0kcaZBBNZJ/7/vvvKScnh8aPH0+bNm2SGk4QyL59+0oit2rVKklO16xZI5fEoYUFmcXnYZEW+f/+7//oq6++kr8hIItxcXFV2kloKnEeGk/UGTFihPxDeSQXQfSRL774QqZmPnToEMXGxtLf/vY3+vnnn+nUqVPVyCmW5P/0pz/JWM9w4MzNzaVOnTpVwQANMWTPnj0Em1fEiP7Xv/5FzUW4PUXw+3jvvfcqu27zOWr8GNVexGmXU6U5g1bI6fnLpbT3iDob2EXrc+nlxyIENm5zKXmgGkbg2ed+q9nRuSU5/WXfXpkhCj/CLRMSrQY3NDRUZJfSzg82HCmgUWHRPgK4TrbpParPrUIQsDf/+vfqBzW8d1MssUaZ0GLh+Nv/9yb9WWgW7SFpIp3ep59+StfEqgiWy6FNBMmEdhNaUEsE3ycscz/88MO0ZMkSeuSRR+RSN9pEimQlPB2WwTNFyCII0iVDoDFFn3h5RVkQ3S1btkjSCs0klusRdxkCG3gQU2O5ePGijAQCUg0BCUY70GaCtIKEwpa0bdu2kphCiwtiDO3o3SJMnrFgvpg3SDJILzS6xgJNKsp07dqVFi9eLImYn8igp6R8Ni7rbtu5ObmV8/G3XUsY16I5NVQZjspeuMGKZKEglmp/O67eLKOt+wppUE+O32qva6PndrCiZIuCzxmYuSUj6tv3LrmsbytAWEJLEQ+YlmZSpNraLtdjBCxF4IVX/mBpUc2WO7z/IG3ZuFku7asdJLSlIGGwq4RGMywsTNpTwnYSdqPQooLgKck46urvP//5j8wyB63p/fffL0kOyFuvXr1o1KhR9Oqrr5qtjpcPaCz/8Y9/SK0riC6IKkwA4FRVn6B+UlKS1LIal4WTErSnIK8vvviiHBNiLcM+FH289dZbBGL+m9/8xriadHRCGTxEQNqNBVrVmoQdmlWYEMDkALJz504CHm+++aZxVc1vb9m4iZAlqk1yW5vH2qlrZ5vr2rvi7sNFdDGttg0y+nl8WhgltahOwivKK+j71Vm071hZraGs3pJHPToYKDjQstUbZFnEPYF7pVu3bvK7pTSKlzNo3vGihZccfOJ+x0sUBC87MDVBkhwWz0Pg808/oRd/r81nkdssDuBLAvERP/74MVcj2eLLunGjdg2B1cyN6zICzkDAmJgi2LkaASmDPea+ffvkMvaYMXeWdBuJrG9/+MMf5JI7NJrQFsKetC6B09Dbb78tSS0chuAYBMILDezGjRul3Sm860ESTQk0lCCSiq0nluPhXAXPeRz/f//v/5mqJo/B/hMaXxBKkO2nnnpK2pZCg/s///M/UosKzWaDBg3o7Nmz9Oyzz0rigGX7CBOe5SAG0L5Cu2FJmCpobD///HPZP8YLe1llHmYHrcETnbt2oSYeQojgzLT8pzyTKHdrZ6COSf4U4O9V7S8wwJumjAwjf5/aTnp5hRW0aotlTlUwHcF9D3MWrADgu3X16lU5FnzfYP6CT5iyTJgwQd5rMF3CfYP7Ey9VeCmE6QmL5yEwVlx/rYqXWKZSu9Jg8dxefvlluWRmcQUTBYuFk0PNDFEmitV5CFqa69eviR9721PjRUWGU3FpCWUU2CGYf34p4SHMon0E8MNdYRDvdN7qXpC0P1PzI4S3/oKvvpMaU4WYehWUUYxwlLJGQDJhW7pCRODAQ1IhpbAnh0PR0aNHCQ49PXv2lM3ioQrtIVY+Hn300VpL6sZ9I+wSiCj66N+/f5UdJjSQsDPFcWhWIyMjJeGFbahxqstly5ZVW2ZPFVFBUA+kEvUCAwOlt/zUqVNltxgrXprbtWtXpXnCeAcPHiz7xpihoYJdKTSzsIGFnDx5UhIHEGrM01S2FhAE2K8iZJQisJsFaTb1og5t2NatW6WNar9+/aTXv1LPGZ/A2CvAl4rLSpzRndk+jh85So1E3NnIqIZmy1h0orCMwkJC5TW3qHyNQss35dO6babJ5JypYdS5jT99vOAa/XI0t6pmbIw/NY7yo6zcMjp/uUIoZaov4/uIn6Dfz4mg2Oi6TV3wPYHGf+jQobJt2DtD0YMVBZiXwFlQ+X7B6Q/mLfi+wCwGqxgQ2DrjPgKJVZREFy5ckOQV1xr1saKB7zHuvZEjR4oMjU0Iz1nYecM2GuYyyv0L8xrYZENLi3GFh4fLMrj34Vyo3L8gy3i5xHcF3xvYTsO0BiQbL4F9RGpy1MHLG76v+I4MHz7c5EuenIgd/sGLZ6ZQblWIlwdbJSJQvHT4+tH1/HJbm6AgPy8KEX9ZwvylRPisuFJCggLFb6fB7kPQJTm1B4pMTu2Bovu1weS08pqBbBnbSdtCTkFCod07fvw4Pf7445LYHThwQGo6O3fuLJcZcT5BmN8gVqfilIRwSXjg4oHHoj0EtEJOVy5ZTolJrUhx3rMZKRXk9FZmOf11bgaVmAi2P7R3AKVeK6JR/UPo7x+nUBNBSOObBtA+QVIjGvjSq8/ESRvVv/z7EmVk+9QiqMkJ/vSrGWF1TgtOcvi+gAgaC4gjiCBeqhRR9FQwPTEmp/jNg+0ziKZiRrJu3Tp6/vnn6WFh143vIsxgoNmPj4+nf//731IT++OPP8qIFyDBMFt5/fXX5YvSxIkTpTYWJBQaW5BavHTi+w0tLTS2WC2BOQq0vjDxefLJJ+XLI1ZYfve738l2QYh/9atfyTHgxRYrEjDfQXumXtqUear59DRyOv+br2nG/fWbK9WFmaPIqVvanNYFlCXnYIOzfOkSmvVgpdOCJXW4DCPACNxBwJiY3jlq3VZwcDA98cQThKVH2JVCiwnHH2h78OCEQJOD8Eiwr4S2EkvfWDK3Vktr3ci4tKsRQGYnP+EMZUqTbOnYYhrFUIOIcEuLO6TcvqNFJolpSJA3jRsUTAeOE737VRoZ/L3pD483Iyznx8X60/erbtJPu7JoeL9wmjSiIX34HZbivQRBvaOhOn5OaPFE3NTwUPNaPBA8EFOQUZiQQKBxhNbdeKUAx40J3eXLl+V3E2QMLxvQqirEFGUh0GyCoOI7CxtVRIqAtGzZUto6Yxvh3GCSgpdMtA8NJ1ZJQGoh0IjC5KAuQfg3tIGV11//+tdy5QJzgAYV2lyMUQnBhuQTKSkpVSsldbXL58hkvGet4KJLcuovljXijMKtaOVi8DgYAT0igGVDPGBg2gKHIDxM8XCEzSYckR588EHpNQ9bSjxQ7UGM9YizO815w5p1lNSmNbVObmPzsHv27W1zXXtVNPibbqlcODyViVXdXp1CaOPOTEq5UiSIQmVZwSOl+IllW0hpaeWJkpICua8QVJz1rXtVX77oIQEFHJpgRwptJlYnoO0EYcXqBV4SIYgqAe0j9qEFhY00vmumbKFlhdv/wEQG5RSSCccqhEiDiQteImHzDRIKjSqOI3mEIjDbgbMeTF3MiaLRhanABx98IJ0aMUZoSwsKCiQBVvpGxAtoYFksQ2DmrAcsK+iCUuZfuVwwGGd1GSgefoMGD3FWd9wPI8AImEAApBSOS9CMgoRiSQ/EFA9IaEu2bdsmH6aoCns1LOnBw/2Pf/xjtcxJJprmQ26OQOu2bShaaD7VyLUrV6kgv5LQqWlHTd0eHQIoKKCSZBq3ky+cmtbczhQ1fVw0lQgC+j8fpNDc+VdFJqhb1KyxgQZ0byAD9i9ef6uqKghqWWllrNSuyQaCBrYugZ0mnPlA8PDyp7zYQYuJpXrjzGmvvvpqVbIKlIuOjq6XmKJv2GGjPRBevFzC7hOmOO+++67UtsKBcODAgXIJH6QSKyQQkFp8l+HoCLtT2LFC8GJqSpDoAkkzIMeOHaP//d//pZs3b0qCjbS+6BumPryqYgo99ztW953tfvPhETMCjICbIAAiimV7LP0hdig0ORCEP8LDFEu6WPKHwwMEHu1wTMKDrGZ8UVmgxj8gt3BewkOQhQgRCtxFEEYqIjJC1XD37dpLF28THlUNqaiMcE9jB1ZqJms2s3lvAV1PLxN2pgYa2KMBFRSV08kLBVQhvgbTx0aJ+59o7dYMSs+q7vACgupNxTRxmOl2jfuBrSac7RDFYcqUKdJWE/bdECyTI3Uu4v5imR1OgSB3IJqKNtW4LeNtkFfFLACkETanML2ZPn06IdU4vr9DhgyR2zAhAJlExjMsx8MJCuOB1hTL9Pguo29obkGmYYeK3wYIxqGYdsCJC99ljPfvf/+7NCtAXWRZw8st+kZdFssR+HnrFssLO7mkLh2iEMdt+7afafiIkTbDzQ5RNkPn1hXt5RCVL5bT4GWJH96Q0BD5QDAGplAsV/mJ5amadl7GZazZhgMTUuQGCLvNrMwsWRXLX4HC09IeYotDlNIvvHfhRQyNKR4yWL7bsGGDXP5TtD7wvF+0aBENHjyY4FBhydIdHlpw7oBGBfUUAQlGRiUsXRrjCw9/2LWGhIQoReWYQIqhRVIE40RZLFEq9dEmQmLBNk55aCvllU/lvPHYQbxxbZSlUxB17IMgwDZeieIBLTPGhsQBeHArD2+0jd8zkAxFI4VjNecI5xOQAuAIcg9BPfxhzBD0i7mBAGBe9REUWcnEP/ZwiNq7aw81i2tGjZvYHlFl/co1lNC6lXSKMjFMyw+pcIhCJ1i+f+OjDLp2q/ZLEsJIIc6pIumZpbRw3S16bFojSUpfefuS0J7eXudXConPsQMjaNJI66IQ4J5QiJ5RU/JeMXXcuIyl26b6MHUM5BX3eE0xVdbSMpbUrdmWtfue5hD11pv/oN89/6K1MFQrzw5R1eBQt4Mf4Zs3b6hrhGszAioQWLt8NTUQJAG/z9euXKOho4dXywF++dJlimgYQQ1vE4e6ujp26AjFNmtap6bpSmoanT11hgaPGErzP/+a2nfuQMjCAxI8YcpE8hV22K4SELCXXnpJZmFCFiV46Coha/AyAGcpkDOEvYGzhSUCYocwTVj6gyewQk4RGQC2d1j6g1cwzAfg9Yv+0QcIJJYnkbVp9erV9N5770niCJs9LD8iLA7KItD+6dOnpaMHSCPqoB20j5SmyvIjxgryjToge9AO4Txs7OBAAu0u5opl0Ndee02aK3z44YfSoQPjg/YJ8Vh/+9vfymVYeEnDZhDaKYTTgQMIzCKgvUKAdSQtQLgdzBGEGm1gDgjNBSIKDRfMI2C/i5ixyJYHUos4lghZBS9pHMMnwge5SrIyMqtIs61jGDZ6BHkLku1qQdinySOC6YPvaocdPHy6mHYezKPW8QY5zB/W3qLBvcPoZkaJdIoyRUzDQ0XmsMHWa5XNEVBzx23BzVRbpo6ZIqboz1TZmuMwV8bc8Zr1ef8OAs88+9ydHY1t6dIhCqEpps+4X2OXwj7DQXq73YcKKTf/tnV9Hc2KlRnqIN7c2yXax4Acb67QKCnanjq6rvMUHuZ4sHr6j03v/n0oWGjpLp2/SAf37ac27ZIJGtXCgkIKC28gQql6076de6h7n55Su3Fg737q3L0LHT14hG4JW6vKEDlehOXL8NNnaMzE8YSH+iGRuQmpGxOF1sjUQwCa2gFDK223Nq3fSBfOXaBWbZLqvCaOPolxQrOHDEcgo7iP8BL5qrCDw3EEklfs5SwZC4gXHCZA2LB8CW0eSBhC2oDogXgh1iLSh+I4NJGwf4UmEyQY/SEqAMqAVMIp6/Dhw3LZEMujiDIA5xLEMoU2E3Z3sLED+QQpNhZohWGHh3BYIK9wCIHtLDyc4U0NgSf1pk2b5DY0x++8847EAEuhSrIAjAMOISCmIKn4jnz00UdyHNB0woYQfWCO0BqDAEMDjTmCWKMOiCnGDFKLuUFAluFFjSVSfHeN7RBlARf8A2KpVqCF9hP3lRZ+R/Abi79jZ2sH1f9mRT4VF90Q3/HK5fs9hyvNWMzNf7XeJVwAAEAASURBVNKIKOndb+48H2cELEWgsLDAolUoS9uzZznxTqc/wbLV5cspHjdxxNR7e14mrd9RQDsOFtb7hxzNc8Xb/P7jlQb2lgKCJRnEvFM0Onj4QfCQhgZJrYAIIDyJp0tebh5lpmfQqeMnhda0MV2/KnK/nzxNScmtCZrOnOwcaWeJ45cvpYgHWBFdTb0ifkz8qO+AfvTT2h/FsmdjiotvTt16VQZwXyeWMnv16y20sVfp1LETJiHE/Z8rSBjKXLmcJlIB31myNlnBiQexxIz7CoQUy+7YRqB7a4gphquQPpgCoB3F3hIkEQQYAju3Rx55RJoRKE4Y0BpCc4llcLwkwcwANm4gyzAFQHl4HuMY9mHPB6KLNjFO9NO7d3UvccRsRcgbCMojLA/IMPpQBJ7RyCYFUZbZsdSPZXZFlONYlsdxaIcRNgffOYwH1xU2ubCzBRGFYL4IzWUseBEwbhcYwzEFAtLsKfKTePE6K17atCKThgcTtKi1xYv8DbCtrF9XFN/EQH27htZugo8wAjYg8NHcD2yo5Zwq9X8bnDMOp/aSJR4Ka9esptlzKg3Dndq5AztbvCGX8grq15gaDwGlf1iXJ9/qDSKFniWCB/A333wjgypDY4RYd3gw4iHMYjkCh345KG0+27RvS82ax0ktadsO7aQ2VWmlXcf2kryCmEKDCpJ2TjxwrwnCGtkwUmpGvUT8Q2+RsQpk98a1G7RV5LsvKio2qzEqEMu70LYiu9OoCWNcHgtSmavyCfIErSf+bBFoLqE1g0YUoXKQ8QbaShBLZJxBqBvERYQGEY5YWAZHsHJFoEXs27evtCmFhhHjUWzkoO2ENheaSix9w34U9z20qQgOPm/ePBmCR4n5iDbx8jZq1CjZPJbWlaDoLVq0ULqUKVFhgmCN4DuHpf358+fLasoY4R0NrS9EmWOvXr3kPv4BKVaILvahiYW2WEty/uw5cX83FKYvDWweVoVYycFqjlakcZQP9e8eSJv3mIogUElQi4vyqjSoNceNX2d49ovbkYURsAsCw4arX6Gwy0BMNKJLcgpbv5GjRpuAw30PnbpQQgdP1l4ysmRG2bnltHZbAd09pHoWEXN1QUyhaYEWCIKHNJYzjQUPQCxnwkYP5UAMsAwJj0och9MIbOFgu4d0d9B0QcuFsop3tnF7nrjdd2C/akTU1BwbxTamHVu2ieDbvtJG9eeftlDjpk3kMvxXH39RVUUhJk3jmtLou8dRuSAuIC+mJERoBwcNH2LqlEccw70Ez178KQJNIpblcQx2mZMmTSLku4fWcPz48XIfjlAXhHc3loERL7FHjx4yvBXsPpFmFUvtILK4f3Hs3LlzUisJ8wN4HWNJHSlKlTSNSt/QasKUAJpYpBWFVhjfA5BI9A9tLeI0wvxAWdpX6tb12bZtW5k9B2F0QD6xTA+iaWqOaAeEFCYT0KTCtAlZgJqLeM/IqAMsan6H6+rb0edgRw2PfTXktE//+r9fjp5HzfbHDgiivUeKhBLBFGmum6D27BhCiS2qpzGt2T7vMwLWINC1W3driju1rC699e2BsJa89aEc+PunmZR6vdJmyZb5+fp40Z+eDKeG4fU7EGDZEvZ2xl7N6BNL8Xjo4iEJAoCcy1jqRDB1aFthL4dQJXjQY1kTS5kI1AyCiqVOOHbANhBkAc4oILNaE3t5669avJwGjxwqtJd3wsEc2PuLJKAtWyXQ7u07qYlwsGnWvBnt3blbOLwEUMeunSjtcqokq3Cigdf9tAdn0OWLl2jPjt00eca9dPzwUVEmTZLTXnf1qYoViXoXhDaq36AB9MPX39PUWffZFVo13vp2HYhoDKGooFE0vj/hvATM4uPjJQEFUYW2VAlJBY981AOBgyYUmlGQ+yNHjsi4iyB/uB/xEgDNLNqDPSscpSBY4sfSPRy2cE9D22osIKZ79+6VecIRPgsCz18cwxI7vlP4TqAcvgN4SUNfyIID5yo4K6FtLOlj6R4aYWh/oSHGCyDiPSJMj+KJD5Jdc47QEqMdRDsAocY2XiJRDwQZZjkoo3YFxB7e+nnCOc2glYQLKr31je8DbO88WETfrKjLrrRCmPBU16CGBvnQn56Oo0iR1pTFdQh4mrf+wv8soCn3TlMFKHvrq4KvemU8iFavXEH3zZhZ/YSb7m0/UKiKmGLapSL38+INeTRn6p2wJubggGYJD7e6BA8opKmDQDMKr2Rzgoc9HthYIoV9oCfZvZmb89hJE2qd6tKjW9WxXv36VG336HNnSbaJ8MqfMrP6j0li6yTh/JQky3fu3lU4TXWtqqtsoB7+IPYmpkofWvkE2aopeAFSBAQVf8YCTSLuU2MBQQVRMyZrIJ3QWOLPWBBWCi9V5gSORsr3QSmD+72mRzzKKQ6F6Evx+ocpgiIKIcY+CDc0vDUF88OfsUBLij8IzEPw8mgssHFVQloZH3fFNhwF1crPm7ZQfEJLaTKjti171u/T2UABBi86crpI/I6aa9kgCKqIeSpeUMKEd/6gng2YmJqDio/bjICWVyl1+RrmKx46sGfyBCkQmUZWbs6vNZUWTXzJz9eLzlwqqXUuLMSb2sT70R6xvGQsMAs4fbGEklr4GR+utY0HM4KjI+sHBJpSaGrgWawINDDQyiDMDkL0QNOq2MEpZZRP/ADDE5mFEWAEGAEgkJ2VLe2xQb5tFawsIFyaFqVLW3/CX91Sv6Kg7vp8lhGoG4GHH51ddwEXnjXpO+jC8Tilayyljhg5yil9GXeCIOjbNm+Vb8PGx9VsrxYp8HLzq9svgZg+PaMBjewXYNK4vldHAz0wMVSkx6ttv7RQOEeJtM91CjyYYR8HJxOE7IHtXE0NEGz6sFQPWzrYp2IfguVKhKr5+uuvpZ0bjsF+DzaBsDlFHMbz58/jMAsjwAjoFIEtGzfRuTNnVc0eodZihX02CyPACLgfArokp666THBquXHtOi1ZsMguBBUZR7aIFHg15bF7w0Q2kmJ6/9tUKinKrUVQN4hQU1v3FtK9o0MoJrI6sYXd6o79hTWbrLaP+IkI4g07O9hgwgkDTiDQksLmFILUdA8//LD0VIbdKRxCILAzLRCB37GkiZiLWM6Hnd+XX34pta9YalRC7cgK/A8jwAjoDoFOXbtQk9v2vLZOPjGplSqHKlv75XqMgLsgsHvXTs0OVZfL+iBHu3fvEvZcg516YWBDNvHeybT0P4slQb1n2uRajhPWDGjR+jyZGq9mHYOfF504J1IaFlUSTxBUP0NItTh6h08ViXzOAeTjVUxlpV7CG9xQ1cwKYSbQrZ2BAgO8qo7V3IAzBv6MBQ4ds2dXLhPAXg8hfPBnLMjMAy/hmpKYmChD8dQ87i77O7ZuJzgyNRbe9Z4sN0W8zxNHj9NdwrGqptOPJ8+b5+ZcBJqL2L0sjAAj4FgEtm7ZTL1693FsJza27lRyCica5HZWI6XCg7awsLqtpLXtFYg81IeFh6uf0GTaKiEiRiTGkl9St5YxWwTKhtewcRq9RrGNaNkPS2S8yt/910tkngKaHx0C7pvKNmJcIzTYh2ZOiKYVPwnnpMEhtHFXEQ3pHUI7D9zRtmIFv7Skcl8hqDATQGD+fl1rL/sbt8/bJD2tF367QBK1br20G5bDXtcKYdiupl2leR9/TtNmzZB2gfZqm9thBOyJwB4R5SKueZxIVBFrz2a5LUbAYxB46lfPaHYuTl/WR1BkNX8IrAwHGjV/AQYD9RShYdS0gTlUVNT/p8zVuGz5baPOMsSAslGUNsxVB+E1+HtTbLQ/gaQ2jvajQP9isYxPFOBfJMeu1FUIalnpHdJfYtaLVKnFn8jcNPft96hFQjzNeHiWzG/u6ajAQWWqiBaA5ABz//WeDG3l6XPm+TkfgbUrVouXd3U2p/h+Zop0viyMACNgGgEtr37Zrjo0Pdc6jyJ8CdLpqZFi4VSUnZOnpglJjm/cuC5Ctti+BGtrnFMQ4mULl1DPvr1o0n1TbV4ajY70oaTmfnTahDd+JThedDOjhF5955Lcff3dFPl5+FQldu1bIeB+RGVR8a9CUHEgKCiAuibX50laVVWXG8hH/6EgZ8hR31DYzGKp25QEBAZI7WpFfV5mpiq7+BjSmyLSAmz3akqoCL3UoXNHeucfb9OjTz1GrVsk1izC+4yAzQjENG5EwaHqwkm1TEyoivNr80C4IiPgwQi8/9679PyLL2lyhk4lp1pBIFMEm16xfJnT05cqxLRMmDeoIaYKjpNHBtM/RPD9mrwH+81iDcLG1EsQcdDO2hIncjRDjEmTQlCH9Q4jhJsyJ2+88YYMWI54pxDETjRO12iuXn3HEUgc+cJhf3r06FGZItXalI719WGv87CJg40tUoXifmrQINxk04HBgVSYXyi19CYLaPjgkYOHpOaprLRMBqU3Hmpubg4d2LtfHkpIEsTUtuRkxk3ytgcjAM97ZIVTYu3WN9WuRjF/6ytr7jy0+9bKL3v2Udt2baslx7C2DS7PCLgLAv1FUhytii7JaZjIBz9kyDCnXxPY3CK+av/B9nEmadbIl/p0DiAE4TeW+Stz6OFJYfTI5Bj69Idrxqfk9l3dwmjyiIa0cUcWXUy7s5SPk5HhvjSiX90ai7S0NJmucdgwyzFEth2Q2ZrLCMAEGnXIrl27hKPabnrttddklh147RuLcdn6jiNzjpoYicbtm9rGXF554zU6JjIyrV66gnr36ysC4dfWMJqq6y7HxplIFICxXzx/gX4QdrbTH7qfOndTctKXucu0eJxORgDL81gteviJR53aMwhxVHQU4ffeUvEXZiufffCJWA2YwwTVUtC4nNsi0LtPX82O3bx6TLNDVj8wkKEEoZ1ztoAsDRgysBZBUzOO8YODZLYR4zYOnCimLxZnC4/96sRTKXMhtZBWbc6g+StvKIeqPqeMihJk0XoXLaRZRDxTRRBuCoI0pkhX+sQTT9CoUaPo2LFj8jgc4x566CGaOXOmjJOK1I/I+420pV999ZXMUa60hzrIH47c5a+++qoM7o80csieAy3uPffcIyMAwL4XKRiROxz5zBHW6uxZdXZrcrB1/APtzMNPzqZVgqBeunCxjpKecepK2hUZaeKB2Q8ZEVPPmBvPwv4IVBHTxx+lcJGBylLZt2uPcLy7Ymlxk+WOHzkmU/maPGnmYIcunWjw8CGSoOaLFLEsjIAnI7B82RLNTk+XmlOk7Fq/bi1NnjJVsxfG0oGFBnvTqLuCaOnG6j+kIKhlZcUyEkDNhf3Ua8WUeu1WrS6S4gOoZ8e6taZKpe+//14G2Mc+MkOBGIIwKoJwXRAcQyzUTz75RP4tXbpUmgG8/vrrtHLlSpkZCjFR0QZIJTSnIKEI3q+098ILL9AHH3xALVq0kMH733vvPXrxxRdlDnLURUIAEN9z587J/OZI/wiiu3nzZjp+/Lg0E1DG5YhP2Jw+/fyvpWbYEe1rqc1Y4fn87Iu/0cVctYS7O44FqwpfffIFDRk5jE6fPFVtCnBUCo8wbQqDgscOHyM4NEXFRFerZ81OlugDWv4cka66LjE1liARjeW///gqvfK/r1KQD0ctqQs/Pue+CEDZoFXRJTmFLSbsnzxFBvcKpG0icP7NjOpLqz4+wqlJ/F9anC8dnuqar4CEpo+1/EGAfN5KTm/kFQcBNScglZAmTZrIQPsoGxoaWpWyFEH8ISCSNaVQhP26evWqJKY4N2HCBElesY02EMAfgrbzhKYD+dGhlZ01axZNmTKlVj5zWdgB/yj2tw5oWnNN2nOusMOGmQiLNhHA96qmKY6lIy0qqly5gTlOYUF106M84WhX129wgogZDKlZz9K+US6uRWWs1PraMDUWxRa/VNhbk481vVYvixTO+F1i0R4CYcKpE88QPcvjTz6l2enrkpwGB4fQ2HHjNXtRrB2Yr/jxnDQsmD7+obaGwFKC2q9rGDW/7SRlSf9wWurWrVu1otCeWiJ42CFDlCKnT5+uIpnKMeUTwfxhhqHYkILARkebJ9FwqPrb3/5GeCC++eablJqaKk0ClPb4U1sI4F5oqjITkLZmxKNREIBTE7LGrVu5hh4RNpzuQgROHT9JcIx6+fVXhL2qyG9fWP2lX5mfJZ/hIi4w/lgYAS0icPHixSrFj9bGp0ub0xKx1Hz06BGtXQtV4+nUxl+E8/Ez2QYIqq9/kNlg/4EGL5o8qqHJupYeRPrSvXv30pIlS+TyvLIkb6p+y5YtpRkAluqxzP/8889L5yWQziNHjtDJkyerqsFOd/To0fTss8/S4sWLpc0p7EnNyYkTJ6Sz1uHDh0WyhkKZAMFcWT7OCDACjkUA+e1HjhtFnwsno1xhTmWpnD97nrIysywtbrdyIKarl62kR56cU0lM7dYyN8QIaA+BBd99q71B3R6Rj3AwedVZo/vxxx9VxzlF4Pqi4hJVQ4Z2bcP6dULzZ3tGnyARvxJjKTQKXG/zoErK7UKi4hr70a5DRYL41R6Jt7cPeQkP84qy2thNHhlNyYmBtSuZORIcHEytWom81UZesDiGVKUglvfeey+BrOIP4ZZQFloTEE2YAMTFxdH48eNl2CgsecF+FEssOAdNKTSwSUlJIg5tI4qPj6cBItwFlu9TUlKkY1UvkUABAo0E+oAgCxfSqXbq1ImSk5PpoMgANnjwYBo7dqxd7SPlEh0cxoTGj+UOAl6lFVVmGneO8pYeEYC9uZevN5WJJCUQ2I0isxhWM/BpiWzfvJX8AwzS296S8vYqA9vYkeNGVyem4t42+BscGv3DXuPndhyLAKLOFMJcxQanYWVkgX4G8hHP47ySmt4gSon6P/18xOqj+CsSijZLVyxNtdq0aTOrHBVNtYEIF0rEHVPnbT3mJWy+bEfIyl7huALvajVijyD8mHK2MJI3JlfWjsnWIPwm+8kvlUTM5DkrD56+WEKbdhdQbr7py1pWWiyWyCttwfz8vKhLcggN72d5qBUrh+NxxWEvW2EQCw4w0mWpQsCroIxiYmKq9nlDvwikp6eTV4AvFZt4EbYUFdiBGoRfgCMeepaOoaqcWNYPCwmVJgpVx3hDlwhgRTBTKLcqAmxfdI4IDCN/Xz+6LtKE2ypB4tkdIv6ycnLF89y16RxDggKF/Xhl3HRb52Oqni5tTmHnpoaYmgJSK8eSxNI+/lgYAUaAEXBXBEBMsYrCwggwAo5DQPHlcFwPtrdsO/23vU+X14TmND29digllw+MB8AIMAKMACMgnajOnDzNSDACjIADEXj33287sHV1TeuSnGZkpNPiRQvVIce1GQFGgBFgBByCQMvEBIqMUuek6ZCBcaOMgAch0KNnpf+GFqeky2X90NAw4bwzUIvXg8fECDACjIDuEUju0E73GDAAjICjERgwcJCju7C5fV1qTuE13qZtW5tB44qMACPACDACjAAjwAi4MwJr16zW7PB1SU5zhSfo8mVLNXtReGCMACPACDACjAAjwAg4EoHTp6qnFXZkX9a2rUtySiKZp5rYYNaCzOUZAUaAEWAELEcAWaXOnTlreQUuyQgwAlYj8Myvn7O6jrMq6JKchoiYdRPvmeQsjLkfRoAR0CgCMqi2yCSmCEKrpKWlyYDxyjHlEzEOcQ5lagoCzFt7Dgkd0D9elK9evSpjLyvtKu0hy5keJbpRDCd1cOCFx31XhGDyt0W5t3G8ptT1najrnNLOrVscGUfBQmufV65c0dqQqsajS3KKL9SpUyerQOANRoARsBwBpJXMF8TK3WXlypX09ttv0+nTlSGLkNlo7ty5MoUuPo1JqHIO6XGRdrfmgx3ljx49KusbE0q08eGHH1adQzuKLF++nBDW7vPPP5cZzebPn0/Hjh2ThPWjjz6i48ePEz6R0U5v0rVHN2oU21hv03b4fHG/LVu2jN566y06f/687A9mbrhHkToan8YEFS9QyncC5/DSpIjynUC9mt8XpcyuXbvos88+U3b5U2MIfD3vC42N6M5wdJq+NJNgCOxp6UvvXFbechQCnL6U6Nzps7RkwULq2KUT+QrnQog7pi+NjIwkg8EgspsEyAxteMgiTe6QIUOkFhMP4ujoaDm/y5cvS0I6ZswYSk1NlUk8lEQeIJFI3zts2DBZBg/7xo0riRWIr7+/P40YMUI+2DMzM2WaXnwi21izZs3kcfSJvpD+F5m2Lly4QJMmTSK0hXEgla+7CEiLcfpSW8Z94uhxmXY4UKQ/drl4WPpS3GfeIpU1Ukrjft+/f7+8DwcOHEg3b96UyQ/w3YAcOnRI3stIBY17FuS2YcPKEF/4vmAb925OTo58mVO+L6iLLIx79uyRZLdnz5445PYC4u5J6Uujo2OoobgH1Iij0pfqUnMaEREplvUnq7keXJcR0C0C7Tq2pz79+9EXH35WTYPoboDgwWwsIIJ4YEPCwsIkMVTON2/enDIyMui7774jvKCAVCqCfXP1zLW5d+9e6tGjhyS1d911l2zql19+oc6dO5NCmqFJhXarTZs2Sle6+Tx3+gzdusnLwfa+4MiOqJBLpW3co7jfIbiPsa+IredQf9WqVYSXORbtItBaw78tuiSn+IIqb4bavW14ZIyAaxCAdgR2kNASQGuHpWlsy+MV5fJc5+5dqWPXzvTp+x+R8VK1a0Zs/14xV/xOKAItJ/K8Dxo0SOIADZMpqVnPuIxyDp9oDxpSRbZv304REREUFxcntVAgBdBWgTRAa6s3GTFuNLVqk6S3abtkvrjPcU9ClHtUGYit56BxDQkJIdiy4vdDj6YpCoZa/vzyi881OzxdBuHPEssTSxYvooceeVQzFyYlJUUzY+GB1I2AwRAo4j2ok7UrVtOFs+fl8hoeCLb8iUoW1qt86CBKhSWCB1LNv1BBkpQHl3KuQhDVy5cu09y336Pf/ea3ljSt6TIgixcvXqROnTrRtWvXqEuXLlXjheMAtKexsbGSQML5SSGX+IS9KQT1WrVqVVUP57BsqpxDG2fOnKlW5vDhwyKdcjqNHz9elgNxxfIo+kJb+G1ISEioalMPG4hFzeIcBHCP4r5NTk6WL01JSXdeCnAO93qHDh3kOePleZyD+QkE9yy0/orAbCBImGTg3s7Pz6/6Xinn+VMbCOAaaVV0SU79DQZqZfQFdPnFCfIlf/HH4h4IWEbx6p7L6RMnaeT4MQTSp5C92p/CltPLW/zhszZhxDGcNHeu5vG6R2TdWRDVhfMXUMtWiTR2oiBVBbW9fK1r0TWlYW+qECE8lM+dO0cLFiyQKysgkiCdIKYDBgwgOFBhWR82pFiKh60piCPsSWFbinqwQ01MTJS2o1iSHz16tNzGOWhB0ceiRYtowoQJcsLQKq1du1aaCXz//fcUGBgoSSoco9CXj48PL4265tbw6F6N73uQ0jVr1sj7Fy9FsJc+ePCgfGGCHSruY9y/MAdo2rSpJJwgo7A1PXv2bNX3BVp/5fsyfPjwKvxgo40XPhbtIXDvtPu0N6jbI/ISDxl7PGstmuDLL79Mb7zxhkVlzRUqFj/m2Tmu9xSOigyn4tISyijINjdUPs4ImEXgw3+/T/c/+qBc+jJbSMMnli9cKpb8S2jSfVPlKL0EOYUmhaV+BGpqTuuv4V4loAX2CvCl4rLaIbcsnQlWFSKjIilMkH2XS2EZhYnwg3hxYNE3AjBTyBTRMyoCbLeIjAgMI39fP7qeX24zmEF+XhQi/rJycoXZxJ0ICjY3qKJiSFCgcCo1qGjBdFXbETbdHh9lBBgBSxAQr4RC52lJSc2VObhvv3SauGfaFM2NzR0GZLzs7w7jdcUYjx46TFfSrriia+6TEdANAj9t/FGzc9UlOYV37ZrVqzR7UXhgno+AsBYFO3VL6SBCSE2bNV2aE7jlBHjQmkdg8IihlJh0x3ZX8wPmATICbojAwYMHNDtqXRo6lpeXVQuXodmrwwPzXATcl5tKO0jPvTA8My0gYBC2wLC3ZWEEGAHHIfDsr3/juMZVtqxLzWloaBhNvXeaSui4OiOgBgGwUzdVnaqZNtdlBCxAYN3KNXTmZGXmLguKcxFGgBGwAQEkVtCq6JKcInbjhdup27R6YXhcno0A3BCZmnr2NebZ2Y5Ay8SW0iHK9ha4JiPACNSHwGefflxfEZed1yU5zRbedj/+uN5loHPHjEAlAkxP+U5gBEwhkNyhveq0iqba5WOMACNwB4ExY8bd2dHYli7JabjIxDJ2XGWcQY1dDx6OThCQEdyYm+rkavM0GQFGgBHQHgIdOnbU3qBuj0iX5BTZK5B9hYURcCUC7hpKypWYcd/6QGDb5p9F9jHOmqePq82zdBUC87/9xlVd19uvLr31ked3+bKlNOuBB+sFyBkFZCYfZ3TEfdgFgXI75K1w51BSdgGRG2EE6kCgorxcpsutowifYgQYAZUIIHKRVkWX5BTpCps1a6aZa1KRX8o/xJq5GnUPBBlCDGGBVOGtck1eOkSpbKPuofJZRsBtEeg/ZKDbjp0Hzgi4CwL3z9KGgs4UXrokp0FBQTR4yFBTeLjmmNDENWrUyDV9c69WIYCc0oJX2kHYXd8OIHITjAAjwAgwAjYicOzYUWrXrr2NtR1bTZc2p46FlFtnBOpHoDKUFGtO60eKS+gRgRNHj1P6rVt6nDrPmRFwGgIrly93Wl/WdqRLzWl+fj7t2L6Nhg0fYS1eXJ4RsBMCnqU5LRc2gjdu3LATNtyMOyNQVFREwQFhqqZw7vQZmSEqsmFDVe3YozJ8Am7evEkBImsVi74RgFmXv8HfTqtnrsfy4Ucedf0gzIxAl+S0tLSEsDzLwgi4CgFPC8LvG8oP7hvXb9DaFato2qwZ5O/v76pby+X9BgT5UUl5qapxjBg3mnx9tfF48grwpcDAUFXz4cqegYBB3NsyDGBFuUdMKDomRrPz0Ma338nwhIU1oBkz73dyr9wdI1ADAQ9KX1qmYa/PGqg7ZPfalav02QefEBJ8ZGdl00NPPMqaNhVIw2lVK1IOImIfQ3OtTInHwQhIBLKzsyksTN0qh6Og1KXNaVlZGaVevuwoTLldRqBeBPD2zRan9cLkFgVSUy7TN5/No+kPzqSmcc2oR5+e9Nn7H1N+Xp5bjF+Lg4QWuqCgQItD4zExAh6DwEdzP9DsXHRJTrMyM2nNmlWavSg8MJ0g4EGaU51csVrTvCo0pt9/NZ/un/0QNYlrKs93792T+g8eQJ8KglpSXFKrDh+oH4Fd23bQpfMX6y/IJRgBRsBmBIYOG2ZzXUdX1OWyfoPwcBoxcrSjseX2GQGzCEi7JbNn+YS7IBAdE02PPvUYhUeEExyBFOnUrQs1ax5Hfv7aWZ5WxuYOnz379hbLjWzn6Q7Xisfovgh0695Ds4PXpebUx8eHmjdvrtmLwgPTBwLwAmZxbwTwWwJiakoio1zvaW5qXO5wrFHjRhQo4lGzMAKMgOMQWPjDfxzXuMqWdUlOYQT8/XfzVULH1RkBFQjAXZ+FEWAETCJQWspZ80wCwwcZATsiAAdOrYouyamv0HZERkZq9ZrwuHSAAKgpa051cKF5ijYhsG7lGjpz8rRNdbkSI8AIWIbAI7PnWFbQBaV0SU6DgoOFzekoF8DNXTICtxFgzSnfCoyAWQRaJrSkyChWIJgFiE8wAnZA4MwZ7b4A6tIhClkejh87Rp27dLHD5dVWExnZ5fTLsSLKza8/SLCfjxe1a+VP8U11eRvY7cLl5uRQTnYOxTZtYnGbrDm1GCq3KQj705DQELcZr5YHmtxRm/m+tYwZj40RsBaBxQt/oBd//7K11ZxSXpesJDc3l/bt2+Nx5DQrp5ze/DyTsnLrJ6bK3bVuez49Pi2M2iXqN6ONgoUtn4hl+fncT2n4mJFWkVORZsSW7riOhhFA/OTcnFwNj5CHxggwAozAHQRmznrgzo7GtnS5rA970/umz9TYpVA/nGU/5VlFTNFjmeCxC1bnUUkpkyVrr0ChCBL++Yef0qDhQyi5Qzurqku02VnfKsy4sH4Q2Lb5Z7p8KUU/E+aZMgIuQKBp02Yu6NWyLnWpOQU0wcLu1JPkQmop7Tl8J86iNXO7lVVGG3cW0Kj+HLrFUtwy0tPpg3++R73v6kPN45sTEjsIFyfp5JQjlvnzc/PkNpyeZMQo+Vl5HseyM7NQ2tLuuBwjoCsEKsrLK3OY62rWPFlGwLkIIAtbYGCgczu1sDddktNy8cN388YNimnUyEKYtF0MK8QL1+WqSv+8fnsB9ekcQA1CdalMt/oCr162StiZZtOFc+cp7XKqfJAisD7+QkJDqaSkpNoxsVNtPyEp0eo+uQIjoBcE+g8ZqJep8jwZAZch8P6779DzL77ksv7r6liX5DQzI4OWL19Ks+c8Xhc2bnNuz5EiupBWqmq8RSUVBLOAB+7mrCyWADnz4Vm0K6kVHT5wkGaIbV9fXX6VLIGKyzACViOAJX0kN8CLHgsjwAg4BoG7+vd3TMN2aFWXarKwBg1o8JChdoDP9U0UFVeSypoj6dclgJJaVKZOHNEvkGKjfWoWqbUPswCYB1gq165do9TU1Kri+fn59MUXX1Tt27rx5ZdfUp5wNDKWG0LTnZaWRugTmm8tCJb0k9q2oW8//0ozY9ICLjwGRkAtAgf27afUlDu/LWrb4/qMACNQG4E+ffvVPqiRI7okp9ByJSa20sglUDcMLMfDS7+mpN0opWfvb0ANQsooU5z/zYMNaETfQPKu44rDSWfh+vrNA7JEVolf//rX9MILL9BLL71E9913H8HOEvYr33zzTc2hWL3/7bffEoiusTz66KP0xz/+kV555RUaM2YMgcBqQQYNG0yNYhvTnu27tDAcHgMj4BEIDBDL+i1bJXjEXHgSjIBWEVi+bKlWh0Z1UBXNjln1wECkEN/L2ZJ+8xatWrrCbt3eyiynjbsKTLZ3USzzZ+eVU4dWPnToRC6dTykShK+AfjU9lBo1NK9FheZ0rzATqEvee+896iJixH711VeSjCrbNevcvHmTNm3aJLWdyrn9+/dXaRkvXrxI0IhCQGx//ll46F6+rBSt9fnnP/+ZPvroI/rhhx/on//8p6xz6tQpQjpaCPq7cOGCbP/gwYOULpyWNm/eTBnCjMORMmr8GOp5V29HdsFtMwK6QqBBeDj5+3N4O11ddJ6s0xFIM1r5dHrn9XSoS3LqLbylDQEB9UBj/9MRDSMpT8RYXbVkuV0aX/Kj+RBQwv+Gjpwqpi7JIZSVXblEvv1ANs1bcpWmjAigIb0MlV7kJkaybGMeFQsbVHOyceNGGjlyZNXpp59+msaNG1e1jw2QwokTJ9KuXbto6tSptHLlSnkeGtfCwkK5DXK7detWuY/6ixYtotdee41SUuoOIYNg5/B4x/L+22+/TSdOnJDtgdzOmzdPOiPNmjVLall37twpx1FUVDfhlg2o+MfbS5dfJRWIcVVGgBFgBBgBVyLwxFO/cmX3dfatyydqcEgIjR03vk5gHHEShGrKjGmUmZFJ61etVdUFluoPnKibcB0S5DQp3kBBgd50+FQezZ7aiEbcFU430ktE2Khgem5WKEVF1A5nhLb3Hy82Oz5oSo8ePVp1PiwsjFq0aFG1jw1oVz/88EP6/e9/LzWs77zzTrXzxjsgu507d6a33nqLPv74Y4qLizM+XbX973//m15++WUaP348/eY3v6kzHFiAePlAn+i/WbNmdPq0dtO0VU2QNxgBRkAicOP6DbkywnAwAoyA4xC4dOmi4xpX2bJTXYzhzPLdd9+pGnKZ0JYVF5eoagMaN3jsRzZsaHM7gQEGEcC+nIpKzZM4NO7j402BQUGibFlVX9GNYmjj2g20b9ce+sNrf6o6bs1GYZF5zabSTo5Y1vfx9qLgQB/Kzi2lzm2rx3Zt1tiP4mPL6PrNcvL2qX4r5BfWtmNV2sXSPMihInBewtK68TIcrvO9995LCxcupPj4eBEdwby2eMiQIdKGFUv1dcno0aOpcePGtH37dklQ6yrr5+cn7Gsr370MBkOVKUFddfgcI8AIaAOBXdt2UFKb1tSmXVttDIhHwQh4IALfz/+W05fiumL5V+3yKlIEFhTWrTGs7x7KFWTq3Nmz1LFTp/qKmj0fElxJOPOKTdt8KhWxBI3g7GVld7zgFQziWjRXiln92TjKh1o08SXYlpqTDkl+lHa9WGpKJw6LrFbs1IUC+mLRdXkOulM//5Aqgurn60Vd2hiqlTfeGTRokLQlxdI55N1336UQoY2ePn16VbGHH36Y/uu//kvuwy4UjlNLliyRBBZENgiEXVxLCJbeQTwVKS01PafWrVtTQkICPfTQQ/Svf/2LXn/99ar2UFdpT2mHPxkBRsA9EejZtzeFhXEYKfe8ejxqd0Fg6rT7NDvU6uoyBw+ze/fuqnsoFsHNs3OqhxmytlEESu/cqTPB6N5WiYoMp+LSEsooqHTGsbSd4uJi+kKkvJw8fSrhB1iNTBkRTP/8Msts8P2Orf3pwPFcob31oo5tKrWmsCVdtO6WyAiVibjwUvBRUpxbRVCH9g6kiAbmLT6eeeYZevHFF2nLli3Sqx42pJ999pm09VTm8/zzz9Mf/vAH6tixI8E5CbakEHjaP/vss+LBE0YgrTg/YMAAWR8e+Qhej2gAdQlI8ahRo+iseMFAe2+88QYtW7aMjh07RgMHDqyrKp9jBBgBN0CgUeNGbjBKHiIj4N4ItGyZoNkJeAmiVv/6sIaGbw9yiumUChLkK5Z+bRVbyCk0gvM+/lwsVSXTXYP63+k6v5Qa2Zit6oslObTvaG1NcqQgl689E0n/O/cyBRi86XePNKEzlwrpi4XX6Not02YR0KBGRYbRX56JJoM/9uoWeNtj6Rw2nbCnheYSphtNmjSRFUHEz507J5f1YQOqCDzqkTINy+1YfkcqWdyGIJuxsbGUK5zGoqKiBKm+E1XgypUr8hjKQ+CJj5BgILnoE97+MTExUjMfLl46EBO1adOmsuz169cJx4zNDuQJG/5BWxUCTxLmEiyMgDECWBH5+J259MwLzxkf5m0bEIDZE7KoxSe0tKE2V2EEtItARGAY+fv60fV886Zz9Y0+yM+LQsRfVk6uUOiYXmmsrw2c/+TjD2nOY09YUtRsmZCgQAoQZo72FqdqTu09eFvbg73p4sUL6ZFH59jahE318sSNlNy+HfUdeJdN9U1Vmjg0mA6fLBZa3OrvGO0SfWjdtkwRVL+QpoyKov+suUkbxH559WLVmsSpcYMFabSAmKJiTScokEmFmOI8yGDbtrVtxmCDWlNAblu1aiUPg6zWFJBWY4mMvGOmYEzsYS4AUYgptkFaWRgBRsB9EAgVS/p4eWVhBBgBxyEQFRXtuMZVtqxLchogtHbt2ndQCZ311RuIdHz2JKYYQUSYNw0TwfVXb60etH7v4TzKzK48tmZLBuXm33HIMjfyFk0M1K8r23mZw4ePMwKMgHMQUGvy5JxRci+MgHsjcM+kyZqdgHnDQs0OWf3AsMTcu3cf9Q1ppIXhgpyGh1a/lIUl/mLZu1LzYAkxxSL19HHRZmOfamSqPAxGgBFgBBgBRoAR8HAEqjMaD5+sp07PX9ie3C2W92uKr19gFUGtea7mfs+OIdSqxR270JrneZ8RYAQYAUaAEWAEPAeBtWtWa3YyuiSncLhZoeGcsrbcLT3aGyhehJaqKZYQVJDbKaOjalblfUaAEWAEXILA9s0ilfGlujPFuWRg3Ckj4EEInDp1UrOz0SU5RQwl46D4mr06VgxM+BPRlJEhIuh+7Ur1EdQxAyIpskFtYlu7JT7CCDACjIDjEUCCEzcLJON4ULgHRsDOCDz76zvJdOzctOrmdMlIQkJDaeI92jUEtvWqxjf1pUcnh9HGXQWUUytMRYiIZeojwj3dCSOFYPvdkkNo3JAIW7vkeowAI8AI2B2BAUM4XrHdQeUGGYEaCFy9elVmXaxxWBO7uiSnpSJ4/vnz5ykpqbUmLoI9B9GpjT/hz7QwCTWNCx9lBBgBLSGAJf1wEd0EigQWRoARcAwCX335hUhf+gfHNK6yVROLwCpbdIPqSJ+5ZfMmNxgpD5ERYAQYAf0hcGDffkpNSdXfxHnGjIATEbj7nnuc2Jt1XelScxoREUETJ06yDikuzQgwAowAI+AUBAYMHkiBwZUJNZzSIXfCCOgQgTZtaifJ0QoMutScenl5U0ORHpOFEWAEGAFGQHsIIGGJPdINa29mPCJGQDsIzPvyc+0MpsZIdElOszIzScsXpcY14l1GgBFgBHSFQH5+vnDerD+rna5A4ckyAnZGICAg0M4t2q85XZJTf5GzOTExyX4ockuMACPACDACdkPgp7U/0tlTZ+zWHjfECDACtRGYdt/02gc1ckSX5DQwMJD6DxigkUvAw2AEGAFGgBEwRiC5QztqFNvI+BBvMwKMgJ0ROHjggJ1btF9zuiSn9oOPW2IEGAFGgBGwNwIJSYnUIDzc3s1ye4wAI2CEwPp1a4z2tLWpS3Kal5dHWs4pq61bhEfDCDACjAAjwAgwAp6GwJzHntDslHRJTsuFoX2OiHXKwggwAowAI6A9BDau3UAXzp3X3sB4RIyAByEQLsJqalV0SU5Dw8Jo6rT7tHpNeFyMACPACOgagdCwUDIIx1UWRoARcBwC6em3HNe4ypZ1GYS/rKyUUlJSKD6+pUr47FO9oqKCEDqFRfsIFBQUUIAhWPsD5REyAm6MQM++vd149Dx0RsA9EPj0k4/pxZe0mb5Ul+Q0KzOLftywnmbPeVwTd5CvwY9y8/M0MRYeRN0IBIaIrDVeRBV1F+OzjAAjwAgwAoyAphEYPXqsZsenS3IKO4uxY8dr5qKU4Sr46tLCQjPXgAfCCDAC2kHg4C8HKLZpLMU04nBS2rkqPBJPQ6Bjp06anZIuGZG3tzfFNmmi2YvCA2MEGAFGQM8IXElNE06rOXqGgOfOCDgcge/mf+vwPmztQJfkNDsri775ep6tmHE9RoARYAQYAQciMHrCWEpMauXAHrhpRoARKC0t0SwIuiSnvn5+1KRJU81eFB4YI8AIMAKMACPACDACjkRg1gMPObJ5VW3rkpwGBQXRkKHDVAHHlRkBRoARYAQcg8DlSymUm8PL+o5Bl1tlBCoROH7smGah0CU5LSoqon1792j2ovDAGAFGgBHQMwIH9u2n1JRUPUPAc2cEHI7AiuXLHN6HrR3okpwipuihgwdtxYzrMQKMACPACDgQgQGDB1LLVgkO7IGbZgQYgYceeUSzIOgylFSECCU1c9YDmr0oPDBGgBFgBPSMQIOIcD1Pn+fOCDgFgZgY7YZq06XmFFedU+M55d7nThgBRoARsBqBArG6VVZWZnU9rsAIMAKWI5CjYbtuXZJT/OilprI9k+W3MJdkBBgBRsB5CGxc+yOdPXXGeR1yT4yADhH48IP3NTtrXZLTrMxMWrN6pWYvCg+MEWAEGAE9I5DcoR01aqzdJUc9Xxueu+cgoOWoRbq0OW0QHk4jRozynDuMZ8IIMAKMgAchkJCU6EGz4akwAtpEoHuPHtocmBiVLjWnPj4+1LxFC81eFB4YI8AIMAJ6RmD39p2UdjlNzxDw3BkBhyOwaOEPDu/D1g50SU5zsrNpwfff2YoZ12MEGAFGgBFwIAJ5uXlUUlLswB64aUaAEcjMzNAsCLpc1vcWmtNwsbTPwggwAowAI6A9BIaM5Ax+2rsqPCJPQ+DR2Y9pdkq61JwGBwfTyFGjNXtReGCMACPACDACjAAjwAg4EoGzZ7UbEUOXmtPi4mI6cfwYdercRdV19/f1oxBDkKo2uDIjwAh4BgK+Fd7k4+3NvwmecTl5FoyAQxAAb9CKLPrhP/Ti71/WynCqjUOX5DQ3N5f27tmjipyWl1eQt7cXBfsHVgOUdxgBRkCfCPiUe5G3lzf/Jtjh8u/atYuaN29OsbGxdmiNm2AEtIVAWYU2xjPjfu1mytQlOY2MjKT7ps9QdXdkZmWTl9CSsDAC7opAcFAA+fv5UXpROZFGfizdFUuMu6iwnErFS2u6+GRRh8Cp85fIKyCUDBEc61QdklxbiwhohZw2a9ZMi/DIMemSnGLmPr7qpl5eIZ7mnF5Pszc2D6x+BCpwDwspAzdlclo/YPWUKL3N8fHJog6BkXdPIS/RBGOpDkeuzQjUhcAH771LTz39TF1FXHZOl6q/jIx0+vabr1wGOnfMCDACjAAjYB6BzPRbVFxUZL4An2EEGAHVCGg53rsuyWlQUDB16dJV9YXlBhgBRoARYATsj8C2n9bT+bOn7N8wt8gIMAJVCIwbP6FqW2sb6ta2tTYbC8djMBioW3ftpu2ycBpcjBFgBBgBj0Sga6++1CA80iPnxpNiBBiB+hHQpea0fli4BCPACDACjICrEGga14JCQkNd1T33ywjoAoEVy5dpdp66JKc5OTm0eNFCzV4UHhgjwAgwAowAI8AIMAKORODy5RRHNq+qbV2SUy8vL/L391cFHFdmBBgBRoARcAwC+fl5IhhKmWMa51YZAUZAIvDkU09rFgldktOQkBDSsiGwZu8WHhgjwAgwAk5AYOOaFXTm5HEn9MRdMAL6RSAl5ZJmJ69LclpSUkLHjx3T7EXhgTECjAAjoGcEkjt0pkaxTfQMAc+dEXA4At99+43D+7C1A12S05ycbNq+fZutmHE9RoARYAQYAQcikNi6LYVHsLe+AyHmphkBmnLvNM2ioEtyGiF+9KZMnarZi8IDYwQYAUZAzwjs2raF0i5rd8lRz9eG5+45CCQkJGp2Mrokp3CICgnhMCWavSt5YIwAI6BrBPJzc6ikuFjXGPDkGQFHI/Dpxx85ugub29clOc3MzKCv5n1pM2hckRFgBBgBRsBxCAwZNY5aJLRyXAfcMiPACFBkw4aaRUGX5DQgIJDatWun2YvCA2MEGAFGgBFgBBgBRsCRCEyaPMWRzatqW6fkNIB69+mrCjiuzAgwAowAI+AYBM6eOkGZGemOaZxbZQQYAYnA3j27NYuELsmpZq8GD4wRYAQYAUaAjh85SNevpDESjAAj4EAENm36yYGtq2vaV11196ydm5tLm37aSOMn3G3zBEKDg8jbh7m9zQByRZcj4OPjI8cQbuD72B4Xo5C8yVc4W0YEMJ5q8Zxyz0QyGAzkw7+xaqHk+hpEoLyigrKLK0h8uFS0nCFKl+QUd0RpaanNN4W3t7f44axMf1rh6rvL5llwRUaAxFehQhAqRsIeCPh6VZDgpgJPFz9x7DEZF7cRFhx4ewSMpYsvBXdvZwQQLYjIS/7ulriYPyBbplZFl+Q0JDSU7pk0WfU1yS8ppJzCPNXtcAOMACPg/ggUFRVRSVkpXc9lW0m1VzMzPYOCxOqUv9CesjACnoRAsH8ghRiCwE9dLteuXaVGjRq7fBymBqDL9SdoTc+cPm0KDz7GCDACjAAj4GIEft68lc6fPe/iUXD3jIBnIzDviy80O0FdktPs7CzavPknzV4UHhgjwAgwAnpGoGuPbtQ0rpmeIeC5MwIOR2DCxIkO78PWDnS5rB8eHkF3T7zHVsy4HiPACDACjIADEWBi6kBwuWlG4DYCbdsmaxYLXWpO4dAUFRWt2YvCA2MEGAFGQM8IsKOpnq8+z91ZCHw17wtndWV1P7okp1lZmTTvS+1eFKuvIldgBBgBRsCDEFi7fDWdPXXGg2bEU2EEtIeAv792HQ51SU5xQRITE7V3p/CIGAFGgBFgBKhJXFMKbRDGSDACjIADEbhv+gwHtq6uaV2S08DAQOo/YKA65Lg2I8AIMAKMgEMQ6NS1M8U0inFI29woI8AIVCJw6OABzUKhS3JaWFhIO3fs0OxF4YExAowAI8AIMAKMACPgSATWrl3jyOZVta1TclpAJ44fUwUcV2YEGAFGgBFwDAK7t++ktNQ0xzTOrTICjIBEYM5jj2sWCV2SU4SSmvXgQ5q9KDwwRoARYAT0jEBebh6VFBXrGQKeOyPgcAQiIiId3oetHegyzinA8vXV7dRtvVe4HiPACDACTkFgyMhhTumHO2EE9IxARno6RURqk6DqUnNaVlZGFy9e0PM9yXNnBBgBRoARYAQYAR0j8MknH2l29rokp1mZmbRh/TqHX5TSkhLavOEn+Xf04GEqyM+3uM9L5y9Sbk6OxeVdUbC4qIiUYNkg/KdPnKJbN266YijcJyPACHgQAmdPn6HMjEwPmhFPhRHQHgKjRo/R3qBuj0iX5DQ8IpzGjB3n8ItSKgjbFWHU361XDwoMCqJl/1lS1Wd5eTlViP+MBQRPkciGkbKOsm98TjlWWlqqbIrP6m0Znai2WVpiXKfaKarZB9pXyKdS0rjP9avWUU52jihTTisXL6dDvxygTEH8WRgBRoARUIPAiSPH6frVa2qa4LqMACNQDwKdOnWup4TrTuvS8NLb24eaNGnqFNR9fXwpNCxU/m3btJVASg/vP0gpFy5RaWkZDRg6kPz8/GjdyrUUHtGA2rRPJsRhPbD3F+rSo5sc4/bNPxNSrkZGNaR+g/rTD19/Tx26dqJjh45Qi5bx1LVXd9q0fiMNHTW8ak7fffkNTX/ofsrOzKKfRb8jx4+mFYuWkcHfn8rEGMZNmkBeXl6yPDS6a1esIV8fn6o+MNZcQTyzsrJo2JiRYkwBtHrpSjk2Q0AAJbZuRdeuXJX93j31HsLf7m07q/rnDUaAEWAEbEUAv2X+Bn9bq9u9nldROZUUl9i9XW7QPRHwD/Snct/K56d7zqBy1N9/9y3dN32mJqegS3KanZ1FK5Yto5mzHnD4Rbl18yatX7mGbly/QZ26dZH9Hdx3gMZPvlseO/TLQTIEGMS5ztQ6uQ0hbV/33j2ENrJyaLt+3kF3DR5ADaOjaPkPSyj91i2pzWyZ2FKW//7Lb6l7n57ViKmsebu+/BCNFRYUUGF+AcHRIC83l7KzsgmmA4FBgXTzxg1qHt+C4hPixVjXUmHvQkpISqQAQUJPHj9JZ0+eprj45rLZQSOGyvIgxY1iGwtyPahyoPwvI8AIMAJ2QsDH16fq5dlOTapqplysakU1bCgVCaoa4spuj0CBeJbmFQgTPQ8gp8UafuHSJTn19fWj2CZNnPIliRDL8yB0m9b9SA2F5hOCpfIzp07LbZA+aFOhXYX4+FS3tIht2oR2CoIKTSfMA7Zs2CTL+QptK7SplkpIaCgNHTOCftm1R5DTPKkNjWgYQf5Ck9q4SWPau2OPHFPLpASqKCsnkOKIyAhCP14isgHG0ad/P9q2aYt4aHhLja2lfXM5RoARYASsQWDDqrXUqm1rat22jTXVHFoWK03W/OY6dDDcuMsQ8KR74AENh9S0nN247Fawf8dBwv5zyFDnhCrxFkQOBBDL8ds2b5WTgbYS5DiuRXN5DmrSA3v3U+qly5RyMaXahEvLSsVyfzhdTbsiHavGCpJqSlJTLlc77CMIJZbdYR4AuSk0twfFdo++vQhvfrAvbdY8jmIaN6LUlFQqKSmmNu2SyWAwkJ9YToN2tX3njsKJq7Ls+TPn6MK589RnwF3SFgz1fYV2I61Gv9UGwTuMACPACNiAQGKbJIqKjrahJldhBBgBSxE4cfy4pUWdXs7nVSFO71VFh7CXLFKpii4SXuYHRU7ZJjZqT/EGHSiW4kvKS6m4tG47JLxlRYsc0f6C9Pn7+1GAsN1M7the2JxepByxtJ4gbDdx3kfYe6bfSpd2TS0S4wkEGlrX5i1bUJmwTQU5xfI+jsNUFHUwDmxHxUTL9kA0FWkiNJ3QzmK5voEgtwoRhkd9+84dKFrUUSRKmAzAzvX0iZPUpFlTSYbR/hmxnA8CC61ry1YJgsCW0IWz56QZQWhYmBhfhOj3kuxDtiXGEiaOg3yzMAJ6QwAvbL/s3ku9+vXR29TtPl/5m6Sl35GScvkbid9pFn0jAKfgYqHMsXVZ39/Hj/zF6m2h8H8uv21+Zy0CcPk4AAAqqUlEQVSifj5e5C/+ioqL5cqrtfWV8p9/9ind1b+/smvTp79YXXVE3HgvscRsIzw2zUN1pWJBkLJz8lS1k5GRQYsXLaRHZ8+xqR0QzsjwMMovKaScQnVjwQAy0jPEcv1PYnk9VmhOL9GUmdMk8bRpcFyJEWAEXIIAXno/fmcuPfPCcy7pnzt1HAIV+SUUKbLpYBWMRd8IYOUxJy+XKgy2LTwH+wdSiCGIMooqqKTMNvoV5OdFIeIvKydXKI3MR+Cp70pdu3aNGjW6o9Sqr7yp8yHiJTJAKOvsLbq0OY2IiKCZ98+yN5Y2twfbzuFjR4q4prly2V3xore5Qa7ICDACjIAbIwCdCf8OuvEF5KG7BQIxMTGaHadt1F+z07F8YMbxOi2v5biSwSEh0vudl40chzG3zAgwAu6BwNoVq+nsqTPuMVgeJSPgpgi88++3NTtyXZLTdJFPdsF38zV7UXhgjAAjwAjoGQHYzIc2CNMzBDx3RsDhCCQnt3N4H7Z2oMtl/RChpezRq5etmHE9RoARYAQYAQcioMSEdmAX3DQjoHsERowcpVkMdKk5hVG7ltN2afZu4YExAowAI+AEBJD97uaNm07oibtgBBgBLSKgS82pFi8Ej4kRYAQYAUagEoEL5y/IeMsIKeWJUiA8tS9cLiERJbBeCQ32puaxviIBQL1FuQAjYBUCiFo0afIUq+o4q7AuyWlOdjatWbOK7p023Vk4cz+MACPACDACFiIwavwYj83GdPlaKb3zdRblF1oeRqhtSz964r4GJPKesDACdkMgPf2W3dqyd0O6fBfzFoGUw8Ia2BtLbo8RYAQYAUbADgggaoknhpJCVPFvludaRUwB54nzJbR5T4EdkOUmGIE7CMye8/idHY1t6ZKcBgcH06jRYzR2KXg4jAAjwAgwAp6MwI4DhQTNqS2y9ud8Efy93JaqXIcRMInAubNnTR7XwkFdktNikfLr0KGDWsCfx8AIMAKMACNQA4Gzp89QZkZmjaPuvQs70xWb8m2ehNr6NnfMFT0WgYU/LNDs3HRJTnNzc2nv7t2avSg8MEaAEWAE9IzAiSPH6frVax4FwZqtQvOZr07zufOg0LxetU3z6lFg8mTsgsCMmdrJlFlzQrp0iIqMjKRp02fUxIL3GQFGgBFgBDSAwNBRw8nf4Dl57K+nl9GWPYUmke2Y5E/xzfyMzlVQuci5vl2YAGRkV3eaKhe7C9fn0XMPsM+EEWC8aSMCzeLibKzp+Gq6JKeA1ddXt1N3/F3FPTACjAAjoAIBH+GW7kkOUYsFoSwFs6whDcN96JHJoeTn61XjDInwUd70/nc5AofqC5xnLpXQ/uNF1DXZUKtOzQMwYVu6dKmITrOGysvLqU+fPvTYY4/JSAhFRUW0ZMkSec7Pz4+GDx9O06ZNo5SUFJo1axZBiYPnZIcOHWjGjBnUunXrms3zvpsjMPf99/5/e2cCHVdxpeHbWlrq1i7L8r7Isi3ZxisYsA12bEIIjG0MmIHAYELITMhAdpjJJCEnOZOchCRzAvEhkMTEmyzjfcUL3sF433eDd7zJ1t7aW8vcW61uSdZiuVstVav+B3J3v/fq1q2vquv+/V5VPXrlP1/VshRGKrScnByS9b2+9fK3tawUOAUCIAACJhPYuGY99U3tT/1TUwIew8lzZXTsTFmD5Zg4zq6E6ZFThXT6fP3Z+CEWFrVVEfUE6opNRXQXX3FtSNTWzugvf/kLFRUV0YwZM5TYf/nll6lTp040ZcoUeuutt8hut9PMmTOVcBUB2oOvpHXp0oXkKYrLli1Tpnbt2kWvvvoqffzxx54fDCJ05U/Erwhb+ZPPkpekdW+yT+Jthw4d3LvUq5wnKzKEhbkEdkWFa8FX2VfFSxqUl5crm06nUwnkfF7+MSbGdbU4Ly9P5SHnujfxQ/IKDw9378JrMwhIfeu6GSlO5Qs5dOgwXesEfoEACICA0QSS+/ejhI4dA55BBQ8xXcpXTRvauiQE04UrThrYN5RmLr1BBUUVfEXTwiKrioYPjKDnJyXSyMFR9NaMKxQcEllHoGblVdDmXcX0yAP2hkx79slV04ULF3pEpQjSwsJCJQBXrlxJW7ZsUecG8Qr/b775phKbnsTVb+Rq682bN1U6t/DcuHEjvfPOO+oK7K9//WuSeRx/+MMfeInGaBo0aBD9/Oc/p5MnT9Lrr79OiYmJlJWVRR988AElJCTQn/70Jzp48KASoI8++ii99NJL9Pe//53kyY0ins+dO0c//elPadGiRTRp0iQlpkUwy75f/epXSuyKP7/85S/VleC5c+cqIS1iVc6fNm3arUXA50YI/MukyY0cafvdRopT+bV29z33tD19eAACIAACIFCPQMrA1Hr7AnGH3H6/num6Kljbf9agNG1KFI9DzaWZS4qUMH31+S7UP8lGs5dm8G37QnpsXDmPRQ2jCfdF04YdeTwGN6qOQN2ws5geut/GVxbrDwlw55WZmamuhMrVyD3Vk4A7suiXK42yLyoqyn2qun0vHy5cuKCE6GeffUZy63/9+vU0cuTIOldE5TwRmrNmzVK2JkyYQGvWrFFXN1988UU6fPgwrV27VonFV155Rb2/ePEiHT9+nOQ1PT1dTNDkyZNp7Nix6n1j//zoRz+iYcOG0fTp0yk1NZXEngjfOXPmKOGalpamhibIMBCx9cQTT9QpV2N2sZ9o547PaNToMVqiqDuYRUsX4RQIgAAIgAAIBB6BjAaEqZQinseadu8UQpPHx9Hn5wsoKiKYhqZGkD08iO6+K4qFI9Huww5V4OEDI5WQLCt18GvNbP/SsirKzqv53BAduRAjt9BFiH7yySfqFv7777+vbpWXlDQ8QUvsSBq5nX/ixAk1BODdd9+tZ75bt27qiqwIYLmSKaJRhgZcuXKFLl26pMatHj16lF544QVlTwSmXFnNzs722BLB+eyzTT+pUfKRrWvXrnT58mX1fsCAAfS73/1O5StjZJ977jmVt5RTPmNrHoEdLE513Yy8clrgcNDGjRtoyhNP6lov8AsEQAAEjCXw6eZt1Ds5iXr06hnQDAYmW2kdL55/65aZU0FHPy+jwf2tNHF8PC1cm0mrNmdTah8bXyXNJWtoED08JlYlk8+yifAqKy3gK6iuW/wymapjfM24S3XSLf/IFc+tW7fSY489Rm+88Ya6uimf5RZ4SkoKr/d9hIYMGaJS/f73v6devXrRqFGjSK6u/uQnP7nFWsMfRQDL+XI1tPYktv3796tb/XL19Re/+IXyX8aSirB0b7/5zW/o7bffJhGxcky22jbc58nroUOH1G18eS9XfkU8y1jXe++9V13Blf3Y7ozAq699/84StOLZRopTbv3ql2MrckZWIAACIAACzSQQzLPELTwOMtC3pO4hNCw1jA6dKq1XlGWbCmlAcihNuD+Gb+/n0aot2fznOm3yQ/EUHxNCp88V04HjBZ60cuXULVAfnyC3+T2HGnwjAlPGYO7du1fdEpcxqI888og6V26Xy9VOmZkvk5Y2bdqkxm7K+zvZ5Pb+8OHD1aQpmfG/evVq+uMf/6jGlcpELMkvIyNDTbYaOHAgTZw4UU3EkklO169fV4JT5oH87Gc/UxOaZKypzWar58LUqVPpxz/+sboKK0MOxJaMUf3tb3+rxp8OHjxYTdp67733EN/r0Wt4h84TyCz8a6z++hYNl0OLvWU8ey/f0fAA89ZyUAaPx8dGU5GzhBwlbetLa5UZ+YAACDRNQK4Q/WP6+/Ta6z9o+kQcDTgCVUVOio+LV5N27tT5rNwK+u37ueTktUtv3aY8ZOdxo3a6eqOMrmTIjPMqWrMth37+3R4UEmyh//3rJV50v/5M/3697fRf3+56q7kGP8vs9t27d6tJSyIik5KSPOeJONyxYwfFxcXRPTwPQ8agyuQmEbPjx4/3nHfrm6tXryrBKfZkk6ueBw4cUONV5cqrzAKX2fMyxlTGh8oVXHe+Ikq3b9+uZuqPHj3aI0RPnz5Nx44doxEjRqhb8zJ+dPPmzTRmzBjPrH65rS9XTPv166eu+MpV1uLiYrVPyvnggw/WWxngVt99/Sz5OQoLqCrMux9PEVYbRYbZKYefGNZQm2iOf/ZQC0XyX56jgJxO7x/KcPnyl9S9u28z9iPtNv5R4Vp1oTm+N/ccI8WpLE9x5swXfHthYHM51TkP4rQODnwAARBgAhCn7bcZ+CJOhcrKLUV8u77+7X1bmIXe/G6sGnMq523dnUcR9mCepR9J2/bkUdrKm7K7ziaTqX72Sg/q1a3lBUGdjPChQQLtSZz+8a3f0Rv//T8NlrO5O/0lTo28re9w5NMOvi3grThtbqXhPBAAARAAgTsncOLoMUrs3JmXk0q488QapvjaGBtPcCqh/MK6E5iK+erZ/83KpsTYcpLrqmcullByz3DadchBp87VF7NStFHDoiFMNazjQHTpqan/qq3bRorTOL498+RTU7WtFDgGAiAAAiYTuHDuAoVare1GnIZbLTRpvJ3mra4ZP+qu36xcC93MtpCTJzuJQD3MC/I3tsmV1icfiW/sMPaDwB0R6JOcfEfnt+bJ3g2aaE0P/ZCXjFOJjq5Z380PWcAkCIAACICAlwQemfgo9U3p52VqPZPdNyScenRu+HpQUFAIhcos/Nu4/ui4eIqObNjGbZLiMAjUI/DPGf+ot0+XHUaK09zcXJo7e7YudQA/QAAEQAAEahGQpY4st5VqtRIEwFuZWf/Uw/wo0kZ8vZ1A7RgXystLxTWSGrtB4M4JyEQ4XTcjxaksn5Baa601XSsHfoEACICAiQQyrl1XSwa1t7In9wylYQMan8jUlEB9+usJPIO/vRFBedqSwBMaD280VpzeP2p0W7YJ5A0CIAACINAIgb279tCXFy41cjSwdz/7WCT16xXa7CuoVl4yaOJX4mn4oIjALji8147A/n17tfPJ7ZCRg1dkKQiplAceHOvmgFcQAAEQAAFNCNz/wCh+lnv7nBdgD7fQ9/8thkp4pn55RePAq6oS1UEbP9IUV0wb54Qj3hPYwuvI3n3PSO8N+DGlkeK0rKyUzp49C3Hqx4YF0yAAAiDgLYEEfhxme9/CeeZ909vtjjedGkdB4HYEvvPd/7zdKW123Mjb+jExsTTtxW+2GXRkDAIgAAIg0DiBDWvW0/kz5xo/AUdAAAR8JiBPBNN1M1KcSmXIclLYQAAEQAAE9CPQIaED2SLs+jkGj0CgHRG4kZGhbWmMFKfyHGB5fCk2EAABEAAB/QiMuPce6tyls36OwSMQaEcEZs+aqW1pjBSn+Xl5tG3rFm0rBY6BAAiAAAiAAAiAgD8JTJw82Z/mfbJtpDiN5YVnJ02e4hM4JAYBEAABEAABEACBQCUwYMBAbV03UpwGBQVRRwNmg2rb6uAYCIAACDRB4NMt2+jLi5eaOMN/h9atWkMFDof/MoBlENCEQNqc2Zp4Ut8NI8VpXp48vnRWfRrYAwIgAAIg0OYE1ONLLW0Tnjp17kRz/jGLnE5nm3OAAyDgTwKhoaH+NO+TbSPXObVawyipTx+fwCExCIAACICAfwiMHvuAfww3w+rwkXdTVmYWLZg7n55/6YUWWdmloqKJ1fab4RNO8R8B+SFk6vbMN57TtuhGilObzUYPjh2nbaXAMRAAARC4lUBVVZXa5X6VD+737lfeQa6zao559vEBz1H3eepk3ut+VUZd/3j2uY+p17rHJDPX7hobDe1z2/Icc+dfvcOVRbUl18kuu+73nlePg/XK7jrlFhsuw8rJmrLX4iDmeOvEKwNERNQ8HvSrj36NFqbNp7UrP6LHHp/oOsmHfzMzMz3++mAGSf1AQIb4mSpQjx45TIOHDPUDVd9NGilOS0pK6PChg3Tf/aN8JwgLIAACIMAEZO3kK19epl//9M0aMcTiqFou1d/nEVzuMzwne4SMR3QaQLj22tOe98xUrUjN/1S/E9B1993mmCdltaFbl7guLChUdO++r+5jHPNy8+jg3gP0wLgHKcrq25qrnTp1MqAGUcRAI7Bu3VqIU50qraSkmE6cOAFxqlOlwBcQCHACVquVXnv9h1Re7vTcClYySokil3iVInqEl8it6mM1gusW4eVKUC3Gqo81tK+O8HLbcBl35dHIvup01SbFu/o+efbxya7/pRCSRI7U3+c5JidUn3fLqytZ3WPKYBv8I+I08+bNOjmXlZbRP9/7Bz02ZRJFx8ZQVRHGn9YBhA/tgsDL3/4Pbcth4V/mrp/t2rpY17EyHqSe73D90q175M4+yUL8ISHeXTiW2f7xsdFU5CwhR4nvvtyZ5zgbBEAABEDAXwQqKysp7YPZ1KN3Txr/8EMqGxGn8XHxJD9AsJlNoLi4mByFBVQV5t2EvQirjSLD7JRTWkXOCu/klz3UQpH8l+co4Il75V5XiIyF9nVIQ6TdRuHhYV770FhC7+g2Zi1A9oseLygoCBBv4SYIgAAIgEBrEVizfJUaf+oWpq2VL/IBgdYmMP2dP7d2ls3Oz0hxmpOTTUsWL2o2JJwIAiAAAiBgBoGk5D405ZmnzCgsSmk0gWHDR2hbfu/ua2tbnOY5FhUVTaNHj2neyTgLBEAABEDAGAKDhg42pqwoqNkEvjJ+grYAjLxyKgvPDhio72O7tG0tcAwEQAAEQAAEQAAE/EzASHHqZ6YwDwIgAAIgAAIgAAJaE1i4YL62/hkpTvPz8yh9Xpq2lQLHQAAEQAAEQAAEQMCfBEpLSv1p3ifbRorTkJBQ6ty5s0/gkBgEQAAEQAAEQAAEApXACy9+U1vXjRSndrudJjz0VW0rBY6BAAiAAAiAgD8JyHqdZWVlnixkecVLly7xQyQaXjczPz/fc27tN4WFhY2mczgcdPHixTr51E6L921L4PSpU23rQBO5GylOS0tL6cD+/U1gwSEQAAEQAAEQaH8ERJQuXLiQ/vznP1N2drYq4LVr12jOnDl05swZmjlzZp1C37hxg9LS0ujtt9+us18+3OQna8n5Z8+epRkzZngeuyvHZF96eroSp3/7299IFnzHpheBlSuW6+VQLW+MFKdFRYV06NCBWhjwFgRAAARAAATaPwF5MuLEiRMpNTXVU9jDhw/Tww8/TBMmTKCoqCglOt0HIyIi6JlnnqGEhAT3Ls/r0aNHafz48eovMTGRrl696jkmV1SnTp1KY8eOpbi4ODz4xkNGnzfTNL6tb+Q6p3H8GLrnnn9BnxYCT0AABEAABECgFQjIUoryV3sTISmiVLbIyEgqKiryHBZx2thWO52kr51uyJAhKplcnZWnMsbExDRmBvvbiEAnjefeGHnlVNpBRSPjatqojSBbEAABEAABEGgTAhaLxXNLXoSkfG7OVjtdZWVlvXQyhGDZsmX0+OOPN8cczmllAtPfqT9Uo5VdaDQ7I8VpDv+SW/Chvut7NVpbOAACIAACIAACLUxAVq+RcaeyyTjSjh07NiuH2ukyMjJIbu27N6fTSYsWLaJJkyZRdHS0ezdeNSKQUmtoh0ZuKVeMvK0fwbct7hk5Ure6gD8gAAIgAAIg0CoE5Da8jD+VbcSIEbRp0yYlJocOHUo2m4127txJly9fpqefflqdI+NG3duuXbvURKcnnnjCky4lJUWJ0L1796qJVX379qWSkhLasmWLSiZ2a49zddvCa9sR+NojX2+7zG+Ts4Uv4Vfd5hytDpfxr7F8R2Gb+hQUFETxsdFU5CwhR0nb+tKmIJA5CIAACBhAoKrISfE8V8FqtRpQWhSxKQIyVMFRWEBVYd7deI6w2igyzE45pVXkrPBOftlDLRTJf3mOAnI6G176q6kyuI9t27aVxo37ivujV6+RdhuFh4d5lbapRN7RbcoijoEACIAACIAACIAACGhN4MC+fdr6Z6Q4dTjyadHCBdpWChwDARAAARAAARAAAX8S+N4PfuhP8z7ZNlKcBgUFY4C2T80GiUEABEAABEAABAKZgHvMsY5lMFKcyrptj3z9UR3rAz6BAAiAAAiAAAiAgN8JnD93zu95eJuBkeJUnid89MgRb5khHQiAAAiAAAiAAAgENIHFi/Qd3mikOC0oKKC9e3YHdKOC8yAAAiAAAiAAAiDgLYFnv/G8t0n9ns5IcRofH0//+syzfoeLDEAABEAABEAABEBARwI9evbU0S3lk5HiVEoeivXqtG2UcAwEQAAEQAAEQMC/BN5/713/ZuCDdSPFaU5ODqWnzfUBG5KCAAiAAAiAAAiAQOAS6N69h7bOGylO7XY7DeFHqWEDARAAARAAARAAARMJTJw0WdtiGylOw8LC6O57RmpbKXAMBEAABEAABEAABPxJYOfOHf4075PtEJ9SB2jioqIi2r1rJ42f8FCAlgBugwAIgAAItCaBrKwssmKuQmsi1zIv0Q9htnAtfbtTp3Zs306jRo2+02Stcr6R4rTc6aSrV6+0CmBkAgIgAAIgENgEgm1WsnARqgK7GPC+BQjYYiKoihtDVTtoDa++9r0WIOIfE0aK0+iYGHr+36b5hyisggAIgAAItCsClRbI0nZVoSiMIhBus2lLwsgxp9rWBhwDARAAARAAARAAgVYgcOXy5VbIxbssjBSnTr6tf+rUSe+IIRUIgAAIgAAIgAAIBDiB9Hn6LqlppDh1OPLpMx4IjA0EQAAEQAAEQAAETCTw5FNPa1tsI8VpXFw8PfnUU9pWChwDARAAARAAARAAAX8SSO7b15/mfbJtpDi1WCwUHR3jEzgkBgEQAAEQAAEQAIFAJfDPD2Zo67qR4jQ3N5fmzp6lbaXAMRAAARAAARAAARDwJ4HY2Fh/mvfJtpHiNDw8nFIGDPAJHBKDAAiAAAiAAAiAQKASePKpqdq6bqw41fWpCNq2FDgGAiAAAiAAAiDQbgjs379P27IYKU6Li4tp+/ZPta0UOAYCIAACIAACIAAC/iSwZdMmf5r3ybaR4rSstJTOnvnCJ3BIDAIgAAIgAAIgAAKBSuA7r3xXW9eNFKcxPAh42osvaVspcAwEQAAEQAAEQAAE/EnAGhbmT/M+2TZSnFZVVlJWVqZP4JAYBEAABEAABEAABAKVwLvT39HWdSPFaU5uDq1YvkzbSoFjIAACIAACIAACIOBPAvfdP9qf5n2yHeJT6gBNLAvwjx33FZ+9t4eGUyVfhcUGAiAAAiAAAiAAArcjEGG1uU6put2Z/j8+5oEH/J+JlzkYKU5DQkKoX7/+XiIjqqqqaVWRYXav7SAhCIAACIAACICAeQQqqUZHmFf625fYSHF6eyxNnyHiNDs3n4KCLE2fiKMgoDGBCFs4hYaGUk4pd5LoJzWuKbgGAiDQnghUsoao0KDPnTd3Dj3/wjQt0RopTvPy8njM6VKfZuzL7Xzc0deyTcOpZhKQDlK28soqvhvQzEQ4DQRAAARAoF0QCA4J1rYcRk6Islqt1Lt3H20rBY6BAAiAAAiAAAiAgD8JPPuN5/1p3ifbRopTm83GE6LG+QQOiUEABEAABEAABEAgUAkcO3pEW9eNFKclJSW0Z/cubSsFjoEACIAACIAACICAPwmsXbvGn+Z9sm2mOC0upuPHj/kEDolBAARAAARAAARAIFAJfOvlf9fWdQvPPA+oqRBlTiflOwp9BupkOzJTGRsImEogKtJOYTz++mYxL2oSUL2AqTWGcoMACIAAkT3UQpH8l+coIKez3GskFRUVFBzs26SoSLuNwsNb/jGoRl45FT1eVOi7wPW6RSAhCIAACIAACIAACLQhgenvvN2GuTedtZHiNCcnhxYvXtQ0GRwFARAAARAAARAAgXZKYOiwYdqWzEhxGhUZSaNG6ftMWW1bCxwDARAAARAAARBoFwTGT3hI23IYKU5DeZzdwEGDtK0UOAYCIAACIAACIAAC/iSwccPH/jTvk20jxalPxJAYBEAABEAABEAABAKcgM6rFhkpTvPz82h+elqANyu4DwIgAAIgAAIgAALeEfj+D37kXcJWSGWkOA0JCaXExE6tgBdZgAAIgAAIgAAIgIB+BCwWi35OVXtkpDi12+300Fcf1rZS4BgIgAAIgAAIgAAI+JPA56dP+dO8T7ZDfEodoIlLS0vpBD8haviIuwO0BHAbBFqOgPrtrO8P6JYrKCyBAAiAQDsg0FLd9Yrly+iN//4fLYkYKU6Ligrp4MEDEKdaNkk41doEEmxG3kBpbczIDwRAAARaloCPT/Z7Ydo3W9afFrRm7ONLi4uLyWaztSBKmAKBwCIQGhpC4WHWwHIa3oIACIAACKhHThcWFfOrjwrVR5b+enypkVdOpS4qKyt9rBIkB4HAJiDPZPblucyBXXp4DwIgAAJmE5j+l7fpe9//oZYQjLyfl52dTQs+TNeyQuAUCIAACIAACIAACPibQP/+Kf7Owmv7Rt7WLysrpZMnTpLOz5X1ukaREARAAARAAARAAARagYC/busbeeXUag2DMG2FRossQAAEQAAEQAAE9CTwybatejrGXhkpTosKC2nDx+u1rRQ4BgIgAAIgAAIgAAL+JLB/315/mvfJtpHitLyigmTcKTYQAAEQAAEQAAEQMJHAa5pOhpK6MHLMqYmNEGUGARAAARAAARAAgZYkgDGnLUkTtkAABEAABEAABEDAYAIXzp/XtvRG3tYvKyujY0ePaFspcAwEQAAEQAAEQAAE/Elg0cIP/WneJ9tGitOCggLas3u3T+CQGARAAARAAARAAAQClcAzzz6nretGjjmVx30VOBwUFR2tbcXAMRAAARAAARAAARDQmQDGnLZg7VgsFgoLD2tBizAFAiAAAiAAAiAAAoFD4G/v/1VbZ428rZ+Tk0Pz5s7VtlLgGAiAAAiAAAiAAAj4k0DXrt38ad4n20aKU7vdRoOHDPEJHBKDAAiAAAiAAAiAQKASmDT5cW1dN1KchoWF0z0j79W2UuAYCIAACIAACIAACPiTwK6dO/1p3ifbwb/izScLrZy4orKSSsucPuVaUlJMc+fMIeKJUV26dKXNmzeRVNLgwUPo6pUrtGjRAurQIYFiYmNp0cIFdOXyZUru25eOHjlMa1avpn79+1Ml+zF3zmyq4tcuXbvSFrGxY4e6Inv16lVO9yHFd+hAsWxj8aKFdPnyly4bvITVmtWrqF+/flTFpUhjGxUVldSVbWzdspl2fLadbQyla9euKRtx8fFsI46WLF5IX166RH379uNlsI7SR2yjb7++JONn586eRfLUK7lEv23rFvps+6c0hG1cv36NFi74kGLj4ikuLo6WLl5EFy9e5HT96PixY/TRqpXKJ7cNZ3k5devWjeR5u59+uo2GDB1GGRnX2cZ85YOysWQxXbhwnv3vTyeOH6PVbKNPcjIFBwczj1nkdDrZRnf65JNtbGcbDWUbNzIyaAHbiImJJSnPsqVL6MK5c4rjiRPHafVKttGnD4WEBNMcLoss9dWte3f6VNnY6rJx4wYt+DCdomNiKJ5tLF+2lM6dO6tsnDx5glatXEFJfZLYRqiyUVpaQt2796Dtn35CW5nJkKFDKTMzU9mQiXDx8R1oxfKldPbMGerfP4VOnTxJK9lG76QkslqtimlJCdvo0UPxlLoRHllZmfTh/HSKjIriNtKBVi5fRl988QX1T0mh06dO0coVy6lX794eG8Xc1nqwDalXaSNSt9lZWWxjHkVGVtvgNJ9/fppSUlLp89OnacWKZdSrV28eFx2uylJcVMQ2etKOHZ/R5k2bVN3KE87ERkREJHVISFDl//z0KZcNtrWC/erZqxeFsw1pH4X8yN4ePXvSTm6jmzdtoCHc1nNyc2l++jyyR9gpgW1IXZ46dZJSUlO5TJ8rPj169iKbzabqVla56Mmfd+3cQZs2blBtPS/PZcPGdyMSEjpyu1xJJ0+coNTUAXSGuSxnxt3Zd7vdrr4vDp6IKH7t3rWTNm7YQHcNHkz5eXmUzn6E28KpY0exsYrb1nFKHTBA1c/yZUtUXYoN+b7kO/KZTy9ecWMXbdiwnm0Mofz8fJo/L43LG8Y2EmnNR6vp2LGjNGDAQDp39iwtYxvSpoSXfG8lT2G8Z89u9SjjQXcNJimf2AgLYxuJibR2zUd07MgRGjCQbXBbk3bblb8fkZGRlDZ3NuUyP6nrvXv2sI11NOiuu5hzAaWnpan6T2Qb69auoSPcb4iN8+fPsY3F3F+4bMybO4dycrKpd+8k2rd3D328fh0NHHQXyeOV09PmUqg1lBITO9H6dWvp8KFDNHDgIJJ1CZeKDe63pA3O4/Oys9gGt1t5FOHH69ZxXoOouLjYZSM0hBI7uWwcOniQ7Q+iixcu0NIli6hz5y4UxTbSuczSrsXGgf37VH7ir7R/8VG+l506dVb+HTywX/l4ifuRJWyjU+fObCOa21EaZd68SUlJfegAn7Nu7VrFXr6HYkP6BzlXHht9YN8+xerSJbbBfZL4F83fSWnPN/h7nsR9wcEDB9jGR6odSX8wL20OBQUFsc+dud18TPv27WEbg+nLLy+pvrEjcxIbC/i7KX1Wnz7JdOjgAVorNvh7Jf2S1JmF+0spt7Rfqbe72Ib0zdJHS7uR/mXBh/PpOve/0q8dPnRQtQP5bpZz/6hscL/duYvLhqz6Im1YYsRijhvyHYhhG9LvXrt2Vdk4cvgQrVmzWvUzFdxPpzEPT+zZtFF9F6QNX+HYIzbk+yx9pcQQiUfJyX1VG6ofezh+1Ys9HL84ZtXEngVcPnf8qo49/Tn2cPBRsYfjlyf27HDHHlf8iuM+UuLXEmYjnF2x50h17OlHFuYg3yUpU2OxJ45jTyzHHqlnaTOu2MPxa9WqOrFH2Mp3a9vWrarPlv4643r92HPx4nm20Z+Oc+xxxa9kbhe3xB6JXxw7XPErQ8UvieXii4o9/B1S8csde5L7eOJX82LPEu4PXPFL+jpX7JH4FVIde0q5v+quyiHx2BV7btaNPRy/zp6tG3uS+PsXGhqq+mt3/JJY7ok9mRx7OAbK903qV/p46WNdsYfj1wqJXzWxR3SOil8ce7Zy7HHFr7qxR9r66DFjuCa936zss5S9pTcjZ+sLxOzsLBWoJBBJ4C4vd6oOQb5ouTwmVRqzAJcgFsydswS10tJSFcBElLht2O0RSgAUFRWqDlA6lXo28vPUF0iCWllZKTkcBUpgSUcpIkOCroiIIhYhTu6IJW8Rvzl8zOMHB1/pnF02ytiGw6825EsqHdOd+CH+2mqVpTEbDi6LpZGySLC22Wp41LPBHX8IfxlcNixK4Mk5DhYsIjiFqbIRbmOxYyMRdqXMXAS+Kgvbj46OUZ2ApLHwfxLknc4yJXBqbOSoOhFhVlzMNkrYBneybh4SxKQjqWvDyTbyavlR20Yx2yipsVHHD4dqTyIUJIg2ZUMEg/xIkBUnpA3XlKUBG9wZC2cZYy3ty1WWYiU6mmWD2778mJB2J98JEcuN2uAOM5RFvayCUcX/SQfqLosEBWUjl21Yw1QbKWHxJMJdjrnLImnkh0FBAduoZBssNsqZR15tP9iGlW3Id0Y63+IitsE+NmmDA18eC0lPWfi95OOyUaLaSI2NbCXYXH4UqPoW0SPBsykb8t2VH00uP1rDRpzqU8Qn4e4uS30/IhUvEd6VlRWqvbjLIu1ZRKP8wAjlH3X2iAjVRguryyKNMot/SEVxv2WVfpJtVDTHBgtS6VPlu+S2If2Wq69lG+XsB39/3P1kbT/kx2WE+MF9rQh9tw35QRfhsVHINsobsZGn+m2PDfZZArlst9oQDiIk6/vhuw1X3AipKUttP+rFnlv9iOV64djDfYnUT2OxJ4Jjj3wn5ceMs7H4JTZYvAm7MmbqED+4ndaPPWyDL/qo2MMxUPqMmthTO37pGXtujaP14kZ1PG8y9tw2fnHs4fZ5Z7Gnbhz1xA2JgRyrVOzh+CU/uGtiTzb317bqvpZjD9fb7eNX03GjTuzhcrr9kB+x0qf7svlrtr6x4tSXykBaEAABEAABEAABEDCdgL/EqZFjTk1vTCg/CIAACIAACIAACOhKAOJU15qBXyAAAiAAAiAAAiBgIAGIUwMrHUUGARAAARAAARAAAV0JQJzqWjPwCwRAAARAAARAAAQMJABxamClo8ggAAIgAAIgAAIgoCsBiFNdawZ+gQAIgAAIgAAIgICBBCBODax0FBkEQAAEQAAEQAAEdCUAcaprzcAvEAABEAABEAABEDCQAMSpgZWOIoMACIAACIAACICArgQgTnWtGfgFAiAAAiAAAiAAAgYSgDg1sNJRZBAAARAAARAAARDQlQDEqa41A79AAARAAARAAARAwEACEKcGVjqKDAIgAAIgAAIgAAK6EoA41bVm4BcIgAAIgAAIgAAIGEgA4tTASkeRQQAEQAAEQAAEQEBXApYq3nR1riG/xN2KioqGDmEfCIAACIAACIAACIBAKxEICgqmoCBLi+cWcOK0xQnAIAiAAAiAAAiAAAiAgDYEcFtfm6qAIyAAAiAAAiAAAiAAAhCnaAMgAAIgAAIgAAIgAALaEIA41aYq4AgIgAAIgAAIgAAIgADEKdoACIAACIAACIAACICANgQgTrWpCjgCAiAAAiAAAiAAAiAAcYo2AAIgAAIgAAIgAAIgoA2B/wcEk6p5A/JZDQAAAABJRU5ErkJggg==;imageBackground=none;fontFamily=Roboto;fontSource=https%3A%2F%2Ffonts.googleapis.com%2Fcss%3Ffamily%3DRoboto;" vertex="1" parent="1">
          <mxGeometry x="170" y="-120" width="370.5" height="360.13" as="geometry" />
        </mxCell>
        <mxCell id="77X5BeHpb_cjv6Mi0YxQ-9" value="" style="rounded=0;whiteSpace=wrap;html=1;fillColor=#d5e8d4;strokeColor=#FFFFFF;fontFamily=Roboto;fontSource=https%3A%2F%2Ffonts.googleapis.com%2Fcss%3Ffamily%3DRoboto;" vertex="1" parent="1">
          <mxGeometry x="150" y="490" width="330" height="160" as="geometry" />
        </mxCell>
        <mxCell id="Zbt6cqV4j28F3bThQB-k-17" style="edgeStyle=orthogonalEdgeStyle;rounded=0;orthogonalLoop=1;jettySize=auto;html=1;entryX=0.5;entryY=0;entryDx=0;entryDy=0;startArrow=classic;startFill=1;endArrow=none;endFill=0;startSize=1;endSize=1;strokeColor=#999999;" edge="1" parent="1" source="77X5BeHpb_cjv6Mi0YxQ-14" target="tatDl9Yjze7Q0I7nDFEt-4">
          <mxGeometry relative="1" as="geometry">
            <Array as="points">
              <mxPoint x="200" y="528" />
              <mxPoint x="545" y="528" />
            </Array>
          </mxGeometry>
        </mxCell>
        <mxCell id="Zbt6cqV4j28F3bThQB-k-18" style="edgeStyle=orthogonalEdgeStyle;rounded=0;orthogonalLoop=1;jettySize=auto;html=1;entryX=0.5;entryY=1;entryDx=0;entryDy=0;endArrow=none;endFill=0;dashed=1;strokeColor=#999999;" edge="1" parent="1" source="77X5BeHpb_cjv6Mi0YxQ-14" target="tatDl9Yjze7Q0I7nDFEt-4">
          <mxGeometry relative="1" as="geometry">
            <Array as="points">
              <mxPoint x="200" y="603" />
              <mxPoint x="545" y="603" />
            </Array>
          </mxGeometry>
        </mxCell>
        <mxCell id="77X5BeHpb_cjv6Mi0YxQ-14" value="" style="whiteSpace=wrap;html=1;fillColor=default;strokeColor=none;fontFamily=Roboto;fontSource=https%3A%2F%2Ffonts.googleapis.com%2Fcss%3Ffamily%3DRoboto;" vertex="1" parent="1">
          <mxGeometry x="160" y="547.5" width="80" height="42.5" as="geometry" />
        </mxCell>
        <mxCell id="Zbt6cqV4j28F3bThQB-k-14" style="rounded=0;orthogonalLoop=1;jettySize=auto;html=1;endArrow=classic;endFill=1;startArrow=classic;startFill=1;endSize=1;startSize=1;strokeColor=#999999;" edge="1" parent="1" source="77X5BeHpb_cjv6Mi0YxQ-8" target="Zbt6cqV4j28F3bThQB-k-13">
          <mxGeometry relative="1" as="geometry" />
        </mxCell>
        <mxCell id="77X5BeHpb_cjv6Mi0YxQ-8" value="Cloud &#xa;Functions" style="shape=image;verticalLabelPosition=middle;labelBackgroundColor=none;verticalAlign=middle;aspect=fixed;imageAspect=0;image=https://static-00.iconduck.com/assets.00/google-cloud-functions-icon-2048x1840-djacjt6e.png;labelPosition=right;align=left;fontSize=7;fontFamily=Roboto;fontSource=https%3A%2F%2Ffonts.googleapis.com%2Fcss%3Ffamily%3DRoboto;spacingRight=1;spacing=5;" vertex="1" parent="1">
          <mxGeometry x="170" y="559.49" width="17.84" height="16.02" as="geometry" />
        </mxCell>
        <mxCell id="77X5BeHpb_cjv6Mi0YxQ-11" value="VPC Network" style="shape=image;verticalLabelPosition=middle;labelBackgroundColor=none;verticalAlign=middle;aspect=fixed;imageAspect=0;image=https://help.sumologic.com/img/integrations/google/vpc.png;fontSize=5;strokeWidth=3;labelPosition=right;align=left;spacing=5;fontFamily=Roboto;fontSource=https%3A%2F%2Ffonts.googleapis.com%2Fcss%3Ffamily%3DRoboto;" vertex="1" parent="1">
          <mxGeometry x="320" y="430" width="20" height="20" as="geometry" />
        </mxCell>
        <mxCell id="77X5BeHpb_cjv6Mi0YxQ-23" style="rounded=0;orthogonalLoop=1;jettySize=auto;html=1;startArrow=classic;startFill=1;strokeWidth=1;endSize=1;startSize=1;strokeColor=#999999;fontFamily=Roboto;fontSource=https%3A%2F%2Ffonts.googleapis.com%2Fcss%3Ffamily%3DRoboto;" edge="1" parent="1" source="77X5BeHpb_cjv6Mi0YxQ-20" target="77X5BeHpb_cjv6Mi0YxQ-14">
          <mxGeometry relative="1" as="geometry" />
        </mxCell>
        <mxCell id="77X5BeHpb_cjv6Mi0YxQ-20" value="" style="whiteSpace=wrap;html=1;strokeColor=none;fontFamily=Roboto;fontSource=https%3A%2F%2Ffonts.googleapis.com%2Fcss%3Ffamily%3DRoboto;" vertex="1" parent="1">
          <mxGeometry x="329" y="546.25" width="90" height="42.5" as="geometry" />
        </mxCell>
        <mxCell id="77X5BeHpb_cjv6Mi0YxQ-29" style="edgeStyle=orthogonalEdgeStyle;rounded=0;orthogonalLoop=1;jettySize=auto;html=1;entryX=0;entryY=0.5;entryDx=0;entryDy=0;endArrow=none;endFill=0;dashed=1;strokeColor=#999999;" edge="1" parent="1" source="77X5BeHpb_cjv6Mi0YxQ-17" target="77X5BeHpb_cjv6Mi0YxQ-28">
          <mxGeometry relative="1" as="geometry" />
        </mxCell>
        <mxCell id="77X5BeHpb_cjv6Mi0YxQ-17" value="Serverless VPC&lt;div style=&quot;font-size: 7px;&quot;&gt;Access Connector&lt;/div&gt;" style="text;html=1;align=center;verticalAlign=middle;resizable=0;points=[];autosize=1;strokeColor=none;fillColor=none;fontFamily=Roboto;fontSource=https%3A%2F%2Ffonts.googleapis.com%2Fcss%3Ffamily%3DRoboto;fontSize=7;labelBackgroundColor=none;fontStyle=0;labelBorderColor=none;" vertex="1" parent="1">
          <mxGeometry x="334" y="542.5" width="80" height="30" as="geometry" />
        </mxCell>
        <mxCell id="77X5BeHpb_cjv6Mi0YxQ-21" value="&lt;font style=&quot;font-size: 7px;&quot; data-font-src=&quot;https://fonts.googleapis.com/css?family=Roboto&quot;&gt;10.8.0.0/28&lt;/font&gt;" style="text;html=1;align=center;verticalAlign=middle;resizable=0;points=[];autosize=1;strokeColor=none;fillColor=none;spacing=-9;fontColor=#999999;fontFamily=Roboto;fontSource=https%3A%2F%2Ffonts.googleapis.com%2Fcss%3Ffamily%3DRoboto;" vertex="1" parent="1">
          <mxGeometry x="354" y="573.75" width="40" height="10" as="geometry" />
        </mxCell>
        <mxCell id="77X5BeHpb_cjv6Mi0YxQ-25" value="&lt;font data-font-src=&quot;https://fonts.googleapis.com/css?family=Roboto&quot; style=&quot;font-size: 5px;&quot; color=&quot;#999999&quot;&gt;Region: europe-west2&lt;/font&gt;" style="text;html=1;align=center;verticalAlign=middle;resizable=0;points=[];autosize=1;strokeColor=none;fillColor=none;spacing=-7;spacingLeft=4;fontFamily=Roboto;fontSource=https%3A%2F%2Ffonts.googleapis.com%2Fcss%3Ffamily%3DRoboto;spacingBottom=8;" vertex="1" parent="1">
          <mxGeometry x="495" y="630" width="60" height="20" as="geometry" />
        </mxCell>
        <mxCell id="77X5BeHpb_cjv6Mi0YxQ-28" value="" style="whiteSpace=wrap;html=1;strokeColor=none;" vertex="1" parent="1">
          <mxGeometry x="414" y="451.89" width="74" height="23.75" as="geometry" />
        </mxCell>
        <mxCell id="77X5BeHpb_cjv6Mi0YxQ-27" value="&lt;font style=&quot;font-size: 7px;&quot;&gt;VPC Routing&lt;/font&gt;" style="html=1;verticalAlign=middle;labelPosition=right;verticalLabelPosition=middle;align=left;spacingTop=-6;fontSize=11;fontStyle=0;fontColor=#999999;shape=image;aspect=fixed;imageAspect=0;image=data:image/svg+xml,PHN2ZyB4bWxucz0iaHR0cDovL3d3dy53My5vcmcvMjAwMC9zdmciIHhtbG5zOnY9Imh0dHBzOi8vdmVjdGEuaW8vbmFubyIgd2lkdGg9IjIwIiBoZWlnaHQ9IjIwIiB2aWV3Qm94PSIwIDAgMjAgMjAiPiYjeGE7CTxzdHlsZSB0eXBlPSJ0ZXh0L2NzcyI+JiN4YTsJLnN0MHtmaWxsOiM0Mjg1ZjQ7fSYjeGE7CTwvc3R5bGU+JiN4YTsJPHBhdGggY2xhc3M9InN0MCIgZD0iTTE3IDEydjNsLTUtNSA1LTV2M2gzdjR6TTMgOEgwdjRoM3YzbDUtNS01LTV6bTkgN3YtM0g4djNINWw1IDUgNS01em0wLTEwdjNIOFY1SDVsNS01IDUgNXoiLz4mI3hhOzwvc3ZnPg==;fontFamily=Roboto;fontSource=https%3A%2F%2Ffonts.googleapis.com%2Fcss%3Ffamily%3DRoboto;" vertex="1" parent="1">
          <mxGeometry x="424.75" y="457.51" width="12.5" height="12.5" as="geometry" />
        </mxCell>
        <mxCell id="Zbt6cqV4j28F3bThQB-k-2" value="&lt;font data-font-src=&quot;https://fonts.googleapis.com/css?family=Roboto&quot; style=&quot;font-size: 5px;&quot; color=&quot;#999999&quot;&gt;Region: europe-west2&lt;/font&gt;" style="text;html=1;align=center;verticalAlign=middle;resizable=0;points=[];autosize=1;strokeColor=none;fillColor=none;spacing=-7;spacingLeft=4;fontFamily=Roboto;fontSource=https%3A%2F%2Ffonts.googleapis.com%2Fcss%3Ffamily%3DRoboto;spacingBottom=8;" vertex="1" parent="1">
          <mxGeometry x="150" y="630" width="60" height="20" as="geometry" />
        </mxCell>
        <mxCell id="Zbt6cqV4j28F3bThQB-k-3" value="Central Project" style="text;html=1;align=center;verticalAlign=middle;resizable=0;points=[];autosize=1;strokeColor=none;fillColor=none;fontSize=7;fontStyle=0;fontFamily=Roboto;fontSource=https%3A%2F%2Ffonts.googleapis.com%2Fcss%3Ffamily%3DRoboto;fontColor=#999999;" vertex="1" parent="1">
          <mxGeometry x="145" y="488.75" width="70" height="20" as="geometry" />
        </mxCell>
        <mxCell id="Zbt6cqV4j28F3bThQB-k-6" value="" style="whiteSpace=wrap;html=1;fillColor=default;strokeColor=none;" vertex="1" parent="1">
          <mxGeometry x="417" y="670" width="71" height="30" as="geometry" />
        </mxCell>
        <mxCell id="Zbt6cqV4j28F3bThQB-k-5" value="IAM Roles" style="editableCssRules=.*;html=1;shape=image;verticalLabelPosition=middle;labelBackgroundColor=#ffffff;verticalAlign=middle;aspect=fixed;imageAspect=0;image=data:image/svg+xml,PHN2ZyB4bWxucz0iaHR0cDovL3d3dy53My5vcmcvMjAwMC9zdmciIHhtbG5zOnY9Imh0dHBzOi8vdmVjdGEuaW8vbmFubyIgd2lkdGg9IjE2LjQyMDAwMDA3NjI5Mzk0NSIgaGVpZ2h0PSIyMC4wNDk5OTkyMzcwNjA1NDciIGZpbGwtcnVsZT0iZXZlbm9kZCIgdmlld0JveD0iMCAwIDE2LjQyMDAwMDA3NjI5Mzk0NSAyMC4wNDk5OTkyMzcwNjA1NDciPiYjeGE7CTxzdHlsZSB0eXBlPSJ0ZXh0L2NzcyI+JiN4YTsJLnN0MHtmaWxsOiM0Mjg1ZjQ7fSYjeGE7CS5zdDF7ZmlsbDojNjY5ZGY2O30mI3hhOwk8L3N0eWxlPiYjeGE7CTxwYXRoIGNsYXNzPSJzdDEiIGQ9Ik04LjIxIDBMMCAzLjQydjUuNjNjMCA1LjA2IDMuNSA5LjggOC4yMSAxMSA0LjcxLTEuMTUgOC4yMS01Ljg5IDguMjEtMTAuOTVWMy40MnptMCAzLjc5YTIuNjMgMi42MyAwIDAgMSAxLjAwNSA1LjA2QTIuNjMgMi42MyAwIDAgMSA2LjM1IDQuNTZhMi42MyAyLjYzIDAgMCAxIDEuODYtLjc3em00LjExIDExLjE1YTguNjQgOC42NCAwIDAgMS00LjExIDIuOTMgOC42NCA4LjY0IDAgMCAxLTQuMTEtMi45M3YtMi4yNWMwLTEuNjcgMi43NC0yLjUyIDQuMTEtMi41MnM0LjExLjg1IDQuMTEgMi41MnoiLz4mI3hhOwk8cGF0aCBjbGFzcz0ic3QwIiBkPSJNOC4yMSAwdjMuNzlhMi42MyAyLjYzIDAgMSAxIDAgNS4yNnYxLjEyYzEuMzcgMCA0LjExLjg1IDQuMTEgMi41MnYyLjI1YTguNjQgOC42NCAwIDAgMS00LjExIDIuOTNWMjBjNC43MS0xLjE1IDguMjEtNS44OSA4LjIxLTEwLjk1VjMuNDJ6Ii8+JiN4YTs8L3N2Zz4=;fontFamily=Roboto;fontSource=https%3A%2F%2Ffonts.googleapis.com%2Fcss%3Ffamily%3DRoboto;fontSize=7;labelPosition=right;align=left;fontColor=#999999;" vertex="1" parent="1">
          <mxGeometry x="426.25" y="675" width="16" height="20" as="geometry" />
        </mxCell>
        <mxCell id="Zbt6cqV4j28F3bThQB-k-7" style="edgeStyle=orthogonalEdgeStyle;rounded=0;orthogonalLoop=1;jettySize=auto;html=1;entryX=0.822;entryY=1.005;entryDx=0;entryDy=0;entryPerimeter=0;endArrow=none;endFill=0;strokeColor=#999999;dashed=1;" edge="1" parent="1" source="Zbt6cqV4j28F3bThQB-k-6" target="77X5BeHpb_cjv6Mi0YxQ-25">
          <mxGeometry relative="1" as="geometry" />
        </mxCell>
        <mxCell id="Zbt6cqV4j28F3bThQB-k-8" style="edgeStyle=orthogonalEdgeStyle;rounded=0;orthogonalLoop=1;jettySize=auto;html=1;exitX=0;exitY=0.5;exitDx=0;exitDy=0;entryX=0.6;entryY=1.011;entryDx=0;entryDy=0;entryPerimeter=0;endArrow=none;endFill=0;strokeColor=#999999;dashed=1;" edge="1" parent="1" source="Zbt6cqV4j28F3bThQB-k-6" target="77X5BeHpb_cjv6Mi0YxQ-9">
          <mxGeometry relative="1" as="geometry" />
        </mxCell>
        <mxCell id="Zbt6cqV4j28F3bThQB-k-15" style="edgeStyle=orthogonalEdgeStyle;rounded=0;orthogonalLoop=1;jettySize=auto;html=1;strokeColor=#999999;endSize=1;startSize=1;startArrow=classic;startFill=1;" edge="1" parent="1" source="Zbt6cqV4j28F3bThQB-k-13" target="tatDl9Yjze7Q0I7nDFEt-6">
          <mxGeometry relative="1" as="geometry" />
        </mxCell>
        <mxCell id="Zbt6cqV4j28F3bThQB-k-13" value="" style="editableCssRules=.*;html=1;shape=image;verticalLabelPosition=bottom;labelBackgroundColor=#ffffff;verticalAlign=top;aspect=fixed;imageAspect=0;image=data:image/svg+xml,PHN2ZyB4bWxucz0iaHR0cDovL3d3dy53My5vcmcvMjAwMC9zdmciIHhtbG5zOnY9Imh0dHBzOi8vdmVjdGEuaW8vbmFubyIgd2lkdGg9IjIwIiBoZWlnaHQ9IjIwIiBmaWxsPSIjNDI4NWY0IiB2aWV3Qm94PSIwIDAgMjAgMjAiPiYjeGE7CTxzdHlsZSB0eXBlPSJ0ZXh0L2NzcyI+JiN4YTsJLnN0MHtmaWxsOiM0Mjg1ZjQ7fSYjeGE7CTwvc3R5bGU+JiN4YTsJPHBhdGggY2xhc3M9InN0MCIgZD0iTTAgMGg4Ljg5djIuMjJIMHptMCAxNy43OGg4Ljg5VjIwSDB6bTAtOC44OWg4Ljg5djIuMjJIMHpNMTEuMTEgMEgyMHYyLjIyaC04Ljg5em0wIDE3Ljc4SDIwVjIwaC04Ljg5em0wLTguODlIMjB2Mi4yMmgtOC44OXpNNS41NSA0LjQ0aDguODl2Mi4yMkg1LjU1em0wIDguODloOC44OXYyLjIySDUuNTV6TTAgNC40NGgzLjMzdjIuMjJIMHptMCA4Ljg5aDMuMzN2Mi4yMkgwem0xNi42Ny04Ljg5SDIwdjIuMjJoLTMuMzN6bTAgOC44OUgyMHYyLjIyaC0zLjMzeiIvPiYjeGE7PC9zdmc+;" vertex="1" parent="1">
          <mxGeometry x="100" y="552.5" width="30" height="30" as="geometry" />
        </mxCell>
        <mxCell id="Zbt6cqV4j28F3bThQB-k-20" value="HTTP Request" style="text;html=1;align=center;verticalAlign=middle;resizable=0;points=[];autosize=1;strokeColor=none;fillColor=none;fontSize=7;fontFamily=Roboto;fontSource=https%3A%2F%2Ffonts.googleapis.com%2Fcss%3Ffamily%3DRoboto;fontColor=#999999;" vertex="1" parent="1">
          <mxGeometry x="255" y="512.5" width="70" height="20" as="geometry" />
        </mxCell>
        <mxCell id="Zbt6cqV4j28F3bThQB-k-21" value="Response from Cloud Function" style="text;html=1;align=center;verticalAlign=middle;resizable=0;points=[];autosize=1;strokeColor=none;fillColor=none;fontSize=7;fontFamily=Roboto;fontSource=https%3A%2F%2Ffonts.googleapis.com%2Fcss%3Ffamily%3DRoboto;fontColor=#999999;" vertex="1" parent="1">
          <mxGeometry x="225" y="597.5" width="120" height="20" as="geometry" />
        </mxCell>
      </root>
    </mxGraphModel>
  </diagram>
</mxfile>
